<?xml version="1.0" encoding="UTF-8" standalone="no"?>
<!DOCTYPE svg PUBLIC "-//W3C//DTD SVG 1.1//EN" "http://www.w3.org/Graphics/SVG/1.1/DTD/svg11.dtd">
<svg width="100%" height="100%" viewBox="0 0 40 40" version="1.1" xmlns="http://www.w3.org/2000/svg" xmlns:xlink="http://www.w3.org/1999/xlink" xml:space="preserve" xmlns:serif="http://www.serif.com/" style="fill-rule:evenodd;clip-rule:evenodd;stroke-linejoin:round;stroke-miterlimit:2;">
    <g transform="matrix(0.0762413,0,0,0.0762413,19.9954,20)">
        <g id="ticket.svg" transform="matrix(1,0,0,1,-256,-256)">
            <path d="M490.18,181.4L446.05,137.27C438.708,130.027 426.907,129.59 419.05,136.27C406.918,146.597 388.675,145.896 377.37,134.67C366.15,123.366 365.449,105.131 375.77,93C382.45,85.143 382.013,73.342 374.77,66L330.6,21.82C322.88,14.114 310.19,14.114 302.47,21.82L232.12,92.16C227.777,96.519 224.501,101.824 222.55,107.66C221.78,109.933 219.993,111.72 217.72,112.49C211.882,114.441 206.576,117.721 202.22,122.07L21.82,302.47C14.114,310.19 14.114,322.88 21.82,330.6L66,374.73C73.342,381.973 85.143,382.41 93,375.73C98.566,370.942 105.67,368.307 113.013,368.307C129.849,368.307 143.703,382.161 143.703,398.997C143.703,406.34 141.068,413.444 136.28,419.01C129.6,426.867 130.037,438.668 137.28,446.01L181.41,490.14C189.13,497.846 201.82,497.846 209.54,490.14L389.94,309.74C394.287,305.386 397.566,300.084 399.52,294.25C400.286,291.97 402.08,290.176 404.36,289.41C410.193,287.459 415.495,284.183 419.85,279.84L490.19,209.49C497.867,201.771 497.862,189.113 490.18,181.4ZM261.81,151.75C258.81,154.75 254.737,156.438 250.495,156.438C246.253,156.438 242.18,154.75 239.18,151.75L227.67,140.24C224.773,137.255 223.15,133.255 223.15,129.095C223.15,120.318 230.373,113.095 239.15,113.095C243.313,113.095 247.315,114.72 250.3,117.62L261.81,129.12C264.81,132.12 266.498,136.193 266.498,140.435C266.498,144.677 264.81,148.75 261.81,151.75ZM305.81,195.75C299.604,201.952 289.396,201.952 283.19,195.75L272.19,184.75C269.19,181.75 267.503,177.677 267.503,173.435C267.503,164.657 274.727,157.433 283.505,157.433C287.747,157.433 291.82,159.12 294.82,162.12L305.82,173.12C308.832,176.121 310.528,180.203 310.528,184.455C310.528,188.702 308.836,192.78 305.83,195.78L305.81,195.75ZM349.81,239.75C346.81,242.75 342.737,244.438 338.495,244.438C334.253,244.438 330.18,242.75 327.18,239.75L316.18,228.75C313.283,225.765 311.66,221.765 311.66,217.605C311.66,208.828 318.883,201.605 327.66,201.605C331.823,201.605 335.825,203.23 338.81,206.13L349.81,217.13C352.838,220.133 354.543,224.225 354.543,228.49C354.543,232.73 352.857,236.801 349.86,239.8L349.81,239.75ZM394.24,284.29C391.24,287.29 387.167,288.978 382.925,288.978C378.683,288.978 374.61,287.29 371.61,284.29L360.17,272.79C357.087,269.78 355.347,265.65 355.347,261.342C355.347,252.564 362.57,245.342 371.347,245.342C375.682,245.342 379.837,247.103 382.85,250.22L394.3,261.71C397.297,264.709 398.983,268.78 398.983,273.02C398.983,277.265 397.293,281.34 394.29,284.34L394.24,284.29Z" style="fill-rule:nonzero;"/>
        </g>
        <g id="ticket.svg1" serif:id="ticket.svg">
        </g>
    </g>
</svg>
