<?xml version="1.0" encoding="UTF-8" standalone="no"?>
<!DOCTYPE svg PUBLIC "-//W3C//DTD SVG 1.1//EN" "http://www.w3.org/Graphics/SVG/1.1/DTD/svg11.dtd">
<svg width="100%" height="100%" viewBox="0 0 40 40" version="1.1" xmlns="http://www.w3.org/2000/svg" xmlns:xlink="http://www.w3.org/1999/xlink" xml:space="preserve" xmlns:serif="http://www.serif.com/" style="fill-rule:evenodd;clip-rule:evenodd;stroke-linejoin:round;stroke-miterlimit:2;">
    <g transform="matrix(0.0726563,0,0,0.0726563,20,20)">
        <g id="calculator.svg" transform="matrix(1,0,0,1,-256,-256)">
            <path d="M416,80C415.973,53.678 394.322,32.027 368,32L144,32C117.678,32.027 96.027,53.678 96,80L96,432C96.027,458.322 117.678,479.973 144,480L368,480C394.322,479.973 415.973,458.322 416,432L416,80ZM168,432C154.834,432 144,421.166 144,408C144,394.834 154.834,384 168,384C181.166,384 192,394.834 192,408C192,421.166 181.166,432 168,432ZM168,352C154.834,352 144,341.166 144,328C144,314.834 154.834,304 168,304C181.166,304 192,314.834 192,328C192,341.166 181.166,352 168,352ZM168,272C154.834,272 144,261.166 144,248C144,234.834 154.834,224 168,224C181.166,224 192,234.834 192,248C192,261.166 181.166,272 168,272ZM256,432C242.834,432 232,421.166 232,408C232,394.834 242.834,384 256,384C269.166,384 280,394.834 280,408C280,421.166 269.166,432 256,432ZM256,352C242.834,352 232,341.166 232,328C232,314.834 242.834,304 256,304C269.166,304 280,314.834 280,328C280,341.166 269.166,352 256,352ZM256,272C242.834,272 232,261.166 232,248C232,234.834 242.834,224 256,224C269.166,224 280,234.834 280,248C280,261.166 269.166,272 256,272ZM368,408C368,421.166 357.166,432 344,432C330.834,432 320,421.166 320,408L320,328C320,314.834 330.834,304 344,304C357.166,304 368,314.834 368,328L368,408ZM344,272C330.834,272 320,261.166 320,248C320,234.834 330.834,224 344,224C357.166,224 368,234.834 368,248C368,261.166 357.166,272 344,272ZM363.31,171.31C360.312,174.31 356.241,175.998 352,176L160,176C151.223,176 144,168.777 144,160L144,96C144,87.223 151.223,80 160,80L352,80C360.777,80 368,87.223 368,96L368,160C367.998,164.241 366.31,168.312 363.31,171.31Z" style="fill-rule:nonzero;"/>
        </g>
        <g id="calculator.svg1" serif:id="calculator.svg">
        </g>
    </g>
</svg>
