<?xml version="1.0" encoding="UTF-8" standalone="no"?>
<!DOCTYPE svg PUBLIC "-//W3C//DTD SVG 1.1//EN" "http://www.w3.org/Graphics/SVG/1.1/DTD/svg11.dtd">
<svg width="100%" height="100%" viewBox="0 0 40 40" version="1.1" xmlns="http://www.w3.org/2000/svg" xmlns:xlink="http://www.w3.org/1999/xlink" xml:space="preserve" xmlns:serif="http://www.serif.com/" style="fill-rule:evenodd;clip-rule:evenodd;stroke-linejoin:round;stroke-miterlimit:2;">
    <g transform="matrix(0.0726563,0,0,0.0726563,20,20)">
        <g id="fast-food.svg" transform="matrix(1,0,0,1,-256,-256)">
            <path d="M368,128L368.09,128M479.55,96L388.49,96L397.41,60.34L435.73,47.29C443.88,44.52 448.73,35.86 446.38,27.58C444.417,20.741 438.116,15.995 431.001,15.995C429.245,15.995 427.502,16.284 425.84,16.85L378.84,32.85C373.702,34.602 369.794,38.853 368.48,44.12L355.51,96L224.45,96C215.84,96 208.45,102.62 208.02,111.23C208.008,111.486 208.001,111.743 208.001,112C208.001,120.777 215.223,127.999 224,128L226.75,128L227.75,136.66C228.235,140.826 231.806,144.003 236,144C275,144 309.66,154.9 336.12,175.52C350.837,186.859 362.768,201.415 371,218.07C375.608,227.439 379.009,237.355 381.12,247.58C381.54,249.572 382.721,251.323 384.41,252.46C412.337,271.409 423.376,307.575 410.79,338.89C410.077,340.655 410.024,342.619 410.64,344.42C414.183,354.572 415.995,365.248 416,376C416,398.34 408.4,419.63 394.6,435.95C386.776,445.264 376.934,452.675 365.82,457.62C363.898,458.467 362.385,460.038 361.61,461.99C357.457,472.809 351.592,482.891 344.24,491.85C343.861,492.301 343.653,492.871 343.653,493.46C343.653,494.827 344.773,495.953 346.14,495.96L395.35,495.96C420.193,495.858 441.098,476.574 443.2,451.82L477.4,128L480,128C480.006,128 480.012,128 480.019,128C488.796,128 496.019,120.777 496.019,112C496.019,111.743 496.012,111.486 496,111.23C495.58,102.62 488.16,96 479.55,96Z" style="fill-rule:nonzero;"/>
            <path d="M108.69,320C115.061,319.97 121.187,322.492 125.69,327L141.2,342.51C141.95,343.261 142.969,343.683 144.03,343.683C145.091,343.683 146.11,343.261 146.86,342.51L162.34,327C166.843,322.492 172.969,319.97 179.34,320L375.92,320C375.947,320 375.974,320 376,320C380.359,320 383.957,316.438 384,312.08L384,312C383.977,293.07 370.542,276.612 352,272.8C351.18,243.11 339,218.26 316.49,200.8C295.67,184.56 267.85,176 236,176L164,176C95.78,176 49.57,214.77 48,272.8C29.458,276.612 16.023,293.07 16,312C16,316.389 19.611,320 24,320L108.69,320ZM185.94,352C183.818,351.998 181.781,352.841 180.28,354.34L158.14,376.49C150.382,384.245 137.618,384.245 129.86,376.49L107.72,354.34C106.219,352.841 104.182,351.998 102.06,352L32.66,352C24.932,351.966 18.239,357.559 16.9,365.17C16.299,368.749 15.998,372.371 16,376C16,406.59 37.13,431.51 63.26,432C65.69,447.12 71.57,460.78 80.42,471.47C93.51,487.28 112.54,496 134,496L266,496C287.46,496 306.49,487.28 319.58,471.45C328.43,460.76 334.31,447.1 336.74,431.98C362.87,431.51 384,406.59 384,375.98C384.002,372.351 383.701,368.729 383.1,365.15C381.753,357.547 375.061,351.964 367.34,352L185.94,352Z" style="fill-rule:nonzero;"/>
        </g>
        <g id="fast-food.svg1" serif:id="fast-food.svg">
        </g>
    </g>
</svg>
