<svg fill="#000000" xmlns="http://www.w3.org/2000/svg"  viewBox="0 0 30 30" width="30px" height="30px"><path d="M 19.496094 3 A 2.5 2.5 0 0 0 19.496094 8 A 2.5 2.5 0 0 0 19.496094 3 z M 16.496094 9 A 2.5 2.5 0 0 0 15.21875 9.3535156 A 1.0001 1.0001 0 0 0 15.216797 9.3554688 L 9.5585938 12.099609 A 1.0001 1.0001 0 0 0 9.1015625 13.447266 L 11.101562 17.447266 A 1.0001167 1.0001167 0 1 0 12.890625 16.552734 L 12.869141 16.509766 L 11.705078 13.638672 L 14 13.148438 L 14 17.40625 A 2.5 2.5 0 0 0 14.064453 18.080078 L 11.539062 22.347656 L 5.5507812 25.099609 A 1.0001 1.0001 0 0 0 5.5253906 25.111328 L 5.5175781 25.115234 A 1.0001 1.0001 0 0 0 6.2714844 26.960938 L 12.847656 25.082031 C 13.258138 24.964968 13.615846 24.718154 13.875 24.384766 L 17.816406 20 L 21.5 20 L 22.976562 25.90625 L 23.003906 26.125 A 1.0001 1.0001 0 1 0 24.988281 25.875 L 23.988281 17.875 A 1.0001 1.0001 0 0 0 23.105469 17.007812 L 19 16.330078 L 19 11.5 L 18.992188 11.494141 A 2.5 2.5 0 0 0 16.496094 9 z"/></svg>