<?xml version="1.0" encoding="UTF-8" standalone="no"?>
<!DOCTYPE svg PUBLIC "-//W3C//DTD SVG 1.1//EN" "http://www.w3.org/Graphics/SVG/1.1/DTD/svg11.dtd">
<svg width="100%" height="100%" viewBox="0 0 40 40" version="1.1" xmlns="http://www.w3.org/2000/svg" xmlns:xlink="http://www.w3.org/1999/xlink" xml:space="preserve" xmlns:serif="http://www.serif.com/" style="fill-rule:evenodd;clip-rule:evenodd;stroke-linejoin:round;stroke-miterlimit:2;">
    <g transform="matrix(0.0726563,0,0,0.0726563,20,20)">
        <g id="build.svg" transform="matrix(1,0,0,1,-256,-256)">
            <path d="M469.54,120.52C466.803,115.196 461.297,111.837 455.311,111.837C451.07,111.837 446.999,113.522 444,116.52L382.56,178C376.325,184.145 366.165,184.145 359.93,178L333.37,151.4C330.37,148.4 328.682,144.327 328.682,140.085C328.682,135.843 330.37,131.77 333.37,128.77L394.55,67.58C397.55,64.581 399.237,60.508 399.237,56.266C399.237,49.968 395.519,44.231 389.77,41.66C343.56,21 285.88,31.78 249.51,67.88C218.61,98.56 209.4,146.5 224.26,199.41C225.891,205.155 224.152,211.353 219.77,215.41L53.29,367.46C39.741,379.625 31.991,396.999 31.991,415.208C31.991,450.411 60.958,479.378 96.161,479.378C114.36,479.378 131.726,471.636 143.89,458.1L297.57,291.25C301.567,286.927 307.651,285.164 313.34,286.68C328.403,290.807 343.942,292.949 359.56,293.05C392.96,293.05 422.27,282.24 443.41,261.41C482.56,222.84 488.53,157.42 469.54,120.52ZM99.48,447.15C98.327,447.276 97.168,447.339 96.008,447.339C78.453,447.339 64.008,432.894 64.008,415.339C64.008,397.784 78.453,383.339 96.008,383.339C113.562,383.339 128.008,397.784 128.008,415.339C128.008,416.495 127.945,417.651 127.82,418.8C126.202,433.676 114.355,445.526 99.48,447.15Z" style="fill-rule:nonzero;"/>
        </g>
        <g id="build.svg1" serif:id="build.svg">
        </g>
    </g>
</svg>
