<?xml version="1.0" encoding="UTF-8" standalone="no"?>
<!DOCTYPE svg PUBLIC "-//W3C//DTD SVG 1.1//EN" "http://www.w3.org/Graphics/SVG/1.1/DTD/svg11.dtd">
<svg width="100%" height="100%" viewBox="0 0 40 40" version="1.1" xmlns="http://www.w3.org/2000/svg" xmlns:xlink="http://www.w3.org/1999/xlink" xml:space="preserve" xmlns:serif="http://www.serif.com/" style="fill-rule:evenodd;clip-rule:evenodd;stroke-linejoin:round;stroke-miterlimit:2;">
    <g transform="matrix(0.0725591,0,0,0.0725591,20,20)">
        <g id="pizza.svg" transform="matrix(1,0,0,1,-256,-256)">
            <path d="M441.82,67.83C383.44,44.73 317.3,32 255.56,32C192,32 125.76,44.53 69,67.26C48.7,75.49 45.21,90 48.71,100.82L52.78,111C55.207,117.058 61.107,121.051 67.633,121.051C69.856,121.051 72.056,120.587 74.09,119.69C84.89,114.93 98.02,109.15 101.09,107.91C145.1,89.64 198.71,80 256,80C313.47,80 364.09,89.24 410.76,108.25C415.18,110.05 425.64,114.67 436.93,119.71C438.983,120.627 441.207,121.101 443.455,121.101C449.954,121.101 455.835,117.142 458.28,111.12L462,102L462.34,101.1C465.79,90.89 462.48,76.05 441.82,67.83Z" style="fill-rule:nonzero;"/>
            <path d="M409.18,140.86C363.67,122.53 307.68,112 255.56,112C202.968,112.035 150.837,121.831 101.82,140.89C101.29,141.1 99.76,141.77 97.53,142.77C91.787,145.344 88.074,151.077 88.074,157.371C88.074,159.673 88.57,161.948 89.53,164.04C93.53,172.75 98.95,184.62 105.03,197.93C137.94,270 199.21,404 227.26,462C232.554,473.025 243.77,480.049 256,480C268.252,480.048 279.482,472.997 284.76,461.94L284.82,461.81L422.12,164.24C423.104,162.13 423.614,159.83 423.614,157.502C423.614,151.082 419.735,145.261 413.81,142.79C411.55,141.84 409.96,141.18 409.31,140.92L409.18,140.86ZM194.08,223.93C193.387,223.975 192.692,223.998 191.998,223.998C174.443,223.998 159.998,209.552 159.998,191.998C159.998,174.443 174.443,159.998 191.998,159.998C209.552,159.998 223.998,174.443 223.998,191.998C223.998,192.692 223.975,193.387 223.93,194.08C222.889,210.038 210.038,222.889 194.08,223.93ZM258.08,351.93C257.387,351.975 256.692,351.998 255.998,351.998C238.443,351.998 223.998,337.552 223.998,319.998C223.998,302.443 238.443,287.998 255.998,287.998C273.552,287.998 287.998,302.443 287.998,319.998C287.998,320.692 287.975,321.387 287.93,322.08C286.889,338.038 274.038,350.889 258.08,351.93ZM322.08,239.93C321.387,239.975 320.692,239.998 319.998,239.998C302.443,239.998 287.998,225.552 287.998,207.998C287.998,190.443 302.443,175.998 319.998,175.998C337.552,175.998 351.998,190.443 351.998,207.998C351.998,208.692 351.975,209.387 351.93,210.08C350.889,226.038 338.038,238.889 322.08,239.93Z" style="fill-rule:nonzero;"/>
        </g>
        <g id="pizza.svg1" serif:id="pizza.svg">
        </g>
    </g>
</svg>
