<?xml version="1.0" encoding="UTF-8" standalone="no"?>
<!DOCTYPE svg PUBLIC "-//W3C//DTD SVG 1.1//EN" "http://www.w3.org/Graphics/SVG/1.1/DTD/svg11.dtd">
<svg width="100%" height="100%" viewBox="0 0 40 40" version="1.1" xmlns="http://www.w3.org/2000/svg" xmlns:xlink="http://www.w3.org/1999/xlink" xml:space="preserve" xmlns:serif="http://www.serif.com/" style="fill-rule:evenodd;clip-rule:evenodd;stroke-linejoin:round;stroke-miterlimit:2;">
    <g transform="matrix(0.0726563,0,0,0.0726563,20,20)">
        <g id="folder.svg" transform="matrix(1,0,0,1,-256,-256)">
            <path d="M496,152C496,121.279 470.721,96 440,96L220.11,96C215.376,96.015 210.742,94.623 206.8,92L179,73.41C169.795,67.255 158.963,63.978 147.89,64L72,64C41.279,64 16,89.279 16,120L16,168C16,172.389 19.611,176 24,176L488,176C492.389,176 496,172.389 496,168L496,152ZM16,392C16,422.721 41.279,448 72,448L440,448C470.721,448 496,422.721 496,392L496,216C496,211.611 492.389,208 488,208L24,208C19.611,208 16,211.611 16,216L16,392Z" style="fill-rule:nonzero;"/>
        </g>
        <g id="folder.svg1" serif:id="folder.svg">
        </g>
    </g>
</svg>
