<?xml version="1.0" encoding="UTF-8" standalone="no"?>
<!DOCTYPE svg PUBLIC "-//W3C//DTD SVG 1.1//EN" "http://www.w3.org/Graphics/SVG/1.1/DTD/svg11.dtd">
<svg width="100%" height="100%" viewBox="0 0 40 40" version="1.1" xmlns="http://www.w3.org/2000/svg" xmlns:xlink="http://www.w3.org/1999/xlink" xml:space="preserve" xmlns:serif="http://www.serif.com/" style="fill-rule:evenodd;clip-rule:evenodd;stroke-linejoin:round;stroke-miterlimit:2;">
    <g transform="matrix(0.0726563,0,0,0.0726563,20,20)">
        <g id="at-circle.svg" transform="matrix(1,0,0,1,-256,-256)">
            <path d="M255.46,48.74C140.62,48.74 47.46,141.85 47.46,256.74C47.46,371.63 140.58,464.74 255.46,464.74C370.34,464.74 463.46,371.62 463.46,256.74C463.46,141.86 370.31,48.74 255.46,48.74ZM380.28,252C377.43,284.63 363.49,301.7 352.28,310.26C341.07,318.82 327.61,322.58 316,320.5C305.138,318.555 295.483,312.367 289.18,303.31C277.418,314.751 261.587,321.072 245.18,320.88C230.532,320.992 216.506,314.869 206.63,304.05C195.25,291.63 189.63,273.69 191.31,254.82C194.31,219.82 222.22,197.43 248.18,193.34C275.38,189.05 300.41,199.88 311.08,212.8L314.93,217.46L308.59,267.84C307.4,282.18 311.87,291.32 320.88,292.94C323.27,293.36 328.98,292.81 335.25,288.01C341.97,282.86 350.39,272.01 352.35,249.54C354.7,223 348,200.35 333.1,184.05C317.61,167.15 294.01,158.21 264.87,158.21C210.87,158.21 163.06,202.64 158.29,257.21C156.01,283.41 163.96,307.89 180.69,326.14C197.05,344 220,353.88 245.35,353.88C264.35,353.88 275.96,351.83 294.83,345.1C296.339,344.562 297.928,344.288 299.53,344.288C307.211,344.288 313.532,350.609 313.532,358.29C313.532,364.197 309.794,369.497 304.23,371.48C282.41,379.25 267.55,381.88 245.35,381.88C212.07,381.88 181.78,368.82 160.05,345.11C138,321 127.42,288.94 130.4,254.82C133.31,221.49 148.85,190.19 174.17,166.7C199.49,143.21 231.74,130.21 264.87,130.21C302.07,130.21 332.8,142.29 353.74,165.14C373.83,187.05 383.25,217.89 380.28,252Z" style="fill-rule:nonzero;"/>
            <path d="M252.57,221C237.74,223.33 221.01,236.84 219.23,257.26C218.23,268.32 221.23,278.48 227.3,285.13C231.874,290.168 238.406,292.995 245.21,292.88C265.52,292.88 279.94,277.94 281.96,254.82C282.021,254.122 282.135,253.431 282.3,252.75L285.5,227.3C275.589,221.443 263.943,219.215 252.57,221Z" style="fill-rule:nonzero;"/>
        </g>
        <g id="at-circle.svg1" serif:id="at-circle.svg">
        </g>
    </g>
</svg>
