<?xml version="1.0" encoding="UTF-8" standalone="no"?>
<!DOCTYPE svg PUBLIC "-//W3C//DTD SVG 1.1//EN" "http://www.w3.org/Graphics/SVG/1.1/DTD/svg11.dtd">
<svg width="100%" height="100%" viewBox="0 0 40 40" version="1.1" xmlns="http://www.w3.org/2000/svg" xmlns:xlink="http://www.w3.org/1999/xlink" xml:space="preserve" xmlns:serif="http://www.serif.com/" style="fill-rule:evenodd;clip-rule:evenodd;stroke-linejoin:round;stroke-miterlimit:2;">
    <g transform="matrix(0.0726563,0,0,0.0726563,20,20)">
        <g id="car.svg" transform="matrix(1,0,0,1,-256,-256)">
            <path d="M447.68,220.78C447.452,219.722 447.117,218.69 446.68,217.7L408.9,129.54C400.19,109.17 379,96 354.89,96L157.11,96C133.02,96 111.81,109.17 103.11,129.54L65.29,217.7C64.43,219.689 63.991,221.834 64,224L64,400C64,408.777 71.223,416 80,416L112,416C120.777,416 128,408.777 128,400L128,384L384,384L384,400C384,408.777 391.223,416 400,416L432,416C440.777,416 448,408.777 448,400L448,224C448.001,222.919 447.894,221.84 447.68,220.78ZM144,320C126.445,320 112,305.555 112,288C112,270.445 126.445,256 144,256C161.555,256 176,270.445 176,288C176,305.555 161.555,320 144,320ZM368,320C350.445,320 336,305.555 336,288C336,270.445 350.445,256 368,256C385.555,256 400,270.445 400,288C400,305.555 385.555,320 368,320ZM104.26,208L132.49,142.15C136.11,133.69 146,128 157.11,128L354.89,128C365.99,128 375.89,133.69 379.51,142.15L407.74,208L104.26,208Z" style="fill-rule:nonzero;"/>
        </g>
        <g id="car.svg1" serif:id="car.svg">
        </g>
    </g>
</svg>
