<?xml version="1.0" encoding="UTF-8" standalone="no"?>
<!DOCTYPE svg PUBLIC "-//W3C//DTD SVG 1.1//EN" "http://www.w3.org/Graphics/SVG/1.1/DTD/svg11.dtd">
<svg width="100%" height="100%" viewBox="0 0 40 40" version="1.1" xmlns="http://www.w3.org/2000/svg" xmlns:xlink="http://www.w3.org/1999/xlink" xml:space="preserve" xmlns:serif="http://www.serif.com/" style="fill-rule:evenodd;clip-rule:evenodd;stroke-linejoin:round;stroke-miterlimit:2;">
    <g transform="matrix(0.0725591,0,0,0.0725591,20,20)">
        <g id="pie-chart.svg" transform="matrix(1,0,0,1,-256,-256)">
            <path d="M66.1,357C59.802,357.003 54.064,353.288 51.49,347.54C38.597,318.745 31.932,287.549 31.932,256C31.932,133.117 133.049,32 255.932,32C255.954,32 255.977,32 256,32C264.777,32 272,39.223 272,48L272,256C272.001,262.3 268.281,268.039 262.53,270.61L72.63,355.56C70.58,356.497 68.354,356.987 66.1,357Z" style="fill-rule:nonzero;"/>
            <path d="M313.59,68.18C313.067,68.074 312.534,68.02 312,68.02C307.619,68.02 304.011,71.619 304,76L304,256C303.984,274.889 292.835,292.091 275.6,299.82L103.13,377C100.253,378.284 98.391,381.154 98.391,384.305C98.391,385.912 98.875,387.482 99.78,388.81C112.979,408.222 129.363,425.266 148.24,439.22C183.999,465.821 227.432,480.133 272,480C386.69,480 480,386.69 480,272C480,171.55 408.42,87.5 313.59,68.18Z" style="fill-rule:nonzero;"/>
        </g>
        <g id="pie-chart.svg1" serif:id="pie-chart.svg">
        </g>
    </g>
</svg>
