<?xml version="1.0"?><svg fill="#000000" xmlns="http://www.w3.org/2000/svg"  viewBox="0 0 30 30" width="30px" height="30px">    <path d="M 15 2 C 12.544998 2 10.580504 3.8263656 10.167969 6.1679688 C 7.8263654 6.5805039 6 8.5449978 6 11 C 6 11.342363 6.0351582 11.676493 6.1015625 12 L 6 12 A 1 1 0 0 0 5 13 A 1 1 0 0 0 5.0371094 13.269531 L 5.0371094 13.271484 A 1 1 0 0 0 5.0683594 13.363281 L 6.0371094 16.267578 L 6.0507812 16.3125 A 1 1 0 0 0 6.0527344 16.3125 A 1 1 0 0 0 7 17 L 15 17 L 23 17 A 1 1 0 0 0 23.949219 16.3125 L 24.962891 13.271484 L 24.960938 13.269531 A 1 1 0 0 0 25 13 A 1 1 0 0 0 24 12 L 23.898438 12 C 23.964842 11.676493 24 11.342363 24 11 C 24 8.5449978 22.173634 6.5805039 19.832031 6.1679688 C 19.419496 3.8263656 17.455002 2 15 2 z M 15 4 C 16.668484 4 18 5.3315161 18 7 A 1.0001 1.0001 0 0 0 19 8 C 20.668484 8 22 9.3315161 22 11 C 22 11.353635 21.928521 11.686109 21.818359 12 L 15 12 L 8.1816406 12 C 8.0714793 11.686109 8 11.353635 8 11 C 8 9.3315161 9.3315161 8 11 8 C 11.616654 8 12.180986 8.1815516 12.654297 8.4960938 A 1.0001 1.0001 0 1 0 13.759766 6.8320312 C 13.273933 6.5091677 12.722132 6.281778 12.136719 6.1445312 C 12.50324 4.9020753 13.631705 4 15 4 z M 9 19 L 11.316406 25.949219 C 11.725406 27.174219 12.871109 28 14.162109 28 L 15 28 L 15.837891 28 C 17.128891 28 18.275594 27.174219 18.683594 25.949219 L 21 19 L 15 19 L 9 19 z"/></svg>