<?xml version="1.0" encoding="UTF-8" standalone="no"?>
<!DOCTYPE svg PUBLIC "-//W3C//DTD SVG 1.1//EN" "http://www.w3.org/Graphics/SVG/1.1/DTD/svg11.dtd">
<svg width="100%" height="100%" viewBox="0 0 40 40" version="1.1" xmlns="http://www.w3.org/2000/svg" xmlns:xlink="http://www.w3.org/1999/xlink" xml:space="preserve" xmlns:serif="http://www.serif.com/" style="fill-rule:evenodd;clip-rule:evenodd;stroke-linejoin:round;stroke-miterlimit:2;">
    <g transform="matrix(0.0725591,0,0,0.0725591,20,20)">
        <g id="notifications.svg" transform="matrix(1,0,0,1,-256,-256)">
            <path d="M440.08,341.31C438.42,339.31 436.79,337.31 435.19,335.38C413.19,308.77 399.88,292.71 399.88,217.38C399.88,178.38 390.55,146.38 372.16,122.38C358.6,104.65 340.27,91.2 316.11,81.26C315.799,81.087 315.521,80.86 315.29,80.59C306.6,51.49 282.82,32 256,32C229.18,32 205.41,51.49 196.72,80.56C196.488,80.82 196.214,81.04 195.91,81.21C139.53,104.42 112.13,148.95 112.13,217.35C112.13,292.71 98.84,308.77 76.82,335.35C75.22,337.28 73.59,339.24 71.93,341.28C63.19,351.821 61.369,366.548 67.28,378.9C73.45,391.9 86.6,399.97 101.61,399.97L410.5,399.97C425.44,399.97 438.5,391.91 444.69,378.97C450.626,366.615 448.821,351.868 440.08,341.31ZM256,480C285.399,479.976 312.512,463.76 326.44,437.87C326.745,437.294 326.904,436.652 326.904,436C326.904,433.806 325.098,432 322.904,432C322.903,432 322.901,432 322.9,432L189.12,432C189.115,432 189.111,432 189.106,432C186.912,432 185.106,433.806 185.106,436C185.106,436.652 185.265,437.294 185.57,437.87C199.497,463.757 226.604,479.973 256,480Z" style="fill-rule:nonzero;"/>
        </g>
        <g id="notifications.svg1" serif:id="notifications.svg">
        </g>
    </g>
</svg>
