<?xml version="1.0" encoding="UTF-8" standalone="no"?>
<!DOCTYPE svg PUBLIC "-//W3C//DTD SVG 1.1//EN" "http://www.w3.org/Graphics/SVG/1.1/DTD/svg11.dtd">
<svg width="100%" height="100%" viewBox="0 0 40 40" version="1.1" xmlns="http://www.w3.org/2000/svg" xmlns:xlink="http://www.w3.org/1999/xlink" xml:space="preserve" xmlns:serif="http://www.serif.com/" style="fill-rule:evenodd;clip-rule:evenodd;stroke-linejoin:round;stroke-miterlimit:2;">
    <g transform="matrix(0.0725591,0,0,0.0725591,20,20)">
        <g id="leaf.svg" transform="matrix(1,0,0,1,-256,-256)">
            <path d="M161.35,242C164.372,238.79 168.591,236.967 173,236.967C177.076,236.967 181.003,238.525 183.97,241.32C257.6,310.68 331.48,352.88 418.42,374.39C430.15,342.39 431.19,307.17 421.06,272.81C407.62,227.22 376.32,187.5 330.57,157.95C289.73,131.57 248.91,124.7 209.42,118.06C159.6,109.68 112.54,101.76 67.63,54.21C62.63,48.95 55.82,46.84 49.31,48.55C41.87,50.55 36.88,56.43 34.49,66.15C28.89,88.9 32.49,152.66 48.24,219.97C73.53,328.11 113.89,382.83 143.3,409.7C181.3,444.39 230.92,463.6 280.23,463.6C289.525,463.615 298.807,462.933 308,461.56C349.71,455.24 384.43,434.29 404,403.81C314.51,380.53 238.06,336.26 162,264.65C158.79,261.628 156.968,257.41 156.968,253.001C156.968,248.91 158.537,244.971 161.35,242ZM467.43,384.19C450.6,381.6 434.3,378.35 418.43,374.42C415.167,383.327 411.107,391.922 406.3,400.1C405.57,401.35 404.8,402.59 404.01,403.81C423.312,408.807 442.858,412.812 462.57,415.81C463.484,415.971 464.411,416.052 465.34,416.052C474.117,416.052 481.34,408.829 481.34,400.052C481.34,392.064 475.358,385.239 467.44,384.19L467.43,384.19Z" style="fill-rule:nonzero;"/>
        </g>
        <g id="leaf.svg1" serif:id="leaf.svg">
        </g>
    </g>
</svg>
