<?xml version="1.0" encoding="UTF-8" standalone="no"?>
<!DOCTYPE svg PUBLIC "-//W3C//DTD SVG 1.1//EN" "http://www.w3.org/Graphics/SVG/1.1/DTD/svg11.dtd">
<svg width="100%" height="100%" viewBox="0 0 40 40" version="1.1" xmlns="http://www.w3.org/2000/svg" xmlns:xlink="http://www.w3.org/1999/xlink" xml:space="preserve" xmlns:serif="http://www.serif.com/" style="fill-rule:evenodd;clip-rule:evenodd;stroke-linejoin:round;stroke-miterlimit:2;">
    <g transform="matrix(0.0687499,0,0,0.0687499,20,20)">
        <g id="toggle.svg" transform="matrix(1,0,0,1,-256,-256)">
            <path d="M368,112L144,112C64.6,112 0,176.6 0,256C0,335.4 64.6,400 144,400L368,400C447.4,400 512,335.4 512,256C512,176.6 447.4,112 368,112ZM368,368C306.559,368 256,317.441 256,256C256,194.559 306.559,144 368,144C429.441,144 480,194.559 480,256C479.934,317.417 429.417,367.934 368,368Z" style="fill-rule:nonzero;"/>
        </g>
        <g id="toggle.svg1" serif:id="toggle.svg">
        </g>
    </g>
</svg>
