<?xml version="1.0" encoding="UTF-8" standalone="no"?>
<!DOCTYPE svg PUBLIC "-//W3C//DTD SVG 1.1//EN" "http://www.w3.org/Graphics/SVG/1.1/DTD/svg11.dtd">
<svg width="100%" height="100%" viewBox="0 0 40 40" version="1.1" xmlns="http://www.w3.org/2000/svg" xmlns:xlink="http://www.w3.org/1999/xlink" xml:space="preserve" xmlns:serif="http://www.serif.com/" style="fill-rule:evenodd;clip-rule:evenodd;stroke-linejoin:round;stroke-miterlimit:2;">
    <g transform="matrix(0.0726563,0,0,0.0726563,20,20)">
        <g id="happy.svg" transform="matrix(1,0,0,1,-256,-256)">
            <path d="M414.39,97.61C372.337,55.141 314.987,31.22 255.22,31.22C132.338,31.22 31.22,132.338 31.22,255.22C31.22,314.987 55.141,372.337 97.61,414.39C139.663,456.859 197.013,480.78 256.78,480.78C379.662,480.78 480.78,379.662 480.78,256.78C480.78,197.013 456.859,139.663 414.39,97.61ZM184,208C197.166,208 208,218.834 208,232C208,245.166 197.166,256 184,256C170.834,256 160,245.166 160,232C160,231.98 160,231.96 160,231.94C160,218.807 170.807,208 183.94,208C183.96,208 183.98,208 184,208ZM351.67,314.17C339.67,354.47 301.47,384 256.05,384C210.63,384 172.43,354.47 160.33,314.17C160.131,313.464 160.03,312.733 160.03,311.999C160.03,307.61 163.641,303.999 168.03,303.999C168.073,303.999 168.117,303.999 168.16,304L343.85,304C343.89,303.999 343.93,303.999 343.97,303.999C348.359,303.999 351.97,307.61 351.97,311.999C351.97,312.733 351.869,313.464 351.67,314.17ZM328,256C314.834,256 304,245.166 304,232C304,218.834 314.834,208 328,208C341.166,208 352,218.834 352,232C352,232.02 352,232.04 352,232.06C352,245.193 341.193,256 328.06,256C328.04,256 328.02,256 328,256Z" style="fill-rule:nonzero;"/>
        </g>
        <g id="happy.svg1" serif:id="happy.svg">
        </g>
    </g>
</svg>
