<?xml version="1.0"?><svg fill="#000000" xmlns="http://www.w3.org/2000/svg"  viewBox="0 0 30 30" width="30px" height="30px">    <path d="M 10 2 C 7.25 2 5 4.25 5 7 C 5 9.4075772 6.7251901 11.431634 9 11.898438 L 9 15 L 9 18 A 1.0001 1.0001 0 0 0 9.0214844 18.203125 C 9.1247973 19.210966 9.9647599 20 11 20 L 24 20 L 25.003906 26.087891 A 1.0001 1.0001 0 0 0 27 26 L 27 19 C 27 18.082858 26.35902 17.303499 25.507812 17.074219 L 25.507812 17.066406 C 25.49724 17.064422 25.467893 17.060598 25.457031 17.058594 C 25.371379 17.038012 25.282643 17.028464 25.193359 17.019531 C 23.726317 16.768178 20.47183 16.388835 18.826172 16 C 17.182172 15.612 16.531 15 14 15 L 12 15 L 11.650391 11.695312 C 13.591271 11.007127 15 9.169091 15 7 C 15 4.25 12.75 2 10 2 z M 10 6 C 10.552 6 11 6.448 11 7 C 11 7.552 10.552 8 10 8 C 9.448 8 9 7.552 9 7 C 9 6.448 9.448 6 10 6 z M 4 14 A 3 3 0 0 0 1 17 A 3 3 0 0 0 4 20 A 3 3 0 0 0 7 17 A 3 3 0 0 0 4 14 z M 3 22 A 1.0001 1.0001 0 1 0 3 24 L 22 24 A 1.0001 1.0001 0 1 0 22 22 L 3 22 z"/></svg>