<?xml version="1.0" encoding="UTF-8" standalone="no"?>
<!DOCTYPE svg PUBLIC "-//W3C//DTD SVG 1.1//EN" "http://www.w3.org/Graphics/SVG/1.1/DTD/svg11.dtd">
<svg width="100%" height="100%" viewBox="0 0 40 40" version="1.1" xmlns="http://www.w3.org/2000/svg" xmlns:xlink="http://www.w3.org/1999/xlink" xml:space="preserve" xmlns:serif="http://www.serif.com/" style="fill-rule:evenodd;clip-rule:evenodd;stroke-linejoin:round;stroke-miterlimit:2;">
    <g transform="matrix(0.0726563,0,0,0.0726563,20,20)">
        <g id="bookmark.svg" transform="matrix(1,0,0,1,-256,-256)">
            <path d="M400,480C396.088,480.011 392.304,478.588 389.37,476L256,357.41L122.63,476C119.702,478.603 115.918,480.042 112,480.042C103.223,480.042 96,472.819 96,464.042C96,464.028 96,464.014 96,464L96,96C96.038,60.905 124.905,32.038 160,32L352,32C387.095,32.038 415.962,60.905 416,96L416,464C416,472.777 408.777,480 400,480Z" style="fill-rule:nonzero;"/>
        </g>
        <g id="bookmark.svg1" serif:id="bookmark.svg">
        </g>
    </g>
</svg>
