<?xml version="1.0" encoding="UTF-8" standalone="no"?>
<!DOCTYPE svg PUBLIC "-//W3C//DTD SVG 1.1//EN" "http://www.w3.org/Graphics/SVG/1.1/DTD/svg11.dtd">
<svg width="100%" height="100%" viewBox="0 0 40 40" version="1.1" xmlns="http://www.w3.org/2000/svg" xmlns:xlink="http://www.w3.org/1999/xlink" xml:space="preserve" xmlns:serif="http://www.serif.com/" style="fill-rule:evenodd;clip-rule:evenodd;stroke-linejoin:round;stroke-miterlimit:2;">
    <g transform="matrix(0.0726563,0,0,0.0726563,20,20)">
        <g id="color-wand.svg" transform="matrix(1,0,0,1,-256,-256)">
            <path d="M96,208L48,208C39.2,208 32,200.8 32,192C32,183.2 39.2,176 48,176L96,176C104.8,176 112,183.2 112,192C112,200.8 104.8,208 96,208ZM124.1,140.1C119.9,140.1 115.8,138.4 112.8,135.4L78.9,101.5C72.7,95.3 72.7,85.1 78.9,78.9C85.1,72.7 95.3,72.7 101.5,78.9L135.4,112.8C141.7,119 141.7,129.2 135.4,135.4C132.4,138.4 128.4,140.1 124.1,140.1ZM192,112C183.2,112 176,104.8 176,96L176,48C176,39.2 183.2,32 192,32C200.8,32 208,39.2 208,48L208,96C208,104.8 200.8,112 192,112ZM259.9,140.1C251.1,140.1 243.9,132.9 243.9,124.1C243.9,119.9 245.6,115.8 248.6,112.8L282.5,78.9C288.7,72.7 298.9,72.7 305.1,78.9C311.3,85.1 311.3,95.3 305.1,101.5L271.2,135.4C268.2,138.4 264.1,140.1 259.9,140.1ZM90.2,309.8C81.4,309.8 74.2,302.6 74.2,293.8C74.2,289.6 75.9,285.5 78.9,282.5L112.8,248.6C119,242.4 129.2,242.4 135.4,248.6C141.6,254.8 141.6,265 135.4,271.2L101.5,305.1C98.5,308.1 94.4,309.8 90.2,309.8ZM234.2,167C215.8,148.3 185.7,148 167,166.3C148.3,184.6 148,214.8 166.3,233.5L206.5,273.7C209.6,276.8 214.7,276.8 217.8,273.7L273.7,217.8C276.8,214.7 276.8,209.6 273.7,206.5L234.2,167ZM457,389.8L307.6,240.4C304.5,237.3 299.4,237.3 296.3,240.4L240.4,296.3C237.3,299.4 237.3,304.5 240.4,307.6L389.8,457C408.2,475.7 438.3,476 457,457.7C475.7,439.3 476,409.2 457.7,390.5C457.5,390.3 457.3,390 457,389.8Z" style="fill-rule:nonzero;"/>
        </g>
        <g id="color-wand.svg1" serif:id="color-wand.svg">
        </g>
    </g>
</svg>
