<svg fill="#000000" xmlns="http://www.w3.org/2000/svg"  viewBox="0 0 30 30" width="30px" height="30px"><path d="M 18 2 A 3 3 0 0 0 18 8 A 3 3 0 0 0 18 2 z M 6 7 C 5.696 7 5.40875 7.138 5.21875 7.375 L 1.21875 12.375 C 0.87375 12.806 0.944 13.43525 1.375 13.78125 C 1.808 14.12825 2.43525 14.055 2.78125 13.625 L 3.1074219 13.216797 L 5.1914062 14.423828 C 5.1370244 14.500182 5.0952243 14.581474 5.0644531 14.667969 C 5.0596301 14.681596 5.0491932 14.691121 5.0449219 14.705078 L 1.0449219 27.705078 C 0.89392187 28.195078 1.1383281 28.721875 1.6113281 28.921875 C 1.7383281 28.974875 1.87 29 2 29 C 2.355 29 2.6979063 28.810516 2.8789062 28.478516 L 8.1914062 18.736328 C 9.1034063 19.845328 10.326 21.441984 11 22.333984 L 11 28 C 11 28.524 11.404734 28.960094 11.927734 28.996094 C 12.462734 29.037094 12.915234 28.659625 12.990234 28.140625 L 13.990234 21.140625 C 14.016234 20.964625 13.993781 20.784141 13.925781 20.619141 L 13.3125 19.125 L 21.367188 23.789062 L 23.050781 28.693359 C 23.168781 29.035359 23.461406 29.289516 23.816406 29.353516 C 23.877406 29.365516 23.938047 29.369141 23.998047 29.369141 C 24.292047 29.369141 24.575578 29.240766 24.767578 29.009766 L 28.394531 24.638672 C 28.627531 24.357672 28.689688 23.970859 28.554688 23.630859 C 28.419688 23.290859 28.108094 23.051813 27.746094 23.007812 L 22.800781 22.400391 C 22.722294 22.29576 22.622269 22.204237 22.501953 22.134766 L 18.980469 20.095703 C 18.983788 20.062525 19 20.034062 19 20 L 19 11 C 19 10.621 18.786266 10.275469 18.447266 10.105469 L 12.447266 7.1054688 C 12.396952 7.0803118 12.342903 7.0650664 12.289062 7.0488281 C 12.273602 7.0441102 12.259751 7.035189 12.244141 7.03125 C 12.164676 7.0114142 12.082271 7 12 7 L 6 7 z M 6.4804688 9 L 9.8261719 9 L 6.5058594 12.873047 L 4.3710938 11.638672 L 6.4804688 9 z M 16.820312 11.527344 L 17 11.617188 L 17 18.949219 L 12.064453 16.091797 L 12.007812 15.953125 C 12.007812 15.953125 12.005859 15.951172 12.005859 15.951172 L 16.669922 11.742188 C 16.736489 11.682217 16.772824 11.601161 16.820312 11.527344 z"/></svg>