<?xml version="1.0" encoding="UTF-8" standalone="no"?>
<!DOCTYPE svg PUBLIC "-//W3C//DTD SVG 1.1//EN" "http://www.w3.org/Graphics/SVG/1.1/DTD/svg11.dtd">
<svg width="100%" height="100%" viewBox="0 0 40 40" version="1.1" xmlns="http://www.w3.org/2000/svg" xmlns:xlink="http://www.w3.org/1999/xlink" xml:space="preserve" xmlns:serif="http://www.serif.com/" style="fill-rule:evenodd;clip-rule:evenodd;stroke-linejoin:round;stroke-miterlimit:2;">
    <g transform="matrix(0.0726563,0,0,0.0726563,20,20)">
        <g id="balloon.svg" transform="matrix(1,0,0,1,-256,-256)">
            <path d="M391,307.27C423.75,260.92 437.59,205.64 430,151.59C417.838,65.207 343.132,0.282 255.897,0.282C247.695,0.282 239.502,0.856 231.38,2C135.38,15.49 68.24,104.58 81.73,200.58C89.3,254.47 117.85,303.74 162.1,339.32C186.68,359 214.41,372.82 240.72,379C244.827,379.987 247.481,384.065 246.72,388.22L241.85,414.6C241.142,418.189 241.664,421.913 243.33,425.17C246.083,430.456 251.57,433.783 257.53,433.78C258.276,433.781 259.022,433.728 259.76,433.62L277.57,431.12C278.439,430.999 279.291,431.464 279.66,432.26C296.38,468.57 325.12,496.11 361.81,510.62C363.682,511.36 365.677,511.739 367.689,511.739C374.493,511.739 380.586,507.4 382.81,500.97C385.64,492.79 381.17,483.9 373.13,480.69C348.033,470.664 327.102,452.352 313.83,428.81C313.648,428.502 313.551,428.15 313.551,427.792C313.551,426.796 314.294,425.945 315.28,425.81L322.68,424.81C326.551,424.311 330.123,422.458 332.76,419.58C337.116,414.706 338.066,407.631 335.15,401.78L323.09,377.55C321.198,373.749 322.643,369.07 326.35,367C349.94,353.83 372.8,333 391,307.27ZM236.1,324.05C234.087,324.05 232.092,323.67 230.22,322.93C188.96,306.61 153.92,270.23 138.77,227.99C138.106,226.205 137.766,224.315 137.766,222.41C137.766,213.633 144.988,206.41 153.766,206.41C160.573,206.41 166.669,210.755 168.89,217.19C183.39,257.63 216.16,282.96 241.99,293.19C248.084,295.598 252.109,301.517 252.109,308.07C252.109,316.847 244.886,324.07 236.109,324.07C236.106,324.07 236.103,324.07 236.1,324.07L236.1,324.05Z" style="fill-rule:nonzero;"/>
        </g>
        <g id="balloon.svg1" serif:id="balloon.svg">
        </g>
    </g>
</svg>
