<?xml version="1.0" encoding="UTF-8" standalone="no"?>
<!DOCTYPE svg PUBLIC "-//W3C//DTD SVG 1.1//EN" "http://www.w3.org/Graphics/SVG/1.1/DTD/svg11.dtd">
<svg width="100%" height="100%" viewBox="0 0 40 40" version="1.1" xmlns="http://www.w3.org/2000/svg" xmlns:xlink="http://www.w3.org/1999/xlink" xml:space="preserve" xmlns:serif="http://www.serif.com/" style="fill-rule:evenodd;clip-rule:evenodd;stroke-linejoin:round;stroke-miterlimit:2;">
    <g transform="matrix(0.0731124,0,0,0.0731124,20,20)">
        <g id="subway.svg" transform="matrix(1,0,0,1,-256,-256)">
            <path d="M352,16L160,16C124.905,16.038 96.038,44.905 96,80L96,336C96.038,371.095 124.905,399.962 160,400L352,400C387.095,399.962 415.962,371.095 416,336L416,80C415.962,44.905 387.095,16.038 352,16ZM208,64L304,64C312.777,64 320,71.223 320,80C320,88.777 312.777,96 304,96L208,96C199.223,96 192,88.777 192,80C192,71.223 199.223,64 208,64ZM176,352C158.445,352 144,337.555 144,320C144,302.445 158.445,288 176,288C193.555,288 208,302.445 208,320C208,337.555 193.555,352 176,352ZM336,352C318.445,352 304,337.555 304,320C304,302.445 318.445,288 336,288C353.555,288 368,302.445 368,320C368,337.555 353.555,352 336,352ZM384,192C384,200.777 376.777,208 368,208L144,208C135.223,208 128,200.777 128,192L128,160C128,151.223 135.223,144 144,144L368,144C376.777,144 384,151.223 384,160L384,192ZM347.31,420.69C344.337,417.866 340.39,416.29 336.29,416.29C327.512,416.29 320.29,423.512 320.29,432.29C320.29,436.39 321.866,440.337 324.69,443.31L329.37,448L182.63,448L187.31,443.31C190.134,440.337 191.71,436.39 191.71,432.29C191.71,423.512 184.488,416.29 175.71,416.29C171.61,416.29 167.663,417.866 164.69,420.69L116.69,468.69C113.512,471.709 111.71,475.906 111.71,480.29C111.71,489.067 118.933,496.29 127.71,496.29C132.094,496.29 136.291,494.488 139.31,491.31L150.63,480L361.37,480L372.69,491.31C375.663,494.134 379.61,495.71 383.71,495.71C392.488,495.71 399.71,488.488 399.71,479.71C399.71,475.61 398.134,471.663 395.31,468.69L347.31,420.69Z" style="fill-rule:nonzero;"/>
        </g>
        <g id="subway.svg1" serif:id="subway.svg">
        </g>
    </g>
</svg>
