<?xml version="1.0" encoding="UTF-8" standalone="no"?>
<!DOCTYPE svg PUBLIC "-//W3C//DTD SVG 1.1//EN" "http://www.w3.org/Graphics/SVG/1.1/DTD/svg11.dtd">
<svg width="100%" height="100%" viewBox="0 0 40 40" version="1.1" xmlns="http://www.w3.org/2000/svg" xmlns:xlink="http://www.w3.org/1999/xlink" xml:space="preserve" xmlns:serif="http://www.serif.com/" style="fill-rule:evenodd;clip-rule:evenodd;stroke-linejoin:round;stroke-miterlimit:2;">
    <g transform="matrix(0.0731124,0,0,0.0731124,20,20)">
        <g id="storefront.svg" transform="matrix(1,0,0,1,-256,-256)">
            <path d="M480,448L468,448C465.806,448 464,446.194 464,444L464,273.51C464,273.491 464,273.472 464,273.453C464,271.258 462.195,269.453 460,269.453C459.579,269.453 459.161,269.519 458.76,269.65C449.584,272.534 440.054,274.142 430.44,274.43C429.26,274.43 428.14,274.48 427.04,274.48C408.549,274.524 390.351,269.827 374.19,260.84C371.705,259.458 368.675,259.458 366.19,260.84C350.033,269.827 331.838,274.524 313.35,274.48C294.965,274.506 276.885,269.753 260.89,260.69C258.383,259.271 255.307,259.271 252.8,260.69C236.564,269.788 218.251,274.541 199.64,274.49C181.132,274.502 162.938,269.675 146.87,260.49C144.343,259.052 141.237,259.052 138.71,260.49C122.642,269.675 104.448,274.502 85.94,274.49C84.85,274.49 83.75,274.49 82.57,274.44L82.51,274.44C72.558,274.141 62.699,272.427 53.23,269.35C52.833,269.222 52.418,269.156 52,269.156C49.808,269.156 48.003,270.958 48,273.15L48,444C48,446.194 46.194,448 44,448L32.5,448C23.86,448 16.4,454.64 16.02,463.28C16.009,463.52 16.004,463.76 16.004,464C16.004,472.776 23.224,479.998 32,480L479.5,480C488.14,480 495.6,473.36 495.98,464.72C495.991,464.48 495.996,464.24 495.996,464C495.996,455.224 488.776,448.002 480,448ZM224,380C224,382.194 222.194,384 220,384L132,384C129.806,384 128,382.194 128,380L128,316C128,309.417 133.417,304 140,304L212,304C218.583,304 224,309.417 224,316L224,380ZM380,448L308,448C305.806,448 304,446.194 304,444L304,316C304,309.417 309.417,304 316,304L372,304C378.583,304 384,309.417 384,316L384,444C384,446.194 382.194,448 380,448ZM492.57,170.28L449.65,71.79C438.41,47.62 412.74,32 384.25,32L127.7,32C99.21,32 73.54,47.62 62.3,71.79L19.38,170.28C10.38,189.69 22.27,209.62 22.28,209.63L22.56,210.08C23.05,210.86 23.92,212.08 24.45,212.86C24.5,212.92 24.54,212.99 24.59,213.06L29.59,219.11C29.777,219.338 29.977,219.555 30.19,219.76L35.19,224.59L35.61,224.95C38.546,227.467 41.687,229.735 45,231.73L45,231.78C55.882,238.372 68.283,242.048 81,242.45L83.47,242.45C102.707,242.486 121.259,235.224 135.36,222.14L135.69,221.83C138.731,218.965 143.539,218.965 146.58,221.83L146.91,222.14C176.307,249.084 221.973,249.084 251.37,222.14C254.42,219.316 259.19,219.316 262.24,222.14C291.545,248.994 337.027,249.094 366.45,222.37C369.455,219.586 374.155,219.586 377.16,222.37C391.442,235.407 410.133,242.582 429.47,242.45L431.96,242.45C444.358,241.987 456.423,238.299 466.96,231.75C467.91,231.18 468.82,230.58 469.74,229.98C476.847,225.189 483.033,219.155 488,212.17L489.74,209.54C489.913,209.273 490.073,208.993 490.22,208.7C491.88,205.32 500.78,187.94 492.57,170.28Z" style="fill-rule:nonzero;"/>
        </g>
        <g id="storefront.svg1" serif:id="storefront.svg">
        </g>
    </g>
</svg>
