<?xml version="1.0" encoding="UTF-8" standalone="no"?>
<!DOCTYPE svg PUBLIC "-//W3C//DTD SVG 1.1//EN" "http://www.w3.org/Graphics/SVG/1.1/DTD/svg11.dtd">
<svg width="100%" height="100%" viewBox="0 0 40 40" version="1.1" xmlns="http://www.w3.org/2000/svg" xmlns:xlink="http://www.w3.org/1999/xlink" xml:space="preserve" xmlns:serif="http://www.serif.com/" style="fill-rule:evenodd;clip-rule:evenodd;stroke-linejoin:round;stroke-miterlimit:2;">
    <g transform="matrix(0.0731124,0,0,0.0731124,20,20)">
        <g id="shield.svg" transform="matrix(1,0,0,1,-256,-256)">
            <path d="M479.07,111.35C478.611,104.015 473.154,97.895 465.92,96.6C379.89,81.18 343.69,69.12 266,34.16C258.24,31.27 253.43,31.32 246,34.16C168.31,69.16 132.11,81.16 46.08,96.6C38.846,97.895 33.389,104.015 32.93,111.35C29.08,172.45 37.27,229.35 57.29,280.5C73.66,322.209 97.913,360.376 128.72,392.91C173.39,440.34 222.92,468.03 248.46,478.51C253.301,480.485 258.729,480.485 263.57,478.51C290.57,467.59 338.26,440.69 383.28,392.89C414.085,360.361 438.338,322.201 454.71,280.5C474.73,229.36 482.92,172.45 479.07,111.35Z" style="fill-rule:nonzero;"/>
        </g>
        <g id="shield.svg1" serif:id="shield.svg">
        </g>
    </g>
</svg>
