<?xml version="1.0" encoding="UTF-8" standalone="no"?>
<!DOCTYPE svg PUBLIC "-//W3C//DTD SVG 1.1//EN" "http://www.w3.org/Graphics/SVG/1.1/DTD/svg11.dtd">
<svg width="100%" height="100%" viewBox="0 0 40 40" version="1.1" xmlns="http://www.w3.org/2000/svg" xmlns:xlink="http://www.w3.org/1999/xlink" xml:space="preserve" xmlns:serif="http://www.serif.com/" style="fill-rule:evenodd;clip-rule:evenodd;stroke-linejoin:round;stroke-miterlimit:2;">
    <g transform="matrix(0.0726563,0,0,0.0726563,20,20)">
        <g id="chatbox.svg" transform="matrix(1,0,0,1,-256,-256)">
            <path d="M144,464C135.223,464 128,456.777 128,448L128,384L104,384C64.519,383.956 32.044,351.481 32,312L32,120C32.044,80.519 64.519,48.044 104,48L408,48C447.481,48.044 479.956,80.519 480,120L480,312C479.956,351.481 447.481,383.956 408,384L245.74,384L154.25,460.29C151.371,462.684 147.744,463.997 144,464Z" style="fill-rule:nonzero;"/>
        </g>
        <g id="chatbox.svg1" serif:id="chatbox.svg">
        </g>
    </g>
</svg>
