<?xml version="1.0" encoding="UTF-8" standalone="no"?>
<!DOCTYPE svg PUBLIC "-//W3C//DTD SVG 1.1//EN" "http://www.w3.org/Graphics/SVG/1.1/DTD/svg11.dtd">
<svg width="100%" height="100%" viewBox="0 0 40 40" version="1.1" xmlns="http://www.w3.org/2000/svg" xmlns:xlink="http://www.w3.org/1999/xlink" xml:space="preserve" xmlns:serif="http://www.serif.com/" style="fill-rule:evenodd;clip-rule:evenodd;stroke-linejoin:round;stroke-miterlimit:2;">
    <g transform="matrix(0.0726563,0,0,0.0726563,20,20)">
        <g id="archive.svg" transform="matrix(1,0,0,1,-256,-256)">
            <path d="M64,164L64,408C64,438.721 89.279,464 120,464L392,464C422.721,464 448,438.721 448,408L448,164C448,161.806 446.194,160 444,160L68,160C65.806,160 64,161.806 64,164ZM331,315.63L267.31,379.31C261.104,385.512 250.896,385.512 244.69,379.31L181,315.63C174.91,309.54 174.35,299.63 180.15,293.25C183.181,289.911 187.487,288.004 191.997,288.004C196.238,288.004 200.311,289.691 203.31,292.69L240,329.37L240,224.45C240,215.84 246.62,208.45 255.23,208.02C255.486,208.008 255.743,208.001 256,208.001C264.777,208.001 271.999,215.223 272,224L272,329.37L308.69,292.69C311.689,289.691 315.762,288.004 320.003,288.004C324.513,288.004 328.819,289.911 331.85,293.25C337.65,299.62 337.09,309.54 331,315.63Z" style="fill-rule:nonzero;"/>
            <path d="M480,80C480,62.339 465.661,48 448,48L64,48C46.339,48 32,62.339 32,80L32,96C32,113.661 46.339,128 64,128L448,128C465.661,128 480,113.661 480,96L480,80Z"/>
        </g>
        <g id="archive.svg1" serif:id="archive.svg">
        </g>
    </g>
</svg>
