<?xml version="1.0" encoding="UTF-8" standalone="no"?>
<!DOCTYPE svg PUBLIC "-//W3C//DTD SVG 1.1//EN" "http://www.w3.org/Graphics/SVG/1.1/DTD/svg11.dtd">
<svg width="100%" height="100%" viewBox="0 0 40 40" version="1.1" xmlns="http://www.w3.org/2000/svg" xmlns:xlink="http://www.w3.org/1999/xlink" xml:space="preserve" xmlns:serif="http://www.serif.com/" style="fill-rule:evenodd;clip-rule:evenodd;stroke-linejoin:round;stroke-miterlimit:2;">
    <g transform="matrix(0.0731124,0,0,0.0731124,20,20)">
        <g id="sunny.svg" transform="matrix(1,0,0,1,-256,-256)">
            <path d="M256,118C243.931,118 234,108.069 234,96L234,48C234,35.931 243.931,26 256,26C268.069,26 278,35.931 278,48L278,96C278,108.069 268.069,118 256,118ZM256,486C243.931,486 234,476.069 234,464L234,416C234,403.931 243.931,394 256,394C268.069,394 278,403.931 278,416L278,464C278,476.069 268.069,486 256,486ZM369.14,164.86C357.072,164.859 347.143,154.928 347.143,142.86C347.143,137.031 349.46,131.434 353.58,127.31L387.52,93.37C391.626,89.37 397.138,87.13 402.87,87.13C414.939,87.13 424.87,97.061 424.87,109.13C424.87,114.862 422.63,120.374 418.63,124.48L384.69,158.42C380.571,162.548 374.971,164.867 369.14,164.86ZM108.92,425.08C96.852,425.079 86.923,415.148 86.923,403.08C86.923,397.246 89.244,391.645 93.37,387.52L127.31,353.58C131.45,349.33 137.137,346.93 143.07,346.93C155.139,346.93 165.07,356.861 165.07,368.93C165.07,374.863 162.67,380.55 158.42,384.69L124.48,418.63C120.36,422.763 114.756,425.086 108.92,425.08ZM464,278L416,278C403.931,278 394,268.069 394,256C394,243.931 403.931,234 416,234L464,234C476.069,234 486,243.931 486,256C486,268.069 476.069,278 464,278ZM96,278L48,278C35.931,278 26,268.069 26,256C26,243.931 35.931,234 48,234L96,234C108.069,234 118,243.931 118,256C118,268.069 108.069,278 96,278ZM403.08,425.08C397.244,425.086 391.64,422.763 387.52,418.63L353.58,384.69C349.58,380.584 347.34,375.072 347.34,369.34C347.34,357.271 357.271,347.34 369.34,347.34C375.072,347.34 380.584,349.58 384.69,353.58L418.63,387.52C422.756,391.645 425.077,397.246 425.077,403.08C425.077,415.148 415.148,425.079 403.08,425.08ZM142.86,164.86C137.028,164.871 131.426,162.552 127.31,158.42L93.37,124.48C89.37,120.374 87.13,114.862 87.13,109.13C87.13,97.061 97.061,87.13 109.13,87.13C114.862,87.13 120.374,89.37 124.48,93.37L158.42,127.31C162.54,131.434 164.857,137.031 164.857,142.86C164.857,154.928 154.928,164.859 142.86,164.86ZM256,358C200.044,358 154,311.956 154,256C154,200.044 200.044,154 256,154C311.956,154 358,200.044 358,256C357.934,311.931 311.931,357.934 256,358Z" style="fill-rule:nonzero;"/>
        </g>
        <g id="sunny.svg1" serif:id="sunny.svg">
        </g>
    </g>
</svg>
