<?xml version="1.0" encoding="UTF-8" standalone="no"?>
<!DOCTYPE svg PUBLIC "-//W3C//DTD SVG 1.1//EN" "http://www.w3.org/Graphics/SVG/1.1/DTD/svg11.dtd">
<svg width="100%" height="100%" viewBox="0 0 40 40" version="1.1" xmlns="http://www.w3.org/2000/svg" xmlns:xlink="http://www.w3.org/1999/xlink" xml:space="preserve" xmlns:serif="http://www.serif.com/" style="fill-rule:evenodd;clip-rule:evenodd;stroke-linejoin:round;stroke-miterlimit:2;">
    <g transform="matrix(0.0726563,0,0,0.0726563,20,20)">
        <g id="color-filter.svg" transform="matrix(1,0,0,1,-256,-256)">
            <path d="M253.72,202.53C255.088,203.479 256.912,203.479 258.28,202.53C295.844,176.83 343.039,169.33 386.72,182.12C387.094,182.233 387.483,182.29 387.874,182.29C390.068,182.29 391.874,180.484 391.874,178.29C391.874,178.233 391.872,178.177 391.87,178.12C388.8,105.86 329,48 256,48C183,48 123.2,105.86 120.13,178.15C120.128,178.207 120.126,178.263 120.126,178.32C120.126,180.514 121.932,182.32 124.126,182.32C124.517,182.32 124.906,182.263 125.28,182.15C168.961,169.36 216.156,176.86 253.72,202.56L253.72,202.53ZM405.31,212.56C396.202,259.667 365.382,299.817 322.23,320.79C320.814,321.464 319.919,322.912 319.95,324.48C319.95,325.65 320,326.82 320,328C320.02,369.543 302.961,409.319 272.85,437.94C272.05,438.695 271.596,439.748 271.596,440.849C271.596,442.233 272.313,443.522 273.49,444.25C294.728,457.191 319.13,464.026 344,464C416.07,464 478.1,403.72 480,331.66C481.322,281.532 454.831,234.578 411.24,209.79C410.634,209.442 409.947,209.259 409.248,209.259C407.317,209.259 405.648,210.658 405.31,212.56Z" style="fill-rule:nonzero;"/>
            <path d="M390.57,203.67C390.863,201.752 389.721,199.883 387.88,199.27C349.802,186.285 307.859,190.864 273.48,211.76C272.311,212.49 271.598,213.775 271.598,215.153C271.598,216.248 272.047,217.295 272.84,218.05C295.783,239.881 311.336,268.349 317.31,299.45C317.664,301.334 319.325,302.711 321.241,302.711C321.947,302.711 322.64,302.524 323.25,302.17C359.607,281.439 384.461,245.074 390.57,203.67ZM192,328C192,326.82 192,325.65 192.05,324.48C192.081,322.912 191.186,321.464 189.77,320.79C146.618,299.817 115.798,259.667 106.69,212.56C106.342,210.67 104.678,209.285 102.756,209.285C102.075,209.285 101.405,209.459 100.81,209.79C57.219,234.578 30.728,281.532 32.05,331.66C34,403.72 96,464 168.05,464C192.903,464.017 217.286,457.182 238.51,444.25C239.687,443.522 240.404,442.233 240.404,440.849C240.404,439.748 239.95,438.695 239.15,437.94C209.039,409.319 191.98,369.543 192,328Z" style="fill-rule:nonzero;"/>
            <path d="M168,192C153.073,191.987 138.245,194.443 124.12,199.27C122.279,199.883 121.137,201.752 121.43,203.67C127.539,245.074 152.393,281.439 188.75,302.17C189.36,302.524 190.053,302.711 190.759,302.711C192.675,302.711 194.336,301.334 194.69,299.45C200.664,268.349 216.217,239.881 239.16,218.05C239.953,217.295 240.402,216.248 240.402,215.153C240.402,213.775 239.689,212.49 238.52,211.76C217.281,198.811 192.875,191.972 168,192ZM256,336C241.541,336.01 227.155,333.949 213.28,329.88C212.906,329.767 212.517,329.71 212.126,329.71C209.932,329.71 208.126,331.516 208.126,333.71C208.126,333.767 208.128,333.823 208.13,333.88C209.696,370.459 226.002,404.891 253.31,429.28C254.828,430.659 257.172,430.659 258.69,429.28C285.998,404.891 302.304,370.459 303.87,333.88C303.872,333.823 303.874,333.767 303.874,333.71C303.874,331.516 302.068,329.71 299.874,329.71C299.483,329.71 299.094,329.767 298.72,329.88C284.845,333.949 270.459,336.01 256,336ZM302.57,308.33C297.949,276.847 282.417,247.964 258.7,226.75C257.168,225.386 254.832,225.386 253.3,226.75C229.583,247.964 214.051,276.847 209.43,308.33C209.137,310.248 210.279,312.117 212.12,312.73C240.565,322.422 271.435,322.422 299.88,312.73C301.721,312.117 302.863,310.248 302.57,308.33Z" style="fill-rule:nonzero;"/>
        </g>
        <g id="color-filter.svg1" serif:id="color-filter.svg">
        </g>
    </g>
</svg>
