<?xml version="1.0" encoding="UTF-8" standalone="no"?>
<!DOCTYPE svg PUBLIC "-//W3C//DTD SVG 1.1//EN" "http://www.w3.org/Graphics/SVG/1.1/DTD/svg11.dtd">
<svg width="100%" height="100%" viewBox="0 0 40 40" version="1.1" xmlns="http://www.w3.org/2000/svg" xmlns:xlink="http://www.w3.org/1999/xlink" xml:space="preserve" xmlns:serif="http://www.serif.com/" style="fill-rule:evenodd;clip-rule:evenodd;stroke-linejoin:round;stroke-miterlimit:2;">
    <g transform="matrix(0.0726563,0,0,0.0726563,20,20)">
        <g id="cog.svg" transform="matrix(1,0,0,1,-256,-256)">
            <path d="M464,249.93C463.723,244.799 459.745,240.575 454.64,239.99L429,235.84C426.638,235.453 424.8,233.545 424.5,231.17C424.01,228.02 423.5,224.75 422.8,221.65C422.339,219.344 423.399,216.985 425.43,215.8L448.21,203.15C452.87,200.775 455.034,195.222 453.21,190.32L449.26,179.42C447.475,174.501 442.216,171.678 437.13,172.91L411.58,177.91C409.243,178.328 406.886,177.19 405.76,175.1C404.27,172.31 402.65,169.47 400.96,166.68C399.705,164.647 399.882,162.025 401.4,160.18L418.4,140.54C421.956,136.722 422.124,130.793 418.79,126.78L411.37,117.87C408.043,113.839 402.138,112.97 397.79,115.87L375.42,129.3C373.389,130.517 370.784,130.26 369.03,128.67C366.56,126.5 364.03,124.41 361.66,122.48C359.798,121.011 359.099,118.488 359.94,116.27L369.2,91.87C371.277,87.074 369.413,81.419 364.89,78.8L354.8,72.91C350.273,70.3 344.441,71.527 341.35,75.74L325,96.28C323.792,98.114 321.43,98.84 319.4,98C318.79,97.75 313.63,95.64 309.62,94.3C307.368,93.566 305.846,91.438 305.88,89.07L306.27,63C306.557,57.758 302.863,53.069 297.7,52.12L286.25,50.12C281.114,49.233 276.06,52.317 274.5,57.29L266,82.1C265.21,84.355 263.027,85.841 260.64,85.75L250.89,85.75C248.523,85.799 246.377,84.313 245.59,82.08L237.13,57.41C235.597,52.399 230.524,49.275 225.36,50.16L213.89,52.16C208.761,53.101 205.08,57.741 205.33,62.95L205.73,89.11C205.746,91.514 204.17,93.659 201.87,94.36C199.58,95.25 194.61,97.15 192.35,97.99C190.35,98.71 188.17,97.92 186.41,95.89L170.15,75.89C167.076,71.651 161.233,70.396 156.69,73L146.63,78.83C142.056,81.455 140.18,87.176 142.31,92L151.56,116.34C152.385,118.561 151.699,121.076 149.86,122.57C147.43,124.57 144.94,126.57 142.46,128.79C140.717,130.367 138.133,130.627 136.11,129.43L114,115.74C109.628,112.896 103.759,113.759 100.39,117.74L93,126.63C89.618,130.618 89.778,136.58 93.37,140.38L110.45,160C112.002,161.81 112.186,164.442 110.9,166.45C109.19,169.17 107.56,172.03 106.08,174.89C104.947,176.995 102.572,178.138 100.22,177.71L74.71,172.78C69.622,171.552 64.363,174.372 62.57,179.29L58.57,190.17C56.749,195.078 58.911,200.634 63.57,203.02L86.35,215.67C88.448,216.828 89.534,219.253 89,221.59L88.76,222.86C88.24,225.65 87.76,228.29 87.3,231.1C86.975,233.443 85.168,235.322 82.84,235.74L57.15,239.89C51.977,240.525 48.036,244.948 48,250.16L48,261.74C47.97,266.977 51.953,271.439 57.16,272L82.84,276.14C85.203,276.524 87.044,278.434 87.34,280.81C87.83,283.97 88.34,287.23 89.04,290.33C89.501,292.636 88.441,294.995 86.41,296.18L63.64,308.85C58.98,311.225 56.816,316.778 58.64,321.68L62.64,332.58C64.429,337.496 69.684,340.317 74.77,339.09L100.32,334.14C102.658,333.716 105.018,334.855 106.14,336.95C107.64,339.75 109.25,342.58 110.94,345.37C112.201,347.401 112.024,350.027 110.5,351.87L93.5,371.5C89.902,375.289 89.686,381.23 93,385.27L100.41,394.18C103.734,398.215 109.644,399.085 113.99,396.18L136.36,382.75C138.391,381.533 140.996,381.79 142.75,383.38C145.23,385.55 147.75,387.64 150.12,389.57C151.98,391.04 152.682,393.56 151.85,395.78L142.58,420.18C140.503,424.976 142.367,430.631 146.89,433.25L157,439.09C161.524,441.702 167.356,440.48 170.45,436.27L187,415.92C188.4,414.19 190.6,413.42 192.23,414.08C195.71,415.52 198.04,416.33 202.17,417.71C204.422,418.446 205.946,420.571 205.92,422.94L205.52,448.99C205.242,454.229 208.931,458.913 214.09,459.87L225.54,461.87C230.678,462.766 235.738,459.679 237.29,454.7L245.79,429.93C246.578,427.673 248.762,426.186 251.15,426.28L260.9,426.28C263.268,426.228 265.415,427.715 266.2,429.95L274.67,454.62C276.013,459.004 280.085,462.021 284.67,462.03C285.267,462.031 285.863,461.978 286.45,461.87L297.92,459.87C303.049,458.929 306.73,454.289 306.48,449.08L306.08,422.92C306.064,420.561 307.587,418.45 309.83,417.72C313.67,416.43 316.37,415.39 318.74,414.47L319.34,414.24C322.44,413.17 323.94,414.47 324.81,415.55L341.56,436.18C344.653,440.384 350.478,441.606 355,439L365.07,433.17C369.608,430.549 371.475,424.874 369.38,420.07L360.14,395.73C359.306,393.512 359.989,390.993 361.83,389.5C364.26,387.5 366.75,385.5 369.23,383.28C370.984,381.698 373.584,381.446 375.61,382.66L398,396.06C402.371,398.908 408.243,398.045 411.61,394.06L419.01,385.16C422.392,381.172 422.232,375.21 418.64,371.41L401.58,351.74C400.028,349.93 399.844,347.298 401.13,345.29C402.84,342.58 404.47,339.72 405.95,336.85C407.087,334.75 409.459,333.608 411.81,334.03L437.29,339C442.378,340.228 447.637,337.408 449.43,332.49L453.38,321.61C455.2,316.705 453.038,311.152 448.38,308.77L425.58,296.1C423.512,294.931 422.447,292.528 422.97,290.21L423.21,288.94C423.73,286.15 424.21,283.51 424.67,280.7C424.995,278.357 426.802,276.478 429.13,276.06L454.82,271.92C460.006,271.294 463.963,266.864 464,261.64L464,249.93ZM181.55,343.93C178.735,348.825 173.501,351.853 167.853,351.853C163.361,351.853 159.076,349.937 156.08,346.59C109.639,295.24 109.822,216.074 156.5,164.94C159.497,161.61 163.772,159.706 168.252,159.706C173.933,159.706 179.195,162.769 182,167.71L227.65,248.06C230.436,252.93 230.436,258.93 227.65,263.8L181.55,343.93ZM256,391.11C246.484,391.112 236.994,390.107 227.69,388.11C220.49,386.502 215.327,380.057 215.327,372.68C215.327,369.895 216.063,367.159 217.46,364.75L263.46,284.75C266.273,279.849 271.51,276.818 277.16,276.82L369.3,276.82C369.308,276.82 369.316,276.82 369.325,276.82C377.992,276.82 385.125,283.952 385.125,292.62C385.125,294.224 384.88,295.819 384.4,297.35C366.91,351.67 316,391.11 256,391.11ZM263.51,227.21L218,147.07C216.629,144.677 215.907,141.967 215.907,139.209C215.907,131.816 221.091,125.363 228.31,123.77C237.415,121.851 246.695,120.886 256,120.89C316,120.89 366.91,160.33 384.37,214.68C384.85,216.211 385.095,217.806 385.095,219.41C385.095,228.078 377.962,235.21 369.295,235.21C369.286,235.21 369.278,235.21 369.27,235.21L277.27,235.21C271.583,235.221 266.314,232.158 263.51,227.21Z" style="fill-rule:nonzero;"/>
        </g>
        <g id="cog.svg1" serif:id="cog.svg">
        </g>
    </g>
</svg>
