<?xml version="1.0" encoding="UTF-8" standalone="no"?>
<!DOCTYPE svg PUBLIC "-//W3C//DTD SVG 1.1//EN" "http://www.w3.org/Graphics/SVG/1.1/DTD/svg11.dtd">
<svg width="100%" height="100%" viewBox="0 0 40 40" version="1.1" xmlns="http://www.w3.org/2000/svg" xmlns:xlink="http://www.w3.org/1999/xlink" xml:space="preserve" xmlns:serif="http://www.serif.com/" style="fill-rule:evenodd;clip-rule:evenodd;stroke-linejoin:round;stroke-miterlimit:2;">
    <g transform="matrix(0.0726563,0,0,0.0726563,20,20)">
        <g id="bed.svg" transform="matrix(1,0,0,1,-256,-256)">
            <path d="M432,230.7C421.914,226.272 411.016,223.99 400,224L112,224C100.985,223.989 90.088,226.268 80,230.69C50.92,243.407 32.028,272.261 32,304L32,416C32,424.777 39.223,432 48,432C56.777,432 64,424.777 64,416L64,408C64.054,403.632 67.632,400.054 72,400L440,400C444.368,400.054 447.946,403.632 448,408L448,416C448,424.777 455.223,432 464,432C472.777,432 480,424.777 480,416L480,304C479.968,272.265 461.077,243.416 432,230.7ZM376,80L136,80C105.279,80 80,105.279 80,136L80,208C80.002,210.193 81.807,211.997 84,211.997C84.376,211.997 84.749,211.944 85.11,211.84C93.845,209.285 102.9,207.992 112,208L116.23,208C118.265,208.013 120.001,206.472 120.23,204.45C122.028,188.343 135.793,176.016 152,176L208,176C224.218,176.001 238.001,188.332 239.8,204.45C240.029,206.472 241.765,208.013 243.8,208L268.26,208C270.295,208.013 272.031,206.472 272.26,204.45C274.057,188.354 287.804,176.032 304,176L360,176C376.218,176.001 390.001,188.332 391.8,204.45C392.029,206.472 393.765,208.013 395.8,208L400,208C409.101,207.996 418.156,209.292 426.89,211.85C427.251,211.954 427.624,212.007 428,212.007C430.194,212.007 432,210.201 432,208.007C432,208.005 432,208.002 432,208L432,136C432,105.279 406.721,80 376,80Z" style="fill-rule:nonzero;"/>
        </g>
        <g id="bed.svg1" serif:id="bed.svg">
        </g>
    </g>
</svg>
