<?xml version="1.0" encoding="UTF-8" standalone="no"?>
<!DOCTYPE svg PUBLIC "-//W3C//DTD SVG 1.1//EN" "http://www.w3.org/Graphics/SVG/1.1/DTD/svg11.dtd">
<svg width="100%" height="100%" viewBox="0 0 40 40" version="1.1" xmlns="http://www.w3.org/2000/svg" xmlns:xlink="http://www.w3.org/1999/xlink" xml:space="preserve" xmlns:serif="http://www.serif.com/" style="fill-rule:evenodd;clip-rule:evenodd;stroke-linejoin:round;stroke-miterlimit:2;">
    <g transform="matrix(0.0726563,0,0,0.0726563,20,20)">
        <g id="hourglass.svg" transform="matrix(1,0,0,1,-256,-256)">
            <path d="M415.7,427.13C406.96,350.24 371.87,318.37 346.24,295.13C328.52,279 320,270.61 320,256C320,241.59 328.49,233.36 346.16,217.56C372.09,194.39 407.6,162.65 415.72,84.72C417.032,71.486 412.668,58.298 403.72,48.46C394.165,37.952 380.593,31.968 366.39,32L145.61,32C131.387,31.956 117.792,37.941 108.22,48.46C99.299,58.312 94.958,71.496 96.28,84.72C104.37,162.4 139.75,193.91 165.58,216.91C183.42,232.8 192,241.09 192,256C192,271.1 183.4,279.56 165.5,295.75C140,318.85 105,350.48 96.3,427.13C94.872,440.305 99.131,453.483 108,463.33C117.593,473.974 131.281,480.041 145.61,480L366.39,480C380.719,480.041 394.407,473.974 404,463.33C412.869,453.483 417.128,440.305 415.7,427.13ZM343.3,432L169.13,432C153.53,432 149.13,414 160.07,402.84C186.55,376 240,356.78 240,326L240,224C240,204.15 202,189 178.49,156.8C174.61,151.49 175,144 184.86,144L327.59,144C336,144 337.81,151.43 333.99,156.75C310.82,189 272,204.05 272,224L272,326C272,356.53 327.71,373 352.4,402.87C362.35,414.91 358.87,432 343.3,432Z" style="fill-rule:nonzero;"/>
        </g>
        <g id="hourglass.svg1" serif:id="hourglass.svg">
        </g>
    </g>
</svg>
