<?xml version="1.0" encoding="UTF-8" standalone="no"?>
<!DOCTYPE svg PUBLIC "-//W3C//DTD SVG 1.1//EN" "http://www.w3.org/Graphics/SVG/1.1/DTD/svg11.dtd">
<svg width="100%" height="100%" viewBox="0 0 40 40" version="1.1" xmlns="http://www.w3.org/2000/svg" xmlns:xlink="http://www.w3.org/1999/xlink" xml:space="preserve" xmlns:serif="http://www.serif.com/" style="fill-rule:evenodd;clip-rule:evenodd;stroke-linejoin:round;stroke-miterlimit:2;">
    <g transform="matrix(0.0731124,0,0,0.0731124,19.7228,20)">
        <g id="thumbs-up.svg" transform="matrix(1,0,0,1,-256,-256)">
            <path d="M472.06,334L327.9,327.87C323.29,327.51 304,326.66 304,302C304,278.19 323.16,276.67 328.14,276.12L472.06,270C484.73,270.13 496,284.43 496,302C496,319.57 484.73,333.87 472.06,334ZM330.61,202.33L437.35,194C450,194 464,210.68 464,227.88L464,228.21C464,244.53 452.86,257.83 439.12,258L330.67,256.27C304,253 304,236.83 304,229.88C304,207 325.8,202.73 330.61,202.33ZM421.85,480L332.48,471.07C308,470.14 304,453.82 304,443.59C304,425.21 317.41,418.99 330.67,418.99L421.67,415.99C436.21,416.22 447.99,430.49 447.99,447.99C447.99,465.49 436.32,479.66 421.85,480ZM456.21,408.5L329.81,402.29C320.42,401.66 304,399.29 304,375.92C304,363.92 308.35,350.31 329,348.39L456.19,344.51C469.35,344.65 480,358 480,375.91C480,393.82 469.35,408.34 456.21,408.49L456.21,408.5Z" style="fill-rule:nonzero;"/>
            <path d="M133.55,238.06C131.234,239.325 128.639,239.992 126,240C128.624,239.993 131.205,239.333 133.51,238.08L133.55,238.06ZM174.14,168.78L174.27,168.55L174.14,168.78C153.64,204.29 143.78,223.73 140.32,230.78C143.79,223.71 153.66,204.27 174.14,168.78Z" style="fill:none;fill-rule:nonzero;"/>
            <path d="M139.34,232.84L140.34,230.84C138.893,233.902 136.526,236.437 133.57,238.09C135.889,236.831 137.869,235.03 139.34,232.84Z" style="fill-rule:nonzero;"/>
            <path d="M316.06,52.62C306.63,39.32 291,32 272,32C265.95,31.999 260.397,35.43 257.69,40.84C254.69,46.91 242.44,64.84 229.5,83.75C211.5,110.08 189.15,142.82 174.27,168.55L174.14,168.78C153.66,204.27 143.79,223.71 140.32,230.78L139.32,232.78C137.839,234.961 135.853,236.752 133.53,238C131.226,239.284 128.637,239.971 126,240L100.69,240C54.23,240 16,278.23 16,324.69L16,363.3C16,363.303 16,363.307 16,363.31C16,409.77 54.23,448 100.69,448L149.48,448C152.886,448.013 156.215,449.018 159.06,450.89C182,465.87 225.34,480 272,480C279.45,480 286.19,479.86 292.27,479.62C296.549,479.468 299.985,475.906 299.985,471.625C299.985,469.943 299.455,468.303 298.47,466.94L298.37,466.8C289.8,454.41 288,441 288,432C287.985,423.472 289.753,415.035 293.19,407.23C295.169,402.758 295.169,397.652 293.19,393.18C286.28,377.102 286.28,358.868 293.19,342.79C295.159,338.333 295.159,333.247 293.19,328.79C286.313,312.983 286.313,295.007 293.19,279.2C295.259,274.528 295.259,269.192 293.19,264.52C289.623,256.493 287.851,247.783 288,239C288,230.8 290,217.7 296,207.81C298.455,203.683 298.876,198.647 297.14,194.17C296.76,193.17 296.38,192.1 296.01,191C294.813,187.262 294.518,183.294 295.15,179.42C298.15,160.08 304.82,143.13 311.89,125.26C314.97,117.48 318.16,109.44 321.11,101C327.25,83.43 325.41,65.8 316.06,52.62Z" style="fill-rule:nonzero;"/>
        </g>
        <g id="thumbs-up.svg1" serif:id="thumbs-up.svg">
        </g>
    </g>
</svg>
