<?xml version="1.0"?><svg fill="#000000" xmlns="http://www.w3.org/2000/svg"  viewBox="0 0 30 30" width="30px" height="30px">    <path d="M 20.025391 -0.00390625 A 1.0001 1.0001 0 0 0 19.757812 0.029296875 L 15.757812 1.0292969 A 1.0001 1.0001 0 0 0 15.029297 1.7578125 L 14.21875 5 L 7 5 C 6.448 5 6 5.448 6 6 L 6 8 L 24 8 L 24 6 C 24 5.448 23.552 5 23 5 L 16.28125 5 L 16.824219 2.8242188 L 20.242188 1.9707031 A 1.0001 1.0001 0 0 0 20.025391 -0.00390625 z M 7 10 L 8.7929688 25.234375 C 8.9119687 26.241375 9.7642969 27 10.779297 27 L 19.222656 27 C 20.236656 27 21.089031 26.241375 21.207031 25.234375 L 23 10 L 7 10 z M 11 16 C 11.552 16 12 16.448 12 17 C 12 17.552 11.552 18 11 18 C 10.448 18 10 17.552 10 17 C 10 16.448 10.448 16 11 16 z M 19 16 C 19.552 16 20 16.448 20 17 C 20 17.552 19.552 18 19 18 C 18.448 18 18 17.552 18 17 C 18 16.448 18.448 16 19 16 z M 13 19 L 17 19 C 17 20.105 16.105 21 15 21 C 13.895 21 13 20.105 13 19 z"/></svg>