<?xml version="1.0" encoding="UTF-8" standalone="no"?>
<!DOCTYPE svg PUBLIC "-//W3C//DTD SVG 1.1//EN" "http://www.w3.org/Graphics/SVG/1.1/DTD/svg11.dtd">
<svg width="100%" height="100%" viewBox="0 0 40 40" version="1.1" xmlns="http://www.w3.org/2000/svg" xmlns:xlink="http://www.w3.org/1999/xlink" xml:space="preserve" xmlns:serif="http://www.serif.com/" style="fill-rule:evenodd;clip-rule:evenodd;stroke-linejoin:round;stroke-miterlimit:2;">
    <g transform="matrix(0.0726563,0,0,0.0726563,20,20)">
        <g id="crop.svg" transform="matrix(1,0,0,1,-256,-256)">
            <path d="M458,346L192,346C177.737,346 166,334.263 166,320L166,54C166,41.931 156.069,32 144,32C131.931,32 122,41.931 122,54L122,122L54,122C41.931,122 32,131.931 32,144C32,156.069 41.931,166 54,166L122,166L122,320C122.044,358.384 153.616,389.956 192,390L346,390L346,458C346,470.069 355.931,480 368,480C380.069,480 390,470.069 390,458L390,390L458,390C470.069,390 480,380.069 480,368C480,355.931 470.069,346 458,346Z" style="fill-rule:nonzero;"/>
            <path d="M214,166L320,166C334.263,166 346,177.737 346,192L346,298C346,310.069 355.931,320 368,320C380.069,320 390,310.069 390,298L390,192C389.956,153.616 358.384,122.044 320,122L214,122C201.931,122 192,131.931 192,144C192,156.069 201.931,166 214,166Z" style="fill-rule:nonzero;"/>
        </g>
        <g id="crop.svg1" serif:id="crop.svg">
        </g>
    </g>
</svg>
