<?xml version="1.0"?><svg fill="#000000" xmlns="http://www.w3.org/2000/svg"  viewBox="0 0 30 30" width="30px" height="30px">    <path d="M 13.5 2 A 2.5 2.5 0 0 0 11 4.5 A 2.5 2.5 0 0 0 13.5 7 A 2.5 2.5 0 0 0 16 4.5 A 2.5 2.5 0 0 0 13.5 2 z M 12.5 9 C 11.119 9 10 10.119 10 11.5 L 10 16.5 C 10 17.093 10.215547 17.631547 10.560547 18.060547 C 10.559547 18.061547 13.568359 21.646484 13.568359 21.646484 L 15 27.087891 L 15.013672 27.164062 A 1.0001 1.0001 0 1 0 16.986328 26.835938 L 15.986328 20.835938 A 1.0001 1.0001 0 0 0 15.923828 20.617188 L 15.921875 20.601562 L 14.697266 17.669922 L 14.943359 14.830078 L 17.509766 14.318359 C 17.876892 14.732805 18.406173 15 19 15 C 20.1 15 21 14.1 21 13 C 21 11.9 20.1 11 19 11 C 18.125497 11 17.3852 11.571494 17.115234 12.357422 L 15 12.78125 L 15 11.5 C 15 10.119 13.881 9 12.5 9 z M 9.8847656 20.365234 L 8.1679688 26.320312 L 8.0488281 26.695312 C 7.8798281 27.221312 8.1693125 27.783172 8.6953125 27.951172 C 8.7973125 27.984172 8.899 28 9 28 C 9.398 28 9.7600156 27.755 9.9160156 27.375 L 11.943359 23.333984 L 11.748047 22.587891 L 10.53125 21.138672 L 9.8847656 20.365234 z"/></svg>