<?xml version="1.0" encoding="UTF-8" standalone="no"?>
<!DOCTYPE svg PUBLIC "-//W3C//DTD SVG 1.1//EN" "http://www.w3.org/Graphics/SVG/1.1/DTD/svg11.dtd">
<svg width="100%" height="100%" viewBox="0 0 40 40" version="1.1" xmlns="http://www.w3.org/2000/svg" xmlns:xlink="http://www.w3.org/1999/xlink" xml:space="preserve" xmlns:serif="http://www.serif.com/" style="fill-rule:evenodd;clip-rule:evenodd;stroke-linejoin:round;stroke-miterlimit:2;">
    <g transform="matrix(0.0726563,0,0,0.0726563,20,20)">
        <g id="hardware-chip.svg" transform="matrix(1,0,0,1,-256,-256)">
            <path d="M352,128L160,128C142.445,128 128,142.445 128,160L128,352C128,369.555 142.445,384 160,384L352,384C369.555,384 384,369.555 384,352L384,160C384,142.445 369.555,128 352,128ZM352,344C352,348.389 348.389,352 344,352L168,352C163.611,352 160,348.389 160,344L160,168C160,163.611 163.611,160 168,160L344,160C348.389,160 352,163.611 352,168L352,344Z" style="fill:none;fill-rule:nonzero;"/>
            <path d="M352,168C352,163.585 348.415,160 344,160L168,160C163.585,160 160,163.585 160,168L160,344C160,348.415 163.585,352 168,352L344,352C348.415,352 352,348.415 352,344L352,168Z"/>
            <path d="M464,192C472.777,192 480,184.777 480,176C480,167.223 472.777,160 464,160L448,160L448,128C447.962,92.905 419.095,64.038 384,64L352,64L352,48C352,39.223 344.777,32 336,32C327.223,32 320,39.223 320,48L320,64L272,64L272,48C272,39.223 264.777,32 256,32C247.223,32 240,39.223 240,48L240,64L192,64L192,48C192,39.223 184.777,32 176,32C167.223,32 160,39.223 160,48L160,64L128,64C92.905,64.038 64.038,92.905 64,128L64,160L48,160C39.223,160 32,167.223 32,176C32,184.777 39.223,192 48,192L64,192L64,240L48,240C39.223,240 32,247.223 32,256C32,264.777 39.223,272 48,272L64,272L64,320L48,320C39.223,320 32,327.223 32,336C32,344.777 39.223,352 48,352L64,352L64,384C64.038,419.095 92.905,447.962 128,448L160,448L160,464C160,472.777 167.223,480 176,480C184.777,480 192,472.777 192,464L192,448L240,448L240,464C240,472.777 247.223,480 256,480C264.777,480 272,472.777 272,464L272,448L320,448L320,464C320,472.777 327.223,480 336,480C344.777,480 352,472.777 352,464L352,448L384,448C419.095,447.962 447.962,419.095 448,384L448,352L464,352C472.777,352 480,344.777 480,336C480,327.223 472.777,320 464,320L448,320L448,272L464,272C472.777,272 480,264.777 480,256C480,247.223 472.777,240 464,240L448,240L448,192L464,192ZM384,352C384,369.555 369.555,384 352,384L160,384C142.445,384 128,369.555 128,352L128,160C128,142.445 142.445,128 160,128L352,128C369.555,128 384,142.445 384,160L384,352Z" style="fill-rule:nonzero;"/>
        </g>
        <g id="hardware-chip.svg1" serif:id="hardware-chip.svg">
        </g>
    </g>
</svg>
