<?xml version="1.0" encoding="UTF-8" standalone="no"?>
<!DOCTYPE svg PUBLIC "-//W3C//DTD SVG 1.1//EN" "http://www.w3.org/Graphics/SVG/1.1/DTD/svg11.dtd">
<svg width="100%" height="100%" viewBox="0 0 40 40" version="1.1" xmlns="http://www.w3.org/2000/svg" xmlns:xlink="http://www.w3.org/1999/xlink" xml:space="preserve" xmlns:serif="http://www.serif.com/" style="fill-rule:evenodd;clip-rule:evenodd;stroke-linejoin:round;stroke-miterlimit:2;">
    <g transform="matrix(0.0731124,0,0,0.0731124,20,20)">
        <g id="sad.svg" transform="matrix(1,0,0,1,-256,-256)">
            <path d="M414.39,97.61C372.337,55.141 314.987,31.22 255.22,31.22C132.338,31.22 31.22,132.338 31.22,255.22C31.22,314.987 55.141,372.337 97.61,414.39C139.663,456.859 197.013,480.78 256.78,480.78C379.662,480.78 480.78,379.662 480.78,256.78C480.78,197.013 456.859,139.663 414.39,97.61ZM184,208C197.166,208 208,218.834 208,232C208,245.166 197.166,256 184,256C170.834,256 160,245.166 160,232C160,231.98 160,231.96 160,231.94C160,218.807 170.807,208 183.94,208C183.96,208 183.98,208 184,208ZM160.33,357.83C172.33,317.53 210.53,288 255.95,288C301.37,288 339.57,317.53 351.66,357.83C351.859,358.536 351.96,359.267 351.96,360.001C351.96,364.39 348.349,368.001 343.96,368.001C343.92,368.001 343.88,368.001 343.84,368L168.15,368C168.11,368.001 168.07,368.001 168.03,368.001C163.641,368.001 160.03,364.39 160.03,360.001C160.03,359.267 160.131,358.536 160.33,357.83ZM328,256C314.834,256 304,245.166 304,232C304,218.834 314.834,208 328,208C341.166,208 352,218.834 352,232C352,232.02 352,232.04 352,232.06C352,245.193 341.193,256 328.06,256C328.04,256 328.02,256 328,256Z" style="fill-rule:nonzero;"/>
        </g>
        <g id="sad.svg1" serif:id="sad.svg">
        </g>
    </g>
</svg>
