<?xml version="1.0" encoding="UTF-8" standalone="no"?>
<!DOCTYPE svg PUBLIC "-//W3C//DTD SVG 1.1//EN" "http://www.w3.org/Graphics/SVG/1.1/DTD/svg11.dtd">
<svg width="100%" height="100%" viewBox="0 0 40 40" version="1.1" xmlns="http://www.w3.org/2000/svg" xmlns:xlink="http://www.w3.org/1999/xlink" xml:space="preserve" xmlns:serif="http://www.serif.com/" style="fill-rule:evenodd;clip-rule:evenodd;stroke-linejoin:round;stroke-miterlimit:2;">
    <g transform="matrix(0.0726563,0,0,0.0726563,20,20)">
        <g id="finger-print.svg" transform="matrix(1,0,0,1,-256,-256)">
            <path d="M63.28,202C60.582,202.024 57.925,201.334 55.58,200C50.911,197.376 48.011,192.42 48.011,187.064C48.011,184.418 48.719,181.82 50.06,179.54C69.34,147.36 128,72.25 256,72.25C311.47,72.25 360.12,86.82 400.53,115.54C433.79,139.11 452.43,165.79 461.31,178.64C463.033,181.118 463.957,184.065 463.957,187.083C463.957,192.05 461.456,196.696 457.31,199.43C450.356,204.027 440.876,202.242 436.07,195.43C420,172.32 371,102 256,102C143.75,102 93,166.71 76.47,194.46C73.769,199.173 68.711,202.064 63.28,202Z" style="fill-rule:nonzero;"/>
            <path d="M320.49,496C319.214,496.015 317.94,495.871 316.7,495.57C223.85,472.57 189.18,379.75 187.77,375.89L187.55,375.04C186.79,372.36 168.16,308.71 196.76,271.43C209.87,254.43 229.81,245.71 256.14,245.71C280.62,245.71 298.28,253.32 310.42,269.07C320.42,281.93 324.42,297.79 328.29,313.07C336.42,344.89 342.29,361.6 376.08,363.32C390.92,364.07 400.67,355.39 406.2,348C421.15,327.85 423.75,295 412.48,266C398,228.57 346.61,158 256,158C217.32,158 181.78,170.43 153.28,193.79C129.69,213.14 111,240.46 102,268.54C85.31,320.82 107.2,403 107.41,403.75C107.744,404.999 107.913,406.286 107.913,407.579C107.913,414.414 103.187,420.407 96.54,422C88.501,424.138 80.11,419.391 77.8,411.4C76.8,407.65 53.42,320 72.7,259.58C93.7,194.11 158.51,128.11 256.03,128.11C301.1,128.11 343.68,143.43 379.22,172.36C406.74,194.86 429.22,225.08 440.98,255.29C455.93,293.86 451.92,337.15 430.79,365.43C416.71,384.29 396.66,394.15 374.45,393.08C316.59,390.18 306.19,349.79 298.61,320.33C290.81,290.11 285.82,275.54 256.03,275.54C239.67,275.54 228.18,280.04 221.03,289.36C211.28,302.11 210.52,322.04 211.6,336.5C212.309,346.574 214.017,356.553 216.7,366.29C219.08,372.29 250.07,448.29 324.29,466.68C330.978,468.264 335.74,474.286 335.74,481.159C335.74,482.383 335.589,483.603 335.29,484.79C333.434,491.403 327.358,496.005 320.49,496Z" style="fill-rule:nonzero;"/>
            <path d="M201.31,489.14C197.107,489.149 193.076,487.447 190.15,484.43C152.99,445.43 131.97,401.82 124.06,347.29L124.06,347C119.62,310.9 126.12,259.79 157.97,224.65C181.48,198.72 214.53,185.54 256.03,185.54C305.11,185.54 343.68,208.36 367.73,251.43C385.18,282.72 388.64,313.9 388.73,315.18C388.773,315.642 388.794,316.107 388.794,316.571C388.794,324.328 382.805,330.882 375.08,331.58C366.846,332.474 359.311,326.509 358.29,318.29C355.656,299.582 349.602,281.517 340.43,265C321.79,232.11 293.43,215.39 255.92,215.39C223.52,215.39 198.17,225.14 180.73,244.39C155.59,272.14 150.73,314.89 154.18,343.17C161.11,391.39 179.64,429.75 212.36,464.03C214.991,466.767 216.462,470.42 216.462,474.217C216.462,478.38 214.694,482.354 211.6,485.14C208.781,487.695 205.115,489.12 201.31,489.14Z" style="fill-rule:nonzero;"/>
            <path d="M372.5,446.18C340,446.18 312.37,437.18 290.26,419.29C245.84,383.5 240.86,325.21 240.64,322.75C240.61,322.357 240.594,321.964 240.594,321.57C240.594,313.193 247.488,306.299 255.865,306.299C263.798,306.299 270.477,312.481 271.09,320.39C271.2,321.25 275.64,368.93 309.88,396.39C330.14,412.57 357.22,418.99 390.59,415.24C398.838,414.239 406.456,420.177 407.5,428.42C407.561,428.966 407.591,429.515 407.591,430.065C407.591,437.727 401.689,444.207 394.06,444.92C386.904,445.755 379.705,446.176 372.5,446.18ZM398.18,48.79C385.5,40.54 340.54,16 256,16C167.26,16 122.19,43.11 112.22,50C111.562,50.404 110.945,50.873 110.38,51.4C110.32,51.458 110.243,51.493 110.16,51.5C106.941,54.311 105.085,58.377 105.07,62.65C105.183,70.832 111.945,77.502 120.129,77.502C120.212,77.502 120.296,77.501 120.38,77.5C123.555,77.498 126.654,76.524 129.26,74.71C129.69,74.39 168.48,45.89 256.03,45.89C343.58,45.89 382.58,74.29 383,74.5C385.662,76.474 388.896,77.527 392.21,77.5C392.287,77.501 392.364,77.502 392.441,77.502C400.639,77.502 407.408,70.808 407.5,62.61C407.502,56.547 403.802,51.061 398.18,48.79Z" style="fill-rule:nonzero;"/>
        </g>
        <g id="finger-print.svg1" serif:id="finger-print.svg">
        </g>
    </g>
</svg>
