<?xml version="1.0" encoding="UTF-8" standalone="no"?>
<!DOCTYPE svg PUBLIC "-//W3C//DTD SVG 1.1//EN" "http://www.w3.org/Graphics/SVG/1.1/DTD/svg11.dtd">
<svg width="100%" height="100%" viewBox="0 0 40 40" version="1.1" xmlns="http://www.w3.org/2000/svg" xmlns:xlink="http://www.w3.org/1999/xlink" xml:space="preserve" xmlns:serif="http://www.serif.com/" style="fill-rule:evenodd;clip-rule:evenodd;stroke-linejoin:round;stroke-miterlimit:2;">
    <g transform="matrix(0.0731124,0,0,0.0731124,20,20)">
        <g id="telescope.svg" transform="matrix(1,0,0,1,-256,-256)">
            <path d="M107.56,250C103.173,242.401 93.311,239.756 85.71,244.14L36,272.81C26.6,278.197 19.803,287.203 17.2,297.72C14.721,308.04 16.353,318.931 21.75,328.07L26.11,335.61C37.088,354.594 61.736,361.191 80.73,350.23L130.4,321.6C135.351,318.747 138.412,313.451 138.412,307.737C138.412,304.93 137.673,302.171 136.27,299.74L107.56,250Z" style="fill-rule:nonzero;"/>
            <path d="M382.84,440.8L288.72,254C288.248,253.058 288.597,251.896 289.51,251.37L297.81,246.58C302.757,243.726 305.814,238.432 305.814,232.721C305.814,229.912 305.075,227.152 303.67,224.72L256.14,142.39C253.287,137.439 247.991,134.378 242.277,134.378C239.47,134.378 236.711,135.117 234.28,136.52L147.9,186.32C138.693,191.595 131.972,200.344 129.25,210.6C128.333,213.772 127.872,217.058 127.88,220.36C127.94,227.96 137.08,243.06 146,258.64C155.59,275.39 165.24,292.52 172.34,296.79C176.86,299.51 184.84,301.69 191.55,301.69L192.39,301.69L113.07,473.29C112.094,475.397 111.588,477.692 111.588,480.015C111.588,488.792 118.811,496.015 127.588,496.015C133.822,496.015 139.512,492.372 142.12,486.71L235.8,284.06C236.489,282.56 237.629,281.312 239.06,280.49L258.27,269.41C258.572,269.237 258.914,269.147 259.262,269.147C260.018,269.147 260.711,269.575 261.05,270.25L354.26,455.25C356.975,460.639 362.516,464.051 368.55,464.051C377.328,464.051 384.551,456.828 384.551,448.05C384.551,445.549 383.965,443.083 382.84,440.85L382.84,440.8ZM490.21,115.74L444.09,36C433.082,17.047 408.463,10.458 389.46,21.38L296.12,75.16C286.91,80.431 280.188,89.182 277.47,99.44C276.144,103.723 275.712,108.233 276.2,112.69C277.94,125.31 289.2,143.09 302.61,166.58C316.19,190.31 331.52,217.06 339.54,222.85C346.319,227.642 354.419,230.217 362.72,230.22C369.714,230.223 376.586,228.38 382.64,224.88L476,171.07C485.38,165.696 492.171,156.718 494.79,146.23C497.288,135.862 495.644,124.917 490.21,115.74Z" style="fill-rule:nonzero;"/>
        </g>
        <g id="telescope.svg1" serif:id="telescope.svg">
        </g>
    </g>
</svg>
