<svg fill="#000000" xmlns="http://www.w3.org/2000/svg"  viewBox="0 0 30 30" width="30px" height="30px"><path d="M 7.5 3 A 2.5 2.5 0 0 0 5 5.5 A 2.5 2.5 0 0 0 7.5 8 A 2.5 2.5 0 0 0 10 5.5 A 2.5 2.5 0 0 0 7.5 3 z M 16.482422 6 A 0.50005 0.50005 0 0 0 16 6.5 L 16 9 L 7.5 9 A 1.0001 1.0001 0 0 0 7.2832031 9.0214844 C 6.0054647 9.1330067 5 10.193256 5 11.5 L 5 16.5 C 5 17.413923 5.4948014 18.204578 6.2265625 18.640625 A 1.0001 1.0001 0 0 0 6.4003906 18.800781 L 10.164062 21.623047 C 9.7791179 21.940402 9.4064198 22.23056 9.0058594 22.582031 C 9.2978594 22.477031 9.536875 22.376547 9.671875 22.310547 C 10.511875 21.901547 11.505797 21.898406 12.341797 22.316406 C 12.722797 22.501406 13.97 23 15 23 C 16.03 23 17.277875 22.502547 17.671875 22.310547 C 18.511875 21.901547 19.505797 21.898406 20.341797 22.316406 C 20.396797 22.342406 20.473547 22.377062 20.560547 22.414062 C 21.394547 21.665063 22.066531 21.008734 22.269531 20.802734 C 23.269531 19.786734 23.998047 18.877875 23.998047 17.671875 C 23.998047 16.828875 23.070625 16 21.765625 16 C 20.318042 16 18.369333 16.451607 15.935547 17.701172 L 12.599609 15.199219 A 1.0001 1.0001 0 0 0 12.132812 15.009766 L 10 14.488281 L 10 11.777344 L 16 11.111328 L 16 13.5 A 0.50005 0.50005 0 0 0 16.777344 13.916016 L 22.652344 10 L 26.5 10 A 0.50005 0.50005 0 1 0 26.5 9 L 22.617188 9 L 16.722656 6.0527344 A 0.50005 0.50005 0 0 0 16.482422 6 z M 17 7.3085938 L 21.505859 9.5625 L 17 12.566406 L 17 11 A 1.0001 1.0001 0 1 0 17 9 L 17 7.3085938 z M 11.078125 17.308594 L 14.023438 18.798828 C 13.306103 19.249432 12.555953 19.766413 11.765625 20.357422 A 1.0003905 1.0003905 0 0 0 11.695312 20.28125 L 9.6347656 17.783203 C 9.6431533 17.769271 9.6500812 17.754341 9.6582031 17.740234 L 11.078125 17.308594 z M 2.9648438 23.994141 A 1.0001 1.0001 0 0 0 2.5527344 25.894531 C 2.5527344 25.894531 4.6666667 27 7 27 C 8.9465696 27 10.458804 26.333203 11 26.078125 C 11.541196 26.333203 13.05343 27 15 27 C 16.94657 27 18.458804 26.333203 19 26.078125 C 19.541196 26.333203 21.05343 27 23 27 C 25.333333 27 27.447266 25.894531 27.447266 25.894531 A 1.0001163 1.0001163 0 1 0 26.552734 24.105469 C 26.552734 24.105469 24.666667 25 23 25 C 21.333333 25 19.447266 24.105469 19.447266 24.105469 A 1.0001 1.0001 0 0 0 18.552734 24.105469 C 18.552734 24.105469 16.666667 25 15 25 C 13.333333 25 11.447266 24.105469 11.447266 24.105469 A 1.0001 1.0001 0 0 0 10.552734 24.105469 C 10.552734 24.105469 8.6666667 25 7 25 C 5.3333333 25 3.4472656 24.105469 3.4472656 24.105469 A 1.0001 1.0001 0 0 0 2.9648438 23.994141 z"/></svg>