<?xml version="1.0" encoding="UTF-8" standalone="no"?>
<!DOCTYPE svg PUBLIC "-//W3C//DTD SVG 1.1//EN" "http://www.w3.org/Graphics/SVG/1.1/DTD/svg11.dtd">
<svg width="100%" height="100%" viewBox="0 0 40 40" version="1.1" xmlns="http://www.w3.org/2000/svg" xmlns:xlink="http://www.w3.org/1999/xlink" xml:space="preserve" xmlns:serif="http://www.serif.com/" style="fill-rule:evenodd;clip-rule:evenodd;stroke-linejoin:round;stroke-miterlimit:2;">
    <g transform="matrix(0.0726563,0,0,0.0726563,20,20)">
        <g id="create.svg" transform="matrix(1,0,0,1,-256,-256)">
            <path d="M459.94,53.25C456.898,49.908 452.582,48 448.063,48C443.811,48 439.73,49.688 436.72,52.69L424.35,65C421.249,68.103 421.249,73.207 424.35,76.31L435.69,87.63C437.191,89.138 439.233,89.986 441.36,89.986C443.487,89.986 445.529,89.138 447.03,87.63L459.09,75.63C465.19,69.54 465.76,59.62 459.94,53.25ZM399.34,90L218.82,270.2C217.726,271.29 216.93,272.644 216.51,274.13L208.16,299C208.053,299.361 207.999,299.735 207.999,300.111C207.999,302.256 209.764,304.021 211.909,304.021C212.285,304.021 212.659,303.967 213.02,303.86L237.87,295.51C239.356,295.09 240.71,294.294 241.8,293.2L422,112.66C425.447,109.176 425.447,103.484 422,100L412.05,90C408.561,86.521 402.829,86.521 399.34,90Z" style="fill-rule:nonzero;"/>
            <path d="M386.34,193.66L264.45,315.79C259.739,320.512 253.949,324.017 247.58,326L221.68,334.67C218.504,335.567 215.219,336.022 211.918,336.022C192.213,336.022 175.998,319.807 175.998,300.102C175.998,296.801 176.453,293.516 177.35,290.34L186.02,264.44C187.997,258.073 191.495,252.283 196.21,247.57L318.34,125.66C319.842,124.16 320.686,122.122 320.686,120C320.686,115.613 317.077,112.002 312.69,112L104,112C73.279,112 48,137.279 48,168L48,408C48,438.721 73.279,464 104,464L344,464C374.721,464 400,438.721 400,408L400,199.31C399.998,194.923 396.387,191.314 392,191.314C389.878,191.314 387.84,192.158 386.34,193.66Z" style="fill-rule:nonzero;"/>
        </g>
        <g id="create.svg1" serif:id="create.svg">
        </g>
    </g>
</svg>
