<?xml version="1.0" encoding="UTF-8" standalone="no"?>
<!DOCTYPE svg PUBLIC "-//W3C//DTD SVG 1.1//EN" "http://www.w3.org/Graphics/SVG/1.1/DTD/svg11.dtd">
<svg width="100%" height="100%" viewBox="0 0 40 40" version="1.1" xmlns="http://www.w3.org/2000/svg" xmlns:xlink="http://www.w3.org/1999/xlink" xml:space="preserve" xmlns:serif="http://www.serif.com/" style="fill-rule:evenodd;clip-rule:evenodd;stroke-linejoin:round;stroke-miterlimit:2;">
    <g transform="matrix(0.0730531,0,0,0.0730531,20,20)">
        <g id="rainy.svg" transform="matrix(1,0,0,1,-256,-256)">
            <path d="M456.26,139.37C439.49,122.64 417.09,110.96 391.09,105.37C386.151,104.307 381.997,100.966 379.9,96.37C370.339,75.488 355.862,57.23 337.71,43.16C314.48,25.39 286.23,16 256,16C221.563,15.891 188.264,28.47 162.5,51.32C138.3,72.88 121.59,102.66 114.07,137.15C112.793,143.096 108.242,147.825 102.35,149.33C77.35,155.63 66.64,161.87 53.14,173.89C34,190.93 24,214.14 24,240.8C24,271.35 35.23,296.44 56.47,313.36C75.08,328.17 100.5,336 130,336L364,336C397.2,336 428.11,324.54 451,303.72C474.84,282.07 488,252.05 488,219.2C488,187.71 477,160.11 456.26,139.37ZM112,448C103.226,447.995 96.01,440.774 96.01,432C96.01,428.84 96.946,425.749 98.7,423.12L130.7,375.12C133.665,370.676 138.667,368 144.01,368C152.788,368 160.01,375.222 160.01,384C160.01,387.16 159.074,390.251 157.32,392.88L125.32,440.88C122.353,445.327 117.346,448.003 112,448ZM160,496C151.23,495.989 144.02,488.77 144.02,480C144.02,476.84 144.956,473.749 146.71,471.12L210.71,375.12C213.675,370.676 218.677,368 224.02,368C232.798,368 240.02,375.222 240.02,384C240.02,387.16 239.084,390.251 237.33,392.88L173.33,488.88C170.361,493.33 165.35,496.007 160,496ZM272,448C263.226,447.995 256.01,440.774 256.01,432C256.01,428.84 256.946,425.749 258.7,423.12L290.7,375.12C293.665,370.676 298.667,368 304.01,368C312.788,368 320.01,375.222 320.01,384C320.01,387.16 319.074,390.251 317.32,392.88L285.32,440.88C282.353,445.327 277.346,448.003 272,448ZM320,496C311.226,495.995 304.01,488.774 304.01,480C304.01,476.84 304.946,473.749 306.7,471.12L370.7,375.12C373.665,370.676 378.667,368 384.01,368C392.788,368 400.01,375.222 400.01,384C400.01,387.16 399.074,390.251 397.32,392.88L333.32,488.88C330.353,493.327 325.346,496.003 320,496Z" style="fill-rule:nonzero;"/>
        </g>
        <g id="rainy.svg1" serif:id="rainy.svg">
        </g>
    </g>
</svg>
