<?xml version="1.0" encoding="UTF-8" standalone="no"?>
<!DOCTYPE svg PUBLIC "-//W3C//DTD SVG 1.1//EN" "http://www.w3.org/Graphics/SVG/1.1/DTD/svg11.dtd">
<svg width="100%" height="100%" viewBox="0 0 40 40" version="1.1" xmlns="http://www.w3.org/2000/svg" xmlns:xlink="http://www.w3.org/1999/xlink" xml:space="preserve" xmlns:serif="http://www.serif.com/" style="fill-rule:evenodd;clip-rule:evenodd;stroke-linejoin:round;stroke-miterlimit:2;">
    <g transform="matrix(0.0741953,0,0,0.0741953,20,20)">
        <g id="thunderstorm.svg" transform="matrix(1,0,0,1,-256,-256)">
            <path d="M96,416C87.226,415.995 80.009,408.774 80.009,400C80.009,397.514 80.588,395.063 81.7,392.84L105.7,344.84C108.407,339.43 113.96,335.999 120.01,335.999C128.788,335.999 136.011,343.222 136.011,352C136.011,354.486 135.432,356.937 134.32,359.16L110.32,407.16C107.611,412.573 102.053,416.004 96,416ZM120,480C111.226,479.995 104.009,472.774 104.009,464C104.009,461.514 104.588,459.063 105.7,456.84L121.7,424.84C124.407,419.43 129.96,415.999 136.01,415.999C144.788,415.999 152.011,423.222 152.011,432C152.011,434.486 151.432,436.937 150.32,439.16L134.32,471.16C131.611,476.573 126.053,480.004 120,480ZM376,416C367.226,415.995 360.009,408.774 360.009,400C360.009,397.514 360.588,395.063 361.7,392.84L385.7,344.84C388.407,339.43 393.96,335.999 400.01,335.999C408.788,335.999 416.011,343.222 416.011,352C416.011,354.486 415.432,356.937 414.32,359.16L390.32,407.16C387.611,412.573 382.053,416.004 376,416ZM400,480C391.226,479.995 384.009,472.774 384.009,464C384.009,461.514 384.588,459.063 385.7,456.84L401.7,424.84C404.407,419.43 409.96,415.999 416.01,415.999C424.788,415.999 432.011,423.222 432.011,432C432.011,434.486 431.432,436.937 430.32,439.16L414.32,471.16C411.611,476.573 406.053,480.004 400,480Z" style="fill-rule:nonzero;"/>
            <path d="M405.84,136.9C399.153,105.213 382.463,76.495 358.24,55C330.196,29.912 293.858,16.03 256.229,16.03C195.889,16.03 140.949,51.726 116.43,106.86C60.5,110.16 16,156.65 16,213.33C16,272.15 63.91,320 122.8,320L189.11,320L176.22,397.37C176.075,398.239 176.002,399.119 176.002,400C176.002,408.776 183.224,415.999 192,416L224,416L224,480C224.015,488.767 231.233,495.973 240,495.973C245.151,495.973 249.997,493.485 253,489.3L333,377.3C334.938,374.587 335.98,371.334 335.98,368C335.98,359.23 328.77,352.011 320,352L292.49,352L300.49,320L404.33,320C454.419,319.799 495.522,278.53 495.522,228.441C495.522,178.921 455.349,137.916 405.84,136.9Z" style="fill-rule:nonzero;"/>
        </g>
        <g id="thunderstorm.svg1" serif:id="thunderstorm.svg">
        </g>
    </g>
</svg>
