<?xml version="1.0" encoding="UTF-8" standalone="no"?>
<!DOCTYPE svg PUBLIC "-//W3C//DTD SVG 1.1//EN" "http://www.w3.org/Graphics/SVG/1.1/DTD/svg11.dtd">
<svg width="100%" height="100%" viewBox="0 0 40 40" version="1.1" xmlns="http://www.w3.org/2000/svg" xmlns:xlink="http://www.w3.org/1999/xlink" xml:space="preserve" xmlns:serif="http://www.serif.com/" style="fill-rule:evenodd;clip-rule:evenodd;stroke-linejoin:round;stroke-miterlimit:2;">
    <g transform="matrix(0.0725591,0,0,0.0725591,20,20)">
        <g id="map.svg" transform="matrix(1,0,0,1,-256,-256)">
            <path d="M48.17,113.34C38.158,119.039 31.968,129.72 32,141.24L32,438C32,438.035 32,438.069 32,438.104C32,455.658 46.445,470.104 64,470.104C69.23,470.104 74.38,468.821 79,466.37C79.43,466.14 79.85,465.9 80.26,465.63L164.4,410.58C166.668,409.101 168.036,406.568 168.03,403.86L168.03,46.45C168.03,46.443 168.03,46.435 168.03,46.428C168.03,42.039 164.419,38.428 160.03,38.428C158.421,38.428 156.849,38.913 155.52,39.82L48.17,113.34ZM212.36,39.31C211.062,38.467 209.548,38.017 208,38.017C203.618,38.017 200.01,41.618 200,46L200,403.56C199.994,406.268 201.362,408.801 203.63,410.28L299.63,472.7C300.93,473.548 302.448,473.999 304,473.999C308.388,473.999 311.999,470.388 312,466L312,108.67C312.008,105.957 310.635,103.419 308.36,101.94L212.36,39.31ZM464.53,46.47C454.945,40.604 442.928,40.268 433.03,45.59C432.599,45.811 432.181,46.058 431.78,46.33L347.63,101.33C345.362,102.809 343.994,105.342 344,108.05L344,465.51C344,465.52 344,465.53 344,465.539C344,469.928 347.611,473.539 352,473.539C353.613,473.539 355.189,473.051 356.52,472.14L463.59,398.68C473.725,393.026 480.02,382.285 480,370.68L480,74.68C480.134,63.231 474.256,52.512 464.53,46.47Z" style="fill-rule:nonzero;"/>
        </g>
        <g id="map.svg1" serif:id="map.svg">
        </g>
    </g>
</svg>
