<?xml version="1.0"?><svg fill="#000000" xmlns="http://www.w3.org/2000/svg"  viewBox="0 0 30 30" width="30px" height="30px">    <path d="M 15 3 C 14.084963 3 13.329341 3.4790923 12.78125 4.1269531 A 1.0001 1.0001 0 0 0 12.404297 4.4921875 L 10.025391 8.5390625 A 1.0002258 1.0002258 0 0 0 11.75 9.5527344 L 13.839844 6 L 13.277344 6 A 1.0001 1.0001 0 0 0 14.140625 5.5039062 C 14.318383 5.1991054 14.627854 5 15 5 C 15.372146 5 15.681617 5.1991054 15.859375 5.5039062 A 1.0001 1.0001 0 0 0 16.679688 6 L 16.158203 6 L 19.580078 11.816406 L 17.832031 12.847656 L 22.449219 14.767578 L 23 9.796875 L 21.302734 10.798828 L 17.59375 4.4921875 A 1.0001 1.0001 0 0 0 17.224609 4.1328125 C 16.676517 3.4813237 15.918042 3 15 3 z M 9.1992188 11.9375 L 4.5898438 13.871094 L 6.3027344 14.875 L 2.4667969 21.396484 A 1.0001 1.0001 0 0 0 2.328125 21.90625 C 2.1824134 22.258144 2 22.59713 2 23 C 2 24.64497 3.3550302 26 5 26 L 12 26 A 1.0001 1.0001 0 1 0 12 24 L 5 24 C 4.4349698 24 4 23.56503 4 23 C 4 22.795823 4.0590573 22.616314 4.1640625 22.457031 A 1.0001 1.0001 0 0 0 4.2460938 21.507812 L 4.4648438 21.943359 L 8.0273438 15.884766 L 9.765625 16.904297 L 9.1992188 11.9375 z M 24.179688 16.748047 A 1.0001 1.0001 0 0 0 23.371094 18.265625 L 25.585938 22.029297 L 25.728516 21.601562 A 1.0001 1.0001 0 0 0 25.837891 22.462891 C 25.941508 22.622145 26 22.8 26 23 C 26 23.56503 25.56503 24 25 24 L 19 24 L 19 22 L 15 25 L 19 28 L 19 26 L 25 26 C 26.64497 26 28 24.64497 28 23 C 28 22.600066 27.821335 22.263162 27.677734 21.914062 A 1.0001 1.0001 0 0 0 27.539062 21.40625 L 25.095703 17.251953 A 1.0001 1.0001 0 0 0 24.179688 16.748047 z"/></svg>