<svg fill="#000000" xmlns="http://www.w3.org/2000/svg"  viewBox="0 0 30 30" width="30px" height="30px"><path d="M 8.5 0 C 6.026562 0 4 2.026562 4 4.5 L 4 11 L 2 11 A 1.0001 1.0001 0 1 0 2 13 L 4.8320312 13 A 1.0001 1.0001 0 0 0 5.1582031 13 L 28 13 A 1.0001 1.0001 0 1 0 28 11 L 6 11 L 6 4.5 C 6 3.107438 7.107438 2 8.5 2 C 9.7874305 2 10.818494 2.9500626 10.96875 4.1933594 C 9.8219828 4.6149525 9 5.7068815 9 7 L 15 7 C 15 5.6838676 14.147682 4.5781212 12.96875 4.1738281 C 12.804484 1.9830796 11.047436 0.25590586 8.8574219 0.072265625 A 1.0001 1.0001 0 0 0 8.5 0 z M 2 15 L 3.3125 21.058594 C 3.8115 23.358594 5.8462188 25 8.1992188 25 L 21.800781 25 C 24.153781 25 26.1895 23.358594 26.6875 21.058594 L 28 15 L 2 15 z"/></svg>