<?xml version="1.0" encoding="UTF-8" standalone="no"?>
<!DOCTYPE svg PUBLIC "-//W3C//DTD SVG 1.1//EN" "http://www.w3.org/Graphics/SVG/1.1/DTD/svg11.dtd">
<svg width="100%" height="100%" viewBox="0 0 40 40" version="1.1" xmlns="http://www.w3.org/2000/svg" xmlns:xlink="http://www.w3.org/1999/xlink" xml:space="preserve" xmlns:serif="http://www.serif.com/" style="fill-rule:evenodd;clip-rule:evenodd;stroke-linejoin:round;stroke-miterlimit:2;">
    <g transform="matrix(0.0726563,0,0,0.0726563,20,20)">
        <g id="brush.svg" transform="matrix(1,0,0,1,-256,-256)">
            <path d="M233.15,360.11C231.479,360.117 229.819,359.857 228.23,359.34C222.411,357.458 218.16,352.397 217.31,346.34C215.16,331.34 197.36,313.88 180.69,310.49C173.287,308.959 167.93,302.381 167.93,294.822C167.93,290.889 169.38,287.092 172,284.16L383.09,49.06C383.28,48.84 383.48,48.63 383.68,48.43C405.612,26.559 441.638,26.559 463.57,48.43C485.432,70.306 485.481,106.274 463.68,128.21L244.68,355.21C241.664,358.341 237.498,360.112 233.15,360.11ZM119.89,480.11C87.75,480.11 54.44,463.22 35.04,437.11C32.991,434.352 31.885,431.006 31.885,427.57C31.885,418.793 39.107,411.57 47.885,411.57C47.887,411.57 47.888,411.57 47.89,411.57C53.23,411.57 67.89,406.7 67.89,391C67.89,351.93 99.29,320.14 137.89,320.14C176.49,320.14 207.89,351.93 207.89,391C207.89,440.12 168.41,480.11 119.89,480.11Z" style="fill-rule:nonzero;"/>
        </g>
        <g id="brush.svg1" serif:id="brush.svg">
        </g>
    </g>
</svg>
