<svg fill="#000000" xmlns="http://www.w3.org/2000/svg"  viewBox="0 0 30 30" width="30px" height="30px"><path d="M 10.984375 1.9863281 A 1.0001 1.0001 0 0 0 10 3 L 10 4 C 10 4.5650302 9.5650302 5 9 5 L 6.5 5 C 4.026562 5 2 7.026562 2 9.5 L 2 10.5 L 2.203125 10.5 C 2.6368636 12.331197 4.1333982 13.751246 6.0292969 13.958984 C 6.0103348 14.137021 6 14.317391 6 14.5 L 6 26 C 6 26.552 6.448 27 7 27 C 7.552 27 8 26.552 8 26 L 8 21.171875 C 8 19.082875 9.5274219 17.217531 11.607422 17.019531 C 13.993422 16.791531 16 18.661 16 21 L 16 26 C 16 26.552 16.448 27 17 27 C 17.552 27 18 26.552 18 26 L 18 19 C 18 18.448 18.448 18 19 18 C 19.552 18 20 18.448 20 19 L 20 26 C 20 26.552 20.448 27 21 27 C 21.552 27 22 26.552 22 26 L 22 15.908203 C 24.281954 15.491153 26 13.676763 26 11.5 L 26 6.7265625 C 26 6.0895625 25.230297 5.7697031 24.779297 6.2207031 L 23.416016 7.5839844 C 22.696836 7.2235115 21.881455 7 21 7 C 20.118545 7 19.303164 7.2235115 18.583984 7.5839844 L 17.220703 6.2207031 C 16.769703 5.7697031 16 6.0895625 16 6.7265625 L 16 10.410156 C 14.938757 9.536464 13.539509 9 12 9 C 9.6693408 9 7.6537465 10.220624 6.6601562 12 L 6.5 12 C 5.107438 12 4 10.892562 4 9.5 C 4 8.107438 5.107438 7 6.5 7 L 9 7 C 10.64497 7 12 5.6449698 12 4 L 12 3 A 1.0001 1.0001 0 0 0 10.984375 1.9863281 z M 19 10 C 19.552 10 20 10.448 20 11 C 20 11.552 19.552 12 19 12 C 18.448 12 18 11.552 18 11 C 18 10.448 18.448 10 19 10 z M 23 10 C 23.552 10 24 10.448 24 11 C 24 11.552 23.552 12 23 12 C 22.448 12 22 11.552 22 11 C 22 10.448 22.448 10 23 10 z M 12 19 C 11.933 19 11.864875 19.002766 11.796875 19.009766 C 10.788875 19.105766 10 20.055875 10 21.171875 L 10 26 C 10 26.552 10.448 27 11 27 C 11.552 27 12 26.552 12 26 L 12 19 z"/></svg>