<?xml version="1.0"?><svg fill="#000000" xmlns="http://www.w3.org/2000/svg"  viewBox="0 0 30 30" width="30px" height="30px">    <path d="M 14.5 2 A 2.5 2.5 0 0 0 12 4.5 A 2.5 2.5 0 0 0 14.5 7 A 2.5 2.5 0 0 0 17 4.5 A 2.5 2.5 0 0 0 14.5 2 z M 12.5 9 A 2.5 2.5 0 0 0 10.197266 10.527344 L 7.2421875 16.427734 L 7.2441406 16.429688 A 2.5 2.5 0 0 0 7 17.5 A 2.5 2.5 0 0 0 9.5 20 L 11 20 L 13.912109 20 L 12.09375 25.578125 A 1.0001163 1.0001163 0 0 0 13.894531 26.447266 L 17.894531 18.447266 A 1.0001 1.0001 0 0 0 17.044922 17.001953 A 1.0001 1.0001 0 0 0 17.035156 17 L 12.835938 16.365234 L 14.648438 12.773438 A 2.5 2.5 0 0 0 14.810547 12.451172 L 15.126953 11.824219 L 23.947266 11 L 24 11 A 1.0001 1.0001 0 1 0 24 9 L 12.5 9 z"/></svg>