<?xml version="1.0" encoding="UTF-8" standalone="no"?>
<!DOCTYPE svg PUBLIC "-//W3C//DTD SVG 1.1//EN" "http://www.w3.org/Graphics/SVG/1.1/DTD/svg11.dtd">
<svg width="100%" height="100%" viewBox="0 0 40 40" version="1.1" xmlns="http://www.w3.org/2000/svg" xmlns:xlink="http://www.w3.org/1999/xlink" xml:space="preserve" xmlns:serif="http://www.serif.com/" style="fill-rule:evenodd;clip-rule:evenodd;stroke-linejoin:round;stroke-miterlimit:2;">
    <g transform="matrix(0.0726563,0,0,0.0726563,20,20)">
        <g id="glasses.svg" transform="matrix(1,0,0,1,-256,-256)">
            <path d="M464,184L453.1,184C448.051,181.018 442.684,178.61 437.1,176.82C419.5,171 396.26,168 368,168C339.74,168 316.5,171 298.94,176.82C284.88,181.51 278.69,186.68 276.69,188.69C263.621,182.441 248.399,182.441 235.33,188.69C233.33,186.69 227.14,181.51 213.08,176.82C195.5,171 172.26,168 144,168C115.74,168 92.5,171 74.94,176.82C69.356,178.61 63.989,181.018 58.94,184L48,184C39.223,184 32,191.223 32,200C32,208.777 39.223,216 48,216L48.17,216C49.17,261.46 54.61,288.78 66.28,308.23C73.589,320.785 84.799,330.619 98.2,336.23C110.43,341.47 125.42,344.02 144,344.02C168.15,344.02 202.48,340.31 221.72,308.25C231.4,292.11 236.81,270.56 238.93,237.73C239.635,235.902 239.997,233.959 240,232C240,223.223 247.223,216 256,216C264.777,216 272,223.223 272,232C272.005,233.953 272.368,235.888 273.07,237.71C275.19,270.54 280.6,292.09 290.28,308.23C297.589,320.785 308.799,330.619 322.2,336.23C334.43,341.47 349.42,344.02 368,344.02C392.15,344.02 426.48,340.31 445.72,308.25C457.39,288.8 462.85,261.48 463.83,216.02L464,216.02C472.777,216.02 480,208.797 480,200.02C480,191.243 472.777,184.02 464,184.02L464,184Z" style="fill-rule:nonzero;"/>
        </g>
        <g id="glasses.svg1" serif:id="glasses.svg">
        </g>
    </g>
</svg>
