<?xml version="1.0" encoding="UTF-8" standalone="no"?>
<!DOCTYPE svg PUBLIC "-//W3C//DTD SVG 1.1//EN" "http://www.w3.org/Graphics/SVG/1.1/DTD/svg11.dtd">
<svg width="100%" height="100%" viewBox="0 0 40 40" version="1.1" xmlns="http://www.w3.org/2000/svg" xmlns:xlink="http://www.w3.org/1999/xlink" xml:space="preserve" xmlns:serif="http://www.serif.com/" style="fill-rule:evenodd;clip-rule:evenodd;stroke-linejoin:round;stroke-miterlimit:2;">
    <g transform="matrix(0.0725591,0,0,0.0725591,20,20)">
        <g id="navigate.svg" transform="matrix(1,0,0,1,-256,-256)">
            <path d="M272,464C271.998,464 271.996,464 271.994,464C263.217,464 255.994,456.777 255.994,448C255.994,447.86 255.996,447.72 256,447.58L256,264.13C256,259.741 252.389,256.13 248,256.13L64.41,256.13C57.531,256.211 51.307,251.932 48.92,245.48C46.178,237.719 49.85,229.044 57.33,225.61L441.33,49.46C443.421,48.502 445.695,48.006 447.995,48.006C456.772,48.006 463.995,55.228 463.995,64.006C463.995,66.298 463.502,68.564 462.55,70.65L286.55,454.65C283.952,460.335 278.251,463.999 272,464Z" style="fill-rule:nonzero;"/>
        </g>
        <g id="navigate.svg1" serif:id="navigate.svg">
        </g>
    </g>
</svg>
