<?xml version="1.0" encoding="UTF-8" standalone="no"?>
<!DOCTYPE svg PUBLIC "-//W3C//DTD SVG 1.1//EN" "http://www.w3.org/Graphics/SVG/1.1/DTD/svg11.dtd">
<svg width="100%" height="100%" viewBox="0 0 40 40" version="1.1" xmlns="http://www.w3.org/2000/svg" xmlns:xlink="http://www.w3.org/1999/xlink" xml:space="preserve" xmlns:serif="http://www.serif.com/" style="fill-rule:evenodd;clip-rule:evenodd;stroke-linejoin:round;stroke-miterlimit:2;">
    <g transform="matrix(0.0731124,0,0,0.0731124,20,20)">
        <g id="server.svg" transform="matrix(1,0,0,1,-256,-256)">
            <path d="M256,428C203.65,428 144.61,416.39 98.07,397C81,389.81 66.38,378.18 54.43,369C53.732,368.466 52.878,368.177 52,368.177C49.806,368.177 48,369.983 48,372.177C48,372.178 48,372.179 48,372.18L48,384.76C48,412.83 71.49,437.98 114.14,455.58C152.29,471.33 202.67,480 256,480C309.33,480 359.7,471.33 397.86,455.58C440.51,438 464,412.83 464,384.76L464,372.18C464,372.179 464,372.178 464,372.177C464,369.983 462.194,368.177 460,368.177C459.122,368.177 458.268,368.466 457.57,369C445.62,378.17 431,389.81 413.92,397C367.38,416.39 308.35,428 256,428ZM464,126.51C463.19,98.86 439.82,74.11 398,56.66C359.74,40.76 309.34,32 256,32C202.66,32 152.26,40.76 114.09,56.66C72.31,74.07 48.94,98.77 48.09,126.35L48,144C48,150.41 53.2,160.48 62.63,168.73C73.76,178.46 90.28,188.06 110.41,196.46C153.24,214.36 207.67,225 256,225C304.33,225 358.76,214.32 401.59,196.42C421.72,188.02 438.24,178.42 449.37,168.69C458.8,160.49 464,150.42 464,144L464,126.51Z" style="fill-rule:nonzero;"/>
            <path d="M413.92,226C367.39,245.43 308.35,257 256,257C203.65,257 144.61,245.43 98.07,226C81,218.85 66.38,207.21 54.43,198C53.732,197.466 52.878,197.177 52,197.177C49.805,197.177 48,198.983 48,201.177C48,201.191 48,201.206 48,201.22L48,232C48,238.41 53.2,246.48 62.63,254.73C73.76,264.47 90.28,274.06 110.41,282.47C153.24,300.34 207.67,311 256,311C304.33,311 358.76,300.32 401.59,282.43C421.72,274.02 438.24,264.43 449.37,254.69C458.8,246.47 464,238.41 464,232L464,201.22C464,201.219 464,201.218 464,201.217C464,199.023 462.194,197.217 460,197.217C459.122,197.217 458.268,197.506 457.57,198.04C445.62,207.21 431,218.85 413.92,226Z" style="fill-rule:nonzero;"/>
            <path d="M413.92,312C367.38,331.41 308.35,343 256,343C203.65,343 144.61,331.41 98.07,312C81,304.83 66.38,293.19 54.43,284C53.732,283.466 52.878,283.177 52,283.177C49.806,283.177 48,284.983 48,287.177C48,287.185 48,287.192 48,287.2L48,317C48,323.41 53.2,331.47 62.62,339.71C73.75,349.45 90.28,359.04 110.41,367.45C153.24,385.32 207.66,396 256,396C304.34,396 358.76,385.32 401.59,367.43C421.72,359.02 438.24,349.43 449.37,339.69C458.8,331.44 464,323.37 464,317L464,287.2C464,287.199 464,287.198 464,287.197C464,285.003 462.194,283.197 460,283.197C459.122,283.197 458.268,283.486 457.57,284.02C445.62,293.19 431,304.83 413.92,312Z" style="fill-rule:nonzero;"/>
        </g>
        <g id="server.svg1" serif:id="server.svg">
        </g>
    </g>
</svg>
