<?xml version="1.0" encoding="UTF-8" standalone="no"?>
<!DOCTYPE svg PUBLIC "-//W3C//DTD SVG 1.1//EN" "http://www.w3.org/Graphics/SVG/1.1/DTD/svg11.dtd">
<svg width="100%" height="100%" viewBox="0 0 40 40" version="1.1" xmlns="http://www.w3.org/2000/svg" xmlns:xlink="http://www.w3.org/1999/xlink" xml:space="preserve" xmlns:serif="http://www.serif.com/" style="fill-rule:evenodd;clip-rule:evenodd;stroke-linejoin:round;stroke-miterlimit:2;">
    <g transform="matrix(0.0726563,0,0,0.0726563,20,20)">
        <g id="ice-cream.svg" transform="matrix(1,0,0,1,-256,-256)">
            <path d="M183,352C161.16,351.48 144,333.1 144,311.26L144,277.19C143.997,273.556 141.519,270.359 138,269.45C104.25,260.6 80,229.74 80,192C80.053,153.291 108.145,119.879 146.27,113.18C149.728,112.606 152.425,109.824 152.89,106.35C159.671,54.847 204.053,15.927 256,15.927C307.947,15.927 352.329,54.847 359.11,106.35C359.575,109.824 362.272,112.606 365.73,113.18C403.899,119.809 432.04,153.259 432.04,192C432.04,235.887 395.927,272 352.04,272C352.027,272 352.013,272 352,272C334.639,271.917 317.844,265.755 304.55,254.59C301.695,252.234 297.551,252.175 294.63,254.45C283.627,263.147 270.025,267.918 256,268C248.622,267.944 241.286,266.874 234.2,264.82C233.485,264.615 232.744,264.512 232,264.512C227.612,264.512 224.001,268.122 224,272.51L224,312C224,312.004 224,312.008 224,312.013C224,333.956 205.943,352.013 184,352.013C183.667,352.013 183.333,352.008 183,352Z" style="fill-rule:nonzero;"/>
            <path d="M263.39,299.7C259.268,300.015 256.034,303.476 256,307.61L256,312C255.958,343.453 235.343,371.417 205.31,380.76C202.006,381.818 199.749,384.91 199.749,388.379C199.749,389.466 199.971,390.542 200.4,391.54L241.31,486.34C243.835,492.192 249.627,496 256,496C262.383,495.993 268.177,492.167 270.69,486.3L344.47,314.15C344.897,313.154 345.118,312.081 345.118,310.997C345.118,307.041 342.184,303.65 338.27,303.08C325.708,301.388 313.55,297.463 302.37,291.49C300.158,290.31 297.515,290.236 295.24,291.29C285.194,295.927 274.415,298.773 263.39,299.7Z" style="fill-rule:nonzero;"/>
        </g>
        <g id="ice-cream.svg1" serif:id="ice-cream.svg">
        </g>
    </g>
</svg>
