<svg fill="#000000" xmlns="http://www.w3.org/2000/svg"  viewBox="0 0 30 30" width="30px" height="30px"><path d="M24.59,5H5.41C4.08,5,3,6.08,3,7.41v7.18C3,15.92,4.08,17,5.41,17h2.88c0.67,2.25,2.46,4.04,4.71,4.71V30h4v-8.29 c0,0,0,0,0,0c2.25-0.67,4.04-2.46,4.71-4.71h2.88c1.33,0,2.41-1.08,2.41-2.41V7.41C27,6.08,25.92,5,24.59,5z M15,20 c-2.05,0-3.81-1.24-4.59-3h9.18C18.81,18.76,17.05,20,15,20z M23,14h-1.08H19.9h-9.8H8.08H7c-0.55,0-1-0.45-1-1s0.45-1,1-1h1.68 H11h8h2.32H23c0.55,0,1,0.45,1,1S23.55,14,23,14z M23,10h-3.11H15h-4.89H7c-0.55,0-1-0.45-1-1s0.45-1,1-1h16c0.55,0,1,0.45,1,1 S23.55,10,23,10z"/></svg>