<?xml version="1.0" encoding="UTF-8" standalone="no"?>
<!DOCTYPE svg PUBLIC "-//W3C//DTD SVG 1.1//EN" "http://www.w3.org/Graphics/SVG/1.1/DTD/svg11.dtd">
<svg width="100%" height="100%" viewBox="0 0 40 40" version="1.1" xmlns="http://www.w3.org/2000/svg" xmlns:xlink="http://www.w3.org/1999/xlink" xml:space="preserve" xmlns:serif="http://www.serif.com/" style="fill-rule:evenodd;clip-rule:evenodd;stroke-linejoin:round;stroke-miterlimit:2;">
    <g transform="matrix(0.0726077,0,0,0.0726077,19.9876,20.0124)">
        <g id="language.svg" transform="matrix(1,0,0,1,-256,-256)">
            <path d="M478.33,433.6L388.33,215.6C384.938,207.383 376.884,201.996 367.995,201.996C359.106,201.996 351.052,207.383 347.66,215.6L257.66,433.6C256.534,436.291 255.954,439.178 255.954,442.095C255.954,454.164 265.885,464.095 277.954,464.095C286.882,464.095 294.964,458.66 298.33,450.39L316.66,406L419.33,406L437.66,450.39C441.051,458.61 449.107,464.001 458,464C470.064,463.993 479.987,454.064 479.987,442C479.987,439.118 479.42,436.264 478.32,433.6L478.33,433.6ZM334.83,362L368,281.65L401.17,362L334.83,362ZM267.84,342.92C274.909,333.155 272.703,319.305 262.95,312.22C262.75,312.07 247.95,301.09 226.46,277.49C266.11,223.81 288.57,162.74 297.73,134L330,134C342.069,134 352,124.069 352,112C352,99.931 342.069,90 330,90L214,90L214,70C214,57.931 204.069,48 192,48C179.931,48 170,57.931 170,70L170,90L54,90C41.931,90 32,99.931 32,112C32,124.069 41.931,134 54,134L251.25,134C241.73,160.95 224.2,203.5 197.46,242.36C166.05,200.68 154.38,173.71 154.29,173.49C150.813,165.454 142.855,160.227 134.099,160.227C122.03,160.227 112.099,170.158 112.099,182.227C112.099,185.059 112.646,187.865 113.71,190.49C114.29,191.87 128.26,224.72 166.57,274.42C167.49,275.61 168.4,276.77 169.31,277.93C130.07,322.28 91.57,349.79 75.46,358.67C68.401,362.52 63.994,369.945 63.994,377.985C63.994,390.055 73.925,399.986 85.995,399.986C89.676,399.986 93.299,399.063 96.53,397.3C98.69,396.12 145.13,370.41 198.16,311.71C220.68,335.79 236.16,347.15 237.09,347.81C240.848,350.539 245.375,352.01 250.019,352.01C257.069,352.01 263.706,348.621 267.84,342.91L267.84,342.92Z" style="fill-rule:nonzero;"/>
        </g>
        <g id="language.svg1" serif:id="language.svg">
        </g>
    </g>
</svg>
