<svg fill="#000000" xmlns="http://www.w3.org/2000/svg"  viewBox="0 0 30 30" width="30px" height="30px"><path d="M 5 4 C 3.895 4 3 4.895 3 6 L 3 20 C 3 21.105 3.895 22 5 22 L 12.75 22 L 12.25 24 L 11 24 A 1.0001 1.0001 0 1 0 11 26 L 19 26 A 1.0001 1.0001 0 1 0 19 24 L 17.75 24 L 17.25 22 L 25 22 C 26.105 22 27 21.105 27 20 L 27 6 C 27 4.895 26.105 4 25 4 L 5 4 z M 5 6 L 25 6 L 25 18 L 5 18 L 5 6 z M 15 19 C 15.552 19 16 19.448 16 20 C 16 20.552 15.552 21 15 21 C 14.448 21 14 20.552 14 20 C 14 19.448 14.448 19 15 19 z"/></svg>