<?xml version="1.0" encoding="UTF-8" standalone="no"?>
<!DOCTYPE svg PUBLIC "-//W3C//DTD SVG 1.1//EN" "http://www.w3.org/Graphics/SVG/1.1/DTD/svg11.dtd">
<svg width="100%" height="100%" viewBox="0 0 40 40" version="1.1" xmlns="http://www.w3.org/2000/svg" xmlns:xlink="http://www.w3.org/1999/xlink" xml:space="preserve" xmlns:serif="http://www.serif.com/" style="fill-rule:evenodd;clip-rule:evenodd;stroke-linejoin:round;stroke-miterlimit:2;">
    <g transform="matrix(0.0735871,0,0,0.0735871,20,20)">
        <g id="thermometer.svg" transform="matrix(1,0,0,1,-256,-256)">
            <path d="M320,287.18L320,81C320,45.88 292.11,16.58 257,16.05C256.693,16.046 256.387,16.043 256.08,16.043C220.954,16.043 192.04,44.925 192,80.05L192,287.18C191.995,289.682 190.817,292.042 188.82,293.55C160.575,315.014 143.969,348.525 144,384C144,445.441 194.559,496 256,496C317.441,496 368,445.441 368,384C368.031,348.525 351.425,315.014 323.18,293.55C321.183,292.042 320.005,289.682 320,287.18ZM254.07,432C228.506,430.945 208.05,409.626 208.05,384.041C208.05,366.905 217.226,351.021 232.07,342.46C237.009,339.608 240.064,334.323 240.07,328.62L240.07,112.45C240.07,103.84 246.69,96.45 255.3,96.02C255.533,96.01 255.767,96.005 256,96.005C264.776,96.005 271.997,103.224 272,112L272,328.58C272.038,334.34 275.149,339.661 280.15,342.52C294.937,351.096 304.068,366.948 304.068,384.042C304.068,410.374 282.4,432.042 256.068,432.042C255.402,432.042 254.736,432.028 254.07,432Z" style="fill-rule:nonzero;"/>
        </g>
        <g id="thermometer.svg1" serif:id="thermometer.svg">
        </g>
    </g>
</svg>
