<?xml version="1.0" encoding="UTF-8" standalone="no"?>
<!DOCTYPE svg PUBLIC "-//W3C//DTD SVG 1.1//EN" "http://www.w3.org/Graphics/SVG/1.1/DTD/svg11.dtd">
<svg width="100%" height="100%" viewBox="0 0 40 40" version="1.1" xmlns="http://www.w3.org/2000/svg" xmlns:xlink="http://www.w3.org/1999/xlink" xml:space="preserve" xmlns:serif="http://www.serif.com/" style="fill-rule:evenodd;clip-rule:evenodd;stroke-linejoin:round;stroke-miterlimit:2;">
    <g transform="matrix(0.0726563,0,0,0.0726563,20,20)">
        <g id="file-tray.svg" transform="matrix(1,0,0,1,-256,-256)">
            <path d="M479.66,268.7L447.66,116.89C441.48,83.77 417.68,64 384,64L128,64C111.2,64 97,68.69 85.9,77.94C74.8,87.19 67.53,100.25 64.32,116.83L32.32,268.7C32.104,269.787 31.997,270.892 32,272L32,384C32,419.109 60.891,448 96,448L416,448C451.109,448 480,419.109 480,384L480,272C479.997,270.891 479.883,269.786 479.66,268.7ZM95.66,123.3L95.66,123.02C99.21,104.59 109.47,96.02 127.95,96.02L384,96.02C402.61,96.02 412.87,104.57 416.27,122.93C416.27,123.06 416.32,123.19 416.34,123.32L443.27,251.2C443.326,251.47 443.355,251.744 443.355,252.02C443.355,254.214 441.549,256.02 439.355,256.02C439.353,256.02 439.352,256.02 439.35,256.02L320,256.02C311.274,255.976 304.055,263.114 304,271.84C304,298.172 282.332,319.84 256,319.84C229.668,319.84 208,298.172 208,271.84C207.956,263.137 200.784,256 192.08,256C192.053,256 192.027,256 192,256L72.65,256C72.648,256 72.647,256 72.645,256C70.451,256 68.645,254.194 68.645,252C68.645,251.724 68.674,251.45 68.73,251.18L95.66,123.3Z" style="fill-rule:nonzero;"/>
        </g>
        <g id="file-tray.svg1" serif:id="file-tray.svg">
        </g>
    </g>
</svg>
