<svg fill="#000000" xmlns="http://www.w3.org/2000/svg"  viewBox="0 0 30 30" width="30px" height="30px"><path d="M 17.273438 3 C 12.722102 3 8.6978249 4.8565575 5.7949219 7.2363281 C 2.8920188 9.6160987 1 12.45022 1 15 L 1 19.660156 C 1 22.130905 3.0468154 24 5.4355469 24 C 6.5605779 24 7.4475603 23.694999 8.1601562 23.441406 C 8.8727524 23.187813 9.4021075 23 10.001953 23 C 10.880589 23 12.035468 23.807762 13.621094 24.837891 C 15.20672 25.868019 17.256935 27 20.009766 27 C 24.983645 27 28.998047 22.875295 28.998047 17.822266 L 28.998047 13.070312 A 1.0001 1.0001 0 0 0 29 13 C 29 12.421755 28.850297 11.686977 28.5 10.697266 C 28.149703 9.7075538 27.588652 8.5348296 26.720703 7.3945312 C 24.984806 5.1139345 21.948485 3 17.273438 3 z M 17.273438 5 C 21.365389 5 23.693053 6.7190654 25.128906 8.6054688 C 25.846833 9.5486704 26.322109 10.542571 26.613281 11.365234 C 26.903387 12.184885 26.997354 12.902071 26.998047 12.994141 A 1.0001 1.0001 0 0 0 26.998047 13 L 26.998047 14.166016 C 26.937798 18.939974 24.347294 21 20.009766 21 C 15.040766 21 12.734953 17 10.001953 17 C 8.3879531 17 7.3345469 18 5.4355469 18 C 3.5945469 18 3 16.121625 3 15.390625 L 3 15 C 3 13.57778 4.467653 10.910433 7.0625 8.7832031 C 9.657347 6.6559737 13.269773 5 17.273438 5 z M 17 7 C 15.636 7 14.276375 7.3021094 12.984375 7.7871094 C 12.575375 7.9401094 12.536922 8.5077969 12.919922 8.7167969 L 14.308594 9.4746094 C 14.486594 9.5716094 14.618828 9.7346875 14.673828 9.9296875 L 15.234375 11.923828 C 15.310375 12.193828 15.505672 12.413484 15.763672 12.521484 L 16.761719 12.939453 C 17.215719 13.129453 17.739266 12.927469 17.947266 12.480469 L 19.9375 8.2109375 C 20.0895 7.8849375 19.925078 7.4877187 19.580078 7.3867188 C 18.698078 7.1307187 17.811 7 17 7 z M 21.951172 8.4941406 C 21.692281 8.4506406 21.421984 8.572375 21.302734 8.828125 L 19.369141 12.978516 C 19.145141 13.458516 19.365516 14.028422 19.853516 14.232422 L 23.548828 15.779297 C 24.013828 15.974297 24.561891 15.738813 24.712891 15.257812 C 24.892891 14.685813 24.984609 14.0735 24.974609 13.4375 C 24.974609 11.2855 23.794219 9.66875 22.199219 8.59375 C 22.121219 8.541 22.037469 8.5086406 21.951172 8.4941406 z M 10.380859 9.2304688 C 10.165484 9.2354688 9.952125 9.2960156 9.765625 9.4160156 C 6.950625 11.230016 4.9746094 13.571516 4.9746094 14.603516 C 4.9736094 15.310516 5.544375 16 6.234375 16 C 7.945375 16 8.9221875 15 9.9921875 15 C 11.644187 15 12.907922 15.582828 14.044922 16.298828 C 14.413922 16.531828 14.873859 16.186625 14.755859 15.765625 L 13.425781 11.033203 C 13.354781 10.780203 13.183125 10.568359 12.953125 10.443359 L 11.007812 9.3828125 C 10.812812 9.2768125 10.596234 9.2254687 10.380859 9.2304688 z M 16.591797 14.585938 C 16.301594 14.640359 16.081125 14.935766 16.171875 15.259766 L 17.005859 18.226562 C 17.787859 18.638562 18.621609 18.923828 19.599609 18.923828 C 20.751609 18.923828 21.758031 18.612031 22.582031 18.082031 C 23.014031 17.804031 22.970094 17.160891 22.496094 16.962891 L 16.896484 14.619141 C 16.792984 14.575891 16.688531 14.567797 16.591797 14.585938 z"/></svg>