<?xml version="1.0" encoding="UTF-8" standalone="no"?>
<!DOCTYPE svg PUBLIC "-//W3C//DTD SVG 1.1//EN" "http://www.w3.org/Graphics/SVG/1.1/DTD/svg11.dtd">
<svg width="100%" height="100%" viewBox="0 0 40 40" version="1.1" xmlns="http://www.w3.org/2000/svg" xmlns:xlink="http://www.w3.org/1999/xlink" xml:space="preserve" xmlns:serif="http://www.serif.com/" style="fill-rule:evenodd;clip-rule:evenodd;stroke-linejoin:round;stroke-miterlimit:2;">
    <g transform="matrix(0.0726563,0,0,0.0726563,20,20)">
        <g id="barbell.svg" transform="matrix(1,0,0,1,-256,-256)">
            <path d="M467,176C457.011,175.675 447.496,180.373 441.68,188.5C441.306,189.035 440.693,189.355 440.04,189.355C438.945,189.355 438.043,188.455 438.04,187.36L438.04,150.71C438.04,129.96 421.7,112.5 400.96,112.01C400.64,112.002 400.32,111.998 400,111.998C379.154,111.998 362,129.152 362,149.998C362,149.999 362,149.999 362,150L362,232C362,233.097 361.097,234 360,234L152,234C150.903,234 150,233.097 150,232L150,150.71C150,129.96 133.66,112.5 112.92,112.01C112.613,112.003 112.307,111.999 112,111.999C91.154,111.999 74,129.153 74,149.999L74,187.38C73.997,188.475 73.095,189.375 72,189.375C71.347,189.375 70.734,189.055 70.36,188.52C64.54,180.373 55.006,175.666 45,176C28.7,176.51 16,190.31 16,206.62L16,305.34C16,321.65 28.74,335.45 45,335.96C54.989,336.285 64.504,331.587 70.32,323.46C70.688,322.889 71.322,322.543 72.001,322.543C73.099,322.543 74.001,323.446 74.001,324.543C74.001,324.569 74.001,324.594 74,324.62L74,361.29C74,382 90.34,399.5 111.08,400C111.387,400.007 111.693,400.011 112,400.011C132.846,400.011 150,382.857 150,362.011C150,362.007 150,362.004 150,362L150,280C150,278.903 150.903,278 152,278L360,278C361.097,278 362,278.903 362,280L362,361.29C362,382.04 378.34,399.5 399.08,399.99C399.387,399.997 399.693,400.001 400,400.001C420.846,400.001 438,382.847 438,362.001L438,324.62C438.003,323.525 438.905,322.625 440,322.625C440.653,322.625 441.266,322.945 441.64,323.48C447.46,331.627 456.994,336.334 467,336C483.3,335.49 496,321.69 496,305.38L496,206.64C496,190.33 483.26,176.53 467,176Z" style="fill-rule:nonzero;"/>
        </g>
        <g id="barbell.svg1" serif:id="barbell.svg">
        </g>
    </g>
</svg>
