<?xml version="1.0" encoding="UTF-8" standalone="no"?>
<!DOCTYPE svg PUBLIC "-//W3C//DTD SVG 1.1//EN" "http://www.w3.org/Graphics/SVG/1.1/DTD/svg11.dtd">
<svg width="100%" height="100%" viewBox="0 0 40 40" version="1.1" xmlns="http://www.w3.org/2000/svg" xmlns:xlink="http://www.w3.org/1999/xlink" xml:space="preserve" xmlns:serif="http://www.serif.com/" style="fill-rule:evenodd;clip-rule:evenodd;stroke-linejoin:round;stroke-miterlimit:2;">
    <g transform="matrix(0.0726563,0,0,0.0726563,20,20)">
        <g id="aperture.svg" transform="matrix(1,0,0,1,-256,-256)">
            <path d="M250.54,129.17L182.74,61.37C143.921,76.143 110.354,102.124 86.32,136L247.72,136C249.912,135.996 251.713,134.192 251.713,132C251.713,130.939 251.291,129.92 250.54,129.17ZM167.72,168L67.63,168C49.22,207.241 43.57,251.283 51.48,293.9L170.54,174.83C171.291,174.08 171.713,173.061 171.713,172C171.713,169.808 169.912,168.004 167.72,168ZM344,167.72L344,67.56C304.746,49.207 260.717,43.583 218.11,51.48L337.17,170.54C337.92,171.291 338.939,171.713 340,171.713C342.192,171.713 343.996,169.912 344,167.72ZM460.52,218.1L341.46,337.17C340.709,337.92 340.287,338.939 340.287,340C340.287,342.192 342.088,343.996 344.28,344L444.37,344C462.78,304.759 468.43,260.717 460.52,218.1ZM382.83,250.54L450.66,182.72C435.926,143.843 409.926,110.231 376,86.2L376,247.72C376.004,249.912 377.808,251.713 380,251.713C381.061,251.713 382.08,251.291 382.83,250.54ZM221.68,341.77C223.169,343.2 225.155,344 227.22,344L286.88,344C289.023,343.999 291.078,343.137 292.58,341.61L341.76,291.61C343.235,290.112 344.062,288.092 344.06,285.99L344,225.18C343.999,223.042 343.141,220.992 341.62,219.49L291.62,170.24C290.12,168.763 288.095,167.936 285.99,167.94L225.15,168C223.012,168.001 220.962,168.859 219.46,170.38L170.21,220.38C168.733,221.88 167.906,223.905 167.91,226.01L167.97,286.79C167.97,288.962 168.856,291.043 170.42,292.55L221.68,341.77ZM261.46,382.83L329.26,450.63C368.079,435.857 401.646,409.876 425.68,376L264.28,376C262.088,376.004 260.287,377.808 260.287,380C260.287,381.061 260.709,382.08 261.46,382.83ZM168,344.28L168,444.44C207.254,462.793 251.283,468.417 293.89,460.52L174.83,341.46C174.08,340.709 173.061,340.287 172,340.287C169.808,340.287 168.004,342.088 168,344.28ZM129.17,261.46L61.34,329.29C76.076,368.162 102.076,401.771 136,425.8L136,264.28C135.996,262.088 134.192,260.287 132,260.287C130.939,260.287 129.92,260.709 129.17,261.46Z" style="fill-rule:nonzero;"/>
        </g>
        <g id="aperture.svg1" serif:id="aperture.svg">
        </g>
    </g>
</svg>
