<?xml version="1.0" encoding="UTF-8" standalone="no"?>
<!DOCTYPE svg PUBLIC "-//W3C//DTD SVG 1.1//EN" "http://www.w3.org/Graphics/SVG/1.1/DTD/svg11.dtd">
<svg width="100%" height="100%" viewBox="0 0 40 40" version="1.1" xmlns="http://www.w3.org/2000/svg" xmlns:xlink="http://www.w3.org/1999/xlink" xml:space="preserve" xmlns:serif="http://www.serif.com/" style="fill-rule:evenodd;clip-rule:evenodd;stroke-linejoin:round;stroke-miterlimit:2;">
    <g transform="matrix(0.0729493,0,0,0.0729493,20,20)">
        <g id="umbrella.svg" transform="matrix(1,0,0,1,-256,-256)">
            <path d="M414.39,113.61C377.867,76.871 329.625,54.033 278.06,49.07C274.857,48.737 272.146,46.522 271.18,43.45C269.246,36.696 263.026,32.006 256,32.006C248.974,32.006 242.754,36.696 240.82,43.45C239.854,46.522 237.143,48.737 233.94,49.07C120.087,60.337 32.236,157.111 32,271.52C31.912,277.065 34.641,282.292 39.24,285.39C45.556,289.519 53.975,288.646 59.31,283.31C79.414,263.213 112.483,263.186 132.62,283.25C135.616,286.302 139.718,288.023 143.995,288.023C148.198,288.023 152.236,286.36 155.22,283.4C177.088,261.636 211.949,259.125 236.71,277.53C238.78,279.086 240.001,281.53 240,284.12L240,431.54C240,440.14 233.4,447.54 224.81,447.98C224.54,447.994 224.27,448.001 224,448.001C215.223,448.001 208,440.778 208,432.001L208,431.997C208,423.22 200.777,415.997 192,415.997C191.903,415.997 191.807,415.998 191.71,416C182.71,416.16 175.81,424.11 176.01,433.1C176.627,458.767 197.708,479.639 223.38,480C250.26,480.34 272,458.07 272,431.19L272,284.12C271.999,281.53 273.22,279.086 275.29,277.53C300.013,259.153 334.811,261.624 356.69,283.31C362.896,289.512 373.104,289.512 379.31,283.31C399.443,263.194 432.557,263.194 452.69,283.31C457.863,288.483 465.956,289.481 472.23,285.72C477.136,282.685 480.092,277.278 480,271.51C480.03,212.263 456.398,155.39 414.39,113.61Z" style="fill-rule:nonzero;"/>
        </g>
        <g id="umbrella.svg1" serif:id="umbrella.svg">
        </g>
    </g>
</svg>
