<?xml version="1.0" encoding="UTF-8" standalone="no"?>
<!DOCTYPE svg PUBLIC "-//W3C//DTD SVG 1.1//EN" "http://www.w3.org/Graphics/SVG/1.1/DTD/svg11.dtd">
<svg width="100%" height="100%" viewBox="0 0 40 40" version="1.1" xmlns="http://www.w3.org/2000/svg" xmlns:xlink="http://www.w3.org/1999/xlink" xml:space="preserve" xmlns:serif="http://www.serif.com/" style="fill-rule:evenodd;clip-rule:evenodd;stroke-linejoin:round;stroke-miterlimit:2;">
    <g transform="matrix(0.0703961,0,0,0.0703961,20,20)">
        <g id="woman.svg" transform="matrix(1,0,0,1,-256,-256)">
            <circle cx="255.75" cy="56" r="56"/>
            <path d="M394.63,277.9L384.3,243.49L384.3,243.38L361.84,168.52L361.79,168.52L359.28,160.07C353.638,141.096 336.075,127.994 316.28,127.99L196.28,127.99C176.482,127.984 158.914,141.09 153.28,160.07L150.77,168.52L150.71,168.52L128.25,243.38L128.25,243.49L117.88,277.9C114.76,288.29 120.18,299.56 130.45,303.04C132.525,303.747 134.703,304.107 136.895,304.107C145.7,304.107 153.517,298.293 156.05,289.86L181.63,204.61L183.8,197.38C184.937,194.209 187.961,192.081 191.33,192.081C195.689,192.081 199.286,195.642 199.33,200C199.329,200.541 199.273,201.081 199.16,201.61L155.43,347.4C154.982,348.892 154.754,350.442 154.754,352C154.754,360.776 161.974,367.998 170.75,368L199.75,368L199.75,482.69C199.75,499.15 210.28,512 223.75,512C237.22,512 247.75,499.15 247.75,482.69L247.75,368L263.75,368L263.75,482.69C263.75,499.15 274.28,512 287.75,512C301.22,512 311.75,499.15 311.75,482.69L311.75,368L341.75,368C341.752,368 341.754,368 341.756,368C350.533,368 357.756,360.777 357.756,352C357.756,350.442 357.528,348.892 357.08,347.4L313.34,201.59C313.23,201.067 313.177,200.534 313.18,200C313.204,195.628 316.808,192.043 321.18,192.043C324.559,192.043 327.591,194.185 328.72,197.37L330.89,204.6L356.46,289.85C359.003,298.268 366.812,304.067 375.606,304.067C377.798,304.067 379.975,303.706 382.05,303C392.32,299.56 397.74,288.29 394.63,277.9Z" style="fill-rule:nonzero;"/>
        </g>
        <g id="woman.svg1" serif:id="woman.svg">
        </g>
    </g>
</svg>
