<?xml version="1.0" encoding="UTF-8" standalone="no"?>
<!DOCTYPE svg PUBLIC "-//W3C//DTD SVG 1.1//EN" "http://www.w3.org/Graphics/SVG/1.1/DTD/svg11.dtd">
<svg width="100%" height="100%" viewBox="0 0 40 40" version="1.1" xmlns="http://www.w3.org/2000/svg" xmlns:xlink="http://www.w3.org/1999/xlink" xml:space="preserve" xmlns:serif="http://www.serif.com/" style="fill-rule:evenodd;clip-rule:evenodd;stroke-linejoin:round;stroke-miterlimit:2;">
    <g transform="matrix(0.0725591,0,0,0.0725591,20,20)">
        <g id="nuclear.svg" transform="matrix(1,0,0,1,-256,-256)">
            <path d="M258.9,48C141.92,46.42 46.42,141.92 48,258.9C49.56,371.09 140.91,462.44 253.1,464C370.1,465.6 465.58,370.1 463.98,253.12C462.44,140.91 371.09,49.56 258.9,48ZM429,239.92L335.92,239.82C334.986,239.818 334.171,239.162 333.97,238.25C329.992,220.888 320.333,205.339 306.53,194.08C305.809,193.496 305.584,192.484 305.99,191.65L347.31,108.22C347.645,107.534 348.344,107.098 349.107,107.098C349.487,107.098 349.859,107.206 350.18,107.41C395.566,136.211 425.364,184.253 431,237.71C431.007,237.78 431.011,237.85 431.011,237.92C431.011,239.017 430.108,239.92 429.011,239.92C429.007,239.92 429.004,239.92 429,239.92ZM208.2,260.38C208.067,258.924 208,257.462 208,256C208,229.668 229.668,208 256,208C282.332,208 304,229.668 304,256C304,282.332 282.332,304 256,304C254.538,304 253.076,303.933 251.62,303.8C228.663,301.697 210.303,283.337 208.2,260.38ZM164.65,108.22L206,191.65C206.406,192.484 206.181,193.496 205.46,194.08C191.65,205.336 181.983,220.885 178,238.25C177.795,239.181 176.953,239.842 176,239.82L82.92,239.92C82.916,239.92 82.913,239.92 82.909,239.92C81.812,239.92 80.909,239.017 80.909,237.92C80.909,237.85 80.913,237.78 80.92,237.71C86.556,184.253 116.354,136.211 161.74,107.41C162.067,107.194 162.451,107.078 162.843,107.078C163.614,107.078 164.319,107.524 164.65,108.22ZM164.28,403.56L220.59,329.47C221.157,328.728 222.173,328.477 223.02,328.87C243.979,338.384 268.061,338.384 289.02,328.87C289.867,328.477 290.883,328.728 291.45,329.47L347.76,403.56C348.027,403.909 348.172,404.337 348.172,404.776C348.172,405.47 347.811,406.116 347.22,406.48C291.277,440.456 220.803,440.456 164.86,406.48C164.253,406.12 163.88,405.465 163.88,404.76C163.88,404.327 164.021,403.906 164.28,403.56Z" style="fill-rule:nonzero;"/>
        </g>
        <g id="nuclear.svg1" serif:id="nuclear.svg">
        </g>
    </g>
</svg>
