<svg fill="#000000" xmlns="http://www.w3.org/2000/svg"  viewBox="0 0 30 30" width="30px" height="30px"><path d="M 18.498047 3 C 17.118047 3 16 4.1190469 16 5.4980469 C 16 6.8790469 17.118047 8 18.498047 8 C 19.881047 8 21 6.8790469 21 5.4980469 C 21 4.1190469 19.881047 3 18.498047 3 z M 10.5 9 C 9.8717725 9 9.2773271 9.2981992 8.9003906 9.8007812 L 6.1992188 13.400391 A 1.0003907 1.0003907 0 1 0 7.8007812 14.599609 L 10.435547 11.087891 L 12.847656 11.570312 L 11.128906 16.707031 L 11.140625 16.710938 C 11.057098 16.960301 11 17.220734 11 17.498047 C 11 18.879047 12.118047 20 13.498047 20 C 13.714192 20 13.921151 19.963544 14.121094 19.912109 L 18.701172 19.269531 L 25.390625 20.851562 L 25.683594 20.949219 A 1.0005646 1.0005646 0 1 0 26.316406 19.050781 L 20.316406 17.050781 A 1.0001 1.0001 0 0 0 20.103516 17.005859 L 16.533203 16.310547 L 17.626953 13.035156 L 20.417969 14.810547 A 1.0001 1.0001 0 0 0 21.447266 14.894531 L 25.447266 12.894531 A 1.0001163 1.0001163 0 1 0 24.552734 11.105469 L 21.197266 12.783203 L 18.585938 10.171875 C 17.835799 9.4217366 16.818469 9 15.757812 9 L 10.5 9 z M 10.121094 20.445312 C 9.6560938 21.328312 9.0273437 22.528312 9.0273438 22.570312 C 9.0273438 22.636312 4.6484375 24.0625 4.6484375 24.0625 L 4.6484375 24.064453 A 1 1 0 0 0 4 25 A 1 1 0 0 0 5 26 A 1 1 0 0 0 5.2675781 25.962891 A 1 1 0 0 0 5.2695312 25.962891 L 9.8496094 25.037109 C 10.291609 24.948109 10.689469 24.711188 10.980469 24.367188 L 13.019531 21.951172 C 11.864531 21.827172 10.846094 21.276312 10.121094 20.445312 z"/></svg>