<?xml version="1.0" encoding="UTF-8" standalone="no"?>
<!DOCTYPE svg PUBLIC "-//W3C//DTD SVG 1.1//EN" "http://www.w3.org/Graphics/SVG/1.1/DTD/svg11.dtd">
<svg width="100%" height="100%" viewBox="0 0 40 40" version="1.1" xmlns="http://www.w3.org/2000/svg" xmlns:xlink="http://www.w3.org/1999/xlink" xml:space="preserve" xmlns:serif="http://www.serif.com/" style="fill-rule:evenodd;clip-rule:evenodd;stroke-linejoin:round;stroke-miterlimit:2;">
    <g transform="matrix(0.0735871,0,0,0.0735871,20,20)">
        <g id="text.svg" transform="matrix(1,0,0,1,-256,-256)">
            <path d="M292.6,407.78L172.6,87.78C169.388,79.212 161.151,73.503 152,73.503C142.849,73.503 134.612,79.212 131.4,87.78L11.4,407.78C10.521,410.193 10.072,412.741 10.072,415.309C10.072,427.378 20.003,437.309 32.072,437.309C41.149,437.309 49.336,431.691 52.6,423.22L88.76,326.8C89.051,326.021 89.799,325.501 90.63,325.5L213.37,325.5C214.201,325.501 214.949,326.021 215.24,326.8L251.4,423.22C254.664,431.691 262.851,437.309 271.928,437.309C283.997,437.309 293.928,427.378 293.928,415.309C293.928,412.741 293.479,410.193 292.6,407.78ZM106.76,278.78L150.13,163.13C150.424,162.355 151.171,161.839 152,161.839C152.829,161.839 153.576,162.355 153.87,163.13L197.24,278.8C197.324,279.024 197.367,279.261 197.367,279.5C197.367,280.596 196.466,281.498 195.37,281.5L108.63,281.5C107.534,281.498 106.633,280.596 106.633,279.5C106.633,279.261 106.676,279.024 106.76,278.8L106.76,278.78ZM400.77,169.5C359.05,169.2 321.69,193.37 305.77,230.9C304.615,233.62 304.019,236.545 304.019,239.5C304.019,251.569 313.951,261.501 326.02,261.501C334.83,261.501 342.826,256.209 346.27,248.1C355.15,227.21 376.04,213.66 399.59,213.5C431.91,213.28 458,240 458,272.35C458,273.154 457.354,273.823 456.55,273.85C434.63,274.46 408.63,275.92 385.43,278.65C330.68,285.09 298,314.94 298,358.5C298,381.69 306.76,402.5 322.67,417.18C337.6,430.93 358,438.5 380,438.5C411,438.5 437.69,430.5 457.94,415.28L458,415.28C458,415.312 458,415.343 458,415.375C458,427.444 467.931,437.375 480,437.375C492.033,437.375 501.948,427.503 502,415.47L502,272.47C502,216.29 457,169.91 400.77,169.5ZM380,394.5C362.47,394.5 342,385.07 342,358.5C342,347.83 345.83,340.36 354.43,334.27C362.8,328.34 375.63,324.11 390.57,322.35C411.69,319.86 435.39,318.49 455.71,317.88C455.711,317.88 455.712,317.88 455.713,317.88C456.81,317.88 457.713,318.783 457.713,319.88C457.713,319.913 457.712,319.947 457.71,319.98C455,370.1 429.46,394.5 380,394.5Z" style="fill-rule:nonzero;"/>
        </g>
        <g id="text.svg1" serif:id="text.svg">
        </g>
    </g>
</svg>
