<?xml version="1.0" encoding="UTF-8" standalone="no"?>
<!DOCTYPE svg PUBLIC "-//W3C//DTD SVG 1.1//EN" "http://www.w3.org/Graphics/SVG/1.1/DTD/svg11.dtd">
<svg width="100%" height="100%" viewBox="0 0 40 40" version="1.1" xmlns="http://www.w3.org/2000/svg" xmlns:xlink="http://www.w3.org/1999/xlink" xml:space="preserve" xmlns:serif="http://www.serif.com/" style="fill-rule:evenodd;clip-rule:evenodd;stroke-linejoin:round;stroke-miterlimit:2;">
    <g transform="matrix(0.0731124,0,0,0.0731124,20,20)">
        <g id="snow.svg" transform="matrix(1,0,0,1,-256,-256)">
            <path d="M461,349L427,329.36C433.153,323.023 440.209,317.631 447.94,313.36C454.848,309.465 459.135,302.126 459.135,294.196C459.135,282.127 449.204,272.196 437.135,272.196C433.477,272.196 429.877,273.108 426.66,274.85C411.899,283.02 398.818,293.912 388.11,306.95L300,256L388.09,205.14C398.795,218.18 411.877,229.073 426.64,237.24C429.937,239.099 433.659,240.076 437.445,240.076C449.513,240.076 459.445,230.145 459.445,218.076C459.445,210.012 455.011,202.57 447.92,198.73C440.191,194.456 433.135,189.065 426.98,182.73L460.98,163.09C468.128,159.268 472.607,151.794 472.607,143.689C472.607,131.62 462.676,121.689 450.607,121.689C446.506,121.689 442.484,122.836 439,125L405,144.63C402.578,136.129 401.426,127.317 401.58,118.48C401.584,118.319 401.585,118.157 401.585,117.996C401.585,106.084 391.91,96.225 380,96L379.59,96C367.675,95.998 357.812,105.677 357.59,117.59C357.28,134.448 360.164,151.214 366.09,167L278,217.89L278,116.18C294.644,113.429 310.616,107.549 325.07,98.85C331.669,94.874 335.717,87.71 335.717,80.005C335.717,67.935 325.785,58.003 313.715,58.003C309.714,58.003 305.787,59.095 302.36,61.16C294.783,65.714 286.574,69.121 278,71.27L278,38C278,25.931 268.069,16 256,16C243.931,16 234,25.931 234,38L234,71.27C225.426,69.121 217.217,65.714 209.64,61.16C206.213,59.095 202.286,58.003 198.285,58.003C186.215,58.003 176.283,67.935 176.283,80.005C176.283,87.71 180.331,94.874 186.93,98.85C201.384,107.549 217.356,113.429 234,116.18L234,217.89L145.91,167C151.845,151.209 154.736,134.436 154.43,117.57C154.208,105.657 144.345,95.978 132.43,95.98L132,95.98C120.087,96.2 110.406,106.061 110.406,117.976C110.406,118.114 110.407,118.252 110.41,118.39C110.571,127.24 109.422,136.066 107,144.58L73,125C69.592,122.967 65.697,121.894 61.73,121.894C49.661,121.894 39.73,131.825 39.73,143.894C39.73,151.854 44.05,159.218 51,163.1L85,182.74C78.845,189.075 71.789,194.466 64.06,198.74C56.969,202.58 52.535,210.022 52.535,218.086C52.535,230.155 62.467,240.086 74.535,240.086C78.321,240.086 82.043,239.109 85.34,237.25C100.101,229.08 113.182,218.188 123.89,205.15L212,256L123.91,306.86C113.202,293.822 100.121,282.93 85.36,274.76C82.063,272.901 78.341,271.924 74.555,271.924C62.487,271.924 52.555,281.855 52.555,293.924C52.555,301.988 56.989,309.43 64.08,313.27C71.809,317.544 78.865,322.935 85.02,329.27L51,349C44.05,352.882 39.73,360.246 39.73,368.206C39.73,380.275 49.661,390.206 61.73,390.206C65.697,390.206 69.592,389.133 73,387.1L107,367.47C109.422,375.971 110.574,384.783 110.42,393.62C110.21,405.675 119.946,415.772 132,416L132.41,416C144.325,416.002 154.188,406.323 154.41,394.41C154.72,377.552 151.836,360.786 145.91,345L234,294.11L234,395.82C217.356,398.571 201.384,404.451 186.93,413.15C180.331,417.126 176.283,424.29 176.283,431.995C176.283,444.065 186.215,453.997 198.285,453.997C202.286,453.997 206.213,452.905 209.64,450.84C217.217,446.286 225.426,442.879 234,440.73L234,474C234,486.069 243.931,496 256,496C268.069,496 278,486.069 278,474L278,440.73C286.574,442.879 294.783,446.286 302.36,450.84C305.787,452.905 309.714,453.997 313.715,453.997C325.785,453.997 335.717,444.065 335.717,431.995C335.717,424.29 331.669,417.126 325.07,413.15C310.616,404.451 294.644,398.571 278,395.82L278,294.11L366.09,345C360.155,360.791 357.264,377.564 357.57,394.43C357.792,406.343 367.655,416.022 379.57,416.02L380,416.02C391.913,415.8 401.594,405.939 401.594,394.024C401.594,393.886 401.593,393.748 401.59,393.61C401.429,384.76 402.578,375.934 405,367.42L439,387.05C442.546,389.327 446.673,390.538 450.887,390.538C462.956,390.538 472.887,380.607 472.887,368.538C472.887,360.328 468.291,352.774 461,349Z" style="fill-rule:nonzero;"/>
        </g>
        <g id="snow.svg1" serif:id="snow.svg">
        </g>
    </g>
</svg>
