<?xml version="1.0" encoding="UTF-8" standalone="no"?>
<!DOCTYPE svg PUBLIC "-//W3C//DTD SVG 1.1//EN" "http://www.w3.org/Graphics/SVG/1.1/DTD/svg11.dtd">
<svg width="100%" height="100%" viewBox="0 0 40 40" version="1.1" xmlns="http://www.w3.org/2000/svg" xmlns:xlink="http://www.w3.org/1999/xlink" xml:space="preserve" xmlns:serif="http://www.serif.com/" style="fill-rule:evenodd;clip-rule:evenodd;stroke-linejoin:round;stroke-miterlimit:2;">
    <g transform="matrix(0.0726563,0,0,0.0726563,20,20)">
        <g id="beer.svg" transform="matrix(1,0,0,1,-256,-256)">
            <path d="M392,208L368,208L368,202.26C378.331,190.577 384.038,175.507 384.038,159.911C384.038,125.422 356.129,96.832 321.65,96C316.546,78.181 307.06,61.922 294.06,48.71C273.541,27.71 245.36,15.901 216,16C186.09,16 158.22,28.28 137,50.68C131.503,48.929 125.768,48.037 119.999,48.037C89.279,48.037 63.999,73.316 63.999,104.037C63.999,112.407 65.876,120.671 69.49,128.22C55.832,140.343 48.004,157.756 48.004,176.019C48.004,198.84 60.228,219.994 80,231.39L80,440C80.033,470.708 105.292,495.967 136,496L312,496C342.708,495.967 367.967,470.708 368,440L368,432L392,432C431.481,431.956 463.956,399.481 464,360L464,280C463.956,240.519 431.481,208.044 392,208ZM176,416C176,424.777 168.777,432 160,432C151.223,432 144,424.777 144,416L144,256C144,247.223 151.223,240 160,240C168.777,240 176,247.223 176,256L176,416ZM240,416C240,424.777 232.777,432 224,432C215.223,432 208,424.777 208,416L208,256C208,247.223 215.223,240 224,240C232.777,240 240,247.223 240,256L240,416ZM304,416C304,424.777 296.777,432 288,432C279.223,432 272,424.777 272,416L272,256C272,247.223 279.223,240 288,240C296.777,240 304,247.223 304,256L304,416ZM320,192C311.67,192 299.45,186.82 293.31,180.69C290.312,177.69 286.241,176.002 282,176L160,176C153.302,176.015 147.29,180.235 145,186.53C138.17,205.21 121.4,208 112,208C94.445,208 80,193.555 80,176C80,158.445 94.445,144 112,144C112.09,144 121.12,144.34 128.4,149.8C131.169,151.877 134.539,153 138,153C146.777,153 154,145.777 154,137C154,131.968 151.626,127.219 147.6,124.2C137.234,116.641 124.823,112.388 112,112C107.29,112.003 102.594,112.529 98,113.57C96.687,110.55 96.009,107.293 96.009,104C96.009,90.838 106.838,80.005 120,80C127.662,79.963 134.888,83.632 139.38,89.84C141.183,92.327 142.759,94.971 144.09,97.74C144.952,105.834 151.86,112.046 160,112.046C168.777,112.046 176,104.823 176,96.046C176,96.031 176,96.015 176,96C176,89.23 172.39,80.83 165.24,71C164.78,70.37 164.24,69.75 163.79,69.14C178.39,55.44 196.64,48 216,48C236.778,47.94 256.718,56.309 271.23,71.18C289.453,89.878 297.442,116.342 292.61,142C292.422,142.986 292.328,143.988 292.328,144.991C292.328,152.646 297.82,159.281 305.34,160.71C306.329,160.896 307.333,160.99 308.34,160.99C315.984,160.982 322.607,155.498 324.04,147.99C325.258,141.586 325.914,135.088 326,128.57C341.022,131.444 351.987,144.706 351.987,160C351.987,177.55 337.55,191.993 320,192ZM432,360C432,381.943 413.943,400 392,400L368,400L368,240L392,240C413.943,240 432,258.057 432,280L432,360Z" style="fill-rule:nonzero;"/>
        </g>
        <g id="beer.svg1" serif:id="beer.svg">
        </g>
    </g>
</svg>
