<?xml version="1.0" encoding="UTF-8" standalone="no"?>
<!DOCTYPE svg PUBLIC "-//W3C//DTD SVG 1.1//EN" "http://www.w3.org/Graphics/SVG/1.1/DTD/svg11.dtd">
<svg width="100%" height="100%" viewBox="0 0 40 40" version="1.1" xmlns="http://www.w3.org/2000/svg" xmlns:xlink="http://www.w3.org/1999/xlink" xml:space="preserve" xmlns:serif="http://www.serif.com/" style="fill-rule:evenodd;clip-rule:evenodd;stroke-linejoin:round;stroke-miterlimit:2;">
    <g transform="matrix(0.0726563,0,0,0.0726563,20,20)">
        <g id="ear.svg" transform="matrix(1,0,0,1,-256,-256)">
            <path d="M256,16C159,16 80,95 80,192L80,398.57C79.981,424.181 90.045,448.797 108,467.06C125.792,485.528 150.356,495.983 176,496C212.86,496 243.18,480.38 266.12,449.58C270.6,443.58 275.67,434.84 281.54,424.73C296.86,398.36 317.83,362.26 344.71,343.99C370.48,326.48 391.94,304.45 406.71,280.27C423.51,252.94 432,223.24 432,192C432,95 353.05,16 256,16ZM352,200C343.223,200 336,192.777 336,184C336,144.3 300.11,112 256,112C211.89,112 176,144.3 176,184L176,214.42C203.19,206.58 234.4,207.7 240.28,208C266.438,208.249 287.823,229.839 287.823,255.998C287.823,266.002 284.695,275.76 278.88,283.9C278.58,284.31 278.27,284.71 277.93,285.1C261.38,304.1 241.93,330.58 239.47,340.1C237.513,346.948 231.208,351.703 224.086,351.703C215.309,351.703 208.086,344.481 208.086,335.703C208.086,334.442 208.235,333.186 208.53,331.96C214.04,311.02 245.46,273.76 253.19,264.81C254.914,262.196 255.834,259.132 255.834,256C255.834,247.223 248.611,240 239.834,240C239.829,240 239.825,240 239.82,240L238.94,240C222.34,239.11 193.05,240.8 176,248.31L176,304C176,312.777 168.777,320 160,320C151.223,320 144,312.777 144,304L144,184C144,126.65 194.24,80 256,80C317.76,80 368,126.65 368,184C368,192.777 360.777,200 352,200Z" style="fill-rule:nonzero;"/>
        </g>
        <g id="ear.svg1" serif:id="ear.svg">
        </g>
    </g>
</svg>
