<?xml version="1.0" encoding="UTF-8" standalone="no"?>
<!DOCTYPE svg PUBLIC "-//W3C//DTD SVG 1.1//EN" "http://www.w3.org/Graphics/SVG/1.1/DTD/svg11.dtd">
<svg width="100%" height="100%" viewBox="0 0 40 40" version="1.1" xmlns="http://www.w3.org/2000/svg" xmlns:xlink="http://www.w3.org/1999/xlink" xml:space="preserve" xmlns:serif="http://www.serif.com/" style="fill-rule:evenodd;clip-rule:evenodd;stroke-linejoin:round;stroke-miterlimit:2;">
    <g transform="matrix(0.0731124,0,0,0.0731124,20,20)">
        <g id="shirt.svg" transform="matrix(1,0,0,1,-256,-256)">
            <path d="M256,96C289.08,96 316.71,70.22 320,38C320.3,35 317,32 314,32C312.378,32.002 310.77,32.307 309.26,32.9C309.06,32.98 288.16,41 256,41C223.84,41 202.9,33 202.74,32.9C201.036,32.307 199.244,32.003 197.44,32L197.38,32C194.376,32.159 191.991,34.674 191.991,37.682C191.991,37.788 191.994,37.894 192,38C195.35,70.16 223,96 256,96Z" style="fill-rule:nonzero;"/>
            <path d="M485.29,89.9L356,44.64C355.576,44.492 355.131,44.417 354.682,44.417C352.72,44.417 351.033,45.861 350.73,47.8C343.038,93.885 302.763,127.995 256.04,127.995C209.317,127.995 169.042,93.885 161.35,47.8C161.059,45.849 159.366,44.389 157.394,44.389C156.918,44.389 156.446,44.474 156,44.64L26.71,89.9C19.264,92.507 14.801,100.251 16.28,108L32.91,196C34.22,202.866 39.885,208.115 46.83,208.9L95.71,214.42C99.825,214.884 102.934,218.471 102.81,222.61L95.48,463.51C95.282,469.842 98.863,475.721 104.58,478.45C106.91,479.503 109.443,480.032 112,480L400,480C402.557,480.032 405.09,479.503 407.42,478.45C413.137,475.721 416.718,469.842 416.52,463.51L409.19,222.61C409.066,218.471 412.175,214.884 416.29,214.42L465.17,208.9C472.115,208.115 477.78,202.866 479.09,196L495.72,108C497.199,100.251 492.736,92.507 485.29,89.9Z" style="fill-rule:nonzero;"/>
        </g>
        <g id="shirt.svg1" serif:id="shirt.svg">
        </g>
    </g>
</svg>
