<?xml version="1.0" encoding="UTF-8" standalone="no"?>
<!DOCTYPE svg PUBLIC "-//W3C//DTD SVG 1.1//EN" "http://www.w3.org/Graphics/SVG/1.1/DTD/svg11.dtd">
<svg width="100%" height="100%" viewBox="0 0 40 40" version="1.1" xmlns="http://www.w3.org/2000/svg" xmlns:xlink="http://www.w3.org/1999/xlink" xml:space="preserve" xmlns:serif="http://www.serif.com/" style="fill-rule:evenodd;clip-rule:evenodd;stroke-linejoin:round;stroke-miterlimit:2;">
    <g transform="matrix(0.0726563,0,0,0.0726563,20,20)">
        <g id="cloudy.svg" transform="matrix(1,0,0,1,-256,-256)">
            <path d="M376,432L116,432C83.63,432 55.77,423.43 35.41,407.23C12.24,388.78 0,361.39 0,328C0,270.43 42,237.42 87.56,227.25C93.67,225.858 98.423,220.999 99.68,214.86C107.36,178.18 124.13,146.71 148.86,122.86C177.633,95.198 216.087,79.816 256,80C291.5,80 324.24,91.69 350.68,113.8C368.753,129.044 383.132,148.193 392.73,169.8C394.823,174.502 399.061,177.916 404.1,178.96C431.1,184.57 455.17,196.29 473.28,212.81C498.61,235.88 512,267.42 512,304C512,340 497.62,372.88 471.51,396.59C446.36,419.43 412.44,432 376,432Z" style="fill-rule:nonzero;"/>
        </g>
        <g id="cloudy.svg1" serif:id="cloudy.svg">
        </g>
    </g>
</svg>
