<?xml version="1.0" encoding="UTF-8" standalone="no"?>
<!DOCTYPE svg PUBLIC "-//W3C//DTD SVG 1.1//EN" "http://www.w3.org/Graphics/SVG/1.1/DTD/svg11.dtd">
<svg width="100%" height="100%" viewBox="0 0 40 40" version="1.1" xmlns="http://www.w3.org/2000/svg" xmlns:xlink="http://www.w3.org/1999/xlink" xml:space="preserve" xmlns:serif="http://www.serif.com/" style="fill-rule:evenodd;clip-rule:evenodd;stroke-linejoin:round;stroke-miterlimit:2;">
    <g transform="matrix(0.0725591,0,0,0.0725591,20,20)">
        <g id="location.svg" transform="matrix(1,0,0,1,-256,-256)">
            <circle cx="256" cy="192" r="32"/>
            <path d="M256,32C167.78,32 96,100.65 96,185C96,225.17 114.31,278.59 150.42,343.78C179.42,396.12 212.97,443.45 230.42,467C236.396,475.155 245.92,479.983 256.03,479.983C266.14,479.983 275.664,475.155 281.64,467C299.06,443.45 332.64,396.12 361.64,343.78C397.69,278.61 416,225.19 416,185C416,100.65 344.22,32 256,32ZM256,256C220.891,256 192,227.109 192,192C192,156.891 220.891,128 256,128C291.109,128 320,156.891 320,192C319.962,227.095 291.095,255.962 256,256Z" style="fill-rule:nonzero;"/>
        </g>
        <g id="location.svg1" serif:id="location.svg">
        </g>
    </g>
</svg>
