<svg fill="#000000" xmlns="http://www.w3.org/2000/svg"  viewBox="0 0 30 30" width="30px" height="30px"><path d="M 3.5 7 A 2.5 2.5 0 0 0 1 9.5 A 2.5 2.5 0 0 0 3.5 12 A 2.5 2.5 0 0 0 6 9.5 A 2.5 2.5 0 0 0 3.5 7 z M 9.5 10 A 2.5 2.5 0 0 0 7 12.5 A 2.5 2.5 0 0 0 7.1601562 13.375 L 7.1582031 13.376953 L 8.6113281 17.574219 L 6.3203125 20.265625 L 6.2929688 20.292969 A 1.0001 1.0001 0 0 0 6.8242188 22 L 2 22 A 1.0001 1.0001 0 1 0 2 24 L 28 24 A 1.0001 1.0001 0 1 0 28 22 A 1.0003547 1.0003547 0 0 0 28.587891 20.193359 L 28.59375 20.185547 L 19.964844 15.330078 C 19.964844 15.330078 19.571906 13.789219 18.128906 13.199219 C 16.781906 12.648219 10.400391 10.167969 10.400391 10.167969 L 10.398438 10.169922 A 2.5 2.5 0 0 0 9.5 10 z M 11.003906 15.345703 L 17.283203 17.738281 L 27.283203 21.767578 L 27.572266 21.904297 A 1.0003547 1.0003547 0 0 0 27.958984 22 L 7.1523438 22 A 1.0001 1.0001 0 0 0 7.7070312 21.707031 L 7.7265625 21.6875 L 7.7382812 21.695312 L 7.8847656 21.529297 L 10.707031 18.707031 A 1.0001 1.0001 0 0 0 11 18 L 11.003906 15.345703 z"/></svg>