<?xml version="1.0" encoding="UTF-8" standalone="no"?>
<!DOCTYPE svg PUBLIC "-//W3C//DTD SVG 1.1//EN" "http://www.w3.org/Graphics/SVG/1.1/DTD/svg11.dtd">
<svg width="100%" height="100%" viewBox="0 0 40 40" version="1.1" xmlns="http://www.w3.org/2000/svg" xmlns:xlink="http://www.w3.org/1999/xlink" xml:space="preserve" xmlns:serif="http://www.serif.com/" style="fill-rule:evenodd;clip-rule:evenodd;stroke-linejoin:round;stroke-miterlimit:2;">
    <g transform="matrix(0.0726563,0,0,0.0726563,20,20)">
        <g id="bar-chart.svg" transform="matrix(1,0,0,1,-256,-256)">
            <path d="M480,496L48,496C30.445,496 16,481.555 16,464L16,32C16,23.223 23.223,16 32,16C40.777,16 48,23.223 48,32L48,464L480,464C488.777,464 496,471.223 496,480C496,488.777 488.777,496 480,496Z" style="fill-rule:nonzero;"/>
            <path d="M156,432L116,432C96.251,432 80,415.749 80,396L80,244C80,224.251 96.251,208 116,208L156,208C175.749,208 192,224.251 192,244L192,396C192,415.749 175.749,432 156,432ZM300,432L260,432C240.251,432 224,415.749 224,396L224,196C224,176.251 240.251,160 260,160L300,160C319.749,160 336,176.251 336,196L336,396C336,415.749 319.749,432 300,432ZM443.64,432L403.64,432C383.891,432 367.64,415.749 367.64,396L367.64,132C367.64,112.251 383.891,96 403.64,96L443.64,96C463.389,96 479.64,112.251 479.64,132L479.64,396C479.64,415.749 463.389,432 443.64,432Z" style="fill-rule:nonzero;"/>
        </g>
        <g id="bar-chart.svg1" serif:id="bar-chart.svg">
        </g>
    </g>
</svg>
