<?xml version="1.0" encoding="UTF-8" standalone="no"?>
<!DOCTYPE svg PUBLIC "-//W3C//DTD SVG 1.1//EN" "http://www.w3.org/Graphics/SVG/1.1/DTD/svg11.dtd">
<svg width="100%" height="100%" viewBox="0 0 40 40" version="1.1" xmlns="http://www.w3.org/2000/svg" xmlns:xlink="http://www.w3.org/1999/xlink" xml:space="preserve" xmlns:serif="http://www.serif.com/" style="fill-rule:evenodd;clip-rule:evenodd;stroke-linejoin:round;stroke-miterlimit:2;">
    <g transform="matrix(0.0726563,0,0,0.0726563,20,20)">
        <g id="card.svg" transform="matrix(1,0,0,1,-256,-256)">
            <path d="M32,376C32,406.721 57.279,432 88,432L424,432C454.721,432 480,406.721 480,376L480,222L32,222L32,376ZM98,300C98,283.542 111.542,270 128,270L176,270C192.458,270 206,283.542 206,300L206,320C206,336.458 192.458,350 176,350L128,350C111.542,350 98,336.458 98,320L98,300ZM424,80L88,80C57.279,80 32,105.279 32,136L32,162L480,162L480,136C480,105.279 454.721,80 424,80Z" style="fill-rule:nonzero;"/>
        </g>
        <g id="card.svg1" serif:id="card.svg">
        </g>
    </g>
</svg>
