<?xml version="1.0" encoding="UTF-8" standalone="no"?>
<!DOCTYPE svg PUBLIC "-//W3C//DTD SVG 1.1//EN" "http://www.w3.org/Graphics/SVG/1.1/DTD/svg11.dtd">
<svg width="100%" height="100%" viewBox="0 0 40 40" version="1.1" xmlns="http://www.w3.org/2000/svg" xmlns:xlink="http://www.w3.org/1999/xlink" xml:space="preserve" xmlns:serif="http://www.serif.com/" style="fill-rule:evenodd;clip-rule:evenodd;stroke-linejoin:round;stroke-miterlimit:2;">
    <g transform="matrix(0.0725591,0,0,0.0725591,20,20)">
        <g id="pint.svg" transform="matrix(1,0,0,1,-256,-256)">
            <path d="M399,99.29C398.85,97.16 398.7,94.94 398.56,92.61L395.69,46C394.641,29.242 380.571,16.014 363.78,16L148.21,16C131.419,16.014 117.349,29.242 116.3,46L113.39,92.63C113.25,94.94 113.1,97.14 112.96,99.25C111.67,118.49 110.73,132.39 116.69,164.91C118.36,174.02 121.91,187.57 126.42,204.73C139.03,252.73 160.13,333.09 160.13,400.36L160.13,472C160.13,485.166 170.964,496 184.13,496L327.87,496C341.036,496 351.87,485.166 351.87,472L351.87,400.38C351.87,323.29 373.18,247.09 385.87,201.57C390.25,185.94 393.7,173.57 395.28,164.95C401.27,132.44 400.33,118.53 399,99.29ZM364,51.75L365.5,75.75C365.505,75.833 365.508,75.917 365.508,76C365.508,78.194 363.702,80 361.508,80C361.505,80 361.503,80 361.5,80L150.5,80C150.497,80 150.495,80 150.492,80C148.298,80 146.492,78.194 146.492,76C146.492,75.917 146.495,75.833 146.5,75.75L147.98,51.75C148.112,49.644 149.889,47.985 152,48L360,48C362.103,47.996 363.869,49.651 364,51.75Z" style="fill-rule:nonzero;"/>
        </g>
        <g id="pint.svg1" serif:id="pint.svg">
        </g>
    </g>
</svg>
