<?xml version="1.0" encoding="UTF-8" standalone="no"?>
<!DOCTYPE svg PUBLIC "-//W3C//DTD SVG 1.1//EN" "http://www.w3.org/Graphics/SVG/1.1/DTD/svg11.dtd">
<svg width="100%" height="100%" viewBox="0 0 40 40" version="1.1" xmlns="http://www.w3.org/2000/svg" xmlns:xlink="http://www.w3.org/1999/xlink" xml:space="preserve" xmlns:serif="http://www.serif.com/" style="fill-rule:evenodd;clip-rule:evenodd;stroke-linejoin:round;stroke-miterlimit:2;">
    <g transform="matrix(0.075362,0,0,0.075362,20,20)">
        <g id="timer.svg" transform="matrix(1,0,0,1,-256,-256)">
            <path d="M256,48C141.12,48 48,141.12 48,256C48,370.88 141.12,464 256,464C370.88,464 464,370.88 464,256C464,141.12 370.88,48 256,48ZM173.67,162.34L278.67,233.34C287.143,239.443 292.176,249.27 292.176,259.712C292.176,277.541 277.505,292.212 259.676,292.212C253.167,292.212 246.805,290.256 241.42,286.6C238.315,284.411 235.609,281.705 233.42,278.6L162.42,173.6C161.467,172.235 160.956,170.611 160.956,168.946C160.956,164.486 164.626,160.816 169.086,160.816C170.751,160.816 172.375,161.327 173.74,162.28L173.67,162.34ZM256,432C159,432 80,353.05 80,256C79.834,208.184 99.323,162.339 133.87,129.28C136.521,126.637 140.116,125.151 143.86,125.151C151.623,125.151 158.01,131.538 158.01,139.301C158.01,143.224 156.379,146.975 153.51,149.65C124.52,177.398 108.165,215.871 108.3,256C108.3,337.44 174.56,403.7 256,403.7C337.44,403.7 403.7,337.44 403.7,256C403.7,179.33 344.98,116.12 270.15,109L270.15,164C270.15,171.762 263.762,178.15 256,178.15C248.238,178.15 241.85,171.762 241.85,164L241.85,94.15C241.85,86.388 248.238,80 256,80C353.05,80 432,159 432,256C432,353 353.05,432 256,432Z" style="fill-rule:nonzero;"/>
        </g>
        <g id="timer.svg1" serif:id="timer.svg">
        </g>
    </g>
</svg>
