<?xml version="1.0"?><svg fill="#000000" xmlns="http://www.w3.org/2000/svg"  viewBox="0 0 30 30" width="30px" height="30px">    <path d="M25,14c0-1.657,1.343-3,3-3V8c0-0.507-0.379-0.934-0.883-0.993l-17-2c-0.073-0.01-0.147-0.009-0.219-0.002 C6.75,5.33,3.276,7.807,2.172,9.439C2.06,9.605,2,9.8,2,10v6c0,4.432,3.282,8,6,8h18c1.103,0,2-0.897,2-2v-5 C26.343,17,25,15.657,25,14z M4.42,9.882c1.223-1.193,3.587-2.628,5.578-2.875l11.991,1.411L4.42,9.882z M8,17c-1.105,0-2-0.895-2-2 c0-1.105,0.895-2,2-2s2,0.895,2,2C10,16.105,9.105,17,8,17z M15.5,22c-1.381,0-2.5-1.119-2.5-2.5c0-1.381,1.119-2.5,2.5-2.5 s2.5,1.119,2.5,2.5C18,20.881,16.881,22,15.5,22z M20.5,14c-0.828,0-1.5-0.672-1.5-1.5s0.672-1.5,1.5-1.5s1.5,0.672,1.5,1.5 S21.328,14,20.5,14z M23.5,21c-0.828,0-1.5-0.672-1.5-1.5s0.672-1.5,1.5-1.5s1.5,0.672,1.5,1.5S24.328,21,23.5,21z"/></svg>