<?xml version="1.0" encoding="UTF-8" standalone="no"?>
<!DOCTYPE svg PUBLIC "-//W3C//DTD SVG 1.1//EN" "http://www.w3.org/Graphics/SVG/1.1/DTD/svg11.dtd">
<svg width="100%" height="100%" viewBox="0 0 40 40" version="1.1" xmlns="http://www.w3.org/2000/svg" xmlns:xlink="http://www.w3.org/1999/xlink" xml:space="preserve" xmlns:serif="http://www.serif.com/" style="fill-rule:evenodd;clip-rule:evenodd;stroke-linejoin:round;stroke-miterlimit:2;">
    <g transform="matrix(0.0726563,0,0,0.0726563,20,20)">
        <g id="extension-puzzle.svg" transform="matrix(1,0,0,1,-256,-256)">
            <path d="M345.14,480L274,480C264.125,480 256,471.875 256,462L256,434.29C256.027,425.692 252.513,417.452 246.29,411.52C238.51,403.93 227.21,399.72 215.4,400.01C194.04,400.51 176,419.31 176,441.07L176,462C176,471.875 167.875,480 158,480L87.62,480C57.108,480 32,454.892 32,424.38L32,354C32,344.125 40.125,336 50,336L77.71,336C86.87,336 95.78,332.08 102.8,325C110.685,317.052 115.079,306.276 115,295.08C114.7,273.89 97.26,256 76.91,256L50,256C40.125,256 32,247.875 32,238L32,167.62C32,137.108 57.108,112 87.62,112L142.86,112C147.249,112 150.86,108.389 150.86,104L150.86,97.52C150.86,61.571 180.441,31.99 216.39,31.99C216.773,31.99 217.157,31.993 217.54,32C253.03,32.62 281.9,62.38 281.9,98.33L281.9,104C281.9,108.389 285.511,112 289.9,112L345.14,112C375.235,112 400,136.765 400,166.86L400,222.1C400,226.489 403.611,230.1 408,230.1L413.66,230.1C450.24,230.1 480,259.1 480,294.74C480,331.35 450.61,361.14 414.48,361.14L408,361.14C403.611,361.14 400,364.751 400,369.14L400,425.14C400,455.235 375.235,480 345.14,480Z" style="fill-rule:nonzero;"/>
        </g>
        <g id="extension-puzzle.svg1" serif:id="extension-puzzle.svg">
        </g>
    </g>
</svg>
