<?xml version="1.0" encoding="UTF-8" standalone="no"?>
<!DOCTYPE svg PUBLIC "-//W3C//DTD SVG 1.1//EN" "http://www.w3.org/Graphics/SVG/1.1/DTD/svg11.dtd">
<svg width="100%" height="100%" viewBox="0 0 40 40" version="1.1" xmlns="http://www.w3.org/2000/svg" xmlns:xlink="http://www.w3.org/1999/xlink" xml:space="preserve" xmlns:serif="http://www.serif.com/" style="fill-rule:evenodd;clip-rule:evenodd;stroke-linejoin:round;stroke-miterlimit:2;">
    <g transform="matrix(0.0725591,0,0,0.0725591,20,20)">
        <g id="layers.svg" transform="matrix(1,0,0,1,-256,-256)">
            <path d="M256,256C242.53,256 229.06,253.61 218.56,248.83L70.56,181.34C63.79,178.26 48,169.25 48,152.24C48,135.23 63.79,126.24 70.58,123.12L219.86,55.05C240.43,45.65 271.47,45.65 292.05,55.05L441.42,123.12C448.21,126.21 464,135.22 464,152.24C464,169.26 448.21,178.24 441.42,181.35L293.42,248.83C282.94,253.61 269.47,256 256,256Z" style="fill-rule:nonzero;"/>
            <path d="M441.36,226.81L426.27,220L387.5,237.74L293.5,280.74C283,285.54 269.5,287.93 256.06,287.93C242.62,287.93 229.13,285.54 218.64,280.74L124.57,237.74L85.79,220L70.57,226.84C63.79,229.93 48,239 48,256C48,273 63.79,282.08 70.56,285.17L218.56,352.8C229,357.6 242.49,360 256,360C269.51,360 282.94,357.6 293.44,352.81L441.31,285.2C448.12,282.11 464,273.09 464,256C464,238.91 448.23,229.93 441.36,226.81Z" style="fill-rule:nonzero;"/>
            <path d="M441.36,330.8L426.27,324L387.5,341.73L293.5,384.68C283,389.46 269.5,391.86 256.06,391.86C242.62,391.86 229.13,389.47 218.64,384.68L124.57,341.68L85.79,324L70.57,330.84C63.79,333.93 48,343 48,360C48,377 63.79,386.07 70.56,389.15L218.56,456.74C229,461.52 242.54,464 256,464C269.46,464 282.88,461.52 293.38,456.73L441.3,389.16C448.12,386.08 464,377.06 464,360C464,342.94 448.23,333.93 441.36,330.8Z" style="fill-rule:nonzero;"/>
        </g>
        <g id="layers.svg1" serif:id="layers.svg">
        </g>
    </g>
</svg>
