<?xml version="1.0" encoding="UTF-8" standalone="no"?>
<!DOCTYPE svg PUBLIC "-//W3C//DTD SVG 1.1//EN" "http://www.w3.org/Graphics/SVG/1.1/DTD/svg11.dtd">
<svg width="100%" height="100%" viewBox="0 0 40 40" version="1.1" xmlns="http://www.w3.org/2000/svg" xmlns:xlink="http://www.w3.org/1999/xlink" xml:space="preserve" xmlns:serif="http://www.serif.com/" style="fill-rule:evenodd;clip-rule:evenodd;stroke-linejoin:round;stroke-miterlimit:2;">
    <g transform="matrix(0.0726563,0,0,0.0726563,20,20)">
        <g id="cart.svg" transform="matrix(1,0,0,1,-256,-256)">
            <circle cx="176" cy="416" r="32"/>
            <circle cx="400" cy="416" r="32"/>
            <path d="M456.8,120.78C452.251,115.215 445.427,111.988 438.24,112L133.89,112L127.76,77.22C126.416,69.604 119.734,63.998 112,64L48,64C39.223,64 32,71.223 32,80C32,88.777 39.223,96 48,96L98.58,96L144.24,354.78C145.584,362.396 152.266,368.002 160,368L416,368C424.777,368 432,360.777 432,352C432,343.223 424.777,336 416,336L173.42,336L167.78,304L409.44,304C420.836,303.986 430.737,295.879 433,284.71L461.8,140.71C463.204,133.657 461.367,126.334 456.8,120.78Z" style="fill-rule:nonzero;"/>
        </g>
        <g id="cart.svg1" serif:id="cart.svg">
        </g>
    </g>
</svg>
