<?xml version="1.0" encoding="UTF-8" standalone="no"?>
<!DOCTYPE svg PUBLIC "-//W3C//DTD SVG 1.1//EN" "http://www.w3.org/Graphics/SVG/1.1/DTD/svg11.dtd">
<svg width="100%" height="100%" viewBox="0 0 40 40" version="1.1" xmlns="http://www.w3.org/2000/svg" xmlns:xlink="http://www.w3.org/1999/xlink" xml:space="preserve" xmlns:serif="http://www.serif.com/" style="fill-rule:evenodd;clip-rule:evenodd;stroke-linejoin:round;stroke-miterlimit:2;">
    <g transform="matrix(0.0726563,0,0,0.0726563,20,20)">
        <g id="flower.svg" transform="matrix(1,0,0,1,-256,-256)">
            <circle cx="256" cy="256" r="48"/>
            <path d="M475.93,303.91C488.818,291.228 496.084,273.885 496.084,255.803C496.084,219.909 467.449,189.973 431.59,188.38C429.572,188.292 427.781,187.037 427.01,185.17C426.245,183.298 426.636,181.144 428.01,179.66C439.286,167.193 445.535,150.969 445.535,134.159C445.535,97.06 415.099,66.491 378,66.33L377.75,66.33C360.943,66.327 344.733,72.636 332.35,84C330.864,85.378 328.704,85.769 326.83,85C324.964,84.226 323.707,82.438 323.61,80.42C322.032,44.445 292.005,15.705 255.995,15.705C219.985,15.705 189.958,44.445 188.38,80.42C188.292,82.438 187.037,84.229 185.17,85C183.296,85.769 181.136,85.378 179.65,84C167.261,72.618 151.034,66.301 134.21,66.31L134,66.31C96.926,66.569 66.565,97.143 66.565,134.218C66.565,150.991 72.779,167.183 84,179.65C85.374,181.134 85.765,183.288 85,185.16C84.229,187.027 82.438,188.282 80.42,188.37C44.677,190.265 16.296,220.192 16.296,255.985C16.296,291.778 44.677,321.705 80.42,323.6C82.44,323.699 84.229,324.96 85,326.83C85.766,328.705 85.375,330.863 84,332.35C72.686,344.782 66.41,361.001 66.41,377.81C66.41,414.861 96.899,445.35 133.95,445.35C133.994,445.35 134.037,445.35 134.08,445.35L134.33,445.35C151.062,445.396 167.226,439.208 179.65,428C181.134,426.626 183.288,426.235 185.16,427C187.027,427.771 188.282,429.562 188.37,431.58C190.265,467.323 220.192,495.704 255.985,495.704C291.778,495.704 321.705,467.323 323.6,431.58C323.697,429.562 324.954,427.774 326.82,427C328.692,426.235 330.846,426.626 332.33,428C344.736,439.227 360.889,445.44 377.62,445.42L377.87,445.42C377.959,445.42 378.047,445.421 378.136,445.421C415.154,445.421 445.616,414.959 445.616,377.941C445.616,361.099 439.311,344.853 427.95,332.42C426.575,330.933 426.184,328.775 426.95,326.9C427.724,325.034 429.512,323.777 431.53,323.68C448.271,322.85 464.112,315.796 475.93,303.91ZM256,336C212.113,336 176,299.887 176,256C176,212.113 212.113,176 256,176C299.887,176 336,212.113 336,256C335.951,299.868 299.868,335.951 256,336Z" style="fill-rule:nonzero;"/>
        </g>
        <g id="flower.svg1" serif:id="flower.svg">
        </g>
    </g>
</svg>
