<?xml version="1.0" encoding="UTF-8" standalone="no"?>
<!DOCTYPE svg PUBLIC "-//W3C//DTD SVG 1.1//EN" "http://www.w3.org/Graphics/SVG/1.1/DTD/svg11.dtd">
<svg width="100%" height="100%" viewBox="0 0 40 40" version="1.1" xmlns="http://www.w3.org/2000/svg" xmlns:xlink="http://www.w3.org/1999/xlink" xml:space="preserve" xmlns:serif="http://www.serif.com/" style="fill-rule:evenodd;clip-rule:evenodd;stroke-linejoin:round;stroke-miterlimit:2;">
    <g transform="matrix(0.0726563,0,0,0.0726563,20,20)">
        <g id="cut.svg" transform="matrix(1,0,0,1,-256,-256)">
            <path d="M103.48,224C119.742,224.012 135.533,218.488 148.24,208.34L189.74,225.23L196.56,212.6C197.787,210.34 199.234,208.206 200.88,206.23L215.1,191.81L173.93,166.87C174.962,161.981 175.482,156.997 175.482,152C175.482,112.502 142.98,80 103.482,80C63.984,80 31.482,112.502 31.482,152C31.482,191.497 63.983,223.999 103.48,224ZM103.48,112C125.423,112 143.48,130.057 143.48,152C143.48,173.943 125.423,192 103.48,192C81.537,192 63.48,173.943 63.48,152C63.48,130.057 81.537,112 103.48,112Z" style="fill-rule:nonzero;"/>
            <path d="M480,169L474.48,156.42C470,146 459.74,140.42 441.7,138.57C431.58,137.57 414.75,137.33 392.01,142.38C372.01,146.83 269.87,170.58 227.06,201C206.81,215.39 203,234.67 200,250.16C197.22,264.3 195,275.47 182,285.16C167,296.3 154.73,301.54 148.42,303.76C135.736,293.69 120.009,288.206 103.813,288.206C64.458,288.206 32.073,320.591 32.073,359.946C32.073,399.301 64.458,431.686 103.813,431.686C143.169,431.686 175.553,399.301 175.553,359.946C175.553,353.809 174.766,347.697 173.21,341.76L480,169ZM255.48,256C246.703,256 239.48,248.777 239.48,240C239.48,231.223 246.703,224 255.48,224C264.257,224 271.48,231.223 271.48,240C271.48,248.777 264.257,256 255.48,256ZM103.48,400C81.537,400 63.48,381.943 63.48,360C63.48,338.057 81.537,320 103.48,320C125.423,320 143.48,338.057 143.48,360C143.48,381.943 125.423,400 103.48,400Z" style="fill-rule:nonzero;"/>
            <path d="M343.79,259.87L260.05,308.05L287.68,321.13L291.3,322.87C310,331.92 359.74,356 410.53,359C414.42,359.23 418,359.34 421.31,359.34C442,359.31 453,354 459.75,350L480,336L343.79,259.87Z" style="fill-rule:nonzero;"/>
        </g>
        <g id="cut.svg1" serif:id="cut.svg">
        </g>
    </g>
</svg>
