<svg fill="#000000" xmlns="http://www.w3.org/2000/svg"  viewBox="0 0 30 30" width="30px" height="30px"><path d="M 15 2 A 2.5 2.5 0 0 0 12.5 4.5 A 2.5 2.5 0 0 0 15 7 A 2.5 2.5 0 0 0 17.5 4.5 A 2.5 2.5 0 0 0 15 2 z M 7.015625 6.9882812 A 1.0001 1.0001 0 0 0 5.9941406 8 L 2 8 L 2 9 L 6.3828125 9 L 8.1054688 12.447266 A 1.0001 1.0001 0 0 0 9.2167969 12.974609 A 1.0001 1.0001 0 0 0 9.2226562 12.972656 A 1.0001 1.0001 0 0 0 9.3203125 12.945312 L 12 12.205078 L 12 16.210938 L 11.066406 21.607422 L 11.029297 21.757812 A 1.0001 1.0001 0 0 0 11.142578 22.513672 L 14.142578 27.513672 A 1.0001 1.0001 0 1 0 15.857422 26.486328 L 15.804688 26.398438 L 13.669922 22.228516 L 15 18.650391 L 16.330078 22.228516 L 16.070312 22.736328 L 17.292969 25.123047 L 18.857422 22.513672 C 18.994422 22.285672 19.034703 22.014813 18.970703 21.757812 L 18 16.210938 L 18 12.205078 L 20.677734 12.945312 A 1.0001 1.0001 0 0 0 20.783203 12.974609 A 1.0001 1.0001 0 0 0 21.894531 12.447266 L 23.617188 9 L 28 9 L 28 8 L 24 8 A 1.0001161 1.0001161 0 0 0 22.105469 7.5527344 L 21.880859 8 L 8.1191406 8 L 7.8945312 7.5527344 A 1.0001 1.0001 0 0 0 7.015625 6.9882812 z M 8.6191406 9 L 12 9 A 1.0001 1.0001 0 0 0 11.445312 9.1679688 L 9.3886719 10.539062 L 8.6191406 9 z M 18 9 L 21.380859 9 L 20.611328 10.539062 L 18.554688 9.1679688 A 1.0001 1.0001 0 0 0 18 9 z"/></svg>