<?xml version="1.0" encoding="UTF-8" standalone="no"?>
<!DOCTYPE svg PUBLIC "-//W3C//DTD SVG 1.1//EN" "http://www.w3.org/Graphics/SVG/1.1/DTD/svg11.dtd">
<svg width="100%" height="100%" viewBox="0 0 40 40" version="1.1" xmlns="http://www.w3.org/2000/svg" xmlns:xlink="http://www.w3.org/1999/xlink" xml:space="preserve" xmlns:serif="http://www.serif.com/" style="fill-rule:evenodd;clip-rule:evenodd;stroke-linejoin:round;stroke-miterlimit:2;">
    <g transform="matrix(0.0726563,0,0,0.0726563,20,20)">
        <g id="car-sport.svg" transform="matrix(1,0,0,1,-256,-256)">
            <path d="M494.26,276.22C490.66,235.81 484.73,227.94 482.49,224.98C477.34,218.14 469.1,213.67 460.38,208.98C459.202,208.357 458.463,207.13 458.463,205.798C458.463,204.866 458.824,203.971 459.47,203.3C462.736,199.988 464.393,195.405 464,190.77C463.224,182.389 456.067,175.923 447.65,176L432.05,176C431.381,176.004 430.714,176.047 430.05,176.13C429.595,175.932 429.123,175.775 428.64,175.66C419.4,156.13 406.75,129.39 380.53,116.34C341.64,97 270,96 256,96C242,96 170.36,97 131.52,116.31C105.3,129.36 92.65,156.1 83.41,175.63L83.33,175.79C82.869,175.855 82.417,175.969 81.98,176.13C81.316,176.047 80.649,176.004 79.98,176L64.35,176C55.933,175.923 48.776,182.389 48,190.77C47.641,195.394 49.318,199.952 52.59,203.24C53.236,203.911 53.597,204.806 53.597,205.738C53.597,207.07 52.858,208.297 51.68,208.92C42.96,213.64 34.68,218.11 29.57,224.92C27.33,227.92 21.41,235.75 17.8,276.16C15.8,298.9 15.5,322.44 17.07,337.6C20.36,369.1 26.53,388.14 26.79,388.93C28.719,394.788 33.871,399.03 39.99,399.8L39.99,400C39.99,408.777 47.213,416 55.99,416L111.99,416C120.767,416 127.99,408.777 127.99,400C136.6,400 142.59,398.46 148.94,396.82C158.108,394.35 167.479,392.706 176.94,391.91C207.45,389 237.79,388 256,388C273.84,388 305.52,389 336.08,391.91C345.579,392.708 354.987,394.358 364.19,396.84C370.27,398.4 376.04,399.84 384.03,399.99C384.03,408.767 391.253,415.99 400.03,415.99L456.03,415.99C464.807,415.99 472.03,408.767 472.03,399.99L472.03,399.87C478.164,399.115 483.335,394.87 485.27,389C485.53,388.21 491.7,369.17 494.99,337.67C496.56,322.5 496.28,299 494.26,276.22ZM112.33,189.31C120.33,172.31 129.48,153.07 145.77,144.96C169.31,133.24 218.1,127.96 256,127.96C293.9,127.96 342.69,133.2 366.23,144.96C382.52,153.07 391.63,172.32 399.67,189.31L400.67,191.48C401.176,192.55 401.439,193.719 401.439,194.903C401.439,199.291 397.828,202.903 393.439,202.903C393.369,202.903 393.3,202.902 393.23,202.9C360,202 290,199.12 256,199.12C222,199.12 152,202.07 118.72,202.97C118.65,202.972 118.581,202.973 118.511,202.973C114.122,202.973 110.511,199.361 110.511,194.973C110.511,193.789 110.774,192.62 111.28,191.55C111.63,190.81 112,190.06 112.33,189.31ZM124.26,268.94C107.058,271.01 89.746,272.032 72.42,272C61.82,272 50.89,269 48.86,259.56C47.47,253.21 47.62,249.64 48.37,246.05C49,243 50,240.78 55,240C68,238 75.27,240.51 96.55,246.78C110.66,250.93 120.84,256.46 126.64,260.84C129.55,263 128,268.64 124.26,268.94ZM345.64,350.94C332.48,352.44 306.16,351.89 256.3,351.89C206.44,351.89 180.13,352.44 166.97,350.94C153.39,349.43 136.08,336.59 147.9,325.15C155.77,317.61 174.13,311.97 198.58,308.8C223.03,305.63 233.38,304 256.2,304C279.02,304 288.32,305 313.82,308.81C339.32,312.62 358.59,318.33 364.5,325.16C375.28,337.4 359.21,349.35 345.64,351L345.64,350.94ZM463.14,259.55C461.14,269.03 450.14,271.99 439.58,271.99C421.922,271.994 404.279,270.972 386.74,268.93C383.68,268.64 382.26,263.27 385.36,260.83C391.07,256.34 401.36,250.92 415.45,246.77C436.73,240.5 449,237.99 459.54,240.08C462.11,240.59 463.47,243.35 463.63,245.08C464.335,249.897 464.169,254.802 463.14,259.56L463.14,259.55Z" style="fill-rule:nonzero;"/>
        </g>
        <g id="car-sport.svg1" serif:id="car-sport.svg">
        </g>
    </g>
</svg>
