<?xml version="1.0" encoding="UTF-8" standalone="no"?>
<!DOCTYPE svg PUBLIC "-//W3C//DTD SVG 1.1//EN" "http://www.w3.org/Graphics/SVG/1.1/DTD/svg11.dtd">
<svg width="100%" height="100%" viewBox="0 0 40 40" version="1.1" xmlns="http://www.w3.org/2000/svg" xmlns:xlink="http://www.w3.org/1999/xlink" xml:space="preserve" xmlns:serif="http://www.serif.com/" style="fill-rule:evenodd;clip-rule:evenodd;stroke-linecap:round;stroke-miterlimit:10;">
    <g transform="matrix(0.0725591,0,0,0.0725591,20,20)">
        <g id="magnet.svg" transform="matrix(1,0,0,1,-256,-256)">
            <clipPath id="_clip1">
                <rect x="0" y="0" width="512" height="512"/>
            </clipPath>
            <g clip-path="url(#_clip1)">
                <path d="M191.98,463.79L191.98,415.79M90.16,421.61L124.1,387.67M47.98,319.79L95.98,319.79" style="fill-rule:nonzero;stroke:black;stroke-width:32px;"/>
                <path d="M267.56,312.32L236.45,343.43C233.45,346.43 231.762,350.503 231.762,354.745C231.762,358.987 233.45,363.06 236.45,366.06L281.71,411.31C287.916,417.512 298.124,417.512 304.33,411.31L335.45,380.2C336.201,379.45 336.623,378.431 336.623,377.37C336.623,376.309 336.201,375.29 335.45,374.54L273.22,312.32C272.47,311.569 271.451,311.147 270.39,311.147C269.329,311.147 268.31,311.569 267.56,312.32ZM131.8,176.55L100.69,207.67C94.488,213.876 94.488,224.084 100.69,230.29L145.94,275.55C148.94,278.55 153.013,280.238 157.255,280.238C161.497,280.238 165.57,278.55 168.57,275.55L199.68,244.44C200.431,243.69 200.853,242.671 200.853,241.61C200.853,240.549 200.431,239.53 199.68,238.78L137.46,176.55C136.71,175.799 135.691,175.377 134.63,175.377C133.569,175.377 132.55,175.799 131.8,176.55ZM428.85,83.28C401.85,56.247 365.172,41.042 326.965,41.042C288.788,41.042 252.135,56.224 225.14,83.22L160.08,148.27C159.329,149.02 158.907,150.039 158.907,151.1C158.907,152.161 159.329,153.18 160.08,153.93L222.31,216.15C223.06,216.901 224.079,217.323 225.14,217.323C226.201,217.323 227.22,216.901 227.97,216.15L292.97,151.1C301.968,142.102 314.185,137.042 326.91,137.042C339.921,137.042 352.389,142.333 361.43,151.69C379.73,170.61 378.9,200.93 360.29,219.54L295.85,284C295.099,284.75 294.677,285.769 294.677,286.83C294.677,287.891 295.099,288.91 295.85,289.66L358.07,351.89C358.82,352.641 359.839,353.063 360.9,353.063C361.961,353.063 362.98,352.641 363.73,351.89L427.81,287.81C484.18,231.47 485.18,139.68 428.85,83.28Z" style="fill-rule:nonzero;"/>
            </g>
        </g>
        <g id="magnet.svg1" serif:id="magnet.svg">
        </g>
    </g>
</svg>
