<svg fill="#000000" xmlns="http://www.w3.org/2000/svg"  viewBox="0 0 30 30" width="30px" height="30px"><path d="M 15 1 C 13.787 1 12.872859 1.1192344 12.255859 1.2402344 C 11.693859 1.3512344 11.217094 1.7947344 10.996094 2.4277344 C 10.633834 3.4674027 9.9657765 5.1422948 9.1152344 6.2929688 C 7.8760968 6.8338857 7 8.0702863 7 9.5 L 7 20.5 C 7 21.929713 7.8760968 23.166114 9.1152344 23.707031 C 9.9659957 24.857896 10.634647 26.534222 10.996094 27.572266 C 11.216094 28.205266 11.693859 28.646812 12.255859 28.757812 C 12.872859 28.879812 13.787 29 15 29 C 16.213 29 17.127141 28.880766 17.744141 28.759766 C 18.306141 28.648766 18.782906 28.205266 19.003906 27.572266 C 19.366166 26.532597 20.034223 24.857705 20.884766 23.707031 C 22.123903 23.166114 23 21.929713 23 20.5 L 23 14 L 23.111328 14 C 23.602328 14 24 13.602328 24 13.111328 L 24 10.888672 C 24 10.397672 23.602328 10 23.111328 10 L 23 10 L 23 9.5 C 23 8.0702863 22.123903 6.8338857 20.884766 6.2929688 C 20.034004 5.1421043 19.365353 3.4657782 19.003906 2.4277344 C 18.783906 1.7947344 18.306141 1.3531875 17.744141 1.2421875 C 17.127141 1.1201875 16.213 1 15 1 z M 10.5 8 L 19.5 8 C 20.340812 8 21 8.6591883 21 9.5 L 21 20.5 C 21 21.340812 20.340812 22 19.5 22 L 10.5 22 C 9.6591883 22 9 21.340812 9 20.5 L 9 9.5 C 9 8.6591883 9.6591883 8 10.5 8 z"/></svg>