<?xml version="1.0" encoding="UTF-8" standalone="no"?>
<!DOCTYPE svg PUBLIC "-//W3C//DTD SVG 1.1//EN" "http://www.w3.org/Graphics/SVG/1.1/DTD/svg11.dtd">
<svg width="100%" height="100%" viewBox="0 0 40 40" version="1.1" xmlns="http://www.w3.org/2000/svg" xmlns:xlink="http://www.w3.org/1999/xlink" xml:space="preserve" xmlns:serif="http://www.serif.com/" style="fill-rule:evenodd;clip-rule:evenodd;stroke-linejoin:round;stroke-miterlimit:2;">
    <g transform="matrix(0.0749211,0,0,0.0749211,20,20)">
        <g id="time.svg" transform="matrix(1,0,0,1,-256,-256)">
            <path d="M256,48C141.13,48 48,141.13 48,256C48,370.87 141.13,464 256,464C370.87,464 464,370.87 464,256C464,141.13 370.87,48 256,48ZM352,288L256,288C247.223,288 240,280.777 240,272L240,128C240,119.223 247.223,112 256,112C264.777,112 272,119.223 272,128L272,256L352,256C360.777,256 368,263.223 368,272C368,280.777 360.777,288 352,288Z" style="fill-rule:nonzero;"/>
        </g>
        <g id="time.svg1" serif:id="time.svg">
        </g>
    </g>
</svg>
