<?xml version="1.0" encoding="UTF-8" standalone="no"?>
<!DOCTYPE svg PUBLIC "-//W3C//DTD SVG 1.1//EN" "http://www.w3.org/Graphics/SVG/1.1/DTD/svg11.dtd">
<svg width="100%" height="100%" viewBox="0 0 40 40" version="1.1" xmlns="http://www.w3.org/2000/svg" xmlns:xlink="http://www.w3.org/1999/xlink" xml:space="preserve" xmlns:serif="http://www.serif.com/" style="fill-rule:evenodd;clip-rule:evenodd;stroke-linejoin:round;stroke-miterlimit:2;">
    <g transform="matrix(0.0726563,0,0,0.0726563,20,20)">
        <g id="film.svg" transform="matrix(1,0,0,1,-256,-256)">
            <path d="M436,80L76,80C51.873,80.027 32.027,99.873 32,124L32,388C32.027,412.127 51.873,431.973 76,432L436,432C460.127,431.973 479.973,412.127 480,388L480,124C479.973,99.873 460.127,80.027 436,80ZM112,388C112,394.583 106.583,400 100,400L76,400C69.417,400 64,394.583 64,388L64,364C64,357.417 69.417,352 76,352L100,352C106.583,352 112,357.417 112,364L112,388ZM112,308C112,314.583 106.583,320 100,320L76,320C69.417,320 64,314.583 64,308L64,284C64,277.417 69.417,272 76,272L100,272C106.583,272 112,277.417 112,284L112,308ZM112,228C112,234.583 106.583,240 100,240L76,240C69.417,240 64,234.583 64,228L64,204C64,197.417 69.417,192 76,192L100,192C106.583,192 112,197.417 112,204L112,228ZM112,148C112,154.583 106.583,160 100,160L76,160C69.417,160 64,154.583 64,148L64,124C64,117.417 69.417,112 76,112L100,112C106.583,112 112,117.417 112,124L112,148ZM353.68,272L158.32,272C149.543,272 142.32,264.777 142.32,256C142.32,247.223 149.543,240 158.32,240L353.68,240C362.457,240 369.68,247.223 369.68,256C369.68,264.777 362.457,272 353.68,272ZM448,388C448,394.583 442.583,400 436,400L412,400C405.417,400 400,394.583 400,388L400,364C400,357.417 405.417,352 412,352L436,352C442.583,352 448,357.417 448,364L448,388ZM448,308C448,314.583 442.583,320 436,320L412,320C405.417,320 400,314.583 400,308L400,284C400,277.417 405.417,272 412,272L436,272C442.583,272 448,277.417 448,284L448,308ZM448,228C448,234.583 442.583,240 436,240L412,240C405.417,240 400,234.583 400,228L400,204C400,197.417 405.417,192 412,192L436,192C442.583,192 448,197.417 448,204L448,228ZM448,148C448,154.583 442.583,160 436,160L412,160C405.417,160 400,154.583 400,148L400,124C400,117.417 405.417,112 412,112L436,112C442.583,112 448,117.417 448,124L448,148Z" style="fill-rule:nonzero;"/>
        </g>
        <g id="film.svg1" serif:id="film.svg">
        </g>
    </g>
</svg>
