<?xml version="1.0" encoding="UTF-8" standalone="no"?>
<!DOCTYPE svg PUBLIC "-//W3C//DTD SVG 1.1//EN" "http://www.w3.org/Graphics/SVG/1.1/DTD/svg11.dtd">
<svg width="100%" height="100%" viewBox="0 0 40 40" version="1.1" xmlns="http://www.w3.org/2000/svg" xmlns:xlink="http://www.w3.org/1999/xlink" xml:space="preserve" xmlns:serif="http://www.serif.com/" style="fill-rule:evenodd;clip-rule:evenodd;stroke-linejoin:round;stroke-miterlimit:2;">
    <g transform="matrix(0.0731124,0,0,0.0731124,20,20)">
        <g id="rocket.svg" transform="matrix(1,0,0,1,-256,-256)">
            <path d="M328.85,156.79C314.214,156.798 302.175,168.844 302.175,183.48C302.175,198.122 314.223,210.17 328.865,210.17C343.506,210.17 355.555,198.122 355.555,183.48C355.555,176.401 352.738,169.604 347.73,164.6C342.729,159.589 335.929,156.776 328.85,156.79Z" style="fill-rule:nonzero;"/>
            <path d="M477.44,50.06C477.435,50.03 477.435,50 477.44,49.97C475.718,42.421 469.84,36.476 462.31,34.67C432.51,27.4 385.63,35.15 333.68,55.95C281.32,76.95 232.26,107.95 199.1,141.17C188.471,151.742 178.597,163.047 169.55,175C147.22,174 127.55,177.18 110.98,184.41C53.24,209.82 36.75,274.85 32.36,301.55C32.132,302.914 32.017,304.295 32.017,305.679C32.017,319.393 43.302,330.679 57.017,330.679C57.863,330.679 58.708,330.636 59.55,330.55L59.68,330.55L124,323.53C124.08,324.35 124.17,325.1 124.24,325.79C125.066,333.626 128.563,340.944 134.14,346.51L165.53,377.92C171.087,383.505 178.404,387.006 186.24,387.83L188.39,388.06L181.39,452.3L181.39,452.43C181.302,453.284 181.257,454.143 181.257,455.001C181.257,468.619 192.383,479.86 206,480C207.39,480.001 208.778,479.887 210.15,479.66C237,475.34 302,459.05 327.34,401C334.51,384.54 337.68,364.95 336.79,342.66C348.797,333.633 360.143,323.757 370.74,313.11C404.17,279.85 435.27,231.19 456.05,179.59C476.74,128.23 484.53,81 477.44,50.06ZM370.38,224.94C359.361,235.971 344.393,242.175 328.802,242.175C296.561,242.175 270.032,215.645 270.032,183.405C270.032,151.165 296.561,124.635 328.802,124.635C344.393,124.635 359.361,130.839 370.38,141.87C381.5,152.823 387.769,167.796 387.769,183.405C387.769,199.014 381.5,213.987 370.38,224.94Z" style="fill-rule:nonzero;"/>
            <path d="M161.93,386.44C158.062,385.96 154.148,386.91 150.93,389.11C144.54,393.48 138.12,397.8 131.64,402.01C118.53,410.53 102.85,395.57 110.64,382.01L122.79,361.01C124.608,358.35 125.581,355.202 125.581,351.981C125.581,343.203 118.359,335.981 109.581,335.981C108.929,335.981 108.277,336.02 107.63,336.1C94.148,337.805 81.609,343.95 72,353.56C68.34,357.23 57.21,368.37 51.22,410.82C49.515,423.013 48.44,435.286 48,447.59C47.996,447.727 47.995,447.863 47.995,448C47.995,456.777 55.217,464 63.995,464L64.4,464C76.713,463.564 88.996,462.496 101.2,460.8C143.67,454.8 154.81,443.66 158.47,440C168.125,430.387 174.255,417.789 175.86,404.26C176.923,395.552 170.637,387.51 161.93,386.44Z" style="fill-rule:nonzero;"/>
        </g>
        <g id="rocket.svg1" serif:id="rocket.svg">
        </g>
    </g>
</svg>
