<?xml version="1.0" encoding="UTF-8" standalone="no"?>
<!DOCTYPE svg PUBLIC "-//W3C//DTD SVG 1.1//EN" "http://www.w3.org/Graphics/SVG/1.1/DTD/svg11.dtd">
<svg width="100%" height="100%" viewBox="0 0 40 40" version="1.1" xmlns="http://www.w3.org/2000/svg" xmlns:xlink="http://www.w3.org/1999/xlink" xml:space="preserve" xmlns:serif="http://www.serif.com/" style="fill-rule:evenodd;clip-rule:evenodd;stroke-linejoin:round;stroke-miterlimit:2;">
    <g transform="matrix(0.0726563,0,0,0.0726563,20,20)">
        <g id="hammer.svg" transform="matrix(1,0,0,1,-256,-256)">
            <path d="M280.16,242.79L254.05,216.67C241.682,204.299 221.344,204.245 208.91,216.55L27.38,384.08C20.77,390.31 16.43,398.25 16.03,407.14C15.641,416.049 18.98,424.729 25.24,431.08L64.24,470.51C64.261,470.536 64.284,470.559 64.31,470.58C70.334,476.585 78.494,479.972 87,480L88.18,480C97.07,479.67 105.03,475.5 111.35,468.83L280.05,288.13C286.109,282.123 289.52,273.937 289.52,265.405C289.52,256.928 286.151,248.788 280.16,242.79ZM490,190L489.69,189.69L455.42,155.77C451.367,151.73 445.862,149.475 440.14,149.51C435.549,149.514 431.073,150.963 427.35,153.65C427.35,153.22 427.41,152.8 427.44,152.43C427.89,145.93 428.59,136.11 422.24,127.21C414.69,117.034 406.401,107.428 397.44,98.47C397.416,98.441 397.389,98.414 397.36,98.39C384.04,85.27 355.05,60.56 310.64,42.45C293.798,35.538 275.765,31.988 257.56,32C226,32 202,46.24 192.81,54.68C187.606,59.65 182.86,65.079 178.63,70.9C176.652,73.63 175.587,76.916 175.587,80.287C175.587,89.064 182.81,96.287 191.587,96.287C193.532,96.287 195.462,95.932 197.28,95.24C200.085,94.192 202.95,93.313 205.86,92.61C211.921,91.328 218.137,90.941 224.31,91.46C237.5,92.55 253.1,99.1 260,104.55C271.7,113.96 277.33,126.64 278.26,145.64C278.44,149.46 270.54,163.78 258.26,180.12C253.445,186.468 254.068,195.494 259.71,201.12L294.12,235.53C300.089,241.514 309.823,241.788 316.12,236.15C325.85,227.46 340.67,214.36 345.85,211.15C353.54,206.42 359.04,205.51 360.55,205.35C364.468,204.966 368.411,205.797 371.84,207.73C371.874,208.076 371.762,208.421 371.53,208.68L369.71,210.41L369.41,210.69C365.358,214.726 363.079,220.216 363.079,225.935C363.079,231.679 365.378,237.19 369.46,241.23L403.72,275.14C407.774,279.177 413.279,281.429 419,281.39C424.688,281.399 430.157,279.171 434.22,275.19L489.72,220.37C489.91,220.18 490.1,219.98 490.28,219.78C497.961,211.36 497.838,198.274 490,190Z" style="fill-rule:nonzero;"/>
        </g>
        <g id="hammer.svg1" serif:id="hammer.svg">
        </g>
    </g>
</svg>
