<?xml version="1.0" encoding="UTF-8" standalone="no"?>
<!DOCTYPE svg PUBLIC "-//W3C//DTD SVG 1.1//EN" "http://www.w3.org/Graphics/SVG/1.1/DTD/svg11.dtd">
<svg width="100%" height="100%" viewBox="0 0 40 40" version="1.1" xmlns="http://www.w3.org/2000/svg" xmlns:xlink="http://www.w3.org/1999/xlink" xml:space="preserve" xmlns:serif="http://www.serif.com/" style="fill-rule:evenodd;clip-rule:evenodd;stroke-linejoin:round;stroke-miterlimit:2;">
    <g transform="matrix(0.0725591,0,0,0.0725591,20,20)">
        <g id="library.svg" transform="matrix(1,0,0,1,-256,-256)">
            <path d="M64,480L48,480C30.445,480 16,465.555 16,448L16,112C16,94.445 30.445,80 48,80L64,80C81.555,80 96,94.445 96,112L96,448C96,465.555 81.555,480 64,480ZM240,176C240,158.445 225.555,144 208,144L144,144C126.445,144 112,158.445 112,176L112,204C112,206.194 113.806,208 116,208L236,208C238.194,208 240,206.194 240,204L240,176ZM112,448C112,465.555 126.445,480 144,480L208,480C225.555,480 240,465.555 240,448L240,418C240,416.903 239.097,416 238,416L114,416C112.903,416 112,416.903 112,418L112,448Z" style="fill-rule:nonzero;"/>
            <path d="M240,242C240,240.896 239.104,240 238,240L114,240C112.896,240 112,240.896 112,242L112,382C112,383.104 112.896,384 114,384L238,384C239.104,384 240,383.104 240,382L240,242Z"/>
            <path d="M320,480L288,480C270.445,480 256,465.555 256,448L256,64C256,46.445 270.445,32 288,32L320,32C337.555,32 352,46.445 352,64L352,448C352,465.555 337.555,480 320,480ZM495.89,445.45L463.66,105.45C462.18,89.8 446.72,78.45 429.13,80.14L397.28,83.14C379.69,84.81 366.63,98.85 368.11,114.5L400.34,454.5C401.82,470.15 417.28,481.5 434.87,479.81L466.72,476.81C484.31,475.14 497.37,461.1 495.89,445.45Z" style="fill-rule:nonzero;"/>
        </g>
        <g id="library.svg1" serif:id="library.svg">
        </g>
    </g>
</svg>
