<?xml version="1.0"?><svg fill="#000000" xmlns="http://www.w3.org/2000/svg"  viewBox="0 0 30 30" width="30px" height="30px">    <path d="M 16.876953 2.0742188 C 14.200953 2.4392187 12.713125 4.0469375 12.203125 4.7109375 C 12.068125 4.8869375 12 5.0954062 12 5.3164062 L 12 7 C 10.906937 7 10 7.9069372 10 9 L 10 16 C 9.448 16 9 16.448 9 17 L 9 25 C 9 26.105 9.895 27 11 27 L 19 27 C 20.105 27 21 26.105 21 25 L 21 17 C 21 16.448 20.552 16 20 16 L 20 9 C 20 7.9069372 19.093063 7 18 7 L 18 3.0722656 C 18 2.4722656 17.470953 1.9932187 16.876953 2.0742188 z M 12 9 L 18 9 L 18 16 L 12 16 L 12 9 z"/></svg>