<?xml version="1.0"?><svg fill="#000000" xmlns="http://www.w3.org/2000/svg"  viewBox="0 0 30 30" width="30px" height="30px">    <path d="M 9 3 C 8.448 3 8 3.448 8 4 L 8 5 L 5 5 C 4.723 5 4.4585313 5.1144063 4.2695312 5.3164062 C 4.0805312 5.5184062 3.9849063 5.7904063 4.0039062 6.0664062 L 4.40625 12.109375 C 4.65225 12.044375 4.9050156 12 5.1660156 12 L 6.4023438 12 L 6.0683594 7 L 8 7 L 8 12 L 8.3066406 12 C 8.9226406 12 9.509 12.195203 10 12.533203 L 10 6 L 10 5 L 12 5 L 12 15.042969 C 12.473 15.445969 13.119 15.771063 14 15.914062 L 14 6 L 16 6 L 16 15.914062 C 16.881 15.770062 17.527 15.445969 18 15.042969 L 18 5 L 20 5 L 20 6 L 20 12.533203 C 20.491 12.195203 21.077359 12 21.693359 12 L 22 12 L 22 7 L 23.931641 7 L 23.597656 12 L 24.835938 12 C 25.096937 12 25.349703 12.044375 25.595703 12.109375 L 25.998047 6.0664062 C 26.017047 5.7904063 25.919469 5.5194063 25.730469 5.3164062 C 25.540469 5.1144063 25.277 5 25 5 L 22 5 L 22 4 C 22 3.448 21.552 3 21 3 L 17 3 C 16.448 3 16 3.448 16 4 L 14 4 C 14 3.448 13.552 3 13 3 L 9 3 z M 5.1660156 14 C 4.5530156 14 4.0837344 14.546344 4.1777344 15.152344 L 5.7402344 25.304688 C 5.8892344 26.280688 6.7297969 27 7.7167969 27 L 22.283203 27 C 23.270203 27 24.111719 26.280687 24.261719 25.304688 L 25.822266 15.152344 C 25.915266 14.546344 25.446984 14 24.833984 14 L 21.693359 14 C 21.294359 14 20.940391 14.237562 20.775391 14.601562 C 20.270391 15.717562 18.776 18 15 18 C 11.224 18 9.7296094 15.717563 9.2246094 14.601562 C 9.0596094 14.237562 8.7056406 14 8.3066406 14 L 5.1660156 14 z M 10 19 C 10.552 19 11 19.448 11 20 C 11 20.552 10.552 21 10 21 C 9.448 21 9 20.552 9 20 C 9 19.448 9.448 19 10 19 z M 20 19 C 20.552 19 21 19.448 21 20 C 21 20.552 20.552 21 20 21 C 19.448 21 19 20.552 19 20 C 19 19.448 19.448 19 20 19 z M 13 22 L 17 22 C 17 23.105 16.105 24 15 24 C 13.895 24 13 23.105 13 22 z"/></svg>