<?xml version="1.0" encoding="UTF-8" standalone="no"?>
<!DOCTYPE svg PUBLIC "-//W3C//DTD SVG 1.1//EN" "http://www.w3.org/Graphics/SVG/1.1/DTD/svg11.dtd">
<svg width="100%" height="100%" viewBox="0 0 40 40" version="1.1" xmlns="http://www.w3.org/2000/svg" xmlns:xlink="http://www.w3.org/1999/xlink" xml:space="preserve" xmlns:serif="http://www.serif.com/" style="fill-rule:evenodd;clip-rule:evenodd;stroke-linejoin:round;stroke-miterlimit:2;">
    <g transform="matrix(0.0726563,0,0,0.0726563,20,20)">
        <g id="flag.svg" transform="matrix(1,0,0,1,-256,-256)">
            <path d="M80,480C71.223,480 64,472.777 64,464L64,68.13C64.002,59.61 68.542,51.706 75.9,47.41C88,40.38 112.38,32 160,32C197.21,32 238.83,46.71 275.55,59.68C305.12,70.13 333.05,80 352,80C376.394,79.925 400.53,74.996 423,65.5C425.215,64.565 427.596,64.083 430,64.083C439.873,64.083 447.998,72.207 448,82.08L448,301.44C447.992,309.37 443.268,316.578 436,319.75C427.29,323.56 395.49,336 352,336C327.86,336 297.62,328.86 265.61,321.29C229.63,312.79 192.43,304 160,304C123.13,304 104.26,309.58 96,313.11L96,464C96,472.777 88.777,480 80,480Z" style="fill-rule:nonzero;"/>
        </g>
        <g id="flag.svg1" serif:id="flag.svg">
        </g>
    </g>
</svg>
