<?xml version="1.0" encoding="UTF-8" standalone="no"?>
<!DOCTYPE svg PUBLIC "-//W3C//DTD SVG 1.1//EN" "http://www.w3.org/Graphics/SVG/1.1/DTD/svg11.dtd">
<svg width="100%" height="100%" viewBox="0 0 40 40" version="1.1" xmlns="http://www.w3.org/2000/svg" xmlns:xlink="http://www.w3.org/1999/xlink" xml:space="preserve" xmlns:serif="http://www.serif.com/" style="fill-rule:evenodd;clip-rule:evenodd;stroke-linejoin:round;stroke-miterlimit:2;">
    <g transform="matrix(0.0726563,0,0,0.0726563,20,20)">
        <g id="dice.svg" transform="matrix(1,0,0,1,-256,-256)">
            <path d="M440.88,129.37L288.16,40.62C268.292,29.104 243.698,29.104 223.83,40.62L71.12,129.37C69.898,130.087 69.144,131.403 69.144,132.82C69.144,134.237 69.898,135.553 71.12,136.27L254,243.85C255.251,244.587 256.809,244.587 258.06,243.85L440.9,136.27C442.117,135.551 442.866,134.239 442.866,132.826C442.866,131.404 442.108,130.086 440.88,129.37ZM256,152C242.75,152 232,144.84 232,136C232,127.16 242.75,120 256,120C269.25,120 280,127.16 280,136C280,144.84 269.25,152 256,152ZM238,270.81L54,163.48C53.392,163.129 52.702,162.944 52,162.944C49.807,162.944 48.002,164.747 48,166.94L48,340.86C48.031,357.891 57.124,373.678 71.84,382.25L234,479.48C234.608,479.831 235.298,480.016 236,480.016C238.193,480.016 239.998,478.213 240,476.02L240,274.27C239.999,272.844 239.235,271.523 238,270.81ZM96,368C87.16,368 80,357.25 80,344C80,330.75 87.16,320 96,320C104.84,320 112,330.75 112,344C112,357.25 104.84,368 96,368ZM192,336C183.16,336 176,325.25 176,312C176,298.75 183.16,288 192,288C200.84,288 208,298.75 208,312C208,325.25 200.84,336 192,336ZM458,163.51L274,271.56C272.768,272.271 272.005,273.588 272,275.01L272,476C272.002,478.193 273.807,479.996 276,479.996C276.702,479.996 277.392,479.811 278,479.46L440.15,382.23C454.864,373.664 463.96,357.886 464,340.86L464,167C464,166.991 464,166.983 464,166.974C464,164.78 462.194,162.974 460,162.974C459.298,162.974 458.608,163.159 458,163.51ZM320,424C311.16,424 304,413.25 304,400C304,386.75 311.16,376 320,376C328.84,376 336,386.75 336,400C336,413.25 328.84,424 320,424ZM320,336C311.16,336 304,325.25 304,312C304,298.75 311.16,288 320,288C328.84,288 336,298.75 336,312C336,325.25 328.84,336 320,336ZM416,368C407.16,368 400,357.25 400,344C400,330.75 407.16,320 416,320C424.84,320 432,330.75 432,344C432,357.25 424.84,368 416,368ZM416,280C407.16,280 400,269.25 400,256C400,242.75 407.16,232 416,232C424.84,232 432,242.75 432,256C432,269.25 424.84,280 416,280Z" style="fill-rule:nonzero;"/>
        </g>
        <g id="dice.svg1" serif:id="dice.svg">
        </g>
    </g>
</svg>
