<svg fill="#000000" xmlns="http://www.w3.org/2000/svg"  viewBox="0 0 30 30" width="30px" height="30px"><path d="M 20.003906 -0.005859375 A 1.0001 1.0001 0 0 0 19.552734 0.10546875 C 19.552734 0.10546875 17 1.3333333 17 4 C 17 5.0833333 17.600041 5.9681333 18.296875 6.5488281 C 18.993709 7.1295229 19.802734 7.5195313 20.552734 7.8945312 C 21.302734 8.2695312 21.993709 8.6295229 22.421875 8.9863281 C 22.850041 9.3431333 23 9.5833333 23 10 A 1.0001 1.0001 0 1 0 25 10 C 25 8.9166667 24.399959 8.0318667 23.703125 7.4511719 C 23.006291 6.8704771 22.197266 6.4804686 21.447266 6.1054688 C 20.697266 5.7304688 20.006291 5.3704771 19.578125 5.0136719 C 19.149959 4.6568667 19 4.4166667 19 4 C 19 2.6666667 20.447266 1.8945314 20.447266 1.8945312 A 1.0001 1.0001 0 0 0 20.003906 -0.005859375 z M 1.7070312 0.29296875 L 0.29296875 1.7070312 L 28.292969 29.707031 L 29.707031 28.292969 L 20.414062 19 L 29 19 C 29.552 19 30 18.552 30 18 L 30 14 C 30 13.448 29.552 13 29 13 L 14.414062 13 L 1.7070312 0.29296875 z M 23 2 A 1.0001 1.0001 0 1 0 23 4 C 23.166667 4 23.802759 4.173457 24.25 4.53125 C 24.697241 4.889043 25 5.3333333 25 6 A 1.0001 1.0001 0 0 0 26 7 C 26.07963 7 26.75552 7.1722602 27.220703 7.5371094 C 27.685886 7.9019585 28 8.35 28 9 A 1.0001 1.0001 0 1 0 30 9 C 30 7.65 29.264895 6.5980415 28.455078 5.9628906 C 27.919134 5.5425423 27.373417 5.4714171 26.830078 5.3261719 C 26.632884 4.3352306 26.150451 3.4891107 25.5 2.96875 C 24.697241 2.326543 23.833333 2 23 2 z M 1 13 C 0.448 13 0 13.448 0 14 L 0 18 C 0 18.552 0.448 19 1 19 L 14.830078 19 L 12.830078 17 L 10 17 L 10 15 L 10.830078 15 L 8.8300781 13 L 1 13 z M 16.414062 15 L 24 15 L 24 17 L 18.414062 17 L 16.414062 15 z M 26 15 L 28 15 L 28 17 L 26 17 L 26 15 z"/></svg>