<?xml version="1.0" encoding="UTF-8" standalone="no"?>
<!DOCTYPE svg PUBLIC "-//W3C//DTD SVG 1.1//EN" "http://www.w3.org/Graphics/SVG/1.1/DTD/svg11.dtd">
<svg width="100%" height="100%" viewBox="0 0 40 40" version="1.1" xmlns="http://www.w3.org/2000/svg" xmlns:xlink="http://www.w3.org/1999/xlink" xml:space="preserve" xmlns:serif="http://www.serif.com/" style="fill-rule:evenodd;clip-rule:evenodd;stroke-linejoin:round;stroke-miterlimit:2;">
    <g transform="matrix(0.0726563,0,0,0.0726563,20,20)">
        <g id="camera.svg" transform="matrix(1,0,0,1,-256,-256)">
            <circle cx="256" cy="272" r="64"/>
            <path d="M432,144L373,144C370,144 366.28,142.06 363.38,139L337.44,98.06C337.03,97.41 336.572,96.792 336.07,96.21C327.11,85.76 315,80 302,80L210,80C197,80 184.89,85.76 175.93,96.21C175.428,96.792 174.97,97.41 174.56,98.06L148.62,139.06C146.4,141.48 143.28,144.06 140,144.06L140,136.06C140,127.283 132.777,120.06 124,120.06L100,120.06C91.223,120.06 84,127.283 84,136.06L84,144.06L80,144.06C53.678,144.087 32.027,165.738 32,192.06L32,384C32.027,410.322 53.678,431.973 80,432L432,432C458.322,431.973 479.973,410.322 480,384L480,192C479.973,165.678 458.322,144.027 432,144ZM256,368C203.336,368 160,324.664 160,272C160,219.336 203.336,176 256,176C308.664,176 352,219.336 352,272C351.94,324.641 308.641,367.94 256,368Z" style="fill-rule:nonzero;"/>
        </g>
        <g id="camera.svg1" serif:id="camera.svg">
        </g>
    </g>
</svg>
