<?xml version="1.0" encoding="UTF-8" standalone="no"?>
<!DOCTYPE svg PUBLIC "-//W3C//DTD SVG 1.1//EN" "http://www.w3.org/Graphics/SVG/1.1/DTD/svg11.dtd">
<svg width="100%" height="100%" viewBox="0 0 40 40" version="1.1" xmlns="http://www.w3.org/2000/svg" xmlns:xlink="http://www.w3.org/1999/xlink" xml:space="preserve" xmlns:serif="http://www.serif.com/" style="fill-rule:evenodd;clip-rule:evenodd;stroke-linejoin:round;stroke-miterlimit:2;">
    <g transform="matrix(0.0726563,0,0,0.0726563,20,20)">
        <g id="american-football.svg" transform="matrix(1,0,0,1,-256,-256)">
            <path d="M122.06,122.06C77.69,166.43 55.35,222.67 44.06,267.34L244.66,467.9C289.33,456.65 345.57,434.31 389.94,389.9C434.31,345.49 456.65,289.29 467.94,244.62L267.34,44.1C222.67,55.35 166.43,77.69 122.06,122.06ZM300.65,189L323,166.71C325.902,164.076 329.684,162.616 333.604,162.616C342.26,162.616 349.384,169.74 349.384,178.396C349.384,182.316 347.924,186.098 345.29,189L323,211.35L334.16,222.52C337.119,225.479 338.783,229.496 338.783,233.68C338.783,242.338 331.658,249.463 323,249.463C318.816,249.463 314.799,247.799 311.84,244.84L300.68,233.68L278.32,256L289.48,267.16C292.439,270.119 294.103,274.136 294.103,278.32C294.103,286.978 286.978,294.103 278.32,294.103C274.136,294.103 270.119,292.439 267.16,289.48L256,278.32L233.68,300.65L244.84,311.81C247.799,314.769 249.463,318.786 249.463,322.97C249.463,331.628 242.338,338.753 233.68,338.753C229.496,338.753 225.479,337.089 222.52,334.13L211.35,323L189,345.29C186.098,347.924 182.316,349.384 178.396,349.384C169.74,349.384 162.616,342.26 162.616,333.604C162.616,329.684 164.076,325.902 166.71,323L189,300.65L177.84,289.48C174.881,286.521 173.217,282.504 173.217,278.32C173.217,269.662 180.342,262.537 189,262.537C193.184,262.537 197.201,264.201 200.16,267.16L211.32,278.32L233.68,256L222.52,244.84C219.561,241.881 217.897,237.864 217.897,233.68C217.897,225.022 225.022,217.897 233.68,217.897C237.864,217.897 241.881,219.561 244.84,222.52L256,233.68L278.32,211.35L267.16,200.19C264.201,197.231 262.537,193.214 262.537,189.03C262.537,180.372 269.662,173.247 278.32,173.247C282.504,173.247 286.521,174.911 289.48,177.87L300.65,189ZM476.57,199.63C483.88,145.1 480.57,79.37 456.57,55.42C432.57,31.47 366.89,28.12 312.36,35.42C309.85,35.76 307.2,36.14 304.45,36.57L475.45,207.57C475.85,204.79 476.23,202.14 476.57,199.63ZM35.43,312.37C28.12,366.9 31.43,432.63 55.43,456.58C72.17,473.33 109.34,480 148.84,480C165.827,479.973 182.794,478.827 199.63,476.57C202.14,476.23 204.79,475.85 207.54,475.42L36.54,304.42C36.15,307.21 35.77,309.86 35.43,312.37Z" style="fill-rule:nonzero;"/>
        </g>
        <g id="american-football.svg1" serif:id="american-football.svg">
        </g>
    </g>
</svg>
