<?xml version="1.0"?><svg fill="#000000" xmlns="http://www.w3.org/2000/svg"  viewBox="0 0 30 30" width="30px" height="30px">    <path d="M 16.490234 -0.00390625 A 0.50005 0.50005 0 0 0 16.222656 0.083984375 L 8.5820312 5.1777344 A 1.0001 1.0001 0 0 0 8.015625 4.9882812 A 1.0001 1.0001 0 0 0 7.0214844 6.21875 L 1.2226562 10.083984 A 0.50005 0.50005 0 1 0 1.7773438 10.916016 L 7.4492188 7.1347656 L 9.1054688 10.447266 A 1.0001 1.0001 0 0 0 9.7578125 10.970703 L 13 11.78125 L 13 18 L 12.207031 22.210938 L 12.125 22.458984 L 9.2929688 25.292969 A 1.0001 1.0001 0 1 0 10.707031 26.707031 L 13.707031 23.707031 A 1.0001 1.0001 0 0 0 13.904297 23.427734 L 16.228516 19.8125 L 19.582031 22.646484 L 21.072266 26.371094 A 1.0001 1.0001 0 1 0 22.927734 25.628906 L 20.927734 20.628906 A 1.0001 1.0001 0 0 0 20.707031 20.292969 L 20.435547 20.021484 L 18 17.240234 L 18 12 L 25 12 A 1.0001 1.0001 0 1 0 25 10 L 14.123047 10 L 10.689453 9.140625 L 9.1269531 6.015625 L 16.777344 0.91601562 A 0.50005 0.50005 0 0 0 16.490234 -0.00390625 z M 15.5 4 A 2.5 2.5 0 0 0 13 6.5 A 2.5 2.5 0 0 0 15.5 9 A 2.5 2.5 0 0 0 18 6.5 A 2.5 2.5 0 0 0 15.5 4 z"/></svg>