<?xml version="1.0" encoding="UTF-8" standalone="no"?>
<!DOCTYPE svg PUBLIC "-//W3C//DTD SVG 1.1//EN" "http://www.w3.org/Graphics/SVG/1.1/DTD/svg11.dtd">
<svg width="100%" height="100%" viewBox="0 0 40 40" version="1.1" xmlns="http://www.w3.org/2000/svg" xmlns:xlink="http://www.w3.org/1999/xlink" xml:space="preserve" xmlns:serif="http://www.serif.com/" style="fill-rule:evenodd;clip-rule:evenodd;stroke-linejoin:round;stroke-miterlimit:2;">
    <g transform="matrix(0.0726563,0,0,0.0726563,20,20)">
        <g id="airplane.svg" transform="matrix(1,0,0,1,-256,-256)">
            <path d="M186.62,464L160,464C151.225,463.997 144.005,456.775 144.005,448C144.005,445.724 144.491,443.474 145.43,441.4L209.89,299.15L113.1,297L77.8,339.77C71.07,348.23 65.7,352 52,352L34.08,352C28.327,352.185 22.832,349.546 19.38,344.94C17,341.73 14.66,336.29 16.94,328.53L36.76,257.53C36.91,257 37.09,256.47 37.29,255.95C37.3,255.9 37.3,255.85 37.29,255.8C37.083,255.28 36.907,254.75 36.76,254.21L16.92,182.76C14.77,175.15 17.12,169.83 19.48,166.7C22.691,162.439 27.745,159.949 33.08,160L52,160C62.23,160 72.16,164.59 78,172L112.57,214.05L209.89,212.61L145.45,70.61C144.508,68.534 144.021,66.28 144.021,64C144.021,55.231 151.231,48.011 160,48L186.91,48C194.51,48.153 201.64,51.764 206.26,57.8L331.31,209.8L389.08,208.28C393.31,208.05 405.03,207.97 407.74,207.97C463,208 496,225.94 496,256C496,265.46 492.22,283 466.93,294.16C452,300.76 432.08,304.1 407.72,304.1C405.04,304.1 393.35,304.02 389.06,303.79L331.3,302.25L205.94,454.25C201.316,460.259 194.201,463.85 186.62,464Z" style="fill-rule:nonzero;"/>
        </g>
        <g id="airplane.svg1" serif:id="airplane.svg">
        </g>
    </g>
</svg>
