<?xml version="1.0" encoding="UTF-8" standalone="no"?>
<!DOCTYPE svg PUBLIC "-//W3C//DTD SVG 1.1//EN" "http://www.w3.org/Graphics/SVG/1.1/DTD/svg11.dtd">
<svg width="100%" height="100%" viewBox="0 0 40 40" version="1.1" xmlns="http://www.w3.org/2000/svg" xmlns:xlink="http://www.w3.org/1999/xlink" xml:space="preserve" xmlns:serif="http://www.serif.com/" style="fill-rule:evenodd;clip-rule:evenodd;stroke-linejoin:round;stroke-miterlimit:2;">
    <g transform="matrix(0.0726563,0,0,0.0726563,20,20)">
        <g id="bag.svg" transform="matrix(1,0,0,1,-256,-256)">
            <path d="M454.65,169.4C448.661,163.369 440.499,159.981 432,160L368,160L368,144C368,82.559 317.441,32 256,32C194.559,32 144,82.559 144,144L144,160L80,160C62.445,160 48,174.445 48,192L48,408C48,447 81,480 120,480L392,480C410.858,480.006 428.988,472.625 442.48,459.45C456.199,446.362 463.98,428.211 464,409.25L464,192C464.026,183.524 460.657,175.38 454.65,169.4ZM176,144C176,100.113 212.113,64 256,64C299.887,64 336,100.113 336,144L336,160L176,160L176,144Z" style="fill-rule:nonzero;"/>
        </g>
        <g id="bag.svg1" serif:id="bag.svg">
        </g>
    </g>
</svg>
