<?xml version="1.0" encoding="UTF-8" standalone="no"?>
<!DOCTYPE svg PUBLIC "-//W3C//DTD SVG 1.1//EN" "http://www.w3.org/Graphics/SVG/1.1/DTD/svg11.dtd">
<svg width="100%" height="100%" viewBox="0 0 40 40" version="1.1" xmlns="http://www.w3.org/2000/svg" xmlns:xlink="http://www.w3.org/1999/xlink" xml:space="preserve" xmlns:serif="http://www.serif.com/" style="fill-rule:evenodd;clip-rule:evenodd;stroke-linejoin:round;stroke-miterlimit:2;">
    <g transform="matrix(0.0726563,0,0,0.0726563,20,20)">
        <g id="alarm.svg" transform="matrix(1,0,0,1,-256,-256)">
            <path d="M153.59,110.46C157.652,106.44 159.94,100.957 159.94,95.242C159.94,89.003 157.213,83.065 152.48,79C141.192,69.366 126.84,64.048 112,64L108.73,64.09L108.25,64.09C74.4,66.15 48,95.55 48.07,131C48.07,150 56.07,160.06 62.39,168.11C65.974,172.658 71.314,175.492 77.09,175.91C77.35,175.91 77.79,175.96 79.09,175.96C84.282,175.952 89.252,173.823 92.84,170.07L153.59,110.46ZM403.79,64.11L400.52,64.01L400,64.01C385.146,64.049 370.779,69.367 359.48,79.01C354.753,83.075 352.03,89.008 352.03,95.242C352.03,100.952 354.314,106.431 358.37,110.45L419.14,170.1C422.736,173.867 427.722,176.001 432.93,176C434.21,176 434.65,176 434.93,175.95C440.702,175.529 446.038,172.696 449.62,168.15C455.98,160.1 463.9,150.07 463.94,131.04C464,95.55 437.6,66.15 403.79,64.11Z" style="fill-rule:nonzero;"/>
            <path d="M256.07,96C159.07,96 80.07,174.95 80.07,272C80.036,313.138 94.489,353.003 120.88,384.56L84.76,420.69C81.661,423.701 79.91,427.844 79.91,432.165C79.91,440.943 87.132,448.165 95.91,448.165C100.234,448.165 104.378,446.413 107.39,443.31L143.51,407.19C208.423,461.386 303.717,461.386 368.63,407.19L404.76,443.31C407.772,446.413 411.916,448.165 416.24,448.165C425.018,448.165 432.24,440.943 432.24,432.165C432.24,427.844 430.489,423.701 427.39,420.69L391.26,384.56C417.655,353.005 432.109,313.139 432.07,272C432.07,175 353.12,96 256.07,96ZM272.07,272C272.07,280.777 264.847,288 256.07,288L176.07,288C167.293,288 160.07,280.777 160.07,272C160.07,263.223 167.293,256 176.07,256L240.07,256L240.07,160C240.07,151.223 247.293,144 256.07,144C264.847,144 272.07,151.223 272.07,160L272.07,272Z" style="fill-rule:nonzero;"/>
        </g>
        <g id="alarm.svg1" serif:id="alarm.svg">
        </g>
    </g>
</svg>
