<svg fill="#000000" xmlns="http://www.w3.org/2000/svg"  viewBox="0 0 30 30" width="30px" height="30px"><path d="M 18.009766 -0.005859375 A 1.0001 1.0001 0 0 0 17.556641 0.10351562 C 17.556641 0.10351562 16.843535 0.46926636 16.220703 1.2460938 C 16.041713 1.4693395 15.870254 1.7434108 15.708984 2.0449219 C 15.476015 2.0174478 15.240362 2 15 2 C 13.146 2 11.488672 2.8411094 10.388672 4.1621094 C 9.5216719 5.2021094 6 10 6 18 C 6 22.971 10.029 27 15 27 C 19.971 27 24 22.971 24 18 C 24 13 21 11 21 8 C 21 5.6513383 19.647257 3.6239141 17.681641 2.6386719 C 17.714609 2.5932649 17.746425 2.5370933 17.779297 2.4960938 C 18.156465 2.0256711 18.443359 1.8964844 18.443359 1.8964844 A 1.0001 1.0001 0 0 0 18.009766 -0.005859375 z M 15 12 C 17.761 12 20 16.239 20 19 C 20 21.761 17.761 24 15 24 C 12.239 24 10 21.761 10 19 C 10 16.239 12.239 12 15 12 z"/></svg>