<?xml version="1.0" encoding="UTF-8" standalone="no"?>
<!DOCTYPE svg PUBLIC "-//W3C//DTD SVG 1.1//EN" "http://www.w3.org/Graphics/SVG/1.1/DTD/svg11.dtd">
<svg width="100%" height="100%" viewBox="0 0 40 40" version="1.1" xmlns="http://www.w3.org/2000/svg" xmlns:xlink="http://www.w3.org/1999/xlink" xml:space="preserve" xmlns:serif="http://www.serif.com/" style="fill-rule:evenodd;clip-rule:evenodd;stroke-linejoin:round;stroke-miterlimit:2;">
    <g transform="matrix(0.0725591,0,0,0.0725591,20,20)">
        <g id="nutrition.svg" transform="matrix(1,0,0,1,-256,-256)">
            <path d="M439,166.29C420.33,133.72 391.54,115.48 353.43,112.06C333.25,110.26 314.43,115.43 296.2,120.44C282.05,124.33 268.68,128 256,128C243.32,128 230,124.32 215.94,120.43C197.66,115.43 178.76,110.17 158.51,112.07C122.12,115.48 93,134.18 74.2,166.15C56.82,195.76 48,236.76 48,288C48,328.4 63,378.49 88,422C100.82,444.25 135,496 175.16,496C205.93,496 222.31,486.56 234.27,479.67C242.57,474.89 247.58,472 255.96,472C264.34,472 269.35,474.89 277.65,479.67C289.65,486.56 306,496 336.8,496C376.97,496 411.14,444.24 423.96,422C449.03,378.5 463.96,328.41 463.96,288C464,235.43 455.82,195.62 439,166.29ZM216,352C202.75,352 192,330.51 192,304C192,277.49 202.75,256 216,256C229.25,256 240,277.49 240,304C240,330.51 229.25,352 216,352ZM296,352C282.75,352 272,330.51 272,304C272,277.49 282.75,256 296,256C309.25,256 320,277.49 320,304C320,330.51 309.25,352 296,352Z" style="fill-rule:nonzero;"/>
            <path d="M265.1,111.93C278.26,110.18 302.96,104.1 323.93,83.14C339.568,67.464 349.442,46.942 351.93,24.94C351.969,24.62 351.988,24.299 351.988,23.977C351.988,19.588 348.377,15.977 343.988,15.977C343.785,15.977 343.582,15.985 343.38,16C330.67,16.95 306.62,21.87 284.65,43.85C268.511,59.71 258.379,80.698 256,103.2C255.972,103.47 255.959,103.741 255.959,104.012C255.959,108.4 259.57,112.012 263.959,112.012C264.341,112.012 264.722,111.984 265.1,111.93Z" style="fill-rule:nonzero;"/>
        </g>
        <g id="nutrition.svg1" serif:id="nutrition.svg">
        </g>
    </g>
</svg>
