<?xml version="1.0" encoding="UTF-8" standalone="no"?>
<!DOCTYPE svg PUBLIC "-//W3C//DTD SVG 1.1//EN" "http://www.w3.org/Graphics/SVG/1.1/DTD/svg11.dtd">
<svg width="100%" height="100%" viewBox="0 0 40 40" version="1.1" xmlns="http://www.w3.org/2000/svg" xmlns:xlink="http://www.w3.org/1999/xlink" xml:space="preserve" xmlns:serif="http://www.serif.com/" style="fill-rule:evenodd;clip-rule:evenodd;stroke-linejoin:round;stroke-miterlimit:2;">
    <g transform="matrix(0.0731124,0,0,0.0731124,20,20)">
        <g id="thumbs-down.svg" transform="matrix(1,0,0,1,-256,-256)">
            <path d="M39.94,178L184.1,184.12C188.71,184.48 208,185.34 208,210C208,233.8 188.84,235.33 183.86,235.88L39.94,242C27.27,241.87 16,227.56 16,210C16,192.44 27.27,178.13 39.94,178ZM181.39,309.66L74.65,318C62,318 48,301.31 48,284.12L48,283.79C48,267.46 59.14,254.16 72.88,254L181.33,255.72C208,259 208,275.16 208,282.12C208,305 186.2,309.26 181.39,309.66ZM90.15,32L179.52,40.93C204,41.86 208,58.18 208,68.4C208,86.79 194.59,93 181.33,93L90.33,96C75.78,95.78 64,81.51 64,64C64,46.49 75.68,32.34 90.15,32ZM55.79,103.5L182.19,109.72C191.58,110.35 208,112.72 208,136.08C208,148.08 203.65,161.7 183,163.61L55.79,167.5C42.65,167.35 32,154 32,136.08C32,118.16 42.65,103.65 55.79,103.5Z" style="fill-rule:nonzero;"/>
            <path d="M378.45,273.93C380.767,272.668 383.362,272.005 386,272C383.378,272.009 380.798,272.665 378.49,273.91L378.45,273.93ZM337.86,343.22L337.73,343.44C337.77,343.365 337.813,343.291 337.86,343.22C358.36,307.71 368.22,288.22 371.68,281.22C368.21,288.28 358.34,307.73 337.86,343.22Z" style="fill:none;fill-rule:nonzero;"/>
            <path d="M372.66,279.16L371.66,281.16C373.106,278.095 375.473,275.556 378.43,273.9C376.113,275.166 374.134,276.97 372.66,279.16Z" style="fill-rule:nonzero;"/>
            <path d="M195.94,459.38C205.37,472.67 221,480 240,480C246.052,479.999 251.606,476.564 254.31,471.15C257.31,465.09 269.56,447.15 282.5,428.25C300.5,401.92 322.85,369.17 337.73,343.44L337.86,343.22C358.34,307.73 368.21,288.28 371.68,281.22L372.68,279.22C374.163,277.038 376.149,275.245 378.47,273.99C380.777,272.714 383.364,272.03 386,272L411.32,272C457.777,271.989 496,233.757 496,187.3L496,148.7C496,102.239 457.771,64.005 411.31,64L362.52,64C359.113,63.992 355.783,62.987 352.94,61.11C330,46.13 286.66,32 240,32C232.55,32 225.81,32.14 219.73,32.38C215.451,32.532 212.015,36.094 212.015,40.375C212.015,42.057 212.545,43.697 213.53,45.06L213.63,45.2C222.2,57.59 224,71 224,80C224.016,88.528 222.248,96.966 218.81,104.77C216.831,109.245 216.831,114.355 218.81,118.83C225.72,134.908 225.72,153.142 218.81,169.22C216.841,173.677 216.841,178.763 218.81,183.22C225.687,199.023 225.687,216.997 218.81,232.8C216.741,237.472 216.741,242.808 218.81,247.48C222.375,255.508 224.146,264.217 224,273C224,281.2 222,294.3 216,304.18C213.546,308.311 213.126,313.349 214.86,317.83C215.24,318.83 215.62,319.89 215.99,321C217.187,324.734 217.482,328.7 216.85,332.57C213.85,351.92 207.18,368.87 200.11,386.73C197.03,394.51 193.84,402.55 190.89,411C184.75,428.56 186.59,446.2 195.94,459.38Z" style="fill-rule:nonzero;"/>
        </g>
        <g id="thumbs-down.svg1" serif:id="thumbs-down.svg">
        </g>
    </g>
</svg>
