<?xml version="1.0"?><svg fill="#000000" xmlns="http://www.w3.org/2000/svg"  viewBox="0 0 30 30" width="30px" height="30px">    <path d="M 1.7070312 0.29296875 L 0.29296875 1.7070312 L 28.292969 29.707031 L 29.707031 28.292969 L 21.355469 19.941406 C 22.98651 18.67678 24 16.933625 24 15 C 24 11.751 22.680547 5.8635781 22.185547 3.7675781 C 22.078547 3.3155781 21.676891 3 21.212891 3 L 8.7871094 3 C 8.3231094 3 7.9214531 3.3155781 7.8144531 3.7675781 C 7.6931448 4.2803813 7.520499 5.0450389 7.3320312 5.9179688 L 1.7070312 0.29296875 z M 9.5820312 5 L 20.417969 5 C 20.642969 5.984 20.959953 7.442 21.251953 9 L 11.552734 9 C 11.244468 9 10.97406 9.1496915 10.789062 9.375 L 9.0234375 7.609375 C 9.2277721 6.6037463 9.4272439 5.6787712 9.5820312 5 z M 6.4335938 10.640625 C 6.1815938 12.237625 6 13.799 6 15 C 6 18.603 9.5 21.566125 14 21.953125 L 14 24.195312 L 9.7382812 25.03125 L 9.7441406 25.052734 C 9.3191406 25.167734 9 25.538 9 26 C 9 26.553 9.447 27 10 27 L 20 27 C 20.553 27 21 26.553 21 26 C 21 25.538 20.680859 25.167734 20.255859 25.052734 L 20.261719 25.03125 L 16 24.195312 L 16 21.953125 C 16.518 21.908125 17.021766 21.826797 17.509766 21.716797 L 10.019531 14.226562 C 10.007531 14.486562 10 14.745 10 15 C 10 15.54 10.103094 16.132313 10.246094 16.695312 C 10.445094 17.477313 9.4455469 17.973656 8.9355469 17.347656 C 8.4115469 16.705656 8 15.911 8 15 C 8 14.267 8.0772188 13.36825 8.1992188 12.40625 L 6.4335938 10.640625 z"/></svg>