<?xml version="1.0" encoding="UTF-8" standalone="no"?>
<!DOCTYPE svg PUBLIC "-//W3C//DTD SVG 1.1//EN" "http://www.w3.org/Graphics/SVG/1.1/DTD/svg11.dtd">
<svg width="100%" height="100%" viewBox="0 0 40 40" version="1.1" xmlns="http://www.w3.org/2000/svg" xmlns:xlink="http://www.w3.org/1999/xlink" xml:space="preserve" xmlns:serif="http://www.serif.com/" style="fill-rule:evenodd;clip-rule:evenodd;stroke-linejoin:round;stroke-miterlimit:2;">
    <g transform="matrix(0.075298,0,0,0.075298,20,20)">
        <g id="people.svg" transform="matrix(1,0,0,1,-256,-256)">
            <path d="M336,256C315.44,256 295.56,246.82 280,230.16C264.87,213.91 255.63,192.24 254,169.16C252.26,144.54 259.77,121.9 275.14,105.4C290.51,88.9 312,80 336,80C359.83,80 381.38,89.06 396.7,105.52C412.17,122.14 419.7,144.74 417.96,169.15C416.29,192.26 407.06,213.92 391.96,230.15C376.44,246.82 356.57,256 336,256ZM467.83,432L204.18,432C195.595,432.046 187.459,428.1 182.18,421.33C176.582,413.993 174.642,404.483 176.92,395.54C185.34,361.73 206.2,333.69 237.24,314.46C264.79,297.4 299.86,288 336,288C372.85,288 407,297 434.71,314.05C465.82,333.18 486.71,361.38 495.09,395.6C497.34,404.549 495.379,414.053 489.77,421.38C484.497,428.118 476.386,432.044 467.83,432ZM147,260C111.81,260 80.87,227.28 78,187.07C76.58,166.47 83,147.42 96,133.45C108.86,119.62 127,112 147,112C167,112 185,119.66 197.93,133.57C211.03,147.65 217.43,166.66 215.93,187.09C213.06,227.29 182.13,260 147,260ZM212.66,291.45C195.07,282.85 172.24,278.55 147.01,278.55C117.55,278.55 88.94,286.23 66.44,300.17C40.93,316 23.77,339.05 16.84,366.88C14.787,374.984 16.553,383.598 21.63,390.24C26.449,396.426 33.878,400.036 41.72,400L152.72,400C156.571,399.999 159.902,397.219 160.59,393.43C160.7,392.8 160.84,392.17 161,391.55C169.48,357.49 189.35,328.71 218.71,307.73C220.794,306.228 222.032,303.81 222.032,301.24C222.032,298.405 220.525,295.774 218.08,294.34C216.51,293.42 214.71,292.45 212.66,291.45Z" style="fill-rule:nonzero;"/>
        </g>
        <g id="people.svg1" serif:id="people.svg">
        </g>
    </g>
</svg>
