<svg fill="#000000" xmlns="http://www.w3.org/2000/svg"  viewBox="0 0 30 30" width="30px" height="30px"><path d="M 17.966797 2.9882812 A 1.0001 1.0001 0 0 0 17.083984 4.4023438 L 17.087891 4.4101562 L 18.300781 7.9550781 L 14.853516 9.1484375 L 14.851562 9.1503906 A 2.5 2.5 0 0 0 13.199219 11.5 A 2.5 2.5 0 0 0 13.365234 12.396484 L 15.384766 17.435547 C 15.392898 17.455644 15.399567 17.476261 15.408203 17.496094 L 15.550781 17.849609 L 15.517578 21.134766 L 13.154297 25.464844 L 13.158203 25.462891 A 1.0001 1.0001 0 1 0 14.828125 26.560547 L 17.828125 22.121094 A 1.0001 1.0001 0 0 0 17.958984 21.845703 L 19.521484 17.632812 L 19.521484 17.601562 C 19.625382 17.267859 19.681641 16.897584 19.681641 16.5 C 19.681641 16.150014 19.642614 15.818007 19.5625 15.515625 L 19.5625 15.507812 L 18.367188 11.337891 L 20.746094 9.25 L 20.738281 9.234375 A 1.0001 1.0001 0 0 0 20.916016 8.1601562 L 18.916016 3.5976562 A 1.0001 1.0001 0 0 0 17.966797 2.9882812 z M 9 3 C 9 3 5 5 4 11 L 7.1191406 9.5996094 C 6.8791406 4.7996094 9 3 9 3 z M 13.5 3 A 2.5 2.5 0 0 0 11 5.5 A 2.5 2.5 0 0 0 13.5 8 A 2.5 2.5 0 0 0 16 5.5 A 2.5 2.5 0 0 0 13.5 3 z M 11.488281 9.3671875 A 0.50005 0.50005 0 0 0 11.308594 9.4042969 L 5.3808594 11.716797 C 5.3774893 11.718018 5.3744541 11.719468 5.3710938 11.720703 L 5.3476562 11.730469 A 0.50005 0.50005 0 0 0 5.2578125 11.773438 C 4.2961932 12.18625 3.7741406 13.160078 4.1191406 14.080078 L 4.359375 14.800781 C 4.719375 15.760781 5.7997656 16.240859 6.7597656 15.880859 C 6.9997656 15.760859 7.12 15.520391 7 15.400391 L 6.0390625 13.359375 C 5.9190625 13.119375 6.023 12.587422 6.5 12.357422 L 6.4960938 12.355469 L 11.671875 10.335938 A 0.50005 0.50005 0 0 0 11.488281 9.3671875 z M 20.962891 19.492188 L 19.873047 22.431641 L 22.099609 26.435547 C 22.272609 26.792547 22.629 27 23 27 C 23.146 27 23.294547 26.968391 23.435547 26.900391 C 23.933547 26.660391 24.141391 26.062453 23.900391 25.564453 L 20.962891 19.492188 z"/></svg>