<?xml version="1.0" encoding="UTF-8" standalone="no"?>
<!DOCTYPE svg PUBLIC "-//W3C//DTD SVG 1.1//EN" "http://www.w3.org/Graphics/SVG/1.1/DTD/svg11.dtd">
<svg width="100%" height="100%" viewBox="0 0 40 40" version="1.1" xmlns="http://www.w3.org/2000/svg" xmlns:xlink="http://www.w3.org/1999/xlink" xml:space="preserve" xmlns:serif="http://www.serif.com/" style="fill-rule:evenodd;clip-rule:evenodd;stroke-linejoin:round;stroke-miterlimit:2;">
    <g transform="matrix(0.0726563,0,0,0.0726563,20,20)">
        <g id="boat.svg" transform="matrix(1,0,0,1,-256,-256)">
            <path d="M416,473.14C415.999,470.64 414.627,468.333 412.43,467.14C385.36,452.59 360.67,430.32 349.81,419.14C346.495,415.663 341.127,415.026 337.09,417.63C286.76,450.05 225.48,450.07 175.14,417.68C171.066,415.049 165.644,415.709 162.32,419.24C151.55,430.52 127.13,452.54 99.89,466.99C97.69,468.095 96.216,470.268 96,472.72C95.986,472.896 95.979,473.073 95.979,473.25C95.979,476.942 99.017,479.98 102.709,479.98C103.115,479.98 103.521,479.943 103.92,479.87C124.77,475.69 144.92,466.19 164.12,456.04C166.617,454.725 169.603,454.703 172.12,455.98C224.803,482.764 287.247,482.764 339.93,455.98C342.475,454.69 345.494,454.713 348.02,456.04C367.12,466.04 387.24,475.63 408.02,479.84C408.439,479.921 408.864,479.961 409.291,479.961C412.983,479.961 416.021,476.923 416.021,473.231C416.021,473.197 416.021,473.164 416.02,473.13L416,473.14ZM476.71,246.91C473.22,238.52 465.81,232.02 455.81,228.56L432,219.08L432,136C432,100.891 403.109,72 368,72L336,72L336,64C336,42.057 317.943,24 296,24L216,24C194.057,24 176,42.057 176,64L176,72L144,72C108.891,72 80,100.891 80,136L80,219.15L56.42,228.54C46.48,231.84 38.79,238.54 35.27,246.98C32.82,252.87 30.02,261.98 33.97,273.44L34.07,273.74L80.73,393.18C84.241,402.143 92.954,408.053 102.58,408C103.08,408 103.58,408 104.11,407.95C135.43,405.95 160.11,390.68 176.71,376.34C200.42,396.81 228.31,408 256,408C283.69,408 311.43,396.8 335.14,376.3C351.73,390.66 376.44,405.97 407.75,407.95C417.895,408.662 427.392,402.672 431.12,393.21L477.77,274.21C481.05,266.12 480.67,256.45 476.71,246.91ZM269,154.21L267.86,153.81C260.138,151.38 251.852,151.38 244.13,153.81L243.55,153.99L117.48,204.22C117.009,204.408 116.507,204.504 116,204.504C113.806,204.504 112,202.698 112,200.504C112,200.503 112,200.501 112,200.5L112,136C112,118.445 126.445,104 144,104L368,104C385.555,104 400,118.445 400,136L400,200.44C400,200.441 400,200.443 400,200.444C400,202.638 398.194,204.444 396,204.444C395.493,204.444 394.991,204.348 394.52,204.16L269,154.21Z" style="fill-rule:nonzero;"/>
        </g>
        <g id="boat.svg1" serif:id="boat.svg">
        </g>
    </g>
</svg>
