<?xml version="1.0" encoding="UTF-8" standalone="no"?>
<!DOCTYPE svg PUBLIC "-//W3C//DTD SVG 1.1//EN" "http://www.w3.org/Graphics/SVG/1.1/DTD/svg11.dtd">
<svg width="100%" height="100%" viewBox="0 0 40 40" version="1.1" xmlns="http://www.w3.org/2000/svg" xmlns:xlink="http://www.w3.org/1999/xlink" xml:space="preserve" xmlns:serif="http://www.serif.com/" style="fill-rule:evenodd;clip-rule:evenodd;stroke-linejoin:round;stroke-miterlimit:2;">
    <g transform="matrix(0.0730531,0,0,0.0730531,19.9848,19.9848)">
        <g id="restaurant.svg" transform="matrix(1,0,0,1,-256,-256)">
            <path d="M357.57,223.94C378.796,223.998 399.184,215.552 414.15,200.5L491.15,123.55C497.24,117.46 497.8,107.55 492,101.16C488.969,97.818 484.661,95.909 480.148,95.909C475.904,95.909 471.83,97.598 468.83,100.6L400.2,169.18C395.434,173.94 387.596,173.94 382.83,169.18C378.04,164.4 378.3,156.32 383.08,151.54L451.41,83.21C454.409,80.211 456.096,76.138 456.096,71.897C456.096,67.387 454.189,63.081 450.85,60.05C447.955,57.424 444.178,55.978 440.27,56C435.841,56.003 431.59,57.767 428.46,60.9L360.19,129.16C355.424,133.92 347.586,133.92 342.82,129.16C338.04,124.38 338.29,116.3 343.07,111.52L411.4,43.21C414.399,40.211 416.086,36.138 416.086,31.897C416.086,27.387 414.179,23.081 410.84,20.05C407.945,17.424 404.168,15.978 400.26,16C395.832,16.005 391.581,17.769 388.45,20.9L311.5,97.85C296.447,112.819 288,133.211 288.06,154.44L288.06,162.67C288.063,166.918 286.375,170.997 283.37,174L247.76,209.62C247.01,210.371 245.991,210.793 244.93,210.793C243.869,210.793 242.85,210.371 242.1,209.62L68.82,36.33C62.635,30.138 52.458,30.111 46.24,36.27C31.09,51.28 23,72.47 23,97.54C22.9,138.94 44.66,186.54 79.79,221.62L165.24,307.07C177.38,319.186 193.848,325.998 211,326C216.47,326.002 221.918,325.303 227.21,323.92C228.539,323.572 229.906,323.394 231.28,323.39C235.295,323.391 239.166,324.909 242.11,327.64L253.5,338.16C256.437,341.16 258.088,345.192 258.1,349.39L258.1,354.93C258.071,367.519 263.024,379.623 271.87,388.58L361.92,480.15L362.01,480.25C372,490.239 385.563,495.856 399.69,495.856C428.925,495.856 452.981,471.8 452.981,442.565C452.981,428.436 447.362,414.87 437.37,404.88L302.39,269.9C301.639,269.15 301.217,268.131 301.217,267.07C301.217,266.009 301.639,264.99 302.39,264.24L338,228.63C341,225.628 345.075,223.939 349.32,223.94L357.57,223.94Z" style="fill-rule:nonzero;"/>
            <path d="M211,358C185.393,357.947 160.814,347.79 142.64,329.75L128.78,315.89C125.678,312.796 120.582,312.796 117.48,315.89L32.48,400.45C17.33,415.6 11.92,437.9 19.42,459.74C19.84,460.97 20.337,462.173 20.91,463.34C31,484 50.58,496 72,496C86.873,496.037 101.158,490.112 111.64,479.56L225,365.66C225.965,364.675 226.449,363.313 226.32,361.94L226.32,361.68C226.148,359.27 224.118,357.379 221.702,357.379C221.524,357.379 221.347,357.39 221.17,357.41C217.793,357.785 214.398,357.981 211,358Z" style="fill-rule:nonzero;"/>
        </g>
        <g id="restaurant.svg1" serif:id="restaurant.svg">
        </g>
    </g>
</svg>
