<svg fill="#000000" xmlns="http://www.w3.org/2000/svg"  viewBox="0 0 30 30" width="30px" height="30px"><path d="M 11 4 C 8.75 4 6.9352259 4.8797556 5.7519531 6.2109375 C 4.5686803 7.5421194 4 9.2777778 4 11 C 4 13.57927 4.4609464 15.221735 4.9570312 16.421875 C 5.4531161 17.622015 5.8852828 18.296713 6.0097656 19.144531 A 1.0001 1.0001 0 0 0 6.0097656 19.146484 C 6.1844378 20.334055 6.4109013 21.881057 6.9121094 23.234375 C 7.1627134 23.911034 7.4786761 24.550004 7.96875 25.076172 C 8.4588239 25.602293 9.188373 26 10 26 C 11.2599 26 12.281081 25.313531 12.855469 24.466797 C 13.429857 23.620063 13.696498 22.649555 13.927734 21.748047 C 14.158971 20.846539 14.354193 19.998802 14.576172 19.5 C 14.687161 19.250599 14.799538 19.103563 14.859375 19.050781 C 14.919212 18.997999 14.901051 19 15 19 C 15.09895 19 15.08079 18.998001 15.140625 19.050781 C 15.200465 19.103561 15.312839 19.250599 15.423828 19.5 C 15.645807 19.998802 15.841029 20.846539 16.072266 21.748047 C 16.303502 22.649555 16.570143 23.620063 17.144531 24.466797 C 17.718919 25.313532 18.7401 26 20 26 C 20.811627 26 21.541176 25.60234 22.03125 25.076172 C 22.521324 24.550004 22.837287 23.911034 23.087891 23.234375 C 23.589099 21.881057 23.815562 20.334055 23.990234 19.146484 A 1.0001 1.0001 0 0 0 23.990234 19.144531 C 24.114717 18.296713 24.546884 17.622015 25.042969 16.421875 C 25.539054 15.221782 26 13.57927 26 11 C 26 9.2777778 25.43132 7.5421194 24.248047 6.2109375 C 23.064774 4.8797556 21.25 4 19 4 C 17.388889 4 16.256972 4.2710393 15.503906 4.5722656 C 15.245396 4.6756697 15.035874 4.7889162 14.853516 4.8984375 C 13.839613 4.3853503 12.564593 4 11 4 z M 11 6 C 14.784965 6 16.134766 8.5019531 16.134766 8.5019531 A 1.0002934 1.0002934 0 1 0 17.865234 7.4980469 C 17.865234 7.4980469 17.503131 6.9303417 16.785156 6.2558594 C 17.299864 6.1175641 18.012765 6 19 6 C 20.75 6 21.935226 6.6202444 22.751953 7.5390625 C 23.56868 8.4578806 24 9.7222222 24 11 C 24 13.35173 23.619978 14.630843 23.195312 15.658203 C 22.770647 16.685563 22.202283 17.544287 22.009766 18.855469 C 21.836465 20.033578 21.603485 21.484415 21.212891 22.539062 C 21.017495 23.066654 20.779832 23.483746 20.566406 23.712891 C 20.35298 23.942035 20.230373 24 20 24 C 19.3514 24 19.116737 23.811469 18.800781 23.345703 C 18.484825 22.879937 18.227404 22.100445 18.009766 21.251953 C 17.792127 20.403461 17.614068 19.501198 17.251953 18.6875 C 17.070896 18.280651 16.838987 17.880812 16.464844 17.550781 C 16.138133 17.262592 15.682589 17.066843 15.207031 17.019531 A 1.0001 1.0001 0 0 0 15 17 A 1.0001 1.0001 0 0 0 14.791016 17.019531 C 14.316161 17.067206 13.861424 17.262983 13.535156 17.550781 C 13.161013 17.880812 12.929104 18.280651 12.748047 18.6875 C 12.385932 19.501198 12.207873 20.403461 11.990234 21.251953 C 11.772596 22.100445 11.515175 22.879937 11.199219 23.345703 C 10.883263 23.811469 10.6486 24 10 24 C 9.769627 24 9.6470198 23.942035 9.4335938 23.712891 C 9.2201676 23.483746 8.9825053 23.066653 8.7871094 22.539062 C 8.3965153 21.484415 8.1635351 20.033578 7.9902344 18.855469 L 7.9902344 18.853516 C 7.7974188 17.543571 7.2291246 16.685011 6.8046875 15.658203 C 6.3800223 14.630843 6 13.35173 6 11 C 6 9.7222222 6.4313197 8.4578806 7.2480469 7.5390625 C 8.0647741 6.6202444 9.25 6 11 6 z"/></svg>