<svg fill="#000000" xmlns="http://www.w3.org/2000/svg"  viewBox="0 0 30 30" width="30px" height="30px"><path d="M 11 3 C 8.4 3 6.3645469 4.919625 6.0605469 7.390625 C 4.2625469 8.147625 3 9.926 3 12 C 3 14.761 5.239 17 8 17 C 8.2925 17 8.5770156 16.970844 8.8535156 16.917969 C 9.6313673 18.596594 10.791907 21.61435 10.974609 25.080078 C 11.029384 26.119358 11.899933 27 12.972656 27 L 17.021484 27 C 18.099798 27 18.976996 26.11233 19.019531 25.060547 C 19.144335 22.047574 19.851598 19.935679 20.507812 18.583984 C 21.027693 17.513116 21.396493 17.069928 21.560547 16.886719 C 21.864526 16.953522 22.176289 17 22.5 17 C 24.985 17 27 14.985 27 12.5 C 27 10.441 25.609703 8.7234531 23.720703 8.1894531 C 22.952703 5.7614531 20.682 4 18 4 L 17.988281 4 C 17.450281 4.001 17.117563 4.5785 17.351562 5.0625 C 17.415563 5.1935 17.474344 5.3278438 17.527344 5.4648438 C 17.701344 5.9118438 17.547625 6.4393594 17.140625 6.6933594 C 16.969625 6.7993594 16.784516 6.8496094 16.603516 6.8496094 C 16.201516 6.8496094 15.822922 6.6050312 15.669922 6.2070312 C 15.481922 5.7170313 14.2 3 11 3 z M 10 10 C 10.552 10 11 10.448 11 11 C 11 11.552 10.552 12 10 12 C 9.448 12 9 11.552 9 11 C 9 10.448 9.448 10 10 10 z M 20 10 C 20.552 10 21 10.448 21 11 C 21 11.552 20.552 12 20 12 C 19.448 12 19 11.552 19 11 C 19 10.448 19.448 10 20 10 z M 13 12 L 17 12 C 17 13.105 16.105 14 15 14 C 13.895 14 13 13.105 13 12 z M 16 17.212891 C 16.716848 17.698989 17.568627 18 18.5 18 C 18.530772 18 18.559235 17.992822 18.589844 17.992188 C 17.861888 19.573275 17.150544 21.862788 17.021484 24.978516 A 1.0001 1.0001 0 0 0 17.021484 24.980469 C 17.019984 25.016689 17.031184 25 17.021484 25 L 12.972656 25 C 12.962026 25 12.974856 25.016519 12.972656 24.974609 C 12.822541 22.127003 12.079611 19.579325 11.357422 17.701172 C 11.872181 17.885312 12.420762 18 13 18 C 13.344181 18 13.67576 17.953565 14 17.886719 L 14 21.900391 A 1.0001 1.0001 0 1 0 16 21.900391 L 16 17.212891 z"/></svg>