<?xml version="1.0" encoding="UTF-8" standalone="no"?>
<!DOCTYPE svg PUBLIC "-//W3C//DTD SVG 1.1//EN" "http://www.w3.org/Graphics/SVG/1.1/DTD/svg11.dtd">
<svg width="100%" height="100%" viewBox="0 0 40 40" version="1.1" xmlns="http://www.w3.org/2000/svg" xmlns:xlink="http://www.w3.org/1999/xlink" xml:space="preserve" xmlns:serif="http://www.serif.com/" style="fill-rule:evenodd;clip-rule:evenodd;stroke-linejoin:round;stroke-miterlimit:2;">
    <g transform="matrix(0.0726563,0,0,0.0726563,20,20)">
        <g id="fish.svg" transform="matrix(1,0,0,1,-256,-256)">
            <path d="M512,256C512,239.46 497.73,209.24 466.39,182C448.502,166.614 428.114,154.397 406.11,145.88C404.601,145.316 402.891,145.995 402.18,147.44C402.03,147.73 401.88,148.01 401.71,148.3L392.12,164.2C359.242,220.973 359.269,291.232 392.19,347.98L392.42,348.37L401.16,364.37C402.115,366.119 404.239,366.902 406.1,366.19C479.63,337.42 512,281.49 512,256ZM418.08,255.86C417.392,255.95 416.699,255.995 416.005,255.995C407.228,255.995 400.005,248.772 400.005,239.995C400.005,231.218 407.228,223.995 416.005,223.995C424.782,223.995 432.005,231.218 432.005,239.995C432.005,240.689 431.96,241.382 431.87,242.07C430.933,249.238 425.248,254.923 418.08,255.86Z" style="fill-rule:nonzero;"/>
            <path d="M335.45,256C335.436,218.067 345.471,180.798 364.53,148L364.65,147.79L369.27,140.12C369.654,139.492 369.857,138.77 369.857,138.034C369.857,136.15 368.525,134.508 366.68,134.12C353.735,131.412 340.616,129.611 327.42,128.73C325.864,128.63 324.372,128.073 323.13,127.13C303.85,112.47 265.63,86.83 226.67,80.24C225.806,80.097 224.931,80.025 224.054,80.025C215.277,80.025 208.054,87.247 208.054,96.025C208.054,97.511 208.262,98.991 208.67,100.42L219.29,137.59C219.86,139.576 218.801,141.694 216.87,142.43C180.02,156.12 148.28,181.18 125.13,200.28C122.221,202.661 118.007,202.686 115.07,200.34C111.923,197.84 108.693,195.377 105.38,192.95C65.74,164 19.17,160.19 17.21,160.05C16.809,160.02 16.407,160.005 16.005,160.005C7.227,160.005 0.005,167.227 0.005,176.005C0.005,177.163 0.13,178.318 0.38,179.45C0.8,181.38 9.57,220.14 32.08,251.06C34.154,253.896 34.154,257.774 32.08,260.61C9.57,291.52 0.8,330.29 0.38,332.22C0.13,333.352 0.005,334.507 0.005,335.665C0.005,344.443 7.227,351.665 16.005,351.665C16.407,351.665 16.809,351.65 17.21,351.62C19.21,351.48 65.74,347.62 105.33,318.74C108.563,316.367 111.72,313.96 114.8,311.52C117.739,309.177 121.953,309.206 124.86,311.59C148.11,330.78 179.91,355.87 216.86,369.59C218.786,370.326 219.844,372.437 219.28,374.42L208.62,411.6C208.212,413.029 208.004,414.509 208.004,415.995C208.004,424.773 215.227,431.995 224.004,431.995C224.881,431.995 225.756,431.923 226.62,431.78C243.78,428.88 278.5,418.92 322.67,384.95C323.932,383.987 325.447,383.414 327.03,383.3C340.21,382.437 353.314,380.666 366.25,378C368.095,377.613 369.428,375.971 369.428,374.085C369.428,373.416 369.26,372.757 368.94,372.17L364.43,363.88C345.427,331.107 335.427,293.884 335.45,256Z" style="fill-rule:nonzero;"/>
        </g>
        <g id="fish.svg1" serif:id="fish.svg">
        </g>
    </g>
</svg>
