<?xml version="1.0" encoding="UTF-8" standalone="no"?>
<!DOCTYPE svg PUBLIC "-//W3C//DTD SVG 1.1//EN" "http://www.w3.org/Graphics/SVG/1.1/DTD/svg11.dtd">
<svg width="100%" height="100%" viewBox="0 0 40 40" version="1.1" xmlns="http://www.w3.org/2000/svg" xmlns:xlink="http://www.w3.org/1999/xlink" xml:space="preserve" xmlns:serif="http://www.serif.com/" style="fill-rule:evenodd;clip-rule:evenodd;stroke-linejoin:round;stroke-miterlimit:2;">
    <g transform="matrix(0.0726563,0,0,0.0726563,20,20)">
        <g id="code-slash.svg" transform="matrix(1,0,0,1,-256,-256)">
            <path d="M160,389C154.916,389.005 150,387.155 146.18,383.8L18.18,271.8C13.628,267.815 11.013,262.05 11.013,256C11.013,249.95 13.628,244.185 18.18,240.2L146.18,128.2C150.007,124.851 154.924,123.003 160.01,123.003C171.531,123.003 181.012,132.484 181.012,144.005C181.012,150.058 178.395,155.824 173.84,159.81L63.89,256L173.83,352.19C178.389,356.176 181.008,361.945 181.008,368C181.008,379.52 171.528,389 160.008,389C160.005,389 160.003,389 160,389ZM352,389C351.994,389 351.988,389 351.982,389C340.462,389 330.982,379.52 330.982,368C330.982,361.945 333.601,356.176 338.16,352.19L448.11,256L338.17,159.81C333.615,155.824 330.998,150.058 330.998,144.005C330.998,132.484 340.479,123.003 352,123.003C357.086,123.003 362.003,124.851 365.83,128.2L493.83,240.2C498.382,244.185 500.997,249.95 500.997,256C500.997,262.05 498.382,267.815 493.83,271.8L365.83,383.8C362.008,387.159 357.088,389.009 352,389ZM208,437C196.481,436.997 187.005,427.519 187.005,416C187.005,413.968 187.299,411.947 187.88,410L283.88,90C286.321,80.833 294.686,74.404 304.173,74.404C315.693,74.404 325.173,83.884 325.173,95.404C325.173,97.645 324.814,99.872 324.11,102L228.11,422C225.466,430.869 217.255,436.994 208,437Z" style="fill-rule:nonzero;"/>
        </g>
        <g id="code-slash.svg1" serif:id="code-slash.svg">
        </g>
    </g>
</svg>
