<?xml version="1.0" encoding="UTF-8" standalone="no"?>
<!DOCTYPE svg PUBLIC "-//W3C//DTD SVG 1.1//EN" "http://www.w3.org/Graphics/SVG/1.1/DTD/svg11.dtd">
<svg width="100%" height="100%" viewBox="0 0 40 40" version="1.1" xmlns="http://www.w3.org/2000/svg" xmlns:xlink="http://www.w3.org/1999/xlink" xml:space="preserve" xmlns:serif="http://www.serif.com/" style="fill-rule:evenodd;clip-rule:evenodd;stroke-linejoin:round;stroke-miterlimit:2;">
    <g transform="matrix(0.0726563,0,0,0.0726563,20,20)">
        <g id="flask.svg" transform="matrix(1,0,0,1,-256,-256)">
            <path d="M452.32,365L327.4,167.12C322.563,159.444 319.997,150.553 320,141.48L320,64L335.56,64C344.17,64 351.56,57.38 351.99,48.77C352.002,48.514 352.009,48.257 352.009,48C352.009,39.223 344.786,32 336.009,32C336.006,32 336.003,32 336,32L176.45,32C167.84,32 160.45,38.62 160.02,47.23C160.008,47.486 160.001,47.743 160.001,48C160.001,56.777 167.223,63.999 176,64L192,64L192,141.48C192.006,150.552 189.436,159.441 184.59,167.11L59.68,365C44.983,387.865 44.021,417.057 57.18,440.84C70.44,465.19 96.36,480 124.13,480L387.87,480C415.64,480 441.56,465.19 454.82,440.79C467.96,417.02 466.997,387.853 452.32,365ZM211.66,184.2C219.73,171.415 224.01,156.599 224,141.48L224,68C224,65.806 225.806,64 228,64L284,64C286.194,64 288,65.806 288,68L288,141.48C287.993,156.6 292.277,171.416 300.35,184.2L358.15,275.73C358.957,277.008 359.385,278.489 359.385,280C359.385,284.389 355.774,288 351.385,288C351.38,288 351.375,288 351.37,288L160.63,288C160.628,288 160.627,288 160.625,288C156.236,288 152.625,284.389 152.625,280C152.625,278.489 153.053,277.008 153.86,275.73L211.66,184.2Z" style="fill-rule:nonzero;"/>
        </g>
        <g id="flask.svg1" serif:id="flask.svg">
        </g>
    </g>
</svg>
