<?xml version="1.0" encoding="UTF-8" standalone="no"?>
<!DOCTYPE svg PUBLIC "-//W3C//DTD SVG 1.1//EN" "http://www.w3.org/Graphics/SVG/1.1/DTD/svg11.dtd">
<svg width="100%" height="100%" viewBox="0 0 40 40" version="1.1" xmlns="http://www.w3.org/2000/svg" xmlns:xlink="http://www.w3.org/1999/xlink" xml:space="preserve" xmlns:serif="http://www.serif.com/" style="fill-rule:evenodd;clip-rule:evenodd;stroke-linejoin:round;stroke-miterlimit:2;">
    <g transform="matrix(0.0725591,0,0,0.0725591,20,20)">
        <g id="newspaper.svg" transform="matrix(1,0,0,1,-256,-256)">
            <path d="M439.91,112L416.09,112C416.041,112 416,112.041 416,112.09L416,416C416,433.555 430.445,448 448,448C465.555,448 480,433.555 480,416L480,152.09C480,130.097 461.903,112 439.91,112Z" style="fill-rule:nonzero;"/>
            <path d="M384,416L384,72C384,50.057 365.943,32 344,32L72,32C50.057,32 32,50.057 32,72L32,424C32,454.721 57.279,480 88,480L430.85,480C430.853,480 430.857,480 430.86,480C431.485,480 432,479.485 432,478.86C432,478.857 432,478.853 432,478.85C431.999,478.335 431.648,477.881 431.15,477.75C403.416,470.142 384.034,444.759 384,416ZM96,128C96,119.223 103.223,112 112,112L176,112C184.777,112 192,119.223 192,128L192,192C192,200.777 184.777,208 176,208L112,208C103.223,208 96,200.777 96,192L96,128ZM304,400L112.45,400C103.84,400 96.45,393.38 96.02,384.77C96.008,384.514 96.001,384.257 96.001,384C96.001,375.223 103.223,368.001 112,368L303.55,368C312.16,368 319.55,374.62 319.98,383.23C319.992,383.486 319.999,383.743 319.999,384C319.999,392.777 312.777,399.999 304,400ZM304,336L112.45,336C103.84,336 96.45,329.38 96.02,320.77C96.008,320.514 96.001,320.257 96.001,320C96.001,311.223 103.223,304.001 112,304L303.55,304C312.16,304 319.55,310.62 319.98,319.23C319.992,319.486 319.999,319.743 319.999,320C319.999,328.777 312.777,335.999 304,336ZM304,272L112.45,272C103.84,272 96.45,265.38 96.02,256.77C96.008,256.514 96.001,256.257 96.001,256C96.001,247.223 103.223,240.001 112,240L303.55,240C312.16,240 319.55,246.62 319.98,255.23C319.992,255.486 319.999,255.743 319.999,256C319.999,264.777 312.777,271.999 304,272ZM304,208L240.45,208C231.84,208 224.45,201.38 224.02,192.77C224.008,192.514 224.001,192.257 224.001,192C224.001,183.223 231.223,176.001 240,176L303.55,176C312.16,176 319.55,182.62 319.98,191.23C319.992,191.486 319.999,191.743 319.999,192C319.999,200.777 312.777,207.999 304,208ZM304,144L240.45,144C231.84,144 224.45,137.38 224.02,128.77C224.008,128.514 224.001,128.257 224.001,128C224.001,119.223 231.223,112.001 240,112L303.55,112C312.16,112 319.55,118.62 319.98,127.23C319.992,127.486 319.999,127.743 319.999,128C319.999,136.777 312.777,143.999 304,144Z" style="fill-rule:nonzero;"/>
        </g>
        <g id="newspaper.svg1" serif:id="newspaper.svg">
        </g>
    </g>
</svg>
