<?xml version="1.0"?><svg fill="#000000" xmlns="http://www.w3.org/2000/svg"  viewBox="0 0 30 30" width="30px" height="30px">    <path d="M 13 4 C 10.489421 4 8.2020947 4.0834422 6.4199219 4.4765625 C 5.5288355 4.6731227 4.7527481 4.9386306 4.1152344 5.40625 C 3.4777207 5.8738694 3 6.6526486 3 7.5 C 3 8.5554487 3.5311368 9.1226853 4 9.484375 L 4 24 C 4 25.093063 4.9069372 26 6 26 L 22 26 L 24 26 C 25.103 26 26 25.103 26 24 L 26 9.1933594 C 26.664 8.7113594 27 8.143 27 7.5 C 27 4.737 22.714 4 19 4 L 13 4 z M 13 6 C 15.460421 6 18.179927 6.098985 20.197266 6.4394531 C 21.205935 6.6096872 22.040553 6.8507432 22.519531 7.0996094 C 22.99851 7.3484756 23 7.4411403 23 7.5 C 23 7.8908776 22.578125 8.09375 22.578125 8.09375 A 1.0001 1.0001 0 0 0 22 9 L 22 24 L 6 24 L 6 9 A 1.0001 1.0001 0 0 0 5.3984375 8.0820312 C 5.3984375 8.0820312 5 7.9390219 5 7.5 C 5 7.2843514 5.0255606 7.2199744 5.2988281 7.0195312 C 5.5720957 6.8190883 6.1140239 6.5923773 6.8515625 6.4296875 C 8.3266397 6.1043078 10.539579 6 13 6 z M 9 14 A 1 1 0 0 0 8 15 A 1 1 0 0 0 9 16 A 1 1 0 0 0 10 15 A 1 1 0 0 0 9 14 z M 19 14 A 1 1 0 0 0 18 15 A 1 1 0 0 0 19 16 A 1 1 0 0 0 20 15 A 1 1 0 0 0 19 14 z M 12 16 C 12 17.105 12.895 18 14 18 C 15.105 18 16 17.105 16 16 L 12 16 z"/></svg>