<?xml version="1.0"?><svg fill="#000000" xmlns="http://www.w3.org/2000/svg"  viewBox="0 0 30 30" width="30px" height="30px">    <path d="M 1.7070312 0.29296875 L 0.29296875 1.7070312 L 28.292969 29.707031 L 29.707031 28.292969 L 26.164062 24.75 L 26.826172 24.449219 C 27.539172 24.126219 28 23.411906 28 22.628906 L 28 16.882812 C 28 16.044812 27.470594 15.289906 26.683594 15.003906 L 21.890625 13.259766 C 21.957625 13.058766 22 12.847906 22 12.628906 L 22 6.8828125 C 22 6.0448125 21.470594 5.2899063 20.683594 5.0039062 L 15.683594 3.1835938 C 15.243594 3.0255938 14.758406 3.0255469 14.316406 3.1855469 L 9.3164062 5.0039062 C 8.611422 5.2597762 8.1380526 5.8967149 8.0410156 6.6269531 L 1.7070312 0.29296875 z M 15 5.0625 L 19.449219 6.6816406 L 15 8.2988281 L 10.550781 6.6816406 L 15 5.0625 z M 10.037109 8.6230469 L 14 10.0625 L 14 12.585938 L 10.037109 8.6230469 z M 8 12.191406 L 8 12.628906 C 8 12.847906 8.0443281 13.058766 8.1113281 13.259766 L 3.3164062 15.003906 C 2.5294062 15.289906 2 16.044813 2 16.882812 L 2 22.628906 C 2 23.411906 2.4608281 24.127219 3.1738281 24.449219 L 8.171875 26.720703 C 8.435875 26.841703 8.7189531 26.900391 9.0019531 26.900391 C 9.2839531 26.900391 9.565125 26.840703 9.828125 26.720703 L 14.828125 24.449219 C 14.892125 24.420219 14.941953 24.373891 15.001953 24.337891 C 15.060953 24.372891 15.110828 24.420219 15.173828 24.449219 L 20.171875 26.720703 C 20.435875 26.841703 20.718953 26.900391 21.001953 26.900391 C 21.283953 26.900391 21.565125 26.840703 21.828125 26.720703 L 22.3125 26.501953 L 20 24.191406 L 20 24.447266 L 16 22.628906 L 16 20.191406 L 12.746094 16.9375 L 9 18.298828 L 4.5507812 16.681641 L 9 15.0625 L 11.943359 16.132812 L 8 12.191406 z M 21 15.0625 L 25.449219 16.681641 L 21 18.298828 L 18.978516 17.564453 L 17.683594 16.269531 L 21 15.0625 z M 4 18.609375 L 8 20.0625 L 8 24.447266 L 4 22.628906 L 4 18.609375 z"/></svg>