<?xml version="1.0" encoding="UTF-8" standalone="no"?>
<!DOCTYPE svg PUBLIC "-//W3C//DTD SVG 1.1//EN" "http://www.w3.org/Graphics/SVG/1.1/DTD/svg11.dtd">
<svg width="100%" height="100%" viewBox="0 0 40 40" version="1.1" xmlns="http://www.w3.org/2000/svg" xmlns:xlink="http://www.w3.org/1999/xlink" xml:space="preserve" xmlns:serif="http://www.serif.com/" style="fill-rule:evenodd;clip-rule:evenodd;stroke-linecap:round;stroke-linejoin:round;">
    <g transform="matrix(0.0764584,0,0,0.0764584,20,20)">
        <g id="walk.svg" transform="matrix(1,0,0,1,-256,-256)">
            <path d="M312.55,479.9L256.13,365.9L211.51,308.9C204.909,297.726 201.434,284.979 201.45,272L201.45,143.64L217,143.64C238.943,143.64 257,161.697 257,183.64L257,365.85" style="fill-rule:nonzero;stroke:black;stroke-width:32px;"/>
            <path d="M127.38,291.78L127.38,217.71C127.38,217.71 164.38,143.64 201.45,143.64" style="fill:none;fill-rule:nonzero;stroke:black;stroke-width:32px;"/>
            <path d="M368.09,291.78C364.438,291.779 360.867,290.697 357.83,288.67L297.7,250C291.662,246.106 288.003,239.395 288,232.21L288,208.51C288,208.507 288,208.505 288,208.502C288,205.403 290.55,202.852 293.65,202.852C294.727,202.852 295.782,203.16 296.69,203.74L378.34,257.85C383.488,261.281 386.588,267.073 386.588,273.26C386.588,283.42 378.227,291.78 368.068,291.78C368.062,291.78 368.056,291.78 368.05,291.78L368.09,291.78ZM171.91,493.47C166.079,493.477 160.575,490.727 157.08,486.06C150.94,477.88 153.08,468.88 160.78,460.14L220.73,385.48C222.012,384.52 223.57,384.001 225.172,384.001C227.747,384.001 230.144,385.344 231.49,387.54C233.05,390.08 234.87,393.19 236.68,396.63C241.92,406.58 242.68,412.74 235,422.33C227,432.33 183,489.77 183,489.77C180.38,492.75 175.77,493.47 171.91,493.47Z" style="fill-rule:nonzero;"/>
            <circle cx="257" cy="69.56" r="37.04" style="stroke:black;stroke-width:16px;"/>
        </g>
        <g id="walk.svg1" serif:id="walk.svg">
        </g>
    </g>
</svg>
