<?xml version="1.0" encoding="UTF-8" standalone="no"?>
<!DOCTYPE svg PUBLIC "-//W3C//DTD SVG 1.1//EN" "http://www.w3.org/Graphics/SVG/1.1/DTD/svg11.dtd">
<svg width="100%" height="100%" viewBox="0 0 40 40" version="1.1" xmlns="http://www.w3.org/2000/svg" xmlns:xlink="http://www.w3.org/1999/xlink" xml:space="preserve" xmlns:serif="http://www.serif.com/" style="fill-rule:evenodd;clip-rule:evenodd;stroke-linejoin:round;stroke-miterlimit:2;">
    <g transform="matrix(0.0726563,0,0,0.0726563,20,20)">
        <g id="id-card.svg" transform="matrix(1,0,0,1,-256,-256)">
            <path d="M368,16L144,16C108.905,16.038 80.038,44.905 80,80L80,432C80.038,467.095 108.905,495.962 144,496L368,496C403.095,495.962 431.962,467.095 432,432L432,80C431.962,44.905 403.095,16.038 368,16ZM333.48,284.51C341.05,292.68 344.75,303.67 343.87,315.45C342.14,338.91 324.25,358 304,358C283.75,358 265.83,338.91 264.12,315.45C263.26,303.55 266.93,292.54 274.46,284.45C281.99,276.36 292.4,272 304,272C315.143,271.84 325.853,276.384 333.48,284.51ZM192,80C192,71.223 199.223,64 208,64L304,64C312.777,64 320,71.223 320,80C320,88.777 312.777,96 304,96L208,96C199.223,96 192,88.777 192,80ZM381,443.83C378.668,446.528 375.256,448.057 371.69,448L236.31,448C232.744,448.057 229.332,446.528 227,443.83C224.471,440.8 223.454,436.778 224.24,432.91C227.49,415.35 237.62,400.6 253.54,390.25C267.68,381.06 285.6,376 304,376C322.4,376 340.32,381.06 354.46,390.25C370.38,400.6 380.51,415.35 383.76,432.91C384.546,436.778 383.529,440.8 381,443.83Z" style="fill-rule:nonzero;"/>
        </g>
        <g id="id-card.svg1" serif:id="id-card.svg">
        </g>
    </g>
</svg>
