<?xml version="1.0"?><svg fill="#000000" xmlns="http://www.w3.org/2000/svg"  viewBox="0 0 30 30" width="30px" height="30px">    <path d="M 1.7070312 0.29296875 L 0.29296875 1.7070312 L 28.292969 29.707031 L 29.707031 28.292969 L 21.791016 20.376953 L 27 18.373047 C 27 9.8830469 20.116953 3 11.626953 3 L 9.6230469 8.2089844 L 1.7070312 0.29296875 z M 19 12 C 20.657 12 22 13.343 22 15 C 22 16.528068 20.854213 17.775899 19.376953 17.962891 L 16.037109 14.623047 C 16.224101 13.145787 17.471932 12 19 12 z M 8.0703125 12.248047 L 3.0917969 25.191406 C 2.6787969 26.266406 3.7335938 27.321203 4.8085938 26.908203 L 17.751953 21.929688 L 8.0703125 12.248047 z M 9 18 C 10.105 18 11 18.895 11 20 C 11 21.105 10.105 22 9 22 C 7.895 22 7 21.105 7 20 C 7 18.895 7.895 18 9 18 z"/></svg>