<?xml version="1.0" encoding="UTF-8" standalone="no"?>
<!DOCTYPE svg PUBLIC "-//W3C//DTD SVG 1.1//EN" "http://www.w3.org/Graphics/SVG/1.1/DTD/svg11.dtd">
<svg width="100%" height="100%" viewBox="0 0 40 40" version="1.1" xmlns="http://www.w3.org/2000/svg" xmlns:xlink="http://www.w3.org/1999/xlink" xml:space="preserve" xmlns:serif="http://www.serif.com/" style="fill-rule:evenodd;clip-rule:evenodd;stroke-linejoin:round;stroke-miterlimit:2;">
    <g transform="matrix(0.0726563,0,0,0.0726563,20,20)">
        <g id="eyedrop.svg" transform="matrix(1,0,0,1,-256,-256)">
            <path d="M461.05,51C448.92,38.89 432.48,32.056 415.34,32L414.58,32C397.8,32.126 381.774,39.081 370.22,51.25C369.837,51.643 369.48,52.061 369.15,52.5L315.15,122.26C309.53,129.36 302.41,130.94 298.37,126.9L296.47,125C287.467,115.997 275.243,110.933 262.51,110.933C236.163,110.933 214.483,132.613 214.483,158.96C214.483,171.693 219.547,183.917 228.55,192.92L238.46,202.83C238.835,203.205 239.047,203.714 239.047,204.245C239.047,204.776 238.835,205.285 238.46,205.66L58.7,385.38C54,390.05 46.9,399.85 38.85,431C34.79,446.71 32.34,460.66 32.24,461.24C32.08,462.151 32,463.075 32,464C32,472.777 39.223,480 48,480C48.885,480.001 49.768,479.928 50.64,479.78C51.22,479.68 65.08,477.35 80.77,473.34C111.84,465.4 121.82,458.1 126.62,453.34L306.39,273.55C307.165,272.78 308.435,272.78 309.21,273.55L319.13,283.47C328.134,292.472 340.358,297.535 353.09,297.535C379.439,297.535 401.12,275.854 401.12,249.505C401.12,236.77 396.055,224.544 387.05,215.54L385.46,214C380.46,209 382.94,201.89 389.78,196.86L459.53,142.92C460.044,142.508 460.535,142.067 461,141.6C473.103,129.757 479.954,113.533 480,96.6C480.051,79.481 473.219,63.04 461.05,51ZM250.78,283.9C247.86,286.82 234.6,291.82 227.39,284.61C220.18,277.4 225.15,264.19 228.08,261.26L261.08,228.26C261.455,227.885 261.964,227.673 262.495,227.673C263.026,227.673 263.535,227.885 263.91,228.26L283.75,248.09C284.125,248.465 284.337,248.974 284.337,249.505C284.337,250.036 284.125,250.545 283.75,250.92L250.78,283.9Z" style="fill-rule:nonzero;"/>
        </g>
        <g id="eyedrop.svg1" serif:id="eyedrop.svg">
        </g>
    </g>
</svg>
