<svg fill="#000000" xmlns="http://www.w3.org/2000/svg"  viewBox="0 0 30 30" width="30px" height="30px"><path d="M 10 3 C 9.4581464 3 8.8324179 3.4647004 8.7402344 4.0859375 L 7 15.802734 L 7 20.1875 C 6.6851085 20.07394 6.3518425 20 6 20 C 4.3550302 20 3 21.35503 3 23 L 3 24 C 3 25.64497 4.3550302 27 6 27 C 7.6449698 27 9 25.64497 9 24 L 9 23 L 9 19.8125 C 9.3148939 19.926058 9.648149 20 10 20 C 10.351851 20 10.685106 19.926058 11 19.8125 L 11 24 C 11 25.64501 12.35499 27 14 27 C 15.64501 27 17 25.64501 17 24 C 17 22.35499 15.64501 21 14 21 C 13.648149 21 13.314894 21.073942 13 21.1875 L 13 15.802734 L 11.259766 4.0859375 C 11.167582 3.4647004 10.541854 3 10 3 z M 17 3 C 16.448 3 16 3.447 16 4 C 16 4.553 16.448 5 17 5 L 22.501953 5 C 22.777953 5 23.001953 5.224 23.001953 5.5 C 23.001953 5.776 22.777953 6 22.501953 6 L 17 6 C 16.448 6 16 6.447 16 7 C 16 7.553 16.448 8 17 8 L 22.501953 8 C 22.777953 8 23.001953 8.224 23.001953 8.5 C 23.001953 8.776 22.777953 9 22.501953 9 L 17 9 C 16.448 9 16 9.447 16 10 C 16 10.553 16.448 11 17 11 L 22.501953 11 C 22.777953 11 23.001953 11.224 23.001953 11.5 C 23.001953 11.776 22.777953 12 22.501953 12 L 17 12 C 16.448 12 16 12.447 16 13 C 16 13.553 16.448 14 17 14 L 22.501953 14 C 22.777953 14 23.001953 14.224 23.001953 14.5 C 23.001953 14.776 22.777953 15 22.501953 15 L 17 15 C 16.448 15 16 15.447 16 16 C 16 16.553 16.448 17 17 17 L 20 17 C 20.552 17 21 17.448 21 18 L 21 25 C 21 26.105 21.895 27 23 27 C 24.105 27 25 26.105 25 25 L 25 6 C 25 4.343 23.657 3 22 3 L 17 3 z M 10 16 C 10.564129 16 11 16.435871 11 17 C 11 17.564129 10.564129 18 10 18 C 9.4358706 18 9 17.564129 9 17 C 9 16.435871 9.4358706 16 10 16 z M 6 22 C 6.5650302 22 7 22.43497 7 23 L 7 24 C 7 24.56503 6.5650302 25 6 25 C 5.4349698 25 5 24.56503 5 24 L 5 23 C 5 22.43497 5.4349698 22 6 22 z M 14 23 C 14.564129 23 15 23.435871 15 24 C 15 24.564129 14.564129 25 14 25 C 13.435871 25 13 24.564129 13 24 C 13 23.435871 13.435871 23 14 23 z"/></svg>