<?xml version="1.0" encoding="UTF-8" standalone="no"?>
<!DOCTYPE svg PUBLIC "-//W3C//DTD SVG 1.1//EN" "http://www.w3.org/Graphics/SVG/1.1/DTD/svg11.dtd">
<svg width="100%" height="100%" viewBox="0 0 40 40" version="1.1" xmlns="http://www.w3.org/2000/svg" xmlns:xlink="http://www.w3.org/1999/xlink" xml:space="preserve" xmlns:serif="http://www.serif.com/" style="fill-rule:evenodd;clip-rule:evenodd;stroke-linejoin:round;stroke-miterlimit:2;">
    <g transform="matrix(0.0726563,0,0,0.0726563,20,20)">
        <g id="headset.svg" transform="matrix(1,0,0,1,-256,-256)">
            <path d="M411.16,97.46C368.43,55.86 311.88,32 256,32C200.12,32 143.57,55.86 100.84,97.46C56.45,140.67 32,197 32,256C32,282.67 40.75,317.09 64.88,381.55C89.01,446.01 137,473 157.27,477.41C163.08,478.68 169.89,480 176,480C186.528,480.009 196.875,477.25 206,472L220,464C235.07,455.18 239.47,435.87 230.8,420.65L143.88,268.08C138.251,258.158 127.689,252.007 116.282,252.007C110.671,252.007 105.159,253.495 100.31,256.32L86.62,264.32C81.358,267.402 76.63,271.316 72.62,275.91C71.86,276.801 70.747,277.315 69.576,277.315C67.605,277.315 65.913,275.859 65.62,273.91C64.612,267.992 64.07,262.003 64,256C64,205.69 85,157.52 123.16,120.39C160,84.55 208.39,64 256,64C303.61,64 352,84.55 388.84,120.39C427,157.52 448,205.69 448,256C447.91,262.005 447.348,267.993 446.32,273.91C446.027,275.859 444.335,277.315 442.364,277.315C441.193,277.315 440.08,276.801 439.32,275.91C435.31,271.316 430.582,267.402 425.32,264.32L411.63,256.32C406.781,253.495 401.269,252.007 395.658,252.007C384.251,252.007 373.689,258.158 368.06,268.08L281.2,420.65C272.53,435.87 276.93,455.18 292,464L306,472C315.125,477.25 325.472,480.009 336,480C342.11,480 348.92,478.68 354.73,477.41C375,473 423,446 447.12,381.55C471.24,317.1 480,282.67 480,256C480,197 455.55,140.67 411.16,97.46Z" style="fill-rule:nonzero;"/>
        </g>
        <g id="headset.svg1" serif:id="headset.svg">
        </g>
    </g>
</svg>
