<svg fill="#000000" xmlns="http://www.w3.org/2000/svg"  viewBox="0 0 30 30" width="30px" height="30px"><path d="M 10.5 3 A 2.5 2.5 0 0 0 10.5 8 A 2.5 2.5 0 0 0 10.5 3 z M 10.498047 9 C 9.6100009 9 8.835818 9.4656376 8.3925781 10.164062 L 5.4609375 13.792969 C 5.3879375 13.883969 5.3309688 13.98475 5.2929688 14.09375 L 4.0546875 17.673828 C 3.8736875 18.195828 4.1528281 18.764312 4.6738281 18.945312 C 4.7818281 18.982312 4.892 19 5 19 C 5.415 19 5.8023125 18.739172 5.9453125 18.326172 L 7.125 14.912109 L 8 13.830078 L 8 16.5 C 8 17.269042 8.3558072 17.947535 8.9023438 18.40625 L 8.9140625 18.433594 L 11.806641 21.5 L 12.919922 25.699219 L 13.019531 26.195312 A 1 1 0 0 0 14 27 A 1 1 0 0 0 14.980469 25.804688 L 14.974609 25.773438 A 1 1 0 0 0 14.972656 25.769531 L 13.980469 20.804688 A 1.0001 1.0001 0 0 0 13.921875 20.613281 L 13 17.267578 L 13 13.847656 C 14.088294 14.436486 15.364528 15 15.560547 15 L 17.152344 15 L 18.822266 25.015625 A 1.0001 1.0001 0 0 0 19 27 L 19.839844 27 A 1.0001 1.0001 0 0 0 20.167969 27 L 24 27 A 1.0001 1.0001 0 1 0 24.013672 25 A 1.0001 1.0001 0 0 0 23 24 L 20.679688 24 L 20.349609 22.013672 A 1.0001 1.0001 0 0 0 21.320312 20.835938 L 20.654297 16.835938 A 1.0001 1.0001 0 0 0 19.353516 16.037109 L 19.177734 14.984375 A 1 1 0 0 0 19 13 L 15.419922 12.787109 L 12.830078 10.611328 C 12.4712 9.671089 11.566386 9 10.498047 9 z M 8 19.380859 L 8 26 A 1 1 0 0 0 9 27 A 1 1 0 0 0 10 26 L 10.158203 21.537109 L 8 19.380859 z"/></svg>