<?xml version="1.0" encoding="UTF-8" standalone="no"?>
<!DOCTYPE svg PUBLIC "-//W3C//DTD SVG 1.1//EN" "http://www.w3.org/Graphics/SVG/1.1/DTD/svg11.dtd">
<svg width="100%" height="100%" viewBox="0 0 40 40" version="1.1" xmlns="http://www.w3.org/2000/svg" xmlns:xlink="http://www.w3.org/1999/xlink" xml:space="preserve" xmlns:serif="http://www.serif.com/" style="fill-rule:evenodd;clip-rule:evenodd;stroke-linejoin:round;stroke-miterlimit:2;">
    <g transform="matrix(0.0725591,0,0,0.0725591,20,20)">
        <g id="partly-sunny.svg" transform="matrix(1,0,0,1,-256,-256)">
            <path d="M340,480L106,480C76.5,480 51.08,472.17 32.47,457.36C11.23,440.44 0,415.35 0,384.8C0,358.14 10.08,335 29.14,317.89C44.38,304.21 65.31,294.68 88.14,291.05C88.2,291.05 88.22,291.05 88.23,291C94.67,252 112.06,218.91 138.54,195.32C164.294,172.479 197.577,159.901 232,160C262.23,160 290.48,169.39 313.71,187.17C331.862,201.24 346.339,219.498 355.9,240.38C357.997,244.976 362.151,248.317 367.09,249.38C393.09,254.99 415.49,266.67 432.26,283.38C453,304.11 464,331.71 464,363.2C464,396.05 450.87,426.07 427,447.72C404.11,468.54 373.2,480 340,480ZM387.89,221.68C399.99,225.268 411.65,230.203 422.65,236.39C423.248,236.726 423.923,236.903 424.61,236.903C426.41,236.903 427.999,235.687 428.47,233.95C430.881,225.264 432.069,216.284 432,207.27C431.61,154.84 388.52,112.05 336.09,112C316.381,111.95 297.131,118.006 281,129.33L280.94,129.33C280.047,129.963 279.515,130.993 279.515,132.088C279.515,133.582 280.506,134.908 281.94,135.33C300.471,141.001 317.838,149.942 333.22,161.73C351.699,176.012 367.113,193.872 378.54,214.24C380.578,217.833 383.931,220.501 387.89,221.68ZM496,224L464,224C455.223,224 448,216.777 448,208C448,199.223 455.223,192 464,192L496,192C504.777,192 512,199.223 512,208C512,216.777 504.777,224 496,224ZM336,96C327.223,96 320,88.777 320,80L320,48C320,39.223 327.223,32 336,32C344.777,32 352,39.223 352,48L352,80C352,88.777 344.777,96 336,96ZM245.49,133.49C241.247,133.497 237.173,131.807 234.18,128.8L211.55,106.18C208.55,103.18 206.863,99.107 206.863,94.865C206.863,86.087 214.087,78.863 222.865,78.863C227.107,78.863 231.18,80.55 234.18,83.55L256.8,106.18C259.797,109.179 261.483,113.25 261.483,117.49C261.483,126.265 254.265,133.486 245.49,133.49ZM426.51,133.49C417.735,133.486 410.517,126.265 410.517,117.49C410.517,113.25 412.203,109.179 415.2,106.18L437.82,83.55C440.82,80.55 444.893,78.863 449.135,78.863C457.913,78.863 465.137,86.087 465.137,94.865C465.137,99.107 463.45,103.18 460.45,106.18L437.82,128.8C434.827,131.807 430.753,133.497 426.51,133.49Z" style="fill-rule:nonzero;"/>
        </g>
        <g id="partly-sunny.svg1" serif:id="partly-sunny.svg">
        </g>
    </g>
</svg>
