<?xml version="1.0" encoding="UTF-8" standalone="no"?>
<!DOCTYPE svg PUBLIC "-//W3C//DTD SVG 1.1//EN" "http://www.w3.org/Graphics/SVG/1.1/DTD/svg11.dtd">
<svg width="100%" height="100%" viewBox="0 0 40 40" version="1.1" xmlns="http://www.w3.org/2000/svg" xmlns:xlink="http://www.w3.org/1999/xlink" xml:space="preserve" xmlns:serif="http://www.serif.com/" style="fill-rule:evenodd;clip-rule:evenodd;stroke-linejoin:round;stroke-miterlimit:2;">
    <g transform="matrix(0.0726563,0,0,0.0726563,20,20)">
        <g id="fitness.svg" transform="matrix(1,0,0,1,-256,-256)">
            <path d="M193.69,152.84C196.395,147.426 201.95,143.991 208.003,143.991C215.051,143.991 221.308,148.648 223.33,155.4L259.73,276.76L289.73,216.84C292.436,211.429 297.99,207.997 304.04,207.997C310.09,207.997 315.644,211.429 318.35,216.84L345.89,272L442.65,272C457.056,242.301 464.365,209.657 464,176.65C463.37,114.54 413.54,64 352.92,64C304.83,64 272.92,93.54 256,115C239.12,93.51 207.17,64 159.08,64C98.46,64 48.63,114.54 48,176.65C47.741,198.098 50.753,219.46 56.93,240L150.11,240L193.69,152.84Z" style="fill-rule:nonzero;"/>
            <path d="M321.69,295.16L304,259.78L270.31,327.16C267.603,332.57 262.05,336.001 256,336C255.553,336 255.093,335.98 254.62,335.94C248.08,335.397 242.509,330.884 240.62,324.6L204.22,203.24L174.22,263.16C171.527,268.541 166.017,271.967 160,272L69.35,272C78.683,291.527 91.107,310.747 106.62,329.66C125.39,352.54 159.42,389.12 238.01,442.47C248.835,449.889 263.185,449.889 274.01,442.47C352.6,389.12 386.63,352.54 405.4,329.66C412.161,321.431 418.502,312.867 424.4,304L336,304C329.95,304.001 324.397,300.57 321.69,295.16ZM464,272L442.65,272C437.331,283.085 431.232,293.778 424.4,304L464,304C472.777,304 480,296.777 480,288C480,279.223 472.777,272 464,272ZM48,240C39.223,240 32,247.223 32,256C32,264.777 39.223,272 48,272L69.35,272C64.402,261.665 60.25,250.967 56.93,240L48,240Z" style="fill-rule:nonzero;"/>
        </g>
        <g id="fitness.svg1" serif:id="fitness.svg">
        </g>
    </g>
</svg>
