<?xml version="1.0" encoding="UTF-8" standalone="no"?>
<!DOCTYPE svg PUBLIC "-//W3C//DTD SVG 1.1//EN" "http://www.w3.org/Graphics/SVG/1.1/DTD/svg11.dtd">
<svg width="100%" height="100%" viewBox="0 0 40 40" version="1.1" xmlns="http://www.w3.org/2000/svg" xmlns:xlink="http://www.w3.org/1999/xlink" xml:space="preserve" xmlns:serif="http://www.serif.com/" style="fill-rule:evenodd;clip-rule:evenodd;stroke-linejoin:round;stroke-miterlimit:2;">
    <g transform="matrix(0.0726563,0,0,0.0726563,20,20)">
        <g id="business.svg" transform="matrix(1,0,0,1,-256,-256)">
            <path d="M432,176L320,176L320,64C320,37.668 298.332,16 272,16L80,16C53.668,16 32,37.668 32,64L32,480C32,488.777 39.223,496 48,496L152,496C156.389,496 160,492.389 160,488L160,416.45C160,407.84 166.62,400.45 175.23,400.02C175.486,400.008 175.743,400.001 176,400.001C184.777,400.001 191.999,407.223 192,416L192,488C192,492.389 195.611,496 200,496L464,496C472.777,496 480,488.777 480,480L480,224C480,197.668 458.332,176 432,176ZM98.08,431.87C97.392,431.96 96.699,432.005 96.005,432.005C87.228,432.005 80.005,424.782 80.005,416.005C80.005,407.228 87.228,400.005 96.005,400.005C104.782,400.005 112.005,407.228 112.005,416.005C112.005,416.699 111.96,417.392 111.87,418.08C110.933,425.248 105.248,430.933 98.08,431.87ZM98.08,351.87C97.392,351.96 96.699,352.005 96.005,352.005C87.228,352.005 80.005,344.782 80.005,336.005C80.005,327.228 87.228,320.005 96.005,320.005C104.782,320.005 112.005,327.228 112.005,336.005C112.005,336.699 111.96,337.392 111.87,338.08C110.933,345.248 105.248,350.933 98.08,351.87ZM98.08,271.87C97.392,271.96 96.699,272.005 96.005,272.005C87.228,272.005 80.005,264.782 80.005,256.005C80.005,247.228 87.228,240.005 96.005,240.005C104.782,240.005 112.005,247.228 112.005,256.005C112.005,256.699 111.96,257.392 111.87,258.08C110.933,265.248 105.248,270.933 98.08,271.87ZM98.08,191.87C97.392,191.96 96.699,192.005 96.005,192.005C87.228,192.005 80.005,184.782 80.005,176.005C80.005,167.228 87.228,160.005 96.005,160.005C104.782,160.005 112.005,167.228 112.005,176.005C112.005,176.699 111.96,177.392 111.87,178.08C110.933,185.248 105.248,190.933 98.08,191.87ZM98.08,111.87C97.392,111.96 96.699,112.005 96.005,112.005C87.228,112.005 80.005,104.782 80.005,96.005C80.005,87.228 87.228,80.005 96.005,80.005C104.782,80.005 112.005,87.228 112.005,96.005C112.005,96.699 111.96,97.392 111.87,98.08C110.933,105.248 105.248,110.933 98.08,111.87ZM178.08,351.87C177.392,351.96 176.699,352.005 176.005,352.005C167.228,352.005 160.005,344.782 160.005,336.005C160.005,327.228 167.228,320.005 176.005,320.005C184.782,320.005 192.005,327.228 192.005,336.005C192.005,336.699 191.96,337.392 191.87,338.08C190.933,345.248 185.248,350.933 178.08,351.87ZM178.08,271.87C177.392,271.96 176.699,272.005 176.005,272.005C167.228,272.005 160.005,264.782 160.005,256.005C160.005,247.228 167.228,240.005 176.005,240.005C184.782,240.005 192.005,247.228 192.005,256.005C192.005,256.699 191.96,257.392 191.87,258.08C190.933,265.248 185.248,270.933 178.08,271.87ZM178.08,191.87C177.392,191.96 176.699,192.005 176.005,192.005C167.228,192.005 160.005,184.782 160.005,176.005C160.005,167.228 167.228,160.005 176.005,160.005C184.782,160.005 192.005,167.228 192.005,176.005C192.005,176.699 191.96,177.392 191.87,178.08C190.933,185.248 185.248,190.933 178.08,191.87ZM178.08,111.87C177.392,111.96 176.699,112.005 176.005,112.005C167.228,112.005 160.005,104.782 160.005,96.005C160.005,87.228 167.228,80.005 176.005,80.005C184.782,80.005 192.005,87.228 192.005,96.005C192.005,96.699 191.96,97.392 191.87,98.08C190.933,105.248 185.248,110.933 178.08,111.87ZM258.08,431.87C257.392,431.96 256.699,432.005 256.005,432.005C247.228,432.005 240.005,424.782 240.005,416.005C240.005,407.228 247.228,400.005 256.005,400.005C264.782,400.005 272.005,407.228 272.005,416.005C272.005,416.699 271.96,417.392 271.87,418.08C270.933,425.248 265.248,430.933 258.08,431.87ZM258.08,351.87C257.392,351.96 256.699,352.005 256.005,352.005C247.228,352.005 240.005,344.782 240.005,336.005C240.005,327.228 247.228,320.005 256.005,320.005C264.782,320.005 272.005,327.228 272.005,336.005C272.005,336.699 271.96,337.392 271.87,338.08C270.933,345.248 265.248,350.933 258.08,351.87ZM258.08,271.87C257.392,271.96 256.699,272.005 256.005,272.005C247.228,272.005 240.005,264.782 240.005,256.005C240.005,247.228 247.228,240.005 256.005,240.005C264.782,240.005 272.005,247.228 272.005,256.005C272.005,256.699 271.96,257.392 271.87,258.08C270.933,265.248 265.248,270.933 258.08,271.87ZM258.08,191.87C257.392,191.96 256.699,192.005 256.005,192.005C247.228,192.005 240.005,184.782 240.005,176.005C240.005,167.228 247.228,160.005 256.005,160.005C264.782,160.005 272.005,167.228 272.005,176.005C272.005,176.699 271.96,177.392 271.87,178.08C270.933,185.248 265.248,190.933 258.08,191.87ZM258.08,111.87C257.392,111.96 256.699,112.005 256.005,112.005C247.228,112.005 240.005,104.782 240.005,96.005C240.005,87.228 247.228,80.005 256.005,80.005C264.782,80.005 272.005,87.228 272.005,96.005C272.005,96.699 271.96,97.392 271.87,98.08C270.933,105.248 265.248,110.933 258.08,111.87ZM444,464L320,464L320,208L432,208C440.777,208 448,215.223 448,224L448,460C448,462.194 446.194,464 444,464Z" style="fill-rule:nonzero;"/>
            <path d="M400,400C391.223,400 384,407.223 384,416C384,424.777 391.223,432 400,432C408.777,432 416,424.777 416,416C416,407.223 408.777,400 400,400ZM400,320C391.223,320 384,327.223 384,336C384,344.777 391.223,352 400,352C408.777,352 416,344.777 416,336C416,327.223 408.777,320 400,320ZM400,240C391.223,240 384,247.223 384,256C384,264.777 391.223,272 400,272C408.777,272 416,264.777 416,256C416,247.223 408.777,240 400,240ZM336,400C327.223,400 320,407.223 320,416C320,424.777 327.223,432 336,432C344.777,432 352,424.777 352,416C352,407.223 344.777,400 336,400ZM336,320C327.223,320 320,327.223 320,336C320,344.777 327.223,352 336,352C344.777,352 352,344.777 352,336C352,327.223 344.777,320 336,320ZM336,240C327.223,240 320,247.223 320,256C320,264.777 327.223,272 336,272C344.777,272 352,264.777 352,256C352,247.223 344.777,240 336,240Z" style="fill-rule:nonzero;"/>
        </g>
        <g id="business.svg1" serif:id="business.svg">
        </g>
    </g>
</svg>
