<?xml version="1.0" encoding="UTF-8" standalone="no"?>
<!DOCTYPE svg PUBLIC "-//W3C//DTD SVG 1.1//EN" "http://www.w3.org/Graphics/SVG/1.1/DTD/svg11.dtd">
<svg width="100%" height="100%" viewBox="0 0 40 40" version="1.1" xmlns="http://www.w3.org/2000/svg" xmlns:xlink="http://www.w3.org/1999/xlink" xml:space="preserve" xmlns:serif="http://www.serif.com/" style="fill-rule:evenodd;clip-rule:evenodd;stroke-linejoin:round;stroke-miterlimit:2;">
    <g transform="matrix(0.0725591,0,0,0.0725591,20,20)">
        <g id="medical.svg" transform="matrix(1,0,0,1,-256,-256)">
            <path d="M272,464L240,464C222.445,464 208,449.555 208,432L208.05,346.18C208.05,346.178 208.05,346.176 208.05,346.174C208.05,343.98 206.244,342.174 204.05,342.174C203.348,342.174 202.658,342.359 202.05,342.71L127.71,385.77C112.755,394.403 93.346,389.203 84.71,374.25L68.21,345.61L68.15,345.51C59.753,330.572 64.934,311.389 79.71,302.71L154.32,259.46C155.552,258.745 156.313,257.424 156.313,256C156.313,254.576 155.552,253.255 154.32,252.54L79.78,209.33C70.029,203.738 63.995,193.323 63.995,182.082C63.995,176.55 65.456,171.116 68.23,166.33L84.67,137.78C88.864,130.492 95.809,125.181 103.94,123.04C111.979,120.883 120.556,122.036 127.74,126.24L202.05,169.24C202.658,169.591 203.348,169.776 204.05,169.776C206.244,169.776 208.05,167.97 208.05,165.776C208.05,165.774 208.05,165.772 208.05,165.77L208,80C208,62.445 222.445,48 240,48L272,48C289.555,48 304,62.445 304,80L304,165.72C304,165.722 304,165.724 304,165.726C304,167.92 305.806,169.726 308,169.726C308.702,169.726 309.392,169.541 310,169.19L384.34,126.13C399.297,117.514 418.693,122.71 427.34,137.65L443.83,166.29L443.89,166.38C452.387,181.339 447.147,200.634 432.25,209.24L357.72,252.44C356.488,253.155 355.727,254.476 355.727,255.9C355.727,257.324 356.488,258.645 357.72,259.36L432.25,302.56C442.004,308.154 448.039,318.572 448.039,329.816C448.039,335.344 446.58,340.776 443.81,345.56L427.37,374.11C423.176,381.398 416.231,386.709 408.1,388.85C400.061,391.007 391.484,389.854 384.3,385.65L309.99,342.65C309.382,342.299 308.692,342.114 307.99,342.114C305.797,342.114 303.992,343.917 303.99,346.11L304,432C304,449.555 289.555,464 272,464Z" style="fill-rule:nonzero;"/>
        </g>
        <g id="medical.svg1" serif:id="medical.svg">
        </g>
    </g>
</svg>
