<?xml version="1.0"?><svg fill="#000000" xmlns="http://www.w3.org/2000/svg"  viewBox="0 0 30 30" width="30px" height="30px">    <path d="M 15.152344 5.1835938 C 14.797266 5.2500625 14.495188 5.5126094 14.398438 5.8808594 C 13.685438 8.5838594 13 12.090469 13 15.605469 C 13 19.488469 13.615844 22.751813 14.339844 25.257812 C 14.470844 25.710812 14.914812 25.991453 15.382812 25.939453 C 17.090812 25.750453 18.994484 25.069344 20.396484 23.902344 C 19.672484 21.787344 19 18.883703 19 15.345703 C 19 12.060703 19.581609 9.3088125 20.224609 7.2578125 C 18.899609 6.0978125 17.217531 5.5175469 15.519531 5.1855469 C 15.395031 5.1612969 15.270703 5.1614375 15.152344 5.1835938 z M 8.7617188 8.046875 C 8.3267187 7.995875 7.9215 8.2771719 7.8125 8.7011719 C 7.5525 9.7101719 7.104 11.6 7 13 L 6 14 C 6 14 4.814 11.001953 3 11.001953 C 2.507 11.001953 1 12.700922 1 15.544922 C 1 18.335922 2.413 20.001953 3 20.001953 C 4.975 20.001953 6 17 6 17 L 7 18 C 7 19.033 7.5254531 21.198547 7.8144531 22.310547 C 7.9234531 22.729547 8.3268125 23.00575 8.7578125 22.96875 C 9.9578125 22.86675 10.876781 22.540922 11.425781 22.294922 C 11.167781 20.574922 11 17.680469 11 15.605469 C 11 13.606469 11.205812 10.628109 11.507812 8.7871094 C 10.918812 8.5481094 9.8677187 8.177875 8.7617188 8.046875 z M 22.453125 9.0625 C 22.076578 9.0679844 21.728219 9.3244063 21.636719 9.7226562 C 21.269719 11.318656 21 13.214703 21 15.345703 C 21 17.699703 21.325906 19.7485 21.753906 21.4375 C 21.882906 21.9465 22.435922 22.208859 22.919922 22.005859 C 26.676922 20.426859 28.998047 17.325922 28.998047 15.544922 C 28.999047 13.759922 26.258078 10.759531 22.830078 9.1445312 C 22.706828 9.0865313 22.578641 9.0606719 22.453125 9.0625 z M 24 14 C 24.552 14 25 14.448 25 15 C 25 15.552 24.552 16 24 16 C 23.448 16 23 15.552 23 15 C 23 14.448 23.448 14 24 14 z"/></svg>