<?xml version="1.0" encoding="UTF-8" standalone="no"?>
<!DOCTYPE svg PUBLIC "-//W3C//DTD SVG 1.1//EN" "http://www.w3.org/Graphics/SVG/1.1/DTD/svg11.dtd">
<svg width="100%" height="100%" viewBox="0 0 40 40" version="1.1" xmlns="http://www.w3.org/2000/svg" xmlns:xlink="http://www.w3.org/1999/xlink" xml:space="preserve" xmlns:serif="http://www.serif.com/" style="fill-rule:evenodd;clip-rule:evenodd;stroke-linejoin:round;stroke-miterlimit:2;">
    <g transform="matrix(0.0725591,0,0,0.0725591,20,20)">
        <g id="planet.svg" transform="matrix(1,0,0,1,-256,-256)">
            <clipPath id="_clip1">
                <rect x="0" y="0" width="512" height="512"/>
            </clipPath>
            <g clip-path="url(#_clip1)">
                <path d="M96.85,286.62C95.477,285.612 93.818,285.068 92.114,285.068C87.726,285.068 84.114,288.679 84.114,293.068C84.114,293.674 84.183,294.279 84.32,294.87C102.07,373.28 172.3,432 256,432C273.774,432.006 291.447,429.308 308.41,424C311.755,422.969 314.053,419.856 314.053,416.355C314.053,413.159 312.138,410.257 309.2,409C271.717,392.479 235.169,373.915 199.72,353.39C164.243,333.018 129.902,310.728 96.85,286.62ZM492.72,339.51C488.53,333.93 483.61,328.07 478.02,321.98C475.021,318.677 470.761,316.791 466.3,316.791C459.698,316.791 453.758,320.921 451.46,327.11C451.46,327.27 451.35,327.42 451.29,327.58C449.261,333.093 450.479,339.302 454.44,343.64C477.18,368.64 480.86,382.15 479.92,385C477.92,387.23 462.87,391.89 421.77,381.47C415.883,379.977 409.443,378.157 402.45,376.01C397.943,374.623 393.347,373.127 388.66,371.52C396.022,363.076 402.565,353.952 408.2,344.27C408.37,343.98 408.55,343.69 408.72,343.39C423.985,316.798 432.013,286.662 432,256C432.004,249.653 431.67,243.311 431,237C421.43,148.83 346.6,80 256,80C217.565,79.978 180.169,92.593 149.6,115.89C131.069,129.994 115.496,147.61 103.77,167.73C103.61,168.02 103.43,168.31 103.26,168.6C97.687,178.309 93.056,188.529 89.43,199.12C85.703,195.873 82.107,192.65 78.64,189.45C73.25,184.45 68.47,179.82 64.22,175.45C34.65,145.19 31.13,129.84 32.06,127C34.06,124.77 47.6,121.13 80.68,128.31C86.437,129.576 92.442,127.524 96.22,123L96.58,122.56C98.932,119.733 100.221,116.169 100.221,112.492C100.221,105.146 95.079,98.73 87.91,97.13C80.058,95.351 72.122,93.973 64.13,93C33.41,89.47 13.3,95.52 4.35,111C1.11,116.58 -2,126.09 1.63,139.6C7,159.66 26.14,184 53.23,209.5C61.86,217.63 71.29,225.87 81.35,234.14C88.67,240.14 96.35,246.2 104.25,252.22C109.523,256.22 114.907,260.22 120.4,264.22C125.893,268.22 131.46,272.147 137.1,276C162.51,293.61 189.36,310.52 215.69,325.69C225.25,331.197 234.797,336.53 244.33,341.69C253.863,346.85 263.32,351.787 272.7,356.5C294.6,367.5 316.05,377.42 336.56,385.93C345.353,389.583 353.957,392.97 362.37,396.09C374.26,400.51 385.74,404.4 396.68,407.68L397.78,408.01C423.51,415.67 445.2,419.7 462.26,420.01L464,420.01C485.64,420.01 500.3,413.63 507.58,401.01C516.67,385.39 511.66,364.69 492.72,339.51Z" style="fill-rule:nonzero;"/>
            </g>
        </g>
        <g id="planet.svg1" serif:id="planet.svg">
        </g>
    </g>
</svg>
