<?xml version="1.0" encoding="UTF-8" standalone="no"?>
<!DOCTYPE svg PUBLIC "-//W3C//DTD SVG 1.1//EN" "http://www.w3.org/Graphics/SVG/1.1/DTD/svg11.dtd">
<svg width="100%" height="100%" viewBox="0 0 40 40" version="1.1" xmlns="http://www.w3.org/2000/svg" xmlns:xlink="http://www.w3.org/1999/xlink" xml:space="preserve" xmlns:serif="http://www.serif.com/" style="fill-rule:evenodd;clip-rule:evenodd;stroke-linejoin:round;stroke-miterlimit:2;">
    <g transform="matrix(0.0726563,0,0,0.0726563,20,20)">
        <g id="bandage.svg" transform="matrix(1,0,0,1,-256,-256)">
            <path d="M275.8,157C272.8,154 268.727,152.312 264.485,152.312C260.243,152.312 256.17,154 253.17,157L159.83,250.34C156.83,253.34 155.142,257.413 155.142,261.655C155.142,265.897 156.83,269.97 159.83,272.97L239.03,352.17C242.03,355.17 246.103,356.858 250.345,356.858C254.587,356.858 258.66,355.17 261.66,352.17L355,258.83C358,255.83 359.688,251.757 359.688,247.515C359.688,243.273 358,239.2 355,236.2L275.8,157ZM137.21,295.6C133.321,291.715 130.131,287.189 127.78,282.22L69,341C41.062,368.996 41.062,415.004 69,443C97.036,470.847 142.964,470.847 171,443L229.77,384.24C224.801,381.889 220.275,378.699 216.39,374.81L137.21,295.6ZM392,48C372.884,47.903 354.505,55.471 341,69L285.08,124.91C290.041,127.273 294.56,130.469 298.44,134.36L377.63,213.55C381.521,217.43 384.717,221.949 387.08,226.91L443,171C456.552,157.495 464.177,139.131 464.177,120C464.177,80.502 431.675,48 392.177,48C392.118,48 392.059,48 392,48Z" style="fill:none;fill-rule:nonzero;"/>
            <path d="M275.8,157C272.8,154 268.727,152.312 264.485,152.312C260.243,152.312 256.17,154 253.17,157L159.83,250.34C156.83,253.34 155.142,257.413 155.142,261.655C155.142,265.897 156.83,269.97 159.83,272.97L239.03,352.17C242.03,355.17 246.103,356.858 250.345,356.858C254.587,356.858 258.66,355.17 261.66,352.17L355,258.83C358,255.83 359.688,251.757 359.688,247.515C359.688,243.273 358,239.2 355,236.2L275.8,157ZM219.31,267.31C216.31,270.312 212.236,272 207.993,272C199.215,272 191.993,264.777 191.993,256C191.993,247.223 199.215,240 207.993,240C212.236,240 216.31,241.688 219.31,244.69C225.512,250.896 225.512,261.104 219.31,267.31ZM267.31,315.31C264.31,318.312 260.236,320 255.993,320C247.215,320 239.993,312.777 239.993,304C239.993,295.223 247.215,288 255.993,288C260.236,288 264.31,289.688 267.31,292.69C273.512,298.896 273.512,309.104 267.31,315.31ZM267.31,219.31C264.31,222.312 260.236,224 255.993,224C247.215,224 239.993,216.777 239.993,208C239.993,199.223 247.215,192 255.993,192C260.236,192 264.31,193.688 267.31,196.69C273.512,202.896 273.512,213.104 267.31,219.31ZM315.31,267.31C312.31,270.312 308.236,272 303.993,272C295.215,272 287.993,264.777 287.993,256C287.993,247.223 295.215,240 303.993,240C308.236,240 312.31,241.688 315.31,244.69C321.512,250.896 321.512,261.104 315.31,267.31ZM465.61,46.39C425.159,6.138 358.811,6.138 318.36,46.39L248.6,116.28C247.856,117.029 247.438,118.043 247.438,119.099C247.438,121.293 249.243,123.099 251.438,123.099C251.902,123.099 252.363,123.018 252.8,122.86C256.526,121.363 260.478,120.504 264.49,120.32C277.222,120.287 289.451,125.354 298.43,134.38L377.62,213.57C386.646,222.549 391.713,234.778 391.68,247.51C391.497,251.522 390.639,255.474 389.14,259.2C388.982,259.637 388.901,260.098 388.901,260.562C388.901,262.757 390.707,264.562 392.901,264.562C393.957,264.562 394.971,264.144 395.72,263.4L465.61,193.64C505.862,153.189 505.862,86.841 465.61,46.39Z" style="fill-rule:nonzero;"/>
            <path d="M254.34,386.83C241.621,386.855 229.402,381.815 220.4,372.83L141.21,293.6C137.321,289.715 134.131,285.189 131.78,280.22C127.19,270.52 130.39,255.22 134.26,243.32C134.373,242.946 134.43,242.558 134.43,242.167C134.43,239.973 132.624,238.167 130.43,238.167C129.378,238.167 128.368,238.581 127.62,239.32L50.39,316.36C30.871,335.879 19.894,362.381 19.894,389.985C19.894,447.104 66.896,494.106 124.015,494.106C151.619,494.106 178.121,483.129 197.64,463.61L270.39,390.73C271.138,389.98 271.558,388.964 271.558,387.905C271.558,385.711 269.752,383.905 267.558,383.905C267.088,383.905 266.621,383.988 266.18,384.15C262,385.73 257.78,386.83 254.34,386.83Z" style="fill-rule:nonzero;"/>
        </g>
        <g id="bandage.svg1" serif:id="bandage.svg">
        </g>
    </g>
</svg>
