<?xml version="1.0" encoding="UTF-8" standalone="no"?>
<!DOCTYPE svg PUBLIC "-//W3C//DTD SVG 1.1//EN" "http://www.w3.org/Graphics/SVG/1.1/DTD/svg11.dtd">
<svg width="100%" height="100%" viewBox="0 0 40 40" version="1.1" xmlns="http://www.w3.org/2000/svg" xmlns:xlink="http://www.w3.org/1999/xlink" xml:space="preserve" xmlns:serif="http://www.serif.com/" style="fill-rule:evenodd;clip-rule:evenodd;stroke-linejoin:round;stroke-miterlimit:2;">
    <g transform="matrix(0.0726563,0,0,0.0726563,20,20)">
        <g id="bicycle.svg" transform="matrix(1,0,0,1,-256,-256)">
            <path d="M388,448C337.53,448 296,406.47 296,356C296,305.53 337.53,264 388,264C438.47,264 480,305.53 480,356C479.945,406.449 438.449,447.945 388,448ZM388,296C355.085,296 328,323.085 328,356C328,388.915 355.085,416 388,416C420.915,416 448,388.915 448,356C447.962,323.099 420.901,296.038 388,296ZM124,448C73.53,448 32,406.47 32,356C32,305.53 73.53,264 124,264C174.47,264 216,305.53 216,356C215.945,406.449 174.449,447.945 124,448ZM124,296C91.085,296 64,323.085 64,356C64,388.915 91.085,416 124,416C156.915,416 184,388.915 184,356C183.962,323.099 156.901,296.038 124,296ZM320,128C320.037,128 320.074,128 320.111,128C337.605,128 352.001,113.605 352.001,96.11C352.001,96.04 352,95.97 352,95.9C352.001,95.783 352.002,95.666 352.002,95.549C352.002,78.241 337.76,63.999 320.452,63.999C320.368,63.999 320.284,63.999 320.2,64C320.167,64 320.133,64 320.1,64C302.545,64 288.1,78.445 288.1,96C288.1,113.517 302.483,127.945 320,128Z" style="fill-rule:nonzero;"/>
            <path d="M367.55,192L323.79,192C322.33,192 320.981,191.201 320.28,189.92L288.54,131.75C283.223,121.473 272.577,114.994 261.006,114.994C252.824,114.994 244.965,118.234 239.16,124L169.3,194.4C163.433,200.388 160.1,208.417 160,216.8C160,234.2 172.6,240.4 178.5,243.9C207,260.32 227.07,272.33 238.08,279C239.269,279.724 239.998,281.018 240,282.41L240,351.53C240,360.14 246.62,367.53 255.23,367.96C255.486,367.972 255.743,367.979 256,367.979C264.769,367.979 271.988,360.769 272,352L272,266C272.003,260.851 269.52,256.006 265.34,253L228.34,226.39C227.291,225.64 226.668,224.427 226.668,223.137C226.668,222.116 227.059,221.132 227.76,220.39L269.76,175.6C270.516,174.791 271.575,174.331 272.683,174.331C274.134,174.331 275.476,175.121 276.18,176.39L298,215.77C300.82,220.847 306.192,224.005 312,224L368,224C368.006,224 368.012,224 368.019,224C376.796,224 384.019,216.777 384.019,208C384.019,207.743 384.012,207.486 384,207.23C383.58,198.62 376.16,192 367.55,192Z" style="fill-rule:nonzero;"/>
        </g>
        <g id="bicycle.svg1" serif:id="bicycle.svg">
        </g>
    </g>
</svg>
