<?xml version="1.0" encoding="UTF-8" standalone="no"?>
<!DOCTYPE svg PUBLIC "-//W3C//DTD SVG 1.1//EN" "http://www.w3.org/Graphics/SVG/1.1/DTD/svg11.dtd">
<svg width="100%" height="100%" viewBox="0 0 40 40" version="1.1" xmlns="http://www.w3.org/2000/svg" xmlns:xlink="http://www.w3.org/1999/xlink" xml:space="preserve" xmlns:serif="http://www.serif.com/" style="fill-rule:evenodd;clip-rule:evenodd;stroke-linejoin:round;stroke-miterlimit:2;">
    <g transform="matrix(0.0726563,0,0,0.0726563,20,20)">
        <g id="color-palette.svg" transform="matrix(1,0,0,1,-256,-256)">
            <path d="M441,336.2L440.94,336.15C431.01,326.97 418.16,324.81 408.78,323.23L408.09,323.11C399.04,321.62 397.61,320.61 393.51,316.94C391.07,314.77 388.16,311.29 388.16,307C388.16,302.71 391.07,299.23 393.5,297.06L423.78,270.19C449.7,247.28 463.98,216.53 463.98,183.6C463.98,150.67 449.73,119.92 423.78,97C387.89,65.41 338.78,48 285.41,48C223.72,48 162,71.37 116,112.11C72.13,150.88 48,202.82 48,258.35C48,313.88 72.16,365.82 116,404.58C137.75,423.82 163.49,438.76 192.52,449C220.441,458.794 249.801,463.863 279.39,464L281.2,464C342.2,464 400.29,443.43 440.59,407.6C450.29,399.04 455.74,386.77 455.93,373.04C456.14,358.87 450.56,345.09 441,336.2ZM112,208C112,190.445 126.445,176 144,176C161.555,176 176,190.445 176,208C176,225.555 161.555,240 144,240C126.445,240 112,225.555 112,208ZM152,343C134.445,343 120,328.555 120,311C120,293.445 134.445,279 152,279C169.555,279 184,293.445 184,311C184,328.555 169.555,343 152,343ZM192,144C192,126.445 206.445,112 224,112C241.555,112 256,126.445 256,144C256,161.555 241.555,176 224,176C206.445,176 192,161.555 192,144ZM256,415C229.668,415 208,393.332 208,367C208,340.668 229.668,319 256,319C282.332,319 304,340.668 304,367C304,393.332 282.332,415 256,415ZM328,176C310.445,176 296,161.555 296,144C296,126.445 310.445,112 328,112C345.555,112 360,126.445 360,144C360,161.555 345.555,176 328,176Z" style="fill-rule:nonzero;"/>
        </g>
        <g id="color-palette.svg1" serif:id="color-palette.svg">
        </g>
    </g>
</svg>
