<?xml version="1.0" encoding="UTF-8" standalone="no"?>
<!DOCTYPE svg PUBLIC "-//W3C//DTD SVG 1.1//EN" "http://www.w3.org/Graphics/SVG/1.1/DTD/svg11.dtd">
<svg width="100%" height="100%" viewBox="0 0 40 40" version="1.1" xmlns="http://www.w3.org/2000/svg" xmlns:xlink="http://www.w3.org/1999/xlink" xml:space="preserve" xmlns:serif="http://www.serif.com/" style="fill-rule:evenodd;clip-rule:evenodd;stroke-linejoin:round;stroke-miterlimit:2;">
    <g transform="matrix(0.0731124,0,0,0.0731124,20,20)">
        <g id="school.svg" transform="matrix(1,0,0,1,-256,-256)">
            <path d="M256,368C253.215,368 250.478,367.272 248.06,365.89L108,285.84C106.784,285.138 105.404,284.768 104,284.768C99.611,284.768 96,288.38 96,292.768C96,292.772 96,292.776 96,292.78L96,368C95.995,373.808 99.153,379.18 104.23,382L248.23,462C253.057,464.682 258.943,464.682 263.77,462L407.77,382C412.847,379.18 416.005,373.808 416,368L416,292.78C416,292.776 416,292.772 416,292.768C416,288.38 412.389,284.768 408,284.768C406.596,284.768 405.216,285.138 404,285.84L263.94,365.89C261.522,367.272 258.785,368 256,368Z" style="fill-rule:nonzero;"/>
            <path d="M495.92,190.5L495.92,190.39C495.396,185.248 492.411,180.667 487.92,178.11L263.92,50.11C259.006,47.301 252.954,47.301 248.04,50.11L24.04,178.11C19.063,180.956 15.982,186.267 15.982,192C15.982,197.733 19.063,203.044 24.04,205.89L248.04,333.89C252.954,336.699 259.006,336.699 263.92,333.89L461,221.28C461.304,221.104 461.649,221.012 462,221.012C463.097,221.012 464,221.915 464,223.012C464,223.015 464,223.017 464,223.02L464,367.55C464,376.16 470.62,383.55 479.23,383.98C479.486,383.992 479.743,383.999 480,383.999C488.777,383.999 495.999,376.777 496,368L496,192C495.999,191.499 495.972,190.998 495.92,190.5Z" style="fill-rule:nonzero;"/>
        </g>
        <g id="school.svg1" serif:id="school.svg">
        </g>
    </g>
</svg>
