<?xml version="1.0" encoding="UTF-8" standalone="no"?>
<!DOCTYPE svg PUBLIC "-//W3C//DTD SVG 1.1//EN" "http://www.w3.org/Graphics/SVG/1.1/DTD/svg11.dtd">
<svg width="100%" height="100%" viewBox="0 0 40 40" version="1.1" xmlns="http://www.w3.org/2000/svg" xmlns:xlink="http://www.w3.org/1999/xlink" xml:space="preserve" xmlns:serif="http://www.serif.com/" style="fill-rule:evenodd;clip-rule:evenodd;stroke-linejoin:round;stroke-miterlimit:2;">
    <g transform="matrix(0.0726563,0,0,0.0726563,20,20)">
        <g id="bug.svg" transform="matrix(1,0,0,1,-256,-256)">
            <path d="M463.55,272.13L400,272.13L400,223.93C400,221.05 399.91,218.227 399.73,215.46C429.3,187.58 431.98,150.83 432,112.46C432,103.85 425.36,96.46 416.75,96.05C416.5,96.038 416.25,96.032 416,96.032C407.235,96.032 400.018,103.235 400,112C400,140 398.14,160.15 390.1,175.84C370.88,134.69 324.32,111.93 256,111.93C216.2,111.93 181.81,121.06 156.57,138.32C141.67,148.51 130.37,161.23 122.87,176.04C114,160.65 112,141 112,112.46C112,103.85 105.4,96.46 96.8,96.02C96.534,96.007 96.267,96 96,96C87.223,96 80,103.223 80,112C80,112 80,112 80,112C80,149.63 82.61,185.73 112.44,213.63C112.153,217.003 112.007,220.437 112,223.93L112,272.13L48.45,272.13C39.84,272.13 32.45,278.75 32.02,287.36C32.008,287.616 32.001,287.873 32.001,288.13C32.001,296.907 39.224,304.13 48.001,304.13C48.008,304.13 48.014,304.13 48.02,304.13L112.02,304.13L112.02,320C112.005,338.397 115.533,356.626 122.41,373.69C96.74,396.64 80.18,422 80,463.34C80,472.08 86.62,479.64 95.36,479.99C95.573,479.999 95.787,480.003 96,480.003C104.777,480.003 112,472.78 112,464.003C112,464.002 112,464.001 112,464C112,436.34 121.1,419.29 138.17,402.68C157.85,430.692 186.866,450.812 220,459.42C221.307,459.757 222.651,459.928 224,459.928C232.777,459.928 239.999,452.707 240,443.93L240,192.45C240,183.84 246.62,176.45 255.23,176.02C255.486,176.008 255.743,176.001 256,176.001C264.777,176.001 271.999,183.223 272,192L272,443.93C272.001,452.707 279.223,459.928 288,459.928C289.349,459.928 290.693,459.757 292,459.42C325.13,450.807 354.141,430.689 373.82,402.68C390.82,419.22 399.91,436.2 399.99,463.63C399.915,472.168 406.574,479.386 415.09,480C415.393,480.017 415.696,480.026 416,480.026C424.777,480.026 432,472.803 432,464.026C432,464.017 432,464.009 432,464C432,422.32 415.4,396.77 389.61,373.69C396.487,356.626 400.015,338.397 400,320L400,304.13L464,304.13C464.006,304.13 464.012,304.13 464.019,304.13C472.796,304.13 480.019,296.907 480.019,288.13C480.019,287.873 480.012,287.616 480,287.36C479.58,278.75 472.16,272.13 463.55,272.13Z" style="fill-rule:nonzero;"/>
            <path d="M321.39,104L321.71,104.09C335.28,107.89 346.78,93.54 339.91,81.24C323.025,50.904 290.929,32.022 256.21,32L255.79,32C220.71,32.024 188.337,51.3 171.6,82.13C164.76,94.71 176.74,109.13 190.44,104.99C210.15,98.99 232.23,95.93 256,95.93C280.09,95.93 302.09,98.65 321.39,104Z" style="fill-rule:nonzero;"/>
        </g>
        <g id="bug.svg1" serif:id="bug.svg">
        </g>
    </g>
</svg>
