<?xml version="1.0" encoding="UTF-8" standalone="no"?>
<!DOCTYPE svg PUBLIC "-//W3C//DTD SVG 1.1//EN" "http://www.w3.org/Graphics/SVG/1.1/DTD/svg11.dtd">
<svg width="100%" height="100%" viewBox="0 0 40 40" version="1.1" xmlns="http://www.w3.org/2000/svg" xmlns:xlink="http://www.w3.org/1999/xlink" xml:space="preserve" xmlns:serif="http://www.serif.com/" style="fill-rule:evenodd;clip-rule:evenodd;stroke-linejoin:round;stroke-miterlimit:2;">
    <g transform="matrix(0.0730531,0,0,0.0730531,20,20)">
        <g id="radio.svg" transform="matrix(1,0,0,1,-256,-256)">
            <circle cx="256" cy="256" r="36"/>
            <path d="M190.24,341.77C183.954,341.776 177.957,339.087 173.78,334.39C134.249,289.902 134.249,222.118 173.78,177.63C177.957,172.767 184.058,169.964 190.469,169.964C202.538,169.964 212.469,179.895 212.469,191.964C212.469,197.485 210.391,202.809 206.65,206.87C181.869,234.767 181.869,277.263 206.65,305.16C210.225,309.185 212.202,314.386 212.202,319.77C212.202,331.832 202.282,341.76 190.22,341.77L190.24,341.77ZM321.76,341.77C309.698,341.76 299.778,331.832 299.778,319.77C299.778,314.386 301.755,309.185 305.33,305.16C330.111,277.263 330.111,234.767 305.33,206.87C301.589,202.809 299.511,197.485 299.511,191.964C299.511,179.895 309.442,169.964 321.511,169.964C327.922,169.964 334.023,172.767 338.2,177.63C377.731,222.118 377.731,289.902 338.2,334.39C334.027,339.082 328.039,341.77 321.76,341.77Z" style="fill-rule:nonzero;"/>
            <path d="M139.29,392.72C133.192,392.726 127.36,390.187 123.21,385.72C55.327,313.098 55.327,198.852 123.21,126.23C127.372,121.732 133.23,119.171 139.358,119.171C151.427,119.171 161.358,129.102 161.358,141.171C161.358,146.793 159.203,152.206 155.34,156.29C103.188,212.092 103.188,299.868 155.34,355.67C159.135,359.741 161.247,365.105 161.247,370.67C161.247,382.726 151.336,392.652 139.28,392.67L139.29,392.72ZM372.71,392.72C360.654,392.702 350.743,382.776 350.743,370.72C350.743,365.155 352.855,359.791 356.65,355.72C408.802,299.918 408.802,212.142 356.65,156.34C352.787,152.256 350.632,146.843 350.632,141.221C350.632,129.152 360.563,119.221 372.632,119.221C378.76,119.221 384.618,121.782 388.78,126.28C456.663,198.902 456.663,313.148 388.78,385.77C384.623,390.216 378.797,392.736 372.71,392.72Z" style="fill-rule:nonzero;"/>
            <path d="M429,438C416.933,437.997 407.005,428.067 407.005,416C407.005,410.588 409.002,405.363 412.61,401.33C486.108,318.923 486.108,193.077 412.61,110.67C409.163,106.676 407.266,101.573 407.266,96.297C407.266,84.228 417.197,74.297 429.266,74.297C435.382,74.297 441.229,76.847 445.39,81.33C533.761,180.359 533.761,331.641 445.39,430.67C441.22,435.331 435.254,437.999 429,438ZM83,438C76.737,438.012 70.76,435.342 66.59,430.67C-21.781,331.641 -21.781,180.359 66.59,81.33C70.751,76.847 76.598,74.297 82.714,74.297C94.783,74.297 104.714,84.228 104.714,96.297C104.714,101.573 102.817,106.676 99.37,110.67C25.872,193.077 25.872,318.923 99.37,401.33C102.978,405.363 104.975,410.589 104.975,416C104.975,428.059 95.059,437.986 83,438Z" style="fill-rule:nonzero;"/>
        </g>
        <g id="radio.svg1" serif:id="radio.svg">
        </g>
    </g>
</svg>
