<?xml version="1.0"?><svg fill="#000000" xmlns="http://www.w3.org/2000/svg"  viewBox="0 0 30 30" width="30px" height="30px">    <path d="M 22.498047 2 C 21.118047 2 20 3.12 20 4.5 C 20 5.88 21.118047 7 22.498047 7 C 23.881047 7 25 5.88 25 4.5 C 25 3.12 23.881047 2 22.498047 2 z M 13 7 A 1.0001 1.0001 0 0 0 12.400391 7.1992188 L 8.4003906 10.199219 L 8.4003906 10.201172 A 1 1 0 0 0 8 11 A 1 1 0 0 0 9 12 A 1 1 0 0 0 9.5996094 11.798828 L 9.5996094 11.800781 L 9.6210938 11.783203 L 13.091797 9.1816406 L 14.980469 9.4960938 L 12.853516 11.619141 L 12.853516 11.632812 C 12.334437 12.091022 12 12.753491 12 13.5 C 12 14.164574 12.2643 14.764961 12.6875 15.212891 L 12.6875 15.222656 L 16 18.646484 L 16.9375 24 L 9.2363281 24 L 7.4472656 23.105469 A 1.0001 1.0001 0 0 0 6.9648438 22.994141 A 1.0001 1.0001 0 0 0 6.5527344 24.894531 L 8.5527344 25.894531 A 1.0001 1.0001 0 0 0 9 26 L 21 26 A 1.0001 1.0001 0 0 0 21.447266 25.894531 L 23.447266 24.894531 A 1.0001163 1.0001163 0 1 0 22.552734 23.105469 L 20.763672 24 L 19 24 L 19 18 A 1.0001 1.0001 0 0 0 18.859375 17.494141 L 18.861328 17.490234 L 17.240234 14.296875 L 20.322266 11.210938 L 20.318359 11.207031 C 20.738291 10.759716 21 10.161595 21 9.5 C 21 8.1206594 19.882086 7.0010696 18.5 7 L 18.498047 7 L 13 7 z M 21.703125 12.214844 L 20 14 L 20.576172 14.320312 L 21.492188 14.861328 A 1.0001 1.0001 0 0 0 21.683594 14.949219 L 24.683594 15.949219 L 24.683594 15.947266 A 1 1 0 0 0 25 16 A 1 1 0 0 0 26 15 A 1 1 0 0 0 25.316406 14.052734 L 25.316406 14.050781 L 25.294922 14.044922 L 22.974609 13.271484 L 22.978516 13.267578 L 21.703125 12.214844 z M 10.871094 15.609375 L 9.3691406 17.402344 L 4.9082031 18.003906 L 4.9121094 18.005859 A 1 1 0 0 0 4 19 A 1 1 0 0 0 5 20 L 10 20 A 1.0001 1.0001 0 0 0 10.720703 19.691406 L 10.789062 19.619141 L 12.898438 17.699219 L 10.871094 15.609375 z M 10 27 A 1 1 0 0 0 9 28 A 1 1 0 0 0 10 29 A 1 1 0 0 0 11 28 A 1 1 0 0 0 10 27 z M 20 27 A 1 1 0 0 0 19 28 A 1 1 0 0 0 20 29 A 1 1 0 0 0 21 28 A 1 1 0 0 0 20 27 z"/></svg>