<?xml version="1.0" encoding="UTF-8" standalone="no"?>
<!DOCTYPE svg PUBLIC "-//W3C//DTD SVG 1.1//EN" "http://www.w3.org/Graphics/SVG/1.1/DTD/svg11.dtd">
<svg width="100%" height="100%" viewBox="0 0 40 40" version="1.1" xmlns="http://www.w3.org/2000/svg" xmlns:xlink="http://www.w3.org/1999/xlink" xml:space="preserve" xmlns:serif="http://www.serif.com/" style="fill-rule:evenodd;clip-rule:evenodd;stroke-linejoin:round;stroke-miterlimit:2;">
    <g transform="matrix(0.0726563,0,0,0.0726563,20,20)">
        <g id="cash.svg" transform="matrix(1,0,0,1,-256,-256)">
            <path d="M448,400L64,400C55.223,400 48,392.777 48,384C48,375.223 55.223,368 64,368L448,368C456.777,368 464,375.223 464,384C464,392.777 456.777,400 448,400ZM416,448L96,448C87.223,448 80,440.777 80,432C80,423.223 87.223,416 96,416L416,416C424.777,416 432,423.223 432,432C432,440.777 424.777,448 416,448ZM32,272L16,272L16,320C16,337.555 30.445,352 48,352L96,352L96,336C95.962,300.905 67.095,272.038 32,272Z" style="fill-rule:nonzero;"/>
            <path d="M480,240L496,240L496,176L480,176C427.359,175.94 384.06,132.641 384,80L384,64L128,64L128,80C127.94,132.641 84.641,175.94 32,176L16,176L16,240L32,240C84.641,240.06 127.94,283.359 128,336L128,352L384,352L384,336C384.06,283.359 427.359,240.06 480,240ZM256,304C203.336,304 160,260.664 160,208C160,155.336 203.336,112 256,112C308.664,112 352,155.336 352,208C351.94,260.641 308.641,303.94 256,304Z" style="fill-rule:nonzero;"/>
            <circle cx="256" cy="208" r="64"/>
            <path d="M416,336L416,352L464,352C481.555,352 496,337.555 496,320L496,272L480,272C444.905,272.038 416.038,300.905 416,336ZM480,144L496,144L496,96C496,78.445 481.555,64 464,64L416,64L416,80C416.038,115.095 444.905,143.962 480,144ZM96,80L96,64L48,64C30.445,64 16,78.445 16,96L16,144L32,144C67.095,143.962 95.962,115.095 96,80Z" style="fill-rule:nonzero;"/>
        </g>
        <g id="cash.svg1" serif:id="cash.svg">
        </g>
    </g>
</svg>
