<?xml version="1.0" encoding="UTF-8" standalone="no"?>
<!DOCTYPE svg PUBLIC "-//W3C//DTD SVG 1.1//EN" "http://www.w3.org/Graphics/SVG/1.1/DTD/svg11.dtd">
<svg width="100%" height="100%" viewBox="0 0 40 40" version="1.1" xmlns="http://www.w3.org/2000/svg" xmlns:xlink="http://www.w3.org/1999/xlink" xml:space="preserve" xmlns:serif="http://www.serif.com/" style="fill-rule:evenodd;clip-rule:evenodd;stroke-linejoin:round;stroke-miterlimit:2;">
    <g transform="matrix(0.0726563,0,0,0.0726563,20,20)">
        <g id="football.svg" transform="matrix(1,0,0,1,-256,-256)">
            <path d="M256,48C141.31,48 48,141.31 48,256C48,370.69 141.31,464 256,464C370.69,464 464,370.69 464,256C464,141.31 370.69,48 256,48ZM399,352L353.78,352C350.932,351.994 348.294,350.467 346.87,348L330.73,320.32C329.668,318.511 329.359,316.355 329.87,314.32L344.73,254.4C345.334,251.954 347.059,249.932 349.38,248.95L377.48,237.05C380.277,235.864 383.517,236.369 385.82,238.35L427.45,274.17C429.534,275.964 430.552,278.711 430.14,281.43C426.692,305.083 418.428,327.778 405.86,348.11C404.417,350.519 401.808,351.999 399,352ZM134.52,237.13L162.62,249.03C164.941,250.012 166.666,252.034 167.27,254.48L182.13,314.4C182.641,316.435 182.332,318.591 181.27,320.4L165.13,348C163.706,350.467 161.068,351.994 158.22,352L113,352C110.222,352.002 107.635,350.556 106.18,348.19C93.612,327.858 85.348,305.163 81.9,281.51C81.488,278.791 82.506,276.044 84.59,274.25L126.22,238.43C128.515,236.465 131.734,235.961 134.52,237.13ZM391.46,149.89L373.39,201.27C372.656,203.392 371.062,205.11 369,206L339.42,218.53C336.656,219.699 333.458,219.219 331.16,217.29L274.9,170.1C273.081,168.595 272.019,166.36 272,164L272,130.42C272.002,127.75 273.339,125.252 275.56,123.77L318.39,95.23C320.659,93.715 323.552,93.462 326.05,94.56C350.693,105.308 372.566,121.534 390,142C391.863,144.175 392.422,147.192 391.46,149.89ZM193.6,95.23L236.44,123.77C238.661,125.252 239.998,127.75 240,130.42L240,164C240,166.364 238.952,168.611 237.14,170.13L180.88,217.32C178.582,219.249 175.384,219.729 172.62,218.56L143,206C140.925,205.121 139.315,203.406 138.57,201.28L120.5,149.9C119.545,147.192 120.119,144.17 122,142C139.444,121.513 161.335,105.273 186,94.52C188.488,93.456 191.352,93.724 193.6,95.23ZM210.91,422.69L191.18,373C190.266,370.713 190.458,368.127 191.7,366L206.87,340C208.294,337.533 210.932,336.006 213.78,336L298.22,336C301.068,336.006 303.706,337.533 305.13,340L320.31,366C321.555,368.126 321.751,370.711 320.84,373L301.25,422.67C300.278,425.133 298.144,426.96 295.56,427.54C269.566,433.506 242.554,433.506 216.56,427.54C213.996,426.952 211.879,425.136 210.91,422.69Z" style="fill-rule:nonzero;"/>
        </g>
        <g id="football.svg1" serif:id="football.svg">
        </g>
    </g>
</svg>
