<?xml version="1.0" encoding="UTF-8" standalone="no"?>
<!DOCTYPE svg PUBLIC "-//W3C//DTD SVG 1.1//EN" "http://www.w3.org/Graphics/SVG/1.1/DTD/svg11.dtd">
<svg width="100%" height="100%" viewBox="0 0 40 40" version="1.1" xmlns="http://www.w3.org/2000/svg" xmlns:xlink="http://www.w3.org/1999/xlink" xml:space="preserve" xmlns:serif="http://www.serif.com/" style="fill-rule:evenodd;clip-rule:evenodd;stroke-linejoin:round;stroke-miterlimit:2;">
    <g transform="matrix(0.0726563,0,0,0.0726563,20,20)">
        <g id="flame.svg" transform="matrix(1,0,0,1,-256,-256)">
            <path d="M394.23,197.56C381.842,164.67 363.777,134.207 340.86,107.56C301.2,61.65 249.05,32 208,32C199.227,32.007 192.012,39.227 192.012,48C192.012,49.349 192.183,50.693 192.52,52C206.39,105 177.64,149.07 147.21,195.72C122,234.36 96,274.27 96,320C96,408.22 167.78,480 256,480C344.22,480 416,408.22 416,320C416,276.7 408.68,235.51 394.23,197.56ZM288.33,418.69C278,429.69 265.05,432 256,432C246.95,432 234,429.69 223.67,418.69C213.34,407.69 208,390.24 208,368C208,342.86 216.82,323.72 225.34,305.22C230.29,294.48 235.34,283.55 238.34,271.85C239.228,268.301 242.443,265.792 246.101,265.792C247.801,265.792 249.458,266.335 250.83,267.34C259.976,274.416 268.109,282.714 275,292C293.17,316 304,344.42 304,368C304,390.24 298.58,407.77 288.33,418.69Z" style="fill-rule:nonzero;"/>
        </g>
        <g id="flame.svg1" serif:id="flame.svg">
        </g>
    </g>
</svg>
