<?xml version="1.0" encoding="UTF-8" standalone="no"?>
<!DOCTYPE svg PUBLIC "-//W3C//DTD SVG 1.1//EN" "http://www.w3.org/Graphics/SVG/1.1/DTD/svg11.dtd">
<svg width="100%" height="100%" viewBox="0 0 40 40" version="1.1" xmlns="http://www.w3.org/2000/svg" xmlns:xlink="http://www.w3.org/1999/xlink" xml:space="preserve" xmlns:serif="http://www.serif.com/" style="fill-rule:evenodd;clip-rule:evenodd;stroke-linejoin:round;stroke-miterlimit:2;">
    <g transform="matrix(0.0725591,0,0,0.0725591,20,20)">
        <g id="qr-code.svg" transform="matrix(1,0,0,1,-256,-256)">
            <path d="M416,344C416,339.585 412.415,336 408,336L344,336C339.585,336 336,339.585 336,344L336,408C336,412.415 339.585,416 344,416L408,416C412.415,416 416,412.415 416,408L416,344Z"/>
            <path d="M336,280C336,275.585 332.415,272 328,272L280,272C275.585,272 272,275.585 272,280L272,328C272,332.415 275.585,336 280,336L328,336C332.415,336 336,332.415 336,328L336,280Z"/>
            <path d="M480,424C480,419.585 476.415,416 472,416L424,416C419.585,416 416,419.585 416,424L416,472C416,476.415 419.585,480 424,480L472,480C476.415,480 480,476.415 480,472L480,424Z"/>
            <path d="M480,280C480,275.585 476.415,272 472,272L440,272C435.585,272 432,275.585 432,280L432,312C432,316.415 435.585,320 440,320L472,320C476.415,320 480,316.415 480,312L480,280Z"/>
            <path d="M320,440C320,435.585 316.415,432 312,432L280,432C275.585,432 272,435.585 272,440L272,472C272,476.415 275.585,480 280,480L312,480C316.415,480 320,476.415 320,472L320,440Z"/>
            <path d="M448,32L304,32C286.445,32 272,46.445 272,64L272,208C272,225.555 286.445,240 304,240L448,240C465.555,240 480,225.555 480,208L480,64C480,46.445 465.555,32 448,32ZM416,168C416,172.389 412.389,176 408,176L344,176C339.611,176 336,172.389 336,168L336,104C336,99.611 339.611,96 344,96L408,96C412.389,96 416,99.611 416,104L416,168ZM208,32L64,32C46.445,32 32,46.445 32,64L32,208C32,225.555 46.445,240 64,240L208,240C225.555,240 240,225.555 240,208L240,64C240,46.445 225.555,32 208,32ZM176,168C176,172.389 172.389,176 168,176L104,176C99.611,176 96,172.389 96,168L96,104C96,99.611 99.611,96 104,96L168,96C172.389,96 176,99.611 176,104L176,168ZM208,272L64,272C46.445,272 32,286.445 32,304L32,448C32,465.555 46.445,480 64,480L208,480C225.555,480 240,465.555 240,448L240,304C240,286.445 225.555,272 208,272ZM176,408C176,412.389 172.389,416 168,416L104,416C99.611,416 96,412.389 96,408L96,344C96,339.611 99.611,336 104,336L168,336C172.389,336 176,339.611 176,344L176,408Z" style="fill-rule:nonzero;"/>
        </g>
        <g id="qr-code.svg1" serif:id="qr-code.svg">
        </g>
    </g>
</svg>
