<?xml version="1.0" encoding="UTF-8" standalone="no"?>
<!DOCTYPE svg PUBLIC "-//W3C//DTD SVG 1.1//EN" "http://www.w3.org/Graphics/SVG/1.1/DTD/svg11.dtd">
<svg width="100%" height="100%" viewBox="0 0 40 40" version="1.1" xmlns="http://www.w3.org/2000/svg" xmlns:xlink="http://www.w3.org/1999/xlink" xml:space="preserve" xmlns:serif="http://www.serif.com/" style="fill-rule:evenodd;clip-rule:evenodd;stroke-linejoin:round;stroke-miterlimit:2;">
    <g transform="matrix(0.0725591,0,0,0.0725591,20,20)">
        <g id="musical-notes.svg" transform="matrix(1,0,0,1,-256,-256)">
            <path d="M421.84,37.37C415.426,32.428 407.05,30.776 399.24,32.91L199.92,86.49C185.74,90.298 175.857,103.319 176,118L176,344C176,350.74 171.64,356.56 164.89,358.83L164.77,358.88L112.77,376.88C92.88,383.53 80,402 80,423.91C79.852,441.979 88.532,459.028 103.23,469.54C112.563,476.32 123.804,479.982 135.34,480C141.376,479.989 147.371,479 153.09,477.07L153.47,476.94L175.31,469C194.685,462.532 207.877,444.336 208,423.91L208,211.91C208,204.62 212.77,198.7 220.16,196.84L220.37,196.78L395,150.14C395.327,150.056 395.663,150.013 396,150.013C398.189,150.013 399.993,151.811 400,154L400,295.93C400,302.68 395.75,308.31 388.89,310.61L388.64,310.7L337.75,328.81C317.497,335.471 303.793,354.601 304,375.92C303.819,394.044 312.5,411.159 327.23,421.72C341.652,432.146 360.294,434.893 377.11,429.07L377.47,428.95L399.31,421C418.684,414.536 431.876,396.343 432,375.92L432,58C432.044,49.915 428.276,42.264 421.84,37.37Z" style="fill-rule:nonzero;"/>
        </g>
        <g id="musical-notes.svg1" serif:id="musical-notes.svg">
        </g>
    </g>
</svg>
