<?xml version="1.0" encoding="UTF-8" standalone="no"?>
<!DOCTYPE svg PUBLIC "-//W3C//DTD SVG 1.1//EN" "http://www.w3.org/Graphics/SVG/1.1/DTD/svg11.dtd">
<svg width="100%" height="100%" viewBox="0 0 40 40" version="1.1" xmlns="http://www.w3.org/2000/svg" xmlns:xlink="http://www.w3.org/1999/xlink" xml:space="preserve" xmlns:serif="http://www.serif.com/" style="fill-rule:evenodd;clip-rule:evenodd;stroke-linejoin:round;stroke-miterlimit:2;">
    <g transform="matrix(0.0703961,0,0,0.0703961,20,20)">
        <g id="man.svg" transform="matrix(1,0,0,1,-256,-256)">
            <circle cx="256" cy="56" r="56"/>
            <path d="M304,128L208,128C172.93,128.104 144.104,156.93 144,192L144,299.52C144,310.37 152.43,319.6 163.27,319.99C163.513,319.999 163.757,320.003 164,320.003C174.972,320.003 184,310.975 184,300.003C184,300.002 184,300.001 184,300L184,200.27C183.948,196.012 187.228,192.389 191.47,192.02C191.646,192.008 191.823,192.002 192,192.002C196.389,192.002 200,195.614 200,200.002C200,200.008 200,200.014 200,200.02L200,489C200,501.617 210.383,512 223,512C235.617,512 246,501.617 246,489L246,346.34C245.927,341.013 250.023,336.473 255.33,336C255.553,335.985 255.776,335.978 256,335.978C261.486,335.978 266,340.492 266,345.978C266,345.985 266,345.993 266,346L266,489C266,501.617 276.383,512 289,512C301.617,512 312,501.617 312,489L312,200.27C311.948,196.012 315.228,192.389 319.47,192.02C319.646,192.008 319.823,192.002 320,192.002C324.389,192.002 328,195.614 328,200.002C328,200.008 328,200.014 328,200.02L328,299.54C328,310.39 336.43,319.62 347.27,320.01C347.513,320.019 347.757,320.023 348,320.023C358.972,320.023 368,310.995 368,300.023C368,300.016 368,300.008 368,300L368,192C367.896,156.93 339.07,128.104 304,128Z" style="fill-rule:nonzero;"/>
        </g>
        <g id="man.svg1" serif:id="man.svg">
        </g>
    </g>
</svg>
