<svg fill="#000000" xmlns="http://www.w3.org/2000/svg"  viewBox="0 0 30 30" width="30px" height="30px"><path d="M 8 3 C 6.343 3 5 4.343 5 6 L 5 24 A 1.0001 1.0001 0 0 0 5.2949219 24.708984 C 5.6477556 25.972969 6.6303589 27 8 27 L 10 27 L 10 30 L 11.5 29 L 13 30 L 13 26.167969 A 1.0001 1.0001 0 0 0 13 25.841797 L 13 24 L 10 24 L 10 25 L 8 25 C 7.4349698 25 7 24.56503 7 24 C 7 23.43497 7.4349698 23 8 23 L 19 23 L 19 3 L 8 3 z M 21 3 L 21 23 L 23 23 C 24.105 23 25 22.105 25 21 L 25 5 C 25 3.895 24.105 3 23 3 L 21 3 z M 15 25 L 15 27 L 24 27 A 1 1 0 0 0 25 26 A 1 1 0 0 0 24 25 L 15 25 z"/></svg>