<svg fill="#000000" xmlns="http://www.w3.org/2000/svg"  viewBox="0 0 30 30" width="30px" height="30px"><path d="M 19.595703 4 C 18.285956 4 16.736625 4.2448081 15.125 4.7753906 C 14.961662 4.8293505 14.798279 4.8815587 14.634766 4.9414062 C 14.411686 5.0229056 14.189333 5.1115867 13.964844 5.2050781 C 13.768219 5.2869787 13.572767 5.3780888 13.376953 5.46875 C 13.075501 5.6084571 12.775367 5.7572066 12.474609 5.9199219 C 12.23659 6.0483135 12.000329 6.1821428 11.765625 6.3242188 C 11.599051 6.4254497 11.432905 6.5239532 11.267578 6.6328125 C 10.898705 6.874582 10.537209 7.1366081 10.181641 7.4140625 C 9.9809186 7.5713793 9.7808736 7.732334 9.5839844 7.9023438 C 9.5463844 7.9347081 9.5080947 7.9652511 9.4707031 7.9980469 C 9.2129527 8.224758 8.9584629 8.4595824 8.7089844 8.7089844 C 8.4191126 8.9988562 8.1480945 9.2988889 7.8867188 9.6035156 C 7.7578161 9.7529242 7.6375667 9.9046576 7.515625 10.056641 C 7.4032592 10.197723 7.2921823 10.338964 7.1855469 10.482422 C 7.0266239 10.694362 6.8746263 10.907369 6.7285156 11.123047 C 6.7022728 11.16217 6.6762325 11.200979 6.6503906 11.240234 C 5.2996886 13.271532 4.4949692 15.442607 4.1660156 17.455078 C 3.6949449 20.336994 4.0641171 22.935211 5.5644531 24.435547 C 6.6769991 25.548093 8.4156065 26 10.404297 26 C 11.721667 26 13.281025 25.751724 14.902344 25.214844 C 15.05381 25.164506 15.20581 25.117901 15.357422 25.0625 C 15.587221 24.978714 15.815587 24.885578 16.046875 24.789062 C 16.233355 24.711213 16.419717 24.626745 16.605469 24.541016 C 16.913199 24.398872 17.218374 24.246192 17.525391 24.080078 C 17.76341 23.951686 17.999671 23.817857 18.234375 23.675781 C 18.401629 23.574126 18.568384 23.474583 18.734375 23.365234 C 19.097922 23.126869 19.454045 22.86873 19.804688 22.595703 C 20.015958 22.430474 20.226575 22.263271 20.433594 22.083984 C 20.464809 22.05704 20.496273 22.031149 20.527344 22.003906 C 20.785809 21.776593 21.040878 21.541153 21.291016 21.291016 C 21.580887 21.001144 21.851905 20.701111 22.113281 20.396484 C 22.242185 20.247076 22.362432 20.095342 22.484375 19.943359 C 22.596741 19.802277 22.707818 19.661036 22.814453 19.517578 C 22.973379 19.305639 23.125371 19.09263 23.271484 18.876953 C 23.297727 18.83783 23.323767 18.799021 23.349609 18.759766 C 24.700341 16.728476 25.505121 14.55742 25.833984 12.544922 C 26.304927 9.6629678 25.936466 7.0646887 24.435547 5.5644531 C 23.323645 4.4511738 21.584393 4 19.595703 4 z M 19.595703 6 C 21.245013 6 22.517433 6.475795 23.019531 6.9785156 A 1.0001 1.0001 0 0 0 23.021484 6.9785156 C 23.717566 7.67428 24.266635 9.7423605 23.861328 12.222656 C 23.832858 12.396883 23.790788 12.576397 23.753906 12.753906 L 17.269531 6.2695312 C 18.117817 6.0905928 18.911613 6 19.595703 6 z M 17.990234 11.007812 C 18.245984 11.007812 18.501766 11.107234 18.697266 11.302734 C 19.088266 11.693734 19.088266 12.326797 18.697266 12.716797 L 17.914062 13.5 L 18.207031 13.792969 C 18.598031 14.183969 18.598031 14.816031 18.207031 15.207031 C 18.012031 15.402031 17.756 15.5 17.5 15.5 C 17.244 15.5 16.987969 15.402031 16.792969 15.207031 L 16.5 14.914062 L 14.914062 16.5 L 15.207031 16.792969 C 15.598031 17.183969 15.598031 17.816031 15.207031 18.207031 C 15.012031 18.402031 14.756 18.5 14.5 18.5 C 14.244 18.5 13.987969 18.402031 13.792969 18.207031 L 13.5 17.914062 L 12.714844 18.699219 C 12.519844 18.894219 12.263813 18.992187 12.007812 18.992188 C 11.751812 18.992188 11.495781 18.894219 11.300781 18.699219 C 10.909781 18.308219 10.909781 17.676156 11.300781 17.285156 L 12.085938 16.5 L 11.792969 16.207031 C 11.401969 15.816031 11.401969 15.183969 11.792969 14.792969 C 12.183969 14.401969 12.816031 14.401969 13.207031 14.792969 L 13.5 15.085938 L 15.085938 13.5 L 14.792969 13.207031 C 14.401969 12.816031 14.401969 12.183969 14.792969 11.792969 C 15.183969 11.401969 15.816031 11.401969 16.207031 11.792969 L 16.5 12.085938 L 17.283203 11.302734 C 17.478703 11.107234 17.734484 11.007812 17.990234 11.007812 z M 6.2460938 17.246094 L 12.730469 23.730469 C 11.882612 23.909199 11.088288 24 10.404297 24 C 8.7549871 24 7.4819696 23.524938 6.9785156 23.021484 C 6.2828517 22.32582 5.7332426 20.257678 6.1386719 17.777344 C 6.1671509 17.603115 6.2092057 17.423605 6.2460938 17.246094 z M 27 20 A 1.0001 1.0001 0 1 0 27 22 L 29 22 A 1.0001 1.0001 0 1 0 29 20 L 27 20 z M 22 24 A 1.0001 1.0001 0 1 0 22 26 L 25 26 A 1.0001 1.0001 0 1 0 25 24 L 22 24 z M 29 24 A 1 1 0 0 0 28 25 A 1 1 0 0 0 29 26 A 1 1 0 0 0 30 25 A 1 1 0 0 0 29 24 z"/></svg>