<svg fill="#000000" xmlns="http://www.w3.org/2000/svg"  viewBox="0 0 30 30" width="30px" height="30px"><path d="M 10.5 5 A 1.5 1.5 0 0 0 9 6.5 A 1.5 1.5 0 0 0 9.9042969 7.875 L 9.9042969 7.8769531 C 9.9042969 7.8769531 12.365 9 14 9 C 15.635 9 17.324078 8 18.330078 8 C 19.717078 8 20.931 8.9575 21.25 10.3125 L 21.882812 13 L 13.246094 13 C 8.4000937 13 4.175 16.298 3 21 L 23.765625 21 L 25 21 L 26.765625 21 L 24.087891 9.6269531 C 23.450891 6.9159531 21.032047 5 18.248047 5 L 10.5 5 z M 11 16 C 11.552 16 12 16.448 12 17 C 12 17.552 11.552 18 11 18 C 10.448 18 10 17.552 10 17 C 10 16.448 10.448 16 11 16 z M 15 16 C 15.552 16 16 16.448 16 17 C 16 17.552 15.552 18 15 18 C 14.448 18 14 17.552 14 17 C 14 16.448 14.448 16 15 16 z M 19 16 C 19.552 16 20 16.448 20 17 C 20 17.552 19.552 18 19 18 C 18.448 18 18 17.552 18 17 C 18 16.448 18.448 16 19 16 z M 3 23 A 1.0001 1.0001 0 1 0 3 25 L 27 25 A 1.0001 1.0001 0 1 0 27 23 L 3 23 z"/></svg>