<?xml version="1.0" encoding="UTF-8" standalone="no"?>
<!DOCTYPE svg PUBLIC "-//W3C//DTD SVG 1.1//EN" "http://www.w3.org/Graphics/SVG/1.1/DTD/svg11.dtd">
<svg width="100%" height="100%" viewBox="0 0 40 40" version="1.1" xmlns="http://www.w3.org/2000/svg" xmlns:xlink="http://www.w3.org/1999/xlink" xml:space="preserve" xmlns:serif="http://www.serif.com/" style="fill-rule:evenodd;clip-rule:evenodd;stroke-linejoin:round;stroke-miterlimit:2;">
    <g transform="matrix(0.0726563,0,0,0.0726563,20,20)">
        <g id="git-branch.svg" transform="matrix(1,0,0,1,-256,-256)">
            <path d="M416,160C416,159.99 416,159.981 416,159.971C416,124.862 387.109,95.971 352,95.971C316.891,95.971 288,124.862 288,159.971C288,182.697 300.105,203.781 319.73,215.24C317.44,244.32 299.65,252.24 244.73,263.66C226.97,267.34 208.8,271.11 192.02,277.59L192.02,151.39C211.797,139.972 224.02,118.801 224.02,95.964C224.02,60.855 195.129,31.964 160.02,31.964C124.911,31.964 96.02,60.855 96.02,95.964C96.02,118.801 108.243,139.972 128.02,151.39L128.02,360.61C108.245,372.029 96.024,393.198 96.024,416.033C96.024,451.143 124.915,480.033 160.024,480.033C195.133,480.033 224.024,451.143 224.024,416.033C224.024,393.368 211.983,372.33 192.44,360.85C194.83,342.85 208.44,336.52 257.7,326.33C285.13,320.66 313.48,314.79 337.48,299.38C366.48,280.8 382.01,252.6 383.84,215.49C403.698,204.101 415.99,182.892 416,160ZM160,64C177.555,64 192,78.445 192,96C192,113.555 177.555,128 160,128C142.445,128 128,113.555 128,96C128,78.445 142.445,64 160,64ZM160,448C142.445,448 128,433.555 128,416C128,398.445 142.445,384 160,384C177.555,384 192,398.445 192,416C192,433.555 177.555,448 160,448ZM352,192C334.445,192 320,177.555 320,160C320,142.445 334.445,128 352,128C369.555,128 384,142.445 384,160C384,177.555 369.555,192 352,192Z" style="fill-rule:nonzero;"/>
        </g>
        <g id="git-branch.svg1" serif:id="git-branch.svg">
        </g>
    </g>
</svg>
