<?xml version="1.0" encoding="UTF-8" standalone="no"?>
<!DOCTYPE svg PUBLIC "-//W3C//DTD SVG 1.1//EN" "http://www.w3.org/Graphics/SVG/1.1/DTD/svg11.dtd">
<svg width="100%" height="100%" viewBox="0 0 40 40" version="1.1" xmlns="http://www.w3.org/2000/svg" xmlns:xlink="http://www.w3.org/1999/xlink" xml:space="preserve" xmlns:serif="http://www.serif.com/" style="fill-rule:evenodd;clip-rule:evenodd;stroke-linejoin:round;stroke-miterlimit:2;">
    <g transform="matrix(0.0725591,0,0,0.0725591,20,20)">
        <g id="medkit.svg" transform="matrix(1,0,0,1,-256,-256)">
            <path d="M336,64L176,64C167.223,64 160,71.223 160,80L160,96L352,96L352,80C352,71.223 344.777,64 336,64Z" style="fill:none;fill-rule:nonzero;"/>
            <path d="M432,96L384,96L384,80C383.973,53.678 362.322,32.027 336,32L176,32C149.678,32.027 128.027,53.678 128,80L128,96L80,96C44.905,96.038 16.038,124.905 16,160L16,416C16,451.109 44.891,480 80,480L432,480C467.109,480 496,451.109 496,416L496,160C495.962,124.905 467.095,96.038 432,96ZM336,304L272,304L272,368C272,376.777 264.777,384 256,384C247.223,384 240,376.777 240,368L240,304L176,304C167.223,304 160,296.777 160,288C160,279.223 167.223,272 176,272L240,272L240,208C240,199.223 247.223,192 256,192C264.777,192 272,199.223 272,208L272,272L336,272C344.777,272 352,279.223 352,288C352,296.777 344.777,304 336,304ZM352,96L160,96L160,80C160,71.223 167.223,64 176,64L336,64C344.777,64 352,71.223 352,80L352,96Z" style="fill-rule:nonzero;"/>
        </g>
        <g id="medkit.svg1" serif:id="medkit.svg">
        </g>
    </g>
</svg>
