<?xml version="1.0" encoding="UTF-8" standalone="no"?>
<!DOCTYPE svg PUBLIC "-//W3C//DTD SVG 1.1//EN" "http://www.w3.org/Graphics/SVG/1.1/DTD/svg11.dtd">
<svg width="100%" height="100%" viewBox="0 0 40 40" version="1.1" xmlns="http://www.w3.org/2000/svg" xmlns:xlink="http://www.w3.org/1999/xlink" xml:space="preserve" xmlns:serif="http://www.serif.com/" style="fill-rule:evenodd;clip-rule:evenodd;stroke-linejoin:round;stroke-miterlimit:2;">
    <g transform="matrix(0.0731124,0,0,0.0731124,20,20)">
        <g id="rose.svg" transform="matrix(1,0,0,1,-256,-256)">
            <path d="M429.55,119.49C425.952,113.761 419.091,110.905 412.49,112.39C393.85,116.58 375.43,121.39 357.76,126.61C322.7,137 288.43,150.53 249.91,169.2C231.29,178.25 223.91,182.55 201.91,195.33L197.41,198C164.46,217 140.32,238 123.62,262.29C105.29,288.89 96,320 96,354.64C96,395.38 111.71,431.74 140.24,457.01C169,482.52 209.06,496 256,496C302.76,496 342.89,481.67 372,454.57C400.35,428.22 416,391.18 416,350.28C416,325.28 409.81,303.28 403.83,282.06C391.24,237.37 380.37,198.77 428.54,137.93C432.738,132.63 433.144,125.216 429.55,119.49ZM219,119.55C168.46,92.08 101.46,80.69 98.63,80.22C91.064,78.979 83.616,83.342 81,90.55C78.988,96.42 80.457,102.948 84.79,107.39C116.63,141.17 117.65,176.18 113.44,212.02C113.216,213.908 114.225,215.74 115.94,216.56C117.648,217.373 119.696,217.011 121.02,215.66C137.41,199.15 157.39,184.14 181.42,170.27L185.9,167.67C208,154.8 216.23,150 236,140.41L238.69,139.11C240.076,138.446 240.961,137.04 240.961,135.503C240.961,134.231 240.355,133.033 239.33,132.28C232.846,127.586 226.054,123.333 219,119.55ZM234.26,91.45C237.7,93.32 241.35,95.45 245.16,97.74C255.726,104.217 265.63,111.717 274.73,120.13C275.88,121.202 277.561,121.501 279.01,120.89C301.75,111.284 325.002,102.938 348.66,95.89C353.327,94.51 358.02,93.177 362.74,91.89C364.471,91.414 365.68,89.828 365.68,88.033C365.68,87.422 365.539,86.819 365.27,86.27C357,69.44 350.6,57.37 350.12,56.48C347.345,51.269 341.903,48.001 336,48C334.09,48 302.72,48.36 259.13,69.3C250.079,73.658 241.269,78.502 232.74,83.81C231.558,84.537 230.836,85.829 230.836,87.217C230.836,88.695 231.655,90.057 232.96,90.75L234.26,91.45ZM209.33,60.79C216.63,56.02 224.07,51.57 231.58,47.48C232.223,47.13 232.624,46.455 232.624,45.723C232.624,45.092 232.326,44.497 231.82,44.12C205.82,24.55 182.09,17.12 180.67,16.7C174.19,14.721 167.125,17.063 163.11,22.52C155.759,32.736 149.308,43.57 143.83,54.9C143.697,55.173 143.628,55.472 143.628,55.776C143.628,56.682 144.244,57.48 145.12,57.71C158.73,61.28 174.52,66 190.73,72C191.324,72.221 191.989,72.146 192.52,71.8L209.33,60.79Z" style="fill-rule:nonzero;"/>
        </g>
        <g id="rose.svg1" serif:id="rose.svg">
        </g>
    </g>
</svg>
