<?xml version="1.0" encoding="UTF-8" standalone="no"?>
<!DOCTYPE svg PUBLIC "-//W3C//DTD SVG 1.1//EN" "http://www.w3.org/Graphics/SVG/1.1/DTD/svg11.dtd">
<svg width="100%" height="100%" viewBox="0 0 40 40" version="1.1" xmlns="http://www.w3.org/2000/svg" xmlns:xlink="http://www.w3.org/1999/xlink" xml:space="preserve" xmlns:serif="http://www.serif.com/" style="fill-rule:evenodd;clip-rule:evenodd;stroke-linejoin:round;stroke-miterlimit:2;">
    <g transform="matrix(0.0731124,0,0,0.0731124,20,20)">
        <g id="sparkles.svg" transform="matrix(1,0,0,1,-256,-256)">
            <clipPath id="_clip1">
                <rect x="0" y="0" width="512" height="512"/>
            </clipPath>
            <g clip-path="url(#_clip1)">
                <path d="M208,512C197.669,512.052 188.336,505.655 184.66,496L144.82,392.4C143.189,388.181 139.849,384.841 135.63,383.21L32,343.34C22.358,339.639 15.958,330.328 15.958,320C15.958,309.672 22.358,300.361 32,296.66L135.6,256.82C139.819,255.189 143.159,251.849 144.79,247.63L184.66,144C188.361,134.358 197.672,127.958 208,127.958C218.328,127.958 227.639,134.358 231.34,144L271.18,247.6C272.811,251.819 276.151,255.159 280.37,256.79L383.37,296.42C393.411,300.142 400.084,309.812 400,320.52C399.844,330.664 393.484,339.736 384,343.34L280.4,383.18C276.181,384.811 272.841,388.151 271.21,392.37L231.34,496C227.664,505.655 218.331,512.052 208,512ZM88,176C81.945,176 76.485,172.251 74.31,166.6L57.45,122.76C56.711,120.822 55.178,119.289 53.24,118.55L9.4,101.69C3.75,99.514 0.002,94.054 0.002,88C0.002,81.946 3.75,76.486 9.4,74.31L53.24,57.45C55.176,56.708 56.708,55.176 57.45,53.24L74.16,9.79C76.078,4.585 80.732,0.852 86.23,0.11C92.881,-0.699 99.282,3.147 101.69,9.4L118.55,53.24C119.292,55.176 120.824,56.708 122.76,57.45L166.6,74.31C172.25,76.486 175.998,81.946 175.998,88C175.998,94.054 172.25,99.514 166.6,101.69L122.76,118.55C120.822,119.289 119.289,120.822 118.55,122.76L101.69,166.6C99.515,172.251 94.055,176 88,176ZM400,256C393.395,255.998 387.44,251.906 385.07,245.74L362.23,186.37C361.418,184.255 359.745,182.582 357.63,181.77L298.26,158.93C292.099,156.556 288.013,150.602 288.013,144C288.013,137.398 292.099,131.444 298.26,129.07L357.63,106.23C359.745,105.418 361.418,103.745 362.23,101.63L384.9,42.68C387.006,37.008 392.077,32.938 398.07,32.11C405.328,31.231 412.31,35.434 414.93,42.26L437.77,101.63C438.582,103.745 440.255,105.418 442.37,106.23L501.74,129.07C507.901,131.444 511.987,137.398 511.987,144C511.987,150.602 507.901,156.556 501.74,158.93L442.37,181.77C440.255,182.582 438.582,184.255 437.77,186.37L414.93,245.74C412.56,251.906 406.605,255.998 400,256Z" style="fill-rule:nonzero;"/>
            </g>
        </g>
        <g id="sparkles.svg1" serif:id="sparkles.svg">
        </g>
    </g>
</svg>
