<?xml version="1.0"?><svg fill="#000000" xmlns="http://www.w3.org/2000/svg"  viewBox="0 0 30 30" width="30px" height="30px">    <path d="M 16.5 3 A 2.5 2.5 0 0 0 14 5.5 A 2.5 2.5 0 0 0 16.5 8 A 2.5 2.5 0 0 0 19 5.5 A 2.5 2.5 0 0 0 16.5 3 z M 14.498047 9 C 14.102105 9 13.733097 9.1015408 13.400391 9.265625 A 1.0001 1.0001 0 0 0 13.253906 9.3242188 L 9.3378906 11.199219 A 1.0001 1.0001 0 0 0 8.8574219 11.6875 L 7.0898438 15.585938 A 1.0001 1.0001 0 1 0 8.9101562 16.414062 L 10.357422 13.224609 L 11.652344 12.835938 C 11.385979 14.241055 11.054337 15.981606 11.052734 15.990234 C 11.052311 15.992278 11.0512 15.994048 11.050781 15.996094 C 11.050781 15.996098 11.050781 16 11.050781 16 C 11.017985 16.161534 11 16.328824 11 16.5 C 11 17.271024 11.357278 17.951446 11.90625 18.410156 L 11.914062 18.433594 L 15.806641 21.5 L 16.919922 25.695312 L 17.019531 26.195312 A 1 1 0 0 0 18 27 A 1 1 0 0 0 19 26 A 1 1 0 0 0 18.980469 25.804688 L 18.980469 25.800781 A 1 1 0 0 0 18.976562 25.789062 L 17.980469 20.804688 A 1.0001 1.0001 0 0 0 17.820312 20.427734 L 15.949219 17.003906 C 15.951019 16.995104 15.949465 16.985398 15.951172 16.976562 L 16.933594 12.0625 L 16.931641 12.060547 C 16.97318 11.879786 17 11.693331 17 11.5 C 17 10.120659 15.880133 9.0010696 14.498047 9 z M 18.384766 12.742188 L 17.916016 15.007812 L 18.332031 15.380859 C 18.407031 15.448859 18.493938 15.505875 18.585938 15.546875 L 21.585938 16.910156 L 21.585938 16.908203 A 1 1 0 0 0 22 17 A 1 1 0 0 0 23 16 A 1 1 0 0 0 22.414062 15.091797 L 22.414062 15.089844 L 19.552734 13.789062 L 18.384766 12.742188 z M 10.957031 19.724609 L 10.443359 21.421875 L 8.2148438 25.361328 L 8.140625 25.486328 L 8.1425781 25.488281 A 1 1 0 0 0 8.109375 25.550781 L 8.1015625 25.5625 A 1 1 0 0 0 8 26 A 1 1 0 0 0 9 27 A 1 1 0 0 0 9.8085938 26.587891 L 9.8105469 26.587891 L 9.8261719 26.564453 A 1 1 0 0 0 9.828125 26.560547 L 13.154297 21.511719 L 10.957031 19.724609 z"/></svg>