<svg fill="#000000" xmlns="http://www.w3.org/2000/svg"  viewBox="0 0 30 30" width="30px" height="30px"><path d="M 15 3 C 8.4990286 3 4.09375 5.2167969 4.09375 5.2167969 A 2.0002756 2.0002756 0 0 0 4.3515625 8.890625 L 13.224609 25.923828 C 13.945438 27.305738 16.052609 27.305738 16.773438 25.923828 L 25.646484 8.8925781 A 2.0002756 2.0002756 0 0 0 25.648438 8.8925781 A 2.0002756 2.0002756 0 0 0 25.90625 5.2167969 C 25.90625 5.2167969 21.500971 3 15 3 z M 15 7 C 19.450856 7 22.468923 8.0852804 23.568359 8.5507812 L 18.640625 18.009766 C 18.593502 18.007119 18.547793 18 18.5 18 C 17.119 18 16 19.119 16 20.5 C 16 21.081901 16.215514 21.602542 16.548828 22.027344 L 15 25 L 14.998047 25 L 12.623047 20.4375 C 12.858375 20.009444 13 19.522783 13 19 C 13 17.455262 11.828796 16.198447 10.328125 16.033203 L 6.4316406 8.5507812 C 7.5310772 8.0852804 10.549144 7 15 7 z M 11 10 A 1 1 0 0 0 10 11 A 1 1 0 0 0 11 12 A 1 1 0 0 0 12 11 A 1 1 0 0 0 11 10 z M 19 10 A 1 1 0 0 0 18 11 A 1 1 0 0 0 19 12 A 1 1 0 0 0 20 11 A 1 1 0 0 0 19 10 z M 13 12 C 13 13.105 13.895 14 15 14 C 16.105 14 17 13.105 17 12 L 13 12 z"/></svg>