<svg fill="#000000" xmlns="http://www.w3.org/2000/svg"  viewBox="0 0 30 30" width="30px" height="30px"><path d="M 13 4 A 1.0001 1.0001 0 0 0 11.986328 5 L 6 5 A 1.0001 1.0001 0 1 0 6 7 L 24 7 A 1.0001 1.0001 0 0 0 25 5.8417969 L 25 5.1679688 A 1.0001 1.0001 0 0 0 24 4 L 13 4 z M 6 9 L 6.8886719 24.117188 C 6.9506719 25.175187 7.8277187 26 8.8867188 26 L 19.554688 26 C 19.210687 25.41 19 24.732 19 24 C 19 21.791 20.791 20 23 20 C 23.12 20 23.233563 20.025156 23.351562 20.035156 L 24 9 L 6 9 z M 23 22 A 2 2 0 0 0 21 24 A 2 2 0 0 0 23 26 A 2 2 0 0 0 25 24 A 2 2 0 0 0 23 22 z"/></svg>