<?xml version="1.0" encoding="UTF-8" standalone="no"?>
<!DOCTYPE svg PUBLIC "-//W3C//DTD SVG 1.1//EN" "http://www.w3.org/Graphics/SVG/1.1/DTD/svg11.dtd">
<svg width="100%" height="100%" viewBox="0 0 40 40" version="1.1" xmlns="http://www.w3.org/2000/svg" xmlns:xlink="http://www.w3.org/1999/xlink" xml:space="preserve" xmlns:serif="http://www.serif.com/" style="fill-rule:evenodd;clip-rule:evenodd;stroke-linejoin:round;stroke-miterlimit:2;">
    <g transform="matrix(0.0726563,0,0,0.0726563,20,20)">
        <g id="briefcase.svg" transform="matrix(1,0,0,1,-256,-256)">
            <path d="M336,80L176,80C167.223,80 160,87.223 160,96L160,112L352,112L352,96C352,87.223 344.777,80 336,80Z" style="fill:none;fill-rule:nonzero;"/>
            <path d="M496,176C495.962,140.905 467.095,112.038 432,112L384,112L384,96C383.973,69.678 362.322,48.027 336,48L176,48C149.678,48.027 128.027,69.678 128,96L128,112L80,112C44.905,112.038 16.038,140.905 16,176L16,224L496,224L496,176ZM352,112L160,112L160,96C160,87.223 167.223,80 176,80L336,80C344.777,80 352,87.223 352,96L352,112ZM336,264C336,277.166 325.166,288 312,288L200,288C186.834,288 176,277.166 176,264L176,260C176,257.806 174.194,256 172,256L16,256L16,400C16,435.109 44.891,464 80,464L432,464C467.109,464 496,435.109 496,400L496,256L340,256C337.806,256 336,257.806 336,260L336,264Z" style="fill-rule:nonzero;"/>
        </g>
        <g id="briefcase.svg1" serif:id="briefcase.svg">
        </g>
    </g>
</svg>
