<?xml version="1.0" encoding="UTF-8" standalone="no"?>
<!DOCTYPE svg PUBLIC "-//W3C//DTD SVG 1.1//EN" "http://www.w3.org/Graphics/SVG/1.1/DTD/svg11.dtd">
<svg width="100%" height="100%" viewBox="0 0 40 40" version="1.1" xmlns="http://www.w3.org/2000/svg" xmlns:xlink="http://www.w3.org/1999/xlink" xml:space="preserve" xmlns:serif="http://www.serif.com/" style="fill-rule:evenodd;clip-rule:evenodd;stroke-linejoin:round;stroke-miterlimit:2;">
    <g transform="matrix(0.078125,0,0,0.078125,20,20)">
        <g id="wine.svg" transform="matrix(1,0,0,1,-256,-256)">
            <path d="M414.56,94.92L414.56,80C414.56,71.223 407.337,64 398.56,64L113.44,64C104.663,64 97.44,71.223 97.44,80L97.44,94.92C95.98,106.29 87.79,185.66 134.37,239.61C159.24,268.41 194.73,284.46 240,287.47L240,416L160,416C151.223,416 144,423.223 144,432C144,440.777 151.223,448 160,448L352,448C360.777,448 368,440.777 368,432C368,423.223 360.777,416 352,416L272,416L272,287.47C317.27,284.47 352.76,268.41 377.63,239.61C424.21,185.66 416,106.29 414.56,94.92ZM129.26,98.33C129.38,97.559 129.44,96.78 129.44,96L382.56,96C382.56,96.78 382.62,97.559 382.74,98.33C384.467,113.504 384.467,128.826 382.74,144L129.32,144C127.593,128.827 127.573,113.508 129.26,98.33Z" style="fill-rule:nonzero;"/>
        </g>
        <g id="wine.svg1" serif:id="wine.svg">
        </g>
    </g>
</svg>
