<svg fill="#000000" xmlns="http://www.w3.org/2000/svg"  viewBox="0 0 30 30" width="30px" height="30px"><path d="M 15 3 C 8.3845336 3 3 8.3845336 3 15 C 3 21.615466 8.3845336 27 15 27 C 21.615466 27 27 21.615466 27 15 C 27 8.3845336 21.615466 3 15 3 z M 15.701172 5.0351562 C 18.395811 5.2216147 20.788237 6.4659365 22.472656 8.3613281 C 20.639755 7.4409597 18.180406 6.6281209 15.269531 6.6640625 C 15.419187 5.8789318 15.568648 5.4223629 15.701172 5.0351562 z M 13.574219 5.1113281 C 13.046036 7.0478806 12.490385 10.643934 13.869141 14.771484 C 13.433512 15.262634 12.986279 15.705882 12.53125 16.101562 C 10.038607 11.230151 11.294175 6.4443302 11.537109 5.6269531 C 12.187332 5.3874587 12.867865 5.211878 13.574219 5.1113281 z M 9.2460938 6.8242188 C 8.8697954 9.2286344 8.733547 13.293582 10.904297 17.310547 C 10.422501 17.623755 9.9550698 17.896128 9.4980469 18.126953 C 6.5100331 13.314445 7.6939307 8.329518 7.7460938 8.1191406 C 8.20128 7.6393365 8.7037569 7.2060925 9.2460938 6.8242188 z M 15.669922 8.6542969 C 20.983011 8.7378779 24.432562 12.010497 24.585938 12.158203 C 24.769689 12.781697 24.895649 13.431331 24.955078 14.099609 C 23.05986 12.57189 19.608217 10.426634 15.046875 10.298828 C 15.016342 9.7239963 15.014388 9.1819141 15.042969 8.6699219 C 15.252598 8.6631982 15.465556 8.651082 15.669922 8.6542969 z M 5.515625 11.839844 C 5.6346624 13.888191 6.1603281 16.428046 7.6484375 18.933594 C 6.8907223 19.19741 6.417652 19.29631 6.015625 19.375 C 5.372229 18.052736 5 16.572929 5 15 C 5 13.893837 5.1859842 12.83348 5.515625 11.839844 z M 15.28125 12.310547 C 20.740627 12.587253 24.256407 16.060094 24.847656 16.683594 C 24.728563 17.388366 24.539031 18.066972 24.28125 18.712891 C 22.869563 17.287734 20.030687 15.002511 15.761719 14.132812 C 15.55459 13.510649 15.39626 12.901865 15.28125 12.310547 z M 15.369141 16.09375 C 16.011853 16.225413 16.617722 16.391825 17.1875 16.587891 C 14.203325 21.199209 9.401455 22.501052 8.6015625 22.691406 C 8.0625058 22.242766 7.576598 21.733049 7.1425781 21.181641 C 9.0826171 20.671793 12.480705 19.35656 15.369141 16.09375 z M 19.048828 17.392578 C 19.561865 17.65363 20.03196 17.922292 20.460938 18.203125 C 17.795677 23.18016 12.919215 24.649356 12.679688 24.71875 C 12.025753 24.563898 11.399504 24.346172 10.802734 24.070312 C 13.073117 23.192854 16.656988 21.277908 19.048828 17.392578 z M 22.082031 19.400391 C 22.695828 19.930239 23.020651 20.294763 23.289062 20.603516 C 21.84854 22.733655 19.608613 24.274569 16.994141 24.800781 C 18.711617 23.674125 20.652677 21.947497 22.082031 19.400391 z"/></svg>