<?xml version="1.0" encoding="UTF-8" standalone="no"?>
<!DOCTYPE svg PUBLIC "-//W3C//DTD SVG 1.1//EN" "http://www.w3.org/Graphics/SVG/1.1/DTD/svg11.dtd">
<svg width="100%" height="100%" viewBox="0 0 40 40" version="1.1" xmlns="http://www.w3.org/2000/svg" xmlns:xlink="http://www.w3.org/1999/xlink" xml:space="preserve" xmlns:serif="http://www.serif.com/" style="fill-rule:evenodd;clip-rule:evenodd;stroke-linejoin:round;stroke-miterlimit:2;">
    <g transform="matrix(0.0731124,0,0,0.0731124,20,20)">
        <g id="skull.svg" transform="matrix(1,0,0,1,-256,-256)">
            <path d="M402,76.94C362.61,37.63 310.78,16 256,16L255.63,16C141.664,16.203 48,110.034 48,224L48,324.67C47.873,357.363 67.895,386.957 98.29,399L122,408.42C127.026,410.413 130.705,414.835 131.75,420.14L141.75,470.27C144.759,485.151 157.938,495.961 173.12,496L184,496C188.389,496 192,492.389 192,488L192,448.45C192,439.84 198.62,432.45 207.23,432.02C207.486,432.008 207.743,432.001 208,432.001C216.777,432.001 223.999,439.223 224,448L224,488C224,492.389 227.611,496 232,496C236.389,496 240,492.389 240,488L240,448.45C240,439.84 246.62,432.45 255.23,432.02C255.486,432.008 255.743,432.001 256,432.001C264.777,432.001 271.999,439.223 272,448L272,488C272,492.389 275.611,496 280,496C284.389,496 288,492.389 288,488L288,448.45C288,439.84 294.62,432.45 303.23,432.02C303.486,432.008 303.743,432.001 304,432.001C312.777,432.001 319.999,439.223 320,448L320,488C320,492.389 323.611,496 328,496L338.88,496C354.063,495.966 367.246,485.161 370.26,470.28L380.26,420.14C381.317,414.844 384.987,410.428 390,408.42L413.71,399C444.105,386.957 464.127,357.363 464,324.67L464,225.67C464,169.67 442,116.86 402,76.94ZM171.66,335.88C170.442,335.96 169.221,336 168,336C137.279,336 112,310.72 112,280C112,249.279 137.279,224 168,224C198.72,224 224,249.279 224,280C224,281.221 223.96,282.442 223.88,283.66C222.052,311.574 199.574,334.052 171.66,335.88ZM281,397.25C278.249,399.085 275.006,400.044 271.7,400L240.3,400C237.001,400.04 233.765,399.081 231.02,397.25C225.542,393.537 222.908,386.792 224.42,380.35L240.33,332.75C243,326 247.25,321 254,320.13C262.26,319.13 268,323 271.61,332.35L287.61,380.35C289.12,386.795 286.482,393.54 281,397.25ZM347.68,335.88C346.462,335.96 345.241,336 344.02,336C313.299,336 288.02,310.72 288.02,280C288.02,249.279 313.299,224 344.02,224C374.74,224 400.02,249.279 400.02,280C400.02,281.221 399.98,282.442 399.9,283.66C398.07,311.581 375.581,334.061 347.66,335.88L347.68,335.88Z" style="fill-rule:nonzero;"/>
        </g>
        <g id="skull.svg1" serif:id="skull.svg">
        </g>
    </g>
</svg>
