<?xml version="1.0" encoding="UTF-8" standalone="no"?>
<!DOCTYPE svg PUBLIC "-//W3C//DTD SVG 1.1//EN" "http://www.w3.org/Graphics/SVG/1.1/DTD/svg11.dtd">
<svg width="100%" height="100%" viewBox="0 0 40 40" version="1.1" xmlns="http://www.w3.org/2000/svg" xmlns:xlink="http://www.w3.org/1999/xlink" xml:space="preserve" xmlns:serif="http://www.serif.com/" style="fill-rule:evenodd;clip-rule:evenodd;stroke-linejoin:round;stroke-miterlimit:2;">
    <g transform="matrix(0.0726563,0,0,0.0726563,20,20)">
        <g id="game-controller.svg" transform="matrix(1,0,0,1,-256,-256)">
            <path d="M483.13,245.38C461.92,149.49 430,98.31 382.65,84.33C372.697,81.411 362.372,79.952 352,80C338.29,80 326.35,83.34 313.72,86.88C298.5,91.15 281.21,96 256,96C230.79,96 213.49,91.16 198.24,86.89C185.6,83.34 173.67,80 160,80C149.274,79.963 138.595,81.417 128.27,84.32C81.17,98.24 49.27,149.4 27.75,245.32C4.61,348.54 16,413.71 59.69,428.83C65.679,430.941 71.98,432.03 78.33,432.05C108.26,432.05 132.26,407.12 148.66,386.71C167.19,363.61 188.88,351.89 256,351.89C315.95,351.89 340.76,360.02 362.19,386.71C375.66,403.49 388.39,415.23 401.09,422.62C417.98,432.44 434.86,434.62 451.25,428.99C477.07,420.18 491.87,396.89 495.25,359.75C497.82,331.27 493.86,293.86 483.13,245.38ZM208,240L176,240L176,272C176,280.777 168.777,288 160,288C151.223,288 144,280.777 144,272L144,240L112,240C103.223,240 96,232.777 96,224C96,215.223 103.223,208 112,208L144,208L144,176C144,167.223 151.223,160 160,160C168.777,160 176,167.223 176,176L176,208L208,208C216.777,208 224,215.223 224,224C224,232.777 216.777,240 208,240ZM292,244C281.028,244 272,234.972 272,224C272,213.028 281.028,204 292,204C302.972,204 312,213.028 312,224C312,234.972 302.972,244 292,244ZM336,288C325.028,288 316,278.972 316,268C316,257.028 325.028,248 336,248C346.972,248 356,257.028 356,268C356,268.017 356,268.033 356,268.05C355.973,279.003 346.953,288 336,288ZM336,200C325.028,200 316,190.972 316,180C316,169.028 325.028,160 336,160C346.972,160 356,169.028 356,180C356,190.972 346.972,200 336,200ZM380,244C369.028,244 360,234.972 360,224C360,213.028 369.028,204 380,204C390.972,204 400,213.028 400,224C400,234.972 390.972,244 380,244Z" style="fill-rule:nonzero;"/>
        </g>
        <g id="game-controller.svg1" serif:id="game-controller.svg">
        </g>
    </g>
</svg>
