<?xml version="1.0" encoding="UTF-8" standalone="no"?>
<!DOCTYPE svg PUBLIC "-//W3C//DTD SVG 1.1//EN" "http://www.w3.org/Graphics/SVG/1.1/DTD/svg11.dtd">
<svg width="100%" height="100%" viewBox="0 0 40 40" version="1.1" xmlns="http://www.w3.org/2000/svg" xmlns:xlink="http://www.w3.org/1999/xlink" xml:space="preserve" xmlns:serif="http://www.serif.com/" style="fill-rule:evenodd;clip-rule:evenodd;stroke-linejoin:round;stroke-miterlimit:2;">
    <g transform="matrix(0.0725991,0,0,0.0725991,20,20)">
        <g id="trash.svg" transform="matrix(1,0,0,1,-256,-256)">
            <path d="M296,64L216,64C215.97,64 215.94,63.999 215.909,63.999C211.57,63.999 207.999,67.57 207.999,71.909C207.999,71.94 208,71.97 208,72L208,96L304,96L304,72C304,71.97 304.001,71.94 304.001,71.909C304.001,67.57 300.43,63.999 296.091,63.999C296.06,63.999 296.03,64 296,64Z" style="fill:none;fill-rule:nonzero;"/>
            <path d="M432,96L336,96L336,72C336,50.057 317.943,32 296,32L216,32C194.057,32 176,50.057 176,72L176,96L80,96C71.223,96 64,103.223 64,112C64,120.777 71.223,128 80,128L97,128L116,432.92C117.42,459.77 138,480 164,480L348,480C374.13,480 394.3,460.22 396,433L415,128L432,128C440.777,128 448,120.777 448,112C448,103.223 440.777,96 432,96ZM192.57,416L192,416C183.434,416.005 176.305,409.131 176,400.57L168,176.57C167.993,176.38 167.99,176.19 167.99,176C167.99,167.217 175.217,159.99 184,159.99C192.568,159.99 199.695,166.868 200,175.43L208,399.43C208.007,399.623 208.011,399.816 208.011,400.01C208.011,408.576 201.131,415.7 192.57,416ZM272,400C272,408.777 264.777,416 256,416C247.223,416 240,408.777 240,400L240,176C240,167.223 247.223,160 256,160C264.777,160 272,167.223 272,176L272,400ZM304,96L208,96L208,72C208,71.97 207.999,71.94 207.999,71.909C207.999,67.57 211.57,63.999 215.909,63.999C215.94,63.999 215.97,64 216,64L296,64C296.03,64 296.06,63.999 296.091,63.999C300.43,63.999 304.001,67.57 304.001,71.909C304.001,71.94 304,71.97 304,72L304,96ZM336,400.57C335.695,409.131 328.566,416.005 320,416L319.42,416C310.863,415.695 303.989,408.573 303.989,400.01C303.989,399.817 303.993,399.623 304,399.43L312,175.43C312.305,166.868 319.432,159.99 328,159.99C336.783,159.99 344.01,167.217 344.01,176C344.01,176.19 344.007,176.38 344,176.57L336,400.57Z" style="fill-rule:nonzero;"/>
        </g>
        <g id="trash.svg1" serif:id="trash.svg">
        </g>
    </g>
</svg>
