<?xml version="1.0"?><svg fill="#000000" xmlns="http://www.w3.org/2000/svg"  viewBox="0 0 30 30" width="30px" height="30px">    <path d="M 19.402344 2 L 15.302734 3.5683594 C 15.302734 3.5683594 15.771234 5.2014375 16.615234 6.6484375 C 17.243365 7.6947428 18.091391 8.2249246 19.013672 8.1113281 L 19.300781 8.9121094 L 14.46875 9.9863281 A 1.0001 1.0001 0 0 0 13.876953 10.373047 L 10.900391 14.455078 A 1.0001 1.0001 0 0 0 10.791016 14.648438 L 10.785156 14.652344 L 8.1855469 20.089844 L 9.6328125 20.089844 C 10.893576 20.089844 12.967656 20.660865 14.728516 21.113281 A 1.0001 1.0001 0 0 0 14.832031 21.146484 L 19.072266 22.244141 A 1.0001 1.0001 0 0 0 19.675781 22.212891 L 23.537109 20.763672 L 24.371094 23.091797 C 23.151379 23.549912 21.560329 24 20 24 C 18.412241 24 17.027445 23.54884 15.460938 23.046875 C 13.894429 22.54491 12.151095 22 10 22 C 5.697809 22 2.4492188 24.166016 2.4492188 24.166016 A 1.0001 1.0001 0 1 0 3.5507812 25.833984 C 3.5507812 25.833984 6.370191 24 10 24 C 11.814905 24 13.295368 24.45509 14.849609 24.953125 C 16.403851 25.45116 18.036759 26 20 26 C 23.926481 26 27.501953 23.865234 27.501953 23.865234 A 1.0001 1.0001 0 0 0 27.042969 21.994141 A 1.0001 1.0001 0 0 0 26.498047 22.134766 C 26.498047 22.134766 25.981557 22.395626 25.292969 22.701172 L 24.447266 20.337891 A 1.0001 1.0001 0 0 0 23.832031 18.617188 L 20.908203 10.435547 A 1.0001 1.0001 0 0 0 20.302734 8.7441406 L 19.941406 7.734375 C 20.530551 7.2803618 20.74979 6.5049321 20.556641 5.4414062 C 20.314641 3.7534063 19.402344 2 19.402344 2 z M 19.978516 10.808594 L 22.865234 18.880859 L 22.580078 18.988281 L 19.361328 19.654297 L 15.265625 18.527344 L 13.644531 15.943359 L 15.306641 12.363281 L 19.503906 10.914062 L 19.978516 10.808594 z M 18 14 A 2 2 0 0 0 16 16 A 2 2 0 0 0 18 18 A 2 2 0 0 0 20 16 A 2 2 0 0 0 18 14 z"/></svg>