<?xml version="1.0" encoding="UTF-8" standalone="no"?>
<!DOCTYPE svg PUBLIC "-//W3C//DTD SVG 1.1//EN" "http://www.w3.org/Graphics/SVG/1.1/DTD/svg11.dtd">
<svg width="100%" height="100%" viewBox="0 0 40 40" version="1.1" xmlns="http://www.w3.org/2000/svg" xmlns:xlink="http://www.w3.org/1999/xlink" xml:space="preserve" xmlns:serif="http://www.serif.com/" style="fill-rule:evenodd;clip-rule:evenodd;stroke-linejoin:round;stroke-miterlimit:2;">
    <g transform="matrix(0.0726563,0,0,0.0726563,20,20)">
        <g id="baseball.svg" transform="matrix(1,0,0,1,-256,-256)">
            <path d="M444,295.67L443.53,269.6C430.318,269.29 417.167,267.706 404.26,264.87L399.26,282.22C397.642,288.345 392.059,292.644 385.724,292.644C378.044,292.644 371.724,286.324 371.724,278.644C371.724,277.207 371.946,275.779 372.38,274.41L377.38,257.03C364.83,252.427 352.757,246.617 341.33,239.68L330.89,254.45C328.268,258.16 323.998,260.372 319.455,260.372C311.774,260.372 305.453,254.051 305.453,246.37C305.453,243.477 306.35,240.653 308.02,238.29L318.43,223.56C307.418,214.626 297.364,204.572 288.43,193.56L273.71,204C271.347,205.67 268.523,206.567 265.63,206.567C257.949,206.567 251.628,200.246 251.628,192.565C251.628,188.022 253.84,183.752 257.55,181.13L272.29,170.71C265.336,159.285 259.515,147.207 254.91,134.65L237.59,139.65C236.321,140.019 235.006,140.206 233.685,140.206C226.004,140.206 219.684,133.886 219.684,126.205C219.684,119.995 223.816,114.492 229.78,112.76L247.08,107.76C244.737,97.032 243.255,86.134 242.65,75.17C242.537,73.17 242.457,71.17 242.41,69.17L224.19,68.84C216.608,68.699 210.449,62.423 210.45,54.84C135.431,71.468 75.5,128.365 55,202.42C63.27,202.936 69.84,209.796 70,218.08L70.44,242.51C72.02,242.56 73.6,242.62 75.17,242.71C86.134,243.315 97.032,244.797 107.76,247.14L112.76,229.84C114.492,223.876 119.995,219.744 126.205,219.744C133.886,219.744 140.206,226.064 140.206,233.745C140.206,235.066 140.019,236.381 139.65,237.65L134.65,254.97C147.187,259.578 159.244,265.399 170.65,272.35L181,257.61C183.622,253.9 187.892,251.688 192.435,251.688C200.116,251.688 206.437,258.009 206.437,265.69C206.437,268.583 205.54,271.407 203.87,273.77L193.48,288.5C198.985,292.968 204.255,297.718 209.27,302.73C214.285,307.742 219.035,313.013 223.5,318.52L238.23,308.11C240.594,306.441 243.417,305.545 246.31,305.545C253.996,305.545 260.32,311.869 260.32,319.555C260.32,324.103 258.105,328.377 254.39,331L239.63,341.43C246.571,352.854 252.388,364.924 257,377.47L274.38,372.42C275.649,372.051 276.964,371.864 278.285,371.864C285.966,371.864 292.286,378.184 292.286,385.865C292.286,392.075 288.154,397.578 282.19,399.31L264.84,404.31C267.601,416.895 269.175,429.711 269.54,442.59L287.81,442.92C296.584,443.078 303.675,450.426 303.52,459.2C303.514,459.598 303.487,459.995 303.44,460.39C378.561,442.502 437.78,384.195 456.83,309.36C449.712,308.764 444.133,302.812 444,295.67Z" style="fill-rule:nonzero;"/>
            <path d="M301.49,56.2C301.381,63.801 295.101,69.995 287.5,70L287.25,70L270.44,69.7C270.49,71.01 270.54,72.32 270.61,73.63C271.104,82.473 272.253,91.267 274.05,99.94L290.34,95.2C291.28,95.004 292.237,94.905 293.197,94.905C300.877,94.905 307.197,101.225 307.197,108.905C307.197,114.714 303.583,119.945 298.15,122L281.88,126.73C285.517,136.327 289.977,145.591 295.21,154.42L309.05,144.64C311.413,142.97 314.237,142.073 317.13,142.073C324.811,142.073 331.132,148.394 331.132,156.075C331.132,160.618 328.92,164.888 325.21,167.51L311.35,177.3C314.85,181.52 318.557,185.583 322.47,189.49C326.37,193.4 330.47,197.09 334.67,200.59L344.45,186.75C347.079,183.05 351.346,180.847 355.885,180.847C363.58,180.847 369.913,187.18 369.913,194.875C369.913,197.786 369.006,200.627 367.32,203L357.56,216.8C366.387,222.029 375.648,226.489 385.24,230.13L390,213.85C391.732,207.886 397.235,203.754 403.445,203.754C411.126,203.754 417.446,210.074 417.446,217.755C417.446,219.076 417.259,220.391 416.89,221.66L412.16,237.92C422.35,240.041 432.706,241.262 443.11,241.57L442.95,232.57C442.817,224.893 449.023,218.466 456.7,218.33L456.95,218.33C457.819,218.336 458.686,218.42 459.54,218.58C443.989,137.717 381.822,73.383 301.54,55.07C301.48,55.47 301.5,55.83 301.49,56.2ZM208.44,457.55C208.598,448.776 215.946,441.685 224.72,441.84L241.48,442.13C241.121,432.062 239.91,422.043 237.86,412.18L221.6,416.9C220.331,417.268 219.016,417.455 217.695,417.455C210.012,417.455 203.69,411.133 203.69,403.45C203.69,397.237 207.824,391.732 213.79,390L230,385.3C226.363,375.706 221.903,366.445 216.67,357.62L202.87,367.38C200.507,369.05 197.683,369.947 194.79,369.947C187.109,369.947 180.788,363.626 180.788,355.945C180.788,351.402 183,347.132 186.71,344.51L200.55,334.73C197.05,330.51 193.36,326.43 189.45,322.53C185.54,318.63 181.45,314.91 177.26,311.41L167.47,325.27C164.848,328.98 160.578,331.192 156.035,331.192C148.354,331.192 142.033,324.871 142.033,317.19C142.033,314.297 142.93,311.473 144.6,309.11L154.38,295.27C145.554,290.033 136.289,285.573 126.69,281.94L122,298.21C120.268,304.176 114.763,308.31 108.55,308.31C100.867,308.31 94.545,301.988 94.545,294.305C94.545,292.984 94.732,291.669 95.1,290.4L99.83,274.11C91.158,272.308 82.364,271.158 73.52,270.67C72.63,270.62 71.73,270.59 70.84,270.55L71,281.14C71.155,289.914 64.064,297.262 55.29,297.42L55,297.42C53.671,297.414 52.347,297.243 51.06,296.91C66.43,377.814 128.461,442.292 208.71,460.78C208.509,459.716 208.418,458.633 208.44,457.55Z" style="fill-rule:nonzero;"/>
        </g>
        <g id="baseball.svg1" serif:id="baseball.svg">
        </g>
    </g>
</svg>
