<?xml version="1.0"?><svg fill="#000000" xmlns="http://www.w3.org/2000/svg"  viewBox="0 0 30 30" width="30px" height="30px">    <path d="M 13.5 3 A 2.5 2.5 0 0 0 11 5.5 A 2.5 2.5 0 0 0 13.5 8 A 2.5 2.5 0 0 0 16 5.5 A 2.5 2.5 0 0 0 13.5 3 z M 23 4 A 2 2 0 0 0 21.269531 5 L 17.949219 5 C 17.967219 5.166 18 5.329 18 5.5 C 18 6.029 17.892609 6.529 17.724609 7 L 21.271484 7 A 2 2 0 0 0 23 8 A 2 2 0 0 0 25 6 A 2 2 0 0 0 23 4 z M 9.1582031 6.6191406 L 6.3964844 13.154297 A 2.5 2.5 0 0 0 6 14.5 A 2.5 2.5 0 0 0 6.3710938 15.806641 L 6.3710938 15.810547 L 7.8925781 19.304688 L 7.0175781 25.808594 A 1.0001 1.0001 0 0 0 8.9609375 26.275391 L 10.960938 19.275391 A 1.0001 1.0001 0 0 0 10.998047 18.957031 L 11 18.953125 L 10.800781 15.478516 L 11.998047 12.679688 L 13.376953 13.78125 A 1.0001 1.0001 0 0 0 14.599609 13.800781 L 17.214844 11.839844 A 2 2 0 0 0 18 12 A 2 2 0 0 0 20 10 A 2 2 0 0 0 18 8 A 2 2 0 0 0 16 10 A 2 2 0 0 0 16.015625 10.216797 L 14 11.265625 L 13.158203 9.9667969 C 11.220203 9.8177969 9.6322031 8.4491406 9.1582031 6.6191406 z M 12.955078 18.710938 L 12.972656 18.990234 C 12.978656 19.127234 12.991766 19.449219 12.884766 19.824219 L 11.818359 23.554688 L 13.0625 26.355469 L 13.072266 26.347656 C 13.221266 26.741656 13.591 27 14 27 C 14.091 27 14.184391 26.987891 14.275391 26.962891 C 14.806391 26.810891 15.113891 26.256562 14.962891 25.726562 L 12.960938 18.726562 C 12.959938 18.721563 12.957078 18.715937 12.955078 18.710938 z"/></svg>