<?xml version="1.0"?><svg fill="#000000" xmlns="http://www.w3.org/2000/svg"  viewBox="0 0 30 30" width="30px" height="30px">    <path d="M 9 3 C 5.172 3 2 6.134 2 10 C 2 11.623 2.5349062 13.088781 3.5039062 14.300781 C 4.4729063 15.512781 6 18.451 6 22 L 6 24.972656 C 6 26.092656 6.9073438 27 8.0273438 27 C 9.1133438 27 10.050781 26.152406 10.050781 25.066406 C 10.050781 23.497571 10.230407 22.151932 10.527344 21 L 11 21 C 11.552 21 12 20.552 12 20 L 12 19 C 12 18.700254 11.861466 18.439192 11.652344 18.255859 C 12.462311 16.933255 13.470912 16.140839 14.425781 15.828125 C 16.480781 15.155125 19.705 14 22 14 L 22 6 C 18 6 12.828 3 9 3 z M 27 5 A 1 1 0 0 0 26.755859 5.03125 C 25.990508 5.1821173 25.817267 6 24 6 L 24 10 L 24 14 C 25.817267 14 25.990508 14.817883 26.755859 14.96875 A 1 1 0 0 0 27 15 A 1 1 0 0 0 28 14 L 28 10 L 28 6 A 1 1 0 0 0 27 5 z M 9 7 C 10.657 7 12 8.343 12 10 C 12 11.657 10.657 13 9 13 C 7.343 13 6 11.657 6 10 C 6 8.343 7.343 7 9 7 z"/></svg>