<?xml version="1.0" encoding="UTF-8" standalone="no"?>
<!DOCTYPE svg PUBLIC "-//W3C//DTD SVG 1.1//EN" "http://www.w3.org/Graphics/SVG/1.1/DTD/svg11.dtd">
<svg width="100%" height="100%" viewBox="0 0 40 40" version="1.1" xmlns="http://www.w3.org/2000/svg" xmlns:xlink="http://www.w3.org/1999/xlink" xml:space="preserve" xmlns:serif="http://www.serif.com/" style="fill-rule:evenodd;clip-rule:evenodd;stroke-linejoin:round;stroke-miterlimit:2;">
    <g transform="matrix(0.078125,0,0,0.078125,20,20)">
        <g id="volume-high.svg" transform="matrix(1,0,0,1,-256,-256)">
            <path d="M232,416C226.889,416 221.91,414.359 217.8,411.32C217.572,411.161 217.351,410.991 217.14,410.81L125.76,336L56,336C42.834,336 32,325.166 32,312L32,200C32,186.834 42.834,176 56,176L125.75,176L217.12,101.19C217.331,101.009 217.552,100.839 217.78,100.68C221.901,97.649 226.885,96.014 232,96.014C245.161,96.014 255.992,106.839 256,120L256,392C256,405.166 245.166,416 232,416ZM320,336C311.224,335.998 304.003,328.776 304.003,320C304.003,317.503 304.588,315.041 305.71,312.81C315.2,293.94 320.01,274.81 320.01,256C320.01,236.62 315.35,218.06 305.76,199.27C304.695,197.086 304.142,194.688 304.142,192.259C304.142,183.482 311.365,176.259 320.142,176.259C326.043,176.259 331.483,179.523 334.26,184.73C346.19,208.12 352,231.44 352,256C352,279.86 346,303.81 334.3,327.19C331.586,332.585 326.039,336.002 320,336Z" style="fill-rule:nonzero;"/>
            <path d="M368,384C367.999,384 367.998,384 367.996,384C359.219,384 351.996,376.777 351.996,368C351.996,365.192 352.736,362.432 354.14,360C373.05,327.09 384,299.51 384,256C384,211.83 373.07,184.44 354.18,152.06C352.82,149.657 352.106,146.942 352.106,144.181C352.106,135.404 359.328,128.181 368.106,128.181C373.716,128.181 378.931,131.132 381.82,135.94C402.92,172.11 416,204.81 416,256C416,306.43 402.94,339.29 381.87,376C379.013,380.948 373.714,384.005 368,384Z" style="fill-rule:nonzero;"/>
            <path d="M416,432C407.227,431.993 400.012,424.773 400.012,416C400.012,412.897 400.915,409.859 402.61,407.26C429.85,365.47 448,323.76 448,256C448,189.5 429.82,147.38 402.51,104.61C400.87,102.038 399.998,99.05 399.998,96C399.998,87.216 407.226,79.988 416.01,79.988C421.473,79.988 426.572,82.784 429.51,87.39C459.81,134.89 480,181.74 480,256C480,320.75 465.34,369.63 429.4,424.74C426.45,429.264 421.401,431.999 416,432Z" style="fill-rule:nonzero;"/>
        </g>
        <g id="volume-high.svg1" serif:id="volume-high.svg">
        </g>
    </g>
</svg>
