<?xml version="1.0" encoding="UTF-8" standalone="no"?>
<!DOCTYPE svg PUBLIC "-//W3C//DTD SVG 1.1//EN" "http://www.w3.org/Graphics/SVG/1.1/DTD/svg11.dtd">
<svg width="100%" height="100%" viewBox="0 0 40 40" version="1.1" xmlns="http://www.w3.org/2000/svg" xmlns:xlink="http://www.w3.org/1999/xlink" xml:space="preserve" xmlns:serif="http://www.serif.com/" style="fill-rule:evenodd;clip-rule:evenodd;stroke-linejoin:round;stroke-miterlimit:2;">
    <g transform="matrix(0.0726563,0,0,0.0726563,20,20)">
        <g id="gift.svg" transform="matrix(1,0,0,1,-256,-256)">
            <path d="M200,144L240,144L240,104C240,82.057 221.943,64 200,64C178.057,64 160,82.057 160,104C160,125.943 178.057,144 200,144ZM352,104C352,82.057 333.943,64 312,64C290.057,64 272,82.057 272,104L272,144L312,144C333.943,144 352,125.943 352,104Z" style="fill:none;fill-rule:nonzero;"/>
            <path d="M80,416C80,451.109 108.891,480 144,480L236,480C238.194,480 240,478.194 240,476L240,292C240,289.806 238.194,288 236,288L88,288C83.611,288 80,291.611 80,296L80,416ZM240,252L240,144L272,144L272,252C272,254.194 273.806,256 276,256L416,256C421.451,256 426.862,255.07 432,253.25C451.114,246.464 463.971,228.283 464,208L464,192C464,165.668 442.332,144 416,144L375.46,144C374.375,143.983 373.492,143.085 373.492,142C373.492,141.649 373.584,141.304 373.76,141C380.339,129.892 383.811,117.217 383.811,104.308C383.811,64.81 351.309,32.308 311.811,32.308C290.182,32.308 269.665,42.054 256,58.82C242.335,42.054 221.818,32.308 200.189,32.308C160.691,32.308 128.189,64.81 128.189,104.308C128.189,117.217 131.661,129.892 138.24,141C138.416,141.304 138.508,141.649 138.508,142C138.508,143.085 137.625,143.983 136.54,144L96,144C69.668,144 48,165.668 48,192L48,208C48.029,228.283 60.886,246.464 80,253.25C85.138,255.07 90.549,256 96,256L236,256C238.194,256 240,254.194 240,252ZM272,104C272,82.057 290.057,64 312,64C333.943,64 352,82.057 352,104C352,125.943 333.943,144 312,144L272,144L272,104ZM197.14,64.1C198.092,64.032 199.046,63.998 200,63.998C221.943,63.998 240,82.054 240,103.998C240,103.998 240,103.999 240,104L240,144L200,144C178.096,143.944 160.103,125.905 160.103,104C160.103,83.173 176.37,65.653 197.14,64.11L197.14,64.1ZM276,480L368,480C403.109,480 432,451.109 432,416L432,296C432,291.611 428.389,288 424,288L276,288C273.806,288 272,289.806 272,292L272,476C272,478.194 273.806,480 276,480Z" style="fill-rule:nonzero;"/>
        </g>
        <g id="gift.svg1" serif:id="gift.svg">
        </g>
    </g>
</svg>
