<?xml version="1.0" encoding="UTF-8" standalone="no"?>
<!DOCTYPE svg PUBLIC "-//W3C//DTD SVG 1.1//EN" "http://www.w3.org/Graphics/SVG/1.1/DTD/svg11.dtd">
<svg width="100%" height="100%" viewBox="0 0 40 40" version="1.1" xmlns="http://www.w3.org/2000/svg" xmlns:xlink="http://www.w3.org/1999/xlink" xml:space="preserve" xmlns:serif="http://www.serif.com/" style="fill-rule:evenodd;clip-rule:evenodd;stroke-linejoin:round;stroke-miterlimit:2;">
    <g transform="matrix(0.0726563,0,0,0.0726563,20,20)">
        <g id="hand-left.svg" transform="matrix(1,0,0,1,-256,-256)">
            <path d="M432.8,211.44C417.28,202.62 397.89,209.16 389.49,225.12L348.11,309.53C346.51,312.828 342.576,314.338 339.18,312.96C336.517,311.9 334.763,309.306 334.77,306.44L334.77,72C334.77,58.09 321.92,48 308,48C294.08,48 282,58.09 282,72L282,228.64C282.069,234.685 277.25,239.758 271.21,240C271.14,240.001 271.07,240.002 271,240.002C264.966,240.002 260,235.036 260,229.002C260,229.001 260,229.001 260,229L260,24C260,10.09 249.06,0 235.14,0C221.22,0 210,10.09 210,24L210,228.64C210.069,234.685 205.25,239.758 199.21,240C199.14,240.001 199.07,240.002 199,240.002C192.966,240.002 188,235.036 188,229.002C188,229.001 188,229.001 188,229L188,56C188,42.09 175.92,32 162,32C148.08,32 136,43.09 136,57L136,244.64C136.069,250.685 131.25,255.758 125.21,256C125.14,256.001 125.07,256.002 125,256.002C118.966,256.002 114,251.036 114,245.002C114,245.001 114,245.001 114,245L114,120C114,106.09 102.92,96 89,96C75.08,96 63.88,106.22 64,120L64,336C64,453.41 136,512 224,512L240,512C328,512 355.71,472.4 376,424L444.71,255C451.33,237 448.31,220.25 432.8,211.44Z" style="fill-rule:nonzero;"/>
        </g>
        <g id="hand-left.svg1" serif:id="hand-left.svg">
        </g>
    </g>
</svg>
