<?xml version="1.0" encoding="UTF-8" standalone="no"?>
<!DOCTYPE svg PUBLIC "-//W3C//DTD SVG 1.1//EN" "http://www.w3.org/Graphics/SVG/1.1/DTD/svg11.dtd">
<svg width="100%" height="100%" viewBox="0 0 40 40" version="1.1" xmlns="http://www.w3.org/2000/svg" xmlns:xlink="http://www.w3.org/1999/xlink" xml:space="preserve" xmlns:serif="http://www.serif.com/" style="fill-rule:evenodd;clip-rule:evenodd;stroke-linejoin:round;stroke-miterlimit:2;">
    <g transform="matrix(0.0726563,0,0,0.0726563,20,20)">
        <g id="call.svg" transform="matrix(1,0,0,1,-256,-256)">
            <path d="M391,480C371.48,480 344.06,472.94 303,450C253.07,422 214.45,396.15 164.79,346.62C116.91,298.77 93.61,267.79 61,208.45C24.16,141.45 30.44,106.33 37.46,91.32C45.82,73.38 58.16,62.65 74.11,52C83.169,46.064 92.757,40.976 102.75,36.8C103.75,36.37 104.68,35.96 105.51,35.59C110.46,33.36 117.96,29.99 127.46,33.59C133.8,35.97 139.46,40.84 148.32,49.59C166.49,67.51 191.32,107.42 200.48,127.02C206.63,140.23 210.7,148.95 210.71,158.73C210.71,170.18 204.95,179.01 197.96,188.54C196.65,190.33 195.35,192.04 194.09,193.7C186.48,203.7 184.81,206.59 185.91,211.75C188.14,222.12 204.77,252.99 232.1,280.26C259.43,307.53 289.41,323.11 299.82,325.33C305.2,326.48 308.15,324.74 318.47,316.86C319.95,315.73 321.47,314.56 323.06,313.39C333.72,305.46 342.14,299.85 353.32,299.85L353.38,299.85C363.11,299.85 371.44,304.07 385.24,311.03C403.24,320.11 444.35,344.62 462.38,362.81C471.15,371.65 476.04,377.29 478.43,383.62C482.03,393.15 478.64,400.62 476.43,405.62C476.06,406.45 475.65,407.36 475.22,408.37C471.011,418.345 465.893,427.913 459.93,436.95C449.3,452.85 438.53,465.16 420.55,473.53C411.318,477.897 401.212,480.109 391,480Z" style="fill-rule:nonzero;"/>
        </g>
        <g id="call.svg1" serif:id="call.svg">
        </g>
    </g>
</svg>
