<?xml version="1.0" encoding="UTF-8" standalone="no"?>
<!DOCTYPE svg PUBLIC "-//W3C//DTD SVG 1.1//EN" "http://www.w3.org/Graphics/SVG/1.1/DTD/svg11.dtd">
<svg width="100%" height="100%" viewBox="0 0 40 40" version="1.1" xmlns="http://www.w3.org/2000/svg" xmlns:xlink="http://www.w3.org/1999/xlink" xml:space="preserve" xmlns:serif="http://www.serif.com/" style="fill-rule:evenodd;clip-rule:evenodd;stroke-linejoin:round;stroke-miterlimit:2;">
    <g transform="matrix(0.0726563,0,0,0.0726563,20,20)">
        <g id="basketball.svg" transform="matrix(1,0,0,1,-256,-256)">
            <path d="M256,233.37L290.45,198.92C258.083,161.31 240.288,113.29 240.33,63.67C240.33,58.67 240.52,53.62 240.87,48.67C196.556,51.793 154.402,69.093 120.67,98L256,233.37ZM313.14,176.23L391.33,98C358.087,69.505 316.647,52.275 273,48.8C272.59,53.7 272.36,58.66 272.36,63.67C272.319,104.804 286.761,144.668 313.14,176.23ZM335.77,198.86C367.328,225.249 407.192,239.703 448.33,239.67C453.33,239.67 458.33,239.44 463.2,239.03C459.732,195.373 442.501,153.921 414,120.67L335.77,198.86ZM176.23,313.14C144.673,286.749 104.808,272.296 63.67,272.33C58.657,272.33 53.7,272.543 48.8,272.97C52.268,316.627 69.499,358.079 98,391.33L176.23,313.14ZM256,278.63L221.55,313.08C253.917,350.69 271.712,398.71 271.67,448.33C271.67,453.33 271.48,458.38 271.13,463.33C315.444,460.209 357.599,442.909 391.33,414L256,278.63ZM448.33,271.67C398.71,271.712 350.69,253.917 313.08,221.55L278.63,256L414,391.33C442.929,357.606 460.25,315.451 463.39,271.13C458.38,271.48 453.37,271.67 448.33,271.67ZM233.37,256L98,120.67C69.069,154.393 51.747,196.549 48.61,240.87C53.61,240.52 58.61,240.33 63.61,240.33C113.23,240.288 161.25,258.083 198.86,290.45L233.37,256ZM120.67,414C153.913,442.495 195.353,459.725 239,463.2C239.42,458.3 239.633,453.343 239.64,448.33C239.674,407.192 225.221,367.327 198.83,335.77L120.67,414Z" style="fill-rule:nonzero;"/>
        </g>
        <g id="basketball.svg1" serif:id="basketball.svg">
        </g>
    </g>
</svg>
