<?xml version="1.0" encoding="UTF-8" standalone="no"?>
<!DOCTYPE svg PUBLIC "-//W3C//DTD SVG 1.1//EN" "http://www.w3.org/Graphics/SVG/1.1/DTD/svg11.dtd">
<svg width="100%" height="100%" viewBox="0 0 40 40" version="1.1" xmlns="http://www.w3.org/2000/svg" xmlns:xlink="http://www.w3.org/1999/xlink" xml:space="preserve" xmlns:serif="http://www.serif.com/" style="fill-rule:evenodd;clip-rule:evenodd;stroke-linejoin:round;stroke-miterlimit:2;">
    <g transform="matrix(0.0726563,0,0,0.0726563,20,20)">
        <g id="book.svg" transform="matrix(1,0,0,1,-256,-256)">
            <path d="M202.24,74C166.11,56.75 115.61,48.3 48,48C41.625,47.913 35.372,49.773 30.08,53.33C21.267,59.287 15.981,69.262 16,79.9L16,366C16,385.34 29.76,399.93 48,399.93C119.07,399.93 190.36,406.57 233.06,446.93C233.824,447.655 234.837,448.06 235.89,448.06C238.145,448.06 240,446.204 240,443.95C240,443.943 240,443.937 240,443.93L240,106.82C240.004,102.221 238.01,97.839 234.54,94.82C224.759,86.458 213.894,79.455 202.24,74ZM481.92,53.3C476.626,49.752 470.373,47.903 464,48C396.39,48.3 345.89,56.71 309.76,74C298.106,79.445 287.239,86.435 277.45,94.78C273.988,97.804 271.999,102.183 272,106.78L272,443.91C272,443.911 272,443.912 272,443.912C272,446.068 273.774,447.842 275.93,447.842C276.958,447.842 277.946,447.439 278.68,446.72C304.35,421.22 349.4,399.9 464.04,399.91C481.595,399.91 496.04,385.465 496.04,367.91L496.04,79.91C496.064,69.251 490.76,59.256 481.92,53.3Z" style="fill-rule:nonzero;"/>
        </g>
        <g id="book.svg1" serif:id="book.svg">
        </g>
    </g>
</svg>
