<?xml version="1.0" encoding="UTF-8" standalone="no"?>
<!DOCTYPE svg PUBLIC "-//W3C//DTD SVG 1.1//EN" "http://www.w3.org/Graphics/SVG/1.1/DTD/svg11.dtd">
<svg width="100%" height="100%" viewBox="0 0 40 40" version="1.1" xmlns="http://www.w3.org/2000/svg" xmlns:xlink="http://www.w3.org/1999/xlink" xml:space="preserve" xmlns:serif="http://www.serif.com/" style="fill-rule:evenodd;clip-rule:evenodd;stroke-linejoin:round;stroke-miterlimit:2;">
    <g transform="matrix(0.0731124,0,0,0.0731124,20,20)">
        <g id="ribbon.svg" transform="matrix(1,0,0,1,-256,-256)">
            <path d="M269,335.61C264.78,335.923 260.52,336.08 256.22,336.08C250.99,336.08 245.82,335.84 240.71,335.39C189.582,330.858 142.909,304.192 113.04,262.45C112.292,261.383 111.068,260.746 109.765,260.746C108.315,260.746 106.975,261.534 106.27,262.8L34.27,392.2C31.53,397.2 31.1,403.2 33.99,408.08C37.045,412.994 42.434,415.993 48.22,416L126.22,416C131.745,415.796 136.967,418.606 139.84,423.33L178.5,488C181.374,492.874 186.592,495.911 192.25,496C198.19,495.67 204.34,491.81 206.81,486.4L272.92,341.25C273.155,340.732 273.276,340.169 273.276,339.6C273.276,337.406 271.47,335.6 269.276,335.6C269.184,335.6 269.092,335.604 269,335.61ZM477.64,391.88L406.11,262.71C405.402,261.454 404.067,260.674 402.625,260.674C401.334,260.674 400.12,261.299 399.37,262.35C379.701,289.908 352.511,311.234 321.06,323.77C317.199,325.292 314.073,328.249 312.34,332.02L275.48,413.12C274.52,415.214 274.52,417.626 275.48,419.72L305.75,486.31C308.2,491.72 314.34,495.67 320.27,496C325.932,495.86 331.13,492.78 333.97,487.88L372.5,423.3C375.39,418.45 380.63,415.97 386.28,416L465.05,416C471.72,416 476.77,412.52 479.05,406C480.671,401.317 480.155,396.15 477.64,391.88Z" style="fill-rule:nonzero;"/>
            <ellipse cx="256.26" cy="160" rx="48.01" ry="48"/>
            <path d="M256.26,16C176.84,16 112.26,80.59 112.26,160C112.26,239.41 176.87,304 256.26,304C335.65,304 400.26,239.4 400.26,160C400.26,80.6 335.67,16 256.26,16ZM256.26,240C212.373,240 176.26,203.887 176.26,160C176.26,116.113 212.373,80 256.26,80C300.147,80 336.26,116.113 336.26,160C336.205,203.866 300.126,239.945 256.26,240Z" style="fill-rule:nonzero;"/>
        </g>
        <g id="ribbon.svg1" serif:id="ribbon.svg">
        </g>
    </g>
</svg>
