<?xml version="1.0" encoding="UTF-8" standalone="no"?>
<!DOCTYPE svg PUBLIC "-//W3C//DTD SVG 1.1//EN" "http://www.w3.org/Graphics/SVG/1.1/DTD/svg11.dtd">
<svg width="100%" height="100%" viewBox="0 0 40 40" version="1.1" xmlns="http://www.w3.org/2000/svg" xmlns:xlink="http://www.w3.org/1999/xlink" xml:space="preserve" xmlns:serif="http://www.serif.com/" style="fill-rule:evenodd;clip-rule:evenodd;stroke-linejoin:round;stroke-miterlimit:2;">
    <g transform="matrix(0.0731124,0,0,0.0731124,20,20)">
        <g id="save.svg" transform="matrix(1,0,0,1,-256,-256)">
            <path d="M465.94,119.76L392.24,46.06C383.262,37.032 371.032,31.965 358.3,32L96,32C60.891,32 32,60.891 32,96L32,416C32,451.109 60.891,480 96,480L416,480C451.109,480 480,451.109 480,416L480,153.7C480.035,140.968 474.968,128.738 465.94,119.76ZM120,112L296,112C300.389,112 304,115.611 304,120L304,168C304,172.389 300.389,176 296,176L120,176C115.611,176 112,172.389 112,168L112,120C112,115.611 115.611,112 120,112ZM259.75,431.91C258.5,431.969 257.249,431.998 255.998,431.998C212.111,431.998 175.998,395.885 175.998,351.998C175.998,308.111 212.111,271.998 255.998,271.998C299.885,271.998 335.998,308.111 335.998,351.998C335.998,353.249 335.969,354.5 335.91,355.75C333.957,396.759 300.759,429.957 259.75,431.91Z" style="fill-rule:nonzero;"/>
            <circle cx="256" cy="352" r="48"/>
        </g>
        <g id="save.svg1" serif:id="save.svg">
        </g>
    </g>
</svg>
