<?xml version="1.0" encoding="UTF-8" standalone="no"?>
<!DOCTYPE svg PUBLIC "-//W3C//DTD SVG 1.1//EN" "http://www.w3.org/Graphics/SVG/1.1/DTD/svg11.dtd">
<svg width="100%" height="100%" viewBox="0 0 40 40" version="1.1" xmlns="http://www.w3.org/2000/svg" xmlns:xlink="http://www.w3.org/1999/xlink" xml:space="preserve" xmlns:serif="http://www.serif.com/" style="fill-rule:evenodd;clip-rule:evenodd;stroke-linejoin:round;stroke-miterlimit:2;">
    <g transform="matrix(0.0726563,0,0,0.0726563,20,20)">
        <g id="desktop.svg" transform="matrix(1,0,0,1,-256,-256)">
            <path d="M16,352C16.027,378.322 37.678,399.973 64,400L197.88,400L193.88,432L144,432C135.223,432 128,439.223 128,448C128,456.777 135.223,464 144,464L368,464C376.777,464 384,456.777 384,448C384,439.223 376.777,432 368,432L318.12,432L314.12,400L448,400C474.322,399.973 495.973,378.322 496,352L496,304L16,304L16,352ZM256,336C264.777,336 272,343.223 272,352C272,360.777 264.777,368 256,368C247.223,368 240,360.777 240,352C240,343.223 247.223,336 256,336ZM496,96C495.973,69.678 474.322,48.027 448,48L64,48C37.678,48.027 16.027,69.678 16,96L16,288L496,288L496,96Z" style="fill-rule:nonzero;"/>
        </g>
        <g id="desktop.svg1" serif:id="desktop.svg">
        </g>
    </g>
</svg>
