<?xml version="1.0" encoding="UTF-8" standalone="no"?>
<!DOCTYPE svg PUBLIC "-//W3C//DTD SVG 1.1//EN" "http://www.w3.org/Graphics/SVG/1.1/DTD/svg11.dtd">
<svg width="100%" height="100%" viewBox="0 0 40 40" version="1.1" xmlns="http://www.w3.org/2000/svg" xmlns:xlink="http://www.w3.org/1999/xlink" xml:space="preserve" xmlns:serif="http://www.serif.com/" style="fill-rule:evenodd;clip-rule:evenodd;stroke-linejoin:round;stroke-miterlimit:2;">
    <g transform="matrix(0.0725591,0,0,0.0725591,20,20)">
        <g id="print.svg" transform="matrix(1,0,0,1,-256,-256)">
            <path d="M408,112L106,112C74.182,112 48,138.182 48,170L48,328C48,358.721 73.279,384 104,384L112,384L112,423.68C112,445.799 130.201,464 152.32,464L359.68,464C381.799,464 400,445.799 400,423.68L400,384L408,384C438.721,384 464,358.721 464,328L464,168C464,137.279 438.721,112 408,112ZM368,423.68C367.984,428.238 364.238,431.984 359.68,432L152.32,432C147.762,431.984 144.016,428.238 144,423.68L144,264.32C144.016,259.762 147.762,256.016 152.32,256L359.68,256C364.238,256.016 367.984,259.762 368,264.32L368,423.68ZM394,207.92C393.36,207.971 392.719,207.997 392.077,207.997C378.911,207.997 368.077,197.163 368.077,183.997C368.077,170.831 378.911,159.997 392.077,159.997C405.243,159.997 416.077,170.831 416.077,183.997C416.077,184.639 416.051,185.28 416,185.92C415.061,197.607 405.687,206.981 394,207.92ZM344,48L168,48C140.303,48.041 116.575,68.592 112.58,96L399.42,96C395.425,68.592 371.697,48.041 344,48Z" style="fill-rule:nonzero;"/>
        </g>
        <g id="print.svg1" serif:id="print.svg">
        </g>
    </g>
</svg>
