<?xml version="1.0" encoding="UTF-8" standalone="no"?>
<!DOCTYPE svg PUBLIC "-//W3C//DTD SVG 1.1//EN" "http://www.w3.org/Graphics/SVG/1.1/DTD/svg11.dtd">
<svg width="100%" height="100%" viewBox="0 0 40 40" version="1.1" xmlns="http://www.w3.org/2000/svg" xmlns:xlink="http://www.w3.org/1999/xlink" xml:space="preserve" xmlns:serif="http://www.serif.com/" style="fill-rule:evenodd;clip-rule:evenodd;stroke-linejoin:round;stroke-miterlimit:2;">
    <g transform="matrix(0.0726563,0,0,0.0726563,20,20)">
        <g id="footsteps.svg" transform="matrix(1,0,0,1,-256,-256)">
            <path d="M133.83,361.27C111.22,361.27 92.83,353.1 79.04,336.88C65.25,320.66 56.2,296.59 50.93,261.57C43.17,209.96 50.87,166.46 72.61,139.09C85.41,122.97 102.21,113.65 121.19,112.15C137.44,110.85 161.73,117.44 185.19,156.15C199.88,180.39 211.05,212.59 215.84,244.49C221.63,283 217.32,311.35 202.66,331.14C191.02,346.86 173.12,356.6 149.45,360.14C144.278,360.9 139.057,361.277 133.83,361.27ZM173,496C159.79,496 146.4,491.77 134.34,483.64C116.944,471.852 104.89,453.656 100.82,433.04C97.97,418.38 99.68,406.73 106.04,397.4C116.37,382.25 134.91,378.84 154.53,375.22C156.6,374.84 158.7,374.46 160.83,374.05C165.35,373.19 169.97,372.05 174.45,370.94C191.23,366.8 208.59,362.51 222.92,372.69C232.51,379.49 237.92,391.05 239.54,408.01C241.38,427.58 237.18,447.11 227.71,463.01C217.52,480.12 202.24,491.43 184.71,494.87C180.852,495.623 176.931,496.001 173,496ZM378.17,265.27C372.948,265.252 367.734,264.851 362.57,264.07C338.91,260.57 321.01,250.82 309.37,235.07C294.71,215.28 290.37,186.94 296.19,148.42C300.98,116.49 312.12,84.32 326.74,60.17C350.08,21.6 374.4,14.91 390.74,16.09C409.66,17.47 426.43,26.66 439.25,42.69C461.14,70.06 468.9,113.69 461.11,165.53C455.84,200.53 446.91,224.48 433,240.84C419.09,257.2 400.78,265.27 378.17,265.27ZM339,400C335.079,400 331.168,399.621 327.32,398.87C309.76,395.43 294.48,384.12 284.32,367.01C274.85,351.11 270.65,331.58 272.49,312.01C274.09,295.01 279.49,283.49 289.11,276.68C303.44,266.51 320.8,270.79 337.58,274.94C342.06,276.04 346.68,277.18 351.2,278.05L357.49,279.22C377.12,282.83 395.66,286.22 405.99,301.39C412.35,310.72 414.06,322.39 411.21,337.03C407.144,357.65 395.089,375.85 377.69,387.64C365.56,395.78 352.17,400 339,400Z" style="fill-rule:nonzero;"/>
        </g>
        <g id="footsteps.svg1" serif:id="footsteps.svg">
        </g>
    </g>
</svg>
